<?xml version="1.0" encoding="UTF-8" standalone="no"?>
<!-- Created with Inkscape (http://www.inkscape.org/) -->

<svg
   xmlns:dc="http://purl.org/dc/elements/1.1/"
   xmlns:cc="http://creativecommons.org/ns#"
   xmlns:rdf="http://www.w3.org/1999/02/22-rdf-syntax-ns#"
   xmlns:svg="http://www.w3.org/2000/svg"
   xmlns="http://www.w3.org/2000/svg"
   xmlns:sodipodi="http://sodipodi.sourceforge.net/DTD/sodipodi-0.dtd"
   xmlns:inkscape="http://www.inkscape.org/namespaces/inkscape"
   width="356.26501mm"
   height="86.264999mm"
   viewBox="0 0 356.26501 86.264999"
   version="1.1"
   id="svg3302"
   inkscape:version="0.92.2 (5c3e80d, 2017-08-06)"
   sodipodi:docname="ECM-408-Uno-Back-Panel.svg">
  <defs
     id="defs3296" />
  <sodipodi:namedview
     id="base"
     pagecolor="#ffffff"
     bordercolor="#666666"
     borderopacity="1.0"
     inkscape:pageopacity="0.0"
     inkscape:pageshadow="2"
     inkscape:zoom="1.4"
     inkscape:cx="124.72062"
     inkscape:cy="140"
     inkscape:document-units="mm"
     inkscape:current-layer="layer1"
     showgrid="false"
     inkscape:window-width="1920"
     inkscape:window-height="1027"
     inkscape:window-x="-8"
     inkscape:window-y="-8"
     inkscape:window-maximized="1" />
  <metadata
     id="metadata3299">
    <rdf:RDF>
      <cc:Work
         rdf:about="">
        <dc:format>image/svg+xml</dc:format>
        <dc:type
           rdf:resource="http://purl.org/dc/dcmitype/StillImage" />
        <dc:title></dc:title>
      </cc:Work>
    </rdf:RDF>
  </metadata>
  <g
     inkscape:label="Layer 1"
     inkscape:groupmode="layer"
     id="layer1"
     transform="translate(0,-210.735)">
    <path
       inkscape:connector-curvature="0"
       d="M 0.13250732,213.8675 H 21.073687 v -3 H 42.01486 v 3 h 20.941176 v -3 h 20.941175 v 3 h 20.941179 v -3 h 20.94118 v 3 h 20.94118 v -3 h 20.94117 v 3 h 20.94118 v -3 h 20.94118 v 3 h 20.94117 v -3 h 20.94118 v 3 h 20.94118 v -3 H 293.309 v 3 h 20.94116 v -3 h 20.94119 v 3 h 20.94116 v 24.66666 h -3.00001 v 27.66667 h 3.00001 v 27.66666 h -20.94116 v 3.00001 h -20.94119 v -3.00001 H 293.309 v 3.00001 h -20.94119 v -3.00001 h -20.94118 v 3.00001 h -20.94118 v -3.00001 h -20.94117 v 3.00001 H 188.6031 v -3.00001 h -20.94118 v 3.00001 h -20.94117 v -3.00001 h -20.94118 v 3.00001 h -20.94118 v -3.00001 H 83.897211 v 3.00001 H 62.956036 v -3.00001 H 42.01486 v 3.00001 H 21.073687 v -3.00001 H 0.13250732 V 266.20083 H 3.1325073 V 238.53416 H 0.13250732 Z"
       style="fill:none;stroke:#0000ff;stroke-width:0.1;stroke-miterlimit:4;stroke-dasharray:none;stroke-opacity:1"
       id="path2719" />
    <path
       inkscape:connector-curvature="0"
       d="m 32.732507,287.86748 h -9.9 V 274.8675 h 9.9 z"
       style="fill:none;stroke:#0000ff;stroke-width:0.1;stroke-miterlimit:4;stroke-dasharray:none;stroke-opacity:1"
       id="path2723" />
    <path
       inkscape:connector-curvature="0"
       d="M 64.332507,287.86748 H 51.332506 V 274.8675 h 13.000001 z"
       style="fill:none;stroke:#0000ff;stroke-width:0.1;stroke-miterlimit:4;stroke-dasharray:none;stroke-opacity:1"
       id="path2725" />
  </g>
</svg>
