<?xml version="1.0" encoding="UTF-8" standalone="no"?>
<!-- Created with Inkscape (http://www.inkscape.org/) -->

<svg
   xmlns:dc="http://purl.org/dc/elements/1.1/"
   xmlns:cc="http://creativecommons.org/ns#"
   xmlns:rdf="http://www.w3.org/1999/02/22-rdf-syntax-ns#"
   xmlns:svg="http://www.w3.org/2000/svg"
   xmlns="http://www.w3.org/2000/svg"
   xmlns:sodipodi="http://sodipodi.sourceforge.net/DTD/sodipodi-0.dtd"
   xmlns:inkscape="http://www.inkscape.org/namespaces/inkscape"
   width="356.26501mm"
   height="263.96201mm"
   viewBox="0 0 356.26501 263.96201"
   version="1.1"
   id="svg2148"
   inkscape:version="0.92.2 (5c3e80d, 2017-08-06)"
   sodipodi:docname="ECM-408-Front-Left-Right-Panels.svg">
  <defs
     id="defs2142" />
  <sodipodi:namedview
     id="base"
     pagecolor="#ffffff"
     bordercolor="#666666"
     borderopacity="1.0"
     inkscape:pageopacity="0.0"
     inkscape:pageshadow="2"
     inkscape:zoom="0.49497475"
     inkscape:cx="59.934612"
     inkscape:cy="766.37821"
     inkscape:document-units="mm"
     inkscape:current-layer="layer1"
     showgrid="false"
     inkscape:window-width="1920"
     inkscape:window-height="1027"
     inkscape:window-x="-8"
     inkscape:window-y="-8"
     inkscape:window-maximized="1" />
  <metadata
     id="metadata2145">
    <rdf:RDF>
      <cc:Work
         rdf:about="">
        <dc:format>image/svg+xml</dc:format>
        <dc:type
           rdf:resource="http://purl.org/dc/dcmitype/StillImage" />
        <dc:title></dc:title>
      </cc:Work>
    </rdf:RDF>
  </metadata>
  <g
     inkscape:label="Layer 1"
     inkscape:groupmode="layer"
     id="layer1"
     transform="translate(0,-33.038024)">
    <path
       d="m 335.19135,212.72926 h 20.94116 v 24.66666 h -3.00001 v 27.66669 h 3.00001 v 27.66666 h -20.94116 v 3 h -20.94119 v -3 H 293.309 v 3 h -20.94119 v -3 h -20.94118 v 3 h -20.94118 v -3 h -20.94117 v 3 H 188.6031 v -3 h -20.94118 v 3 h -20.94117 v -3 h -20.94118 v 3 h -20.94118 v -3 H 83.897213 v 3 H 62.956038 v -3 H 42.014857 v 3 h -20.94117 v -3 H 0.13250732 V 265.06261 H 3.1325073 V 237.39592 H 0.13250732 V 212.72926 H 21.073687 v -3 h 20.94117 v 3 h 20.941181 v -3 h 20.941175 v 3 h 20.941177 v -3 h 20.94118 v 3 h 20.94118 v -3 h 20.94117 v 3 h 20.94118 v -3 h 20.94118 v 3 h 20.94117 v -3 h 20.94118 v 3 h 20.94118 v -3 H 293.309 v 3 h 20.94116 v -3 h 20.94119 z"
       style="fill:none;stroke:#0000ff;stroke-width:0.1;stroke-miterlimit:4;stroke-dasharray:none;stroke-opacity:1"
       id="path941"
       inkscape:connector-curvature="0" />
    <path
       inkscape:connector-curvature="0"
       d="m 160.13229,124.8677 h 17 v 24.66667 h 3 v 27.66668 h -3 v 27.66665 h -17 v 3.00001 h -20 v -3.00001 h -20 v 3.00001 h -20 V 204.8677 H 80.132291 v 3.00001 H 60.132292 V 204.8677 H 40.132291 v 3.00001 h -20 V 204.8677 H 3.1322917 V 177.20105 H 0.13229166 V 149.53437 H 3.1322917 V 124.8677 H 20.132291 v -3 h 20 v 3 h 20.000001 v -3 h 19.999999 v 3 h 19.999999 v -3 h 20 v 3 h 20 v -3 h 20 z"
       style="fill:none;stroke:#0000ff;stroke-width:0.1;stroke-miterlimit:4;stroke-dasharray:none;stroke-opacity:1"
       id="path1542" />
    <path
       inkscape:connector-curvature="0"
       d="M 3.1322913,36.867704 H 20.132291 v -2.999999 h 20 v 2.999999 h 20.000001 v -2.999999 h 19.999999 v 2.999999 h 19.999999 v -2.999999 h 20 v 2.999999 h 20 v -2.999999 h 20 v 2.999999 h 17 v 24.666665 h 3 v 27.666675 h -3 v 27.666666 h -17 v 3 h -20 v -3 h -20 v 3 h -20 v -3 H 80.132291 v 3 H 60.132292 v -3 H 40.132291 v 3 h -20 v -3 H 3.1322913 V 89.201044 H 0.13229132 V 61.534369 H 3.1322913 Z"
       style="fill:none;stroke:#0000ff;stroke-width:0.1;stroke-miterlimit:4;stroke-dasharray:none;stroke-opacity:1"
       id="path967" />
  </g>
</svg>
