<?xml version="1.0" encoding="UTF-8" standalone="no"?>
<!-- Created with Inkscape (http://www.inkscape.org/) -->

<svg
   xmlns:dc="http://purl.org/dc/elements/1.1/"
   xmlns:cc="http://creativecommons.org/ns#"
   xmlns:rdf="http://www.w3.org/1999/02/22-rdf-syntax-ns#"
   xmlns:svg="http://www.w3.org/2000/svg"
   xmlns="http://www.w3.org/2000/svg"
   xmlns:sodipodi="http://sodipodi.sourceforge.net/DTD/sodipodi-0.dtd"
   xmlns:inkscape="http://www.inkscape.org/namespaces/inkscape"
   width="356.26501mm"
   height="180.265mm"
   viewBox="0 0 356.26501 180.265"
   version="1.1"
   id="svg4521"
   inkscape:version="0.92.2 (5c3e80d, 2017-08-06)"
   sodipodi:docname="ECM-408-Uno-Bottom-Panel.svg">
  <defs
     id="defs4515" />
  <sodipodi:namedview
     id="base"
     pagecolor="#ffffff"
     bordercolor="#666666"
     borderopacity="1.0"
     inkscape:pageopacity="0.0"
     inkscape:pageshadow="2"
     inkscape:zoom="0.49497475"
     inkscape:cx="325.68343"
     inkscape:cy="392.65832"
     inkscape:document-units="mm"
     inkscape:current-layer="layer1"
     showgrid="false"
     inkscape:showpageshadow="false"
     showborder="true"
     inkscape:window-width="1920"
     inkscape:window-height="1027"
     inkscape:window-x="-8"
     inkscape:window-y="-8"
     inkscape:window-maximized="1" />
  <metadata
     id="metadata4518">
    <rdf:RDF>
      <cc:Work
         rdf:about="">
        <dc:format>image/svg+xml</dc:format>
        <dc:type
           rdf:resource="http://purl.org/dc/dcmitype/StillImage" />
        <dc:title></dc:title>
      </cc:Work>
    </rdf:RDF>
  </metadata>
  <g
     inkscape:label="Layer 1"
     inkscape:groupmode="layer"
     id="layer1"
     transform="translate(0,-116.735)">
    <path
       inkscape:connector-curvature="0"
       d="m 353.1325,156.86751 h 3 v 19.99999 h -3 v 20.00001 h 3 v 19.99998 h -3 v 20.00002 h 3 v 19.99998 h -3 v 20.00001 h 3 v 19.99999 h -20.94116 v -3 h -20.94119 v 3 h -20.94116 v -3 H 272.3678 v 3 h -20.94118 v -3 h -20.94118 v 3 h -20.94118 v -3 h -20.94117 v 3 h -20.94118 v -3 h -20.94118 v 3 h -20.94117 v -3 h -20.94117 v 3 H 83.897212 v -3 h -20.94119 v 3 h -20.94116 v -3 h -20.94119 v 3 H 0.13251232 V 276.8675 H 3.1325223 V 256.86749 H 0.13251232 V 236.86751 H 3.1325223 V 216.86749 H 0.13251232 V 196.86751 H 3.1325223 l 0,-20.00001 H 0.13251232 V 156.86751 H 3.1325223 V 136.8675 H 0.13251232 V 116.86751 H 21.073672 v 2.99998 h 20.94119 v -2.99998 h 20.94116 v 2.99998 h 20.94119 v -2.99998 h 20.941178 v 2.99998 l 20.94117,0 v -2.99998 h 20.94117 v 2.99998 h 20.94118 v -2.99998 h 20.94118 v 2.99998 h 20.94117 v -2.99998 h 20.94118 v 2.99998 h 20.94118 v -2.99998 h 20.94118 v 2.99998 h 20.94119 v -2.99998 h 20.94116 v 2.99998 h 20.94119 v -2.99998 h 20.94116 v 19.99999 h -3 z"
       style="fill:none;stroke:#0000ff;stroke-width:0.1;stroke-miterlimit:4;stroke-dasharray:none;stroke-opacity:1"
       id="path3875" />
    <path
       inkscape:connector-curvature="0"
       d="m 6.5325223,124.86751 a 1.6000016,1.6000016 0 1 0 3.2,0 1.6000016,1.6000016 0 1 0 -3.2,0 z"
       style="fill:none;stroke:#0000ff;stroke-width:0.1;stroke-miterlimit:4;stroke-dasharray:none;stroke-opacity:1"
       id="path3891" />
    <path
       inkscape:connector-curvature="0"
       d="m 176.5325,124.86751 a 1.6000002,1.6000002 0 1 0 3.2,0 1.6000002,1.6000002 0 1 0 -3.2,0 z"
       style="fill:none;stroke:#0000ff;stroke-width:0.1;stroke-miterlimit:4;stroke-dasharray:none;stroke-opacity:1"
       id="path3893" />
    <path
       inkscape:connector-curvature="0"
       d="m 346.53249,124.86751 a 1.600005,1.600005 0 1 0 3.20001,0 1.600005,1.600005 0 1 0 -3.20001,0 z"
       style="fill:none;stroke:#0000ff;stroke-width:0.1;stroke-miterlimit:4;stroke-dasharray:none;stroke-opacity:1"
       id="path3895" />
    <path
       inkscape:connector-curvature="0"
       d="m 346.53249,206.86749 a 1.600005,1.600005 0 1 0 3.20001,0 1.600005,1.600005 0 1 0 -3.20001,0 z"
       style="fill:none;stroke:#0000ff;stroke-width:0.1;stroke-miterlimit:4;stroke-dasharray:none;stroke-opacity:1"
       id="path3897" />
    <path
       inkscape:connector-curvature="0"
       d="m 346.53249,288.8675 a 1.600005,1.600005 0 1 0 3.20001,0 1.600005,1.600005 0 1 0 -3.20001,0 z"
       style="fill:none;stroke:#0000ff;stroke-width:0.1;stroke-miterlimit:4;stroke-dasharray:none;stroke-opacity:1"
       id="path3899" />
    <path
       inkscape:connector-curvature="0"
       d="m 176.5325,288.8675 a 1.6000002,1.6000002 0 1 0 3.2,0 1.6000002,1.6000002 0 1 0 -3.2,0 z"
       style="fill:none;stroke:#0000ff;stroke-width:0.1;stroke-miterlimit:4;stroke-dasharray:none;stroke-opacity:1"
       id="path3901" />
    <path
       inkscape:connector-curvature="0"
       d="m 6.5325223,288.8675 a 1.6000016,1.6000016 0 1 0 3.2,0 1.6000016,1.6000016 0 1 0 -3.2,0 z"
       style="fill:none;stroke:#0000ff;stroke-width:0.1;stroke-miterlimit:4;stroke-dasharray:none;stroke-opacity:1"
       id="path3903" />
    <path
       inkscape:connector-curvature="0"
       d="m 6.5325223,206.86749 a 1.6000016,1.6000016 0 1 0 3.2,0 1.6000016,1.6000016 0 1 0 -3.2,0 z"
       style="fill:none;stroke:#0000ff;stroke-width:0.1;stroke-miterlimit:4;stroke-dasharray:none;stroke-opacity:1"
       id="path3905" />
    <path
       inkscape:connector-curvature="0"
       d="m 21.072512,137.83749 a 1.6000016,1.6000016 0 1 0 3.2,0 1.6000016,1.6000016 0 1 0 -3.2,0 z"
       style="fill:none;stroke:#0000ff;stroke-width:0.1;stroke-miterlimit:4;stroke-dasharray:none;stroke-opacity:1"
       id="path3907" />
    <path
       inkscape:connector-curvature="0"
       d="m 69.332512,139.10749 a 1.6000016,1.6000016 0 1 0 3.2,0 1.6000016,1.6000016 0 1 0 -3.2,0 z"
       style="fill:none;stroke:#0000ff;stroke-width:0.1;stroke-miterlimit:4;stroke-dasharray:none;stroke-opacity:1"
       id="path3909" />
    <path
       inkscape:connector-curvature="0"
       d="m 26.152512,189.90749 a 1.6000016,1.6000016 0 1 0 3.2,0 1.6000016,1.6000016 0 1 0 -3.2,0 z"
       style="fill:none;stroke:#0000ff;stroke-width:0.1;stroke-miterlimit:4;stroke-dasharray:none;stroke-opacity:1"
       id="path3911" />
    <path
       inkscape:connector-curvature="0"
       d="m 54.092512,189.90749 a 1.6000016,1.6000016 0 1 0 3.2,0 1.6000016,1.6000016 0 1 0 -3.2,0 z"
       style="fill:none;stroke:#0000ff;stroke-width:0.1;stroke-miterlimit:4;stroke-dasharray:none;stroke-opacity:1"
       id="path3913" />
    <path
       inkscape:connector-curvature="0"
       d="m 150.307,164.57649 a 1.6000002,1.6000002 0 1 0 3.2,0 1.6000002,1.6000002 0 1 0 -3.2,0 z"
       style="fill:none;stroke:#0000ff;stroke-width:0.1;stroke-miterlimit:4;stroke-dasharray:none;stroke-opacity:1"
       id="path3917" />
    <path
       inkscape:connector-curvature="0"
       d="m 150.307,249.15849 a 1.6000002,1.6000002 0 1 0 3.2,0 1.6000002,1.6000002 0 1 0 -3.2,0 z"
       style="fill:none;stroke:#0000ff;stroke-width:0.1;stroke-miterlimit:4;stroke-dasharray:none;stroke-opacity:1"
       id="path3919" />
    <path
       inkscape:connector-curvature="0"
       d="m 202.758,164.57649 a 1.6000002,1.6000002 0 1 0 3.2,0 1.6000002,1.6000002 0 1 0 -3.2,0 z"
       style="fill:none;stroke:#0000ff;stroke-width:0.1;stroke-miterlimit:4;stroke-dasharray:none;stroke-opacity:1"
       id="path3921" />
    <path
       inkscape:connector-curvature="0"
       d="m 202.758,249.15849 a 1.6000002,1.6000002 0 1 0 3.2,0 1.6000002,1.6000002 0 1 0 -3.2,0 z"
       style="fill:none;stroke:#0000ff;stroke-width:0.1;stroke-miterlimit:4;stroke-dasharray:none;stroke-opacity:1"
       id="path3923" />
  </g>
</svg>
