<?xml version="1.0" encoding="UTF-8" standalone="no"?>
<!-- Created with Inkscape (http://www.inkscape.org/) -->

<svg
   xmlns:dc="http://purl.org/dc/elements/1.1/"
   xmlns:cc="http://creativecommons.org/ns#"
   xmlns:rdf="http://www.w3.org/1999/02/22-rdf-syntax-ns#"
   xmlns:svg="http://www.w3.org/2000/svg"
   xmlns="http://www.w3.org/2000/svg"
   xmlns:sodipodi="http://sodipodi.sourceforge.net/DTD/sodipodi-0.dtd"
   xmlns:inkscape="http://www.inkscape.org/namespaces/inkscape"
   width="356.26501mm"
   height="180.265mm"
   viewBox="0 0 356.26501 180.265"
   version="1.1"
   id="svg8354"
   sodipodi:docname="top panel.svg"
   inkscape:version="0.92.2 (5c3e80d, 2017-08-06)">
  <defs
     id="defs8348" />
  <sodipodi:namedview
     id="base"
     pagecolor="#ffffff"
     bordercolor="#666666"
     borderopacity="1.0"
     inkscape:pageopacity="0.0"
     inkscape:pageshadow="2"
     inkscape:zoom="0.49497475"
     inkscape:cx="423.42694"
     inkscape:cy="512.04044"
     inkscape:document-units="mm"
     inkscape:current-layer="layer1"
     showgrid="false"
     inkscape:window-width="1920"
     inkscape:window-height="1027"
     inkscape:window-x="-8"
     inkscape:window-y="-8"
     inkscape:window-maximized="1" />
  <metadata
     id="metadata8351">
    <rdf:RDF>
      <cc:Work
         rdf:about="">
        <dc:format>image/svg+xml</dc:format>
        <dc:type
           rdf:resource="http://purl.org/dc/dcmitype/StillImage" />
        <dc:title></dc:title>
      </cc:Work>
    </rdf:RDF>
  </metadata>
  <g
     inkscape:label="Layer 1"
     inkscape:groupmode="layer"
     id="layer1"
     transform="translate(0,-116.735)">
    <g
       aria-label="ECM-408"
       style="font-style:normal;font-variant:normal;font-weight:normal;font-stretch:normal;font-size:10.58333302px;line-height:1.25;font-family:'Embossing Tape 1 (BRK)';-inkscape-font-specification:'Embossing Tape 1 (BRK)';letter-spacing:0px;word-spacing:0px;fill:#000000;fill-opacity:1;stroke:none;stroke-width:0.26458332"
       id="text9397"
       transform="translate(3.7324219e-5)">
      <path
         d="m 150.64312,141.7235 q 0,-0.26459 0.0317,-0.45509 0.0423,-0.1905 0.127,-0.508 0.0106,-0.0953 0.0106,-0.29633 0.0106,-0.21167 0.0212,-0.47625 0.0106,-0.26458 0.0106,-0.55033 0.0106,-0.29634 0.0106,-0.56092 0.0106,-0.26458 0.0106,-0.46567 0.0106,-0.21166 0.0106,-0.30691 v -1.67217 -1.66158 q -0.0212,-0.17992 -0.0847,-0.34925 -0.0635,-0.17992 -0.0635,-0.34925 0,-0.0635 0.0212,-0.15875 0.0317,-0.10583 0.0847,-0.1905 0.0529,-0.0847 0.11642,-0.14817 0.0635,-0.0635 0.14817,-0.0635 h 6.58283 q 0.0847,0 0.15875,0.0635 0.0847,0.0529 0.14817,0.13759 0.0635,0.0847 0.0953,0.17991 0.0423,0.0952 0.0423,0.16934 0,0.45508 -0.23283,0.68791 -0.23284,0.23284 -0.58209,0.33867 -0.34925,0.0952 -0.75141,0.10583 -0.40217,0.0106 -0.73025,0.0212 -0.15875,0 -0.5715,0.0106 -0.41275,0 -0.86784,0 -0.45508,0 -0.86783,0 -0.41275,-0.0106 -0.5715,-0.0106 -0.30692,0.11642 -0.30692,0.4445 0,0.0212 0,0.0529 0.0106,0.0212 0.0106,0.0212 0,0.0212 0.0317,0.11642 0.0423,0.0847 0.0423,0.10583 0,0.0317 -0.0106,0.13758 0,0.10584 -0.0106,0.23284 -0.0106,0.11641 -0.0318,0.22225 -0.0106,0.10583 -0.0212,0.14816 l -0.0741,0.0741 h -0.0423 q -0.0847,0 -0.10583,-0.0635 -0.0106,-0.0635 -0.0106,-0.11642 0,-0.10583 0.0423,-0.1905 0.0423,-0.0847 0.0423,-0.17992 0,-0.15875 -0.0212,-0.35983 -0.0212,-0.20108 -0.0635,-0.41275 -0.0317,-0.21166 -0.0741,-0.40216 -0.0317,-0.20109 -0.0635,-0.34925 -0.0106,-0.0529 -0.0635,-0.0635 -0.0529,-0.0212 -0.11642,-0.0106 -0.0635,0 -0.11641,0.0212 -0.0529,0.0106 -0.0635,0.0106 0,0.0106 -0.0106,0.0212 -0.0106,0.0106 0,0.0212 0,0.0212 0.0318,0.0847 0.0423,0.0529 0.0423,0.0635 0,0.0106 0,0.0847 0.0106,0.0741 0.0212,0.16933 0.0106,0.0952 0.0212,0.1905 0.0212,0.0953 0.0318,0.14817 v 0.0317 0.0423 q 0,0.0741 -0.0106,0.254 -0.0106,0.17992 -0.0318,0.381 -0.0106,0.1905 -0.0212,0.37042 -0.0106,0.17991 -0.0106,0.254 -0.0847,0.14816 -0.127,0.24341 -0.0317,0.0952 -0.0317,0.24342 0,0.0847 0.0317,0.16933 0.0423,0.0847 0.15875,0.0847 h 0.0423 q 0.0212,-0.0106 0.10583,-0.0423 0.0952,-0.0317 0.11642,-0.0317 0.0529,-0.0212 0.16933,-0.0423 0.11642,-0.0318 0.127,-0.0318 h 2.7305 q 0.10584,0 0.21167,0.17992 0.10583,0.16933 0.1905,0.39158 0.0953,0.22225 0.14817,0.42334 0.0529,0.20108 0.0529,0.26458 0,0.0952 -0.13758,0.17992 -0.127,0.0847 -0.29633,0.15875 -0.16934,0.0635 -0.32809,0.127 -0.15875,0.0529 -0.21166,0.0847 h -2.06375 q -0.0106,0 -0.0317,0.0423 -0.0212,0.0423 -0.0423,0.0635 l -0.0741,0.14816 v 1.18534 q 0,0.0741 -0.0741,0.0741 -0.0318,0 -0.11642,-0.0212 -0.0847,-0.0317 -0.10583,-0.0529 0,-0.0847 -0.0106,-0.29634 -0.0106,-0.21166 -0.0317,-0.4445 -0.0106,-0.23283 -0.0212,-0.4445 -0.0106,-0.21166 -0.0106,-0.29633 0,-0.0318 -0.0106,-0.10583 -0.0106,-0.0741 -0.0317,-0.15875 -0.0106,-0.0847 -0.0212,-0.14817 -0.0106,-0.0741 -0.0106,-0.0952 0,-0.0106 -0.0317,-0.0317 -0.0212,-0.0318 -0.0423,-0.0423 -0.0212,-0.0212 -0.11642,-0.0741 -0.0847,-0.0529 -0.10583,-0.0741 -0.0741,0.0212 -0.0847,0.0741 0,0.0529 0,0.10584 0,0.0847 0.0106,0.13758 0.0106,0.0529 0.0741,0.127 v 1.76742 q -0.0635,0.0741 -0.0741,0.14816 -0.0106,0.0741 -0.0106,0.15875 v 0.11642 q 0,0.0952 0.0847,0.0952 l 5.61975,0.14817 q 0.10583,0 0.17991,0.0741 0.0741,0.0635 0.11642,0.15875 0.0529,0.0952 0.0635,0.20108 0.0212,0.10584 0.0212,0.17992 0,0.23283 -0.15875,0.381 -0.15875,0.14817 -0.381,0.24342 -0.22225,0.0847 -0.46567,0.127 -0.24342,0.0317 -0.41275,0.0423 -0.0953,0.0106 -0.27517,0.0318 -0.16933,0.0106 -0.34925,0.0212 -0.16933,0.0106 -0.3175,0.0212 -0.13758,0 -0.16933,0 -0.127,0 -0.53975,0 -0.40217,-0.0106 -0.889,-0.0212 -0.48683,-0.0106 -0.94192,-0.0212 -0.4445,-0.0106 -0.65616,-0.0318 -0.22225,-0.0106 -0.53975,-0.0423 -0.30692,-0.0317 -0.58209,-0.127 -0.27516,-0.10584 -0.47625,-0.28575 -0.1905,-0.1905 -0.1905,-0.508 z m 1.34409,0.66675 -0.0741,0.0741 h 0.14817 z m 0.22225,0 q 0,0.0106 0.0212,0.0423 0.0318,0.0212 0.0529,0.0317 h 0.0318 0.0423 l 0.14817,-0.0741 z m 3.81,-0.0106 h -0.13759 q -0.10583,0 -0.127,0.0847 h 0.11642 q 0.0953,0 0.15875,-0.0106 0.0635,-0.0106 0.16933,-0.0635 -0.0212,0 -0.0952,0 -0.0635,-0.0106 -0.0847,-0.0106 z m 0.6985,0.0847 q 0.0106,-0.0317 -0.0423,-0.0317 -0.0423,0 -0.0318,0.0317 0.0106,0.0318 0.0318,0.0318 0.0212,0 0.0423,-0.0318 z m -3.54542,-0.0741 q 0.0106,-0.0106 -0.0317,-0.0212 -0.0318,-0.0106 -0.0847,-0.0106 -0.0423,0 -0.0847,0.0106 -0.0318,0.0106 -0.0212,0.0212 0.0106,0.0317 0.10583,0.0317 0.0952,0 0.11642,-0.0317 z m 0.96308,0 q 0.0106,-0.0318 -0.0847,-0.0318 -0.0847,0 -0.0635,0.0318 0.0212,0.0317 0.0741,0.0317 0.0529,0 0.0741,-0.0317 z m 0.65617,0 q 0.0106,-0.0106 -0.0212,-0.0212 -0.0212,-0.0106 -0.0529,-0.0106 -0.0318,0 -0.0635,0.0106 -0.0212,0.0106 -0.0106,0.0212 0.0106,0.0317 0.0741,0.0317 0.0529,0 0.0741,-0.0317 z m 0.29633,0 q 0.0106,-0.0106 -0.0212,-0.0212 -0.0212,-0.0106 -0.0529,-0.0106 -0.0317,0 -0.0635,0.0106 -0.0212,0.0106 -0.0106,0.0212 0.0106,0.0317 0.0741,0.0317 0.0529,0 0.0741,-0.0317 z m 0.4445,0 q 0.0106,-0.0106 -0.0318,-0.0212 -0.0317,-0.0106 -0.0847,-0.0106 -0.0423,0 -0.0847,0.0106 -0.0317,0.0106 -0.0212,0.0212 0.0317,0.0317 0.11642,0.0317 0.0847,0 0.10583,-0.0317 z"
         style="font-style:normal;font-variant:normal;font-weight:normal;font-stretch:normal;font-family:'Embossing Tape 1 (BRK)';-inkscape-font-specification:'Embossing Tape 1 (BRK)';stroke-width:0.26458332"
         id="path9399"
         inkscape:connector-curvature="0" />
      <path
         d="m 159.09193,139.29991 q 0,-0.0212 0.0106,-0.0847 0.0106,-0.0635 0.0212,-0.127 0.0212,-0.0741 0.0317,-0.13759 0.0106,-0.0635 0.0106,-0.0847 0,-0.13759 0.0106,-0.49742 0.0106,-0.35983 0.0212,-0.762 0.0212,-0.40217 0.0318,-0.762 0.0106,-0.35983 0.0106,-0.49742 0.0952,-0.60324 0.43391,-1.11124 0.33867,-0.508 0.8255,-0.86784 0.48684,-0.35983 1.06892,-0.56091 0.59267,-0.20109 1.18533,-0.20109 0.508,0 0.94192,0.13759 0.4445,0.127 0.83608,0.35983 0.40217,0.23283 0.75142,0.55033 0.34925,0.30692 0.68792,0.65617 0.15875,0.17992 0.26458,0.39158 0.10583,0.21167 0.10583,0.45508 0,0.16934 -0.0741,0.27517 -0.0741,0.0953 -0.16933,0.17992 -0.0952,0.0741 -0.16934,0.15875 -0.0741,0.0847 -0.0741,0.21166 -0.254,0 -0.41275,-0.0847 -0.15875,-0.0953 -0.26458,-0.23284 -0.10584,-0.13758 -0.1905,-0.29633 -0.0847,-0.16933 -0.20109,-0.3175 -0.127,-0.17991 -0.34925,-0.32808 -0.21166,-0.14817 -0.46566,-0.254 -0.254,-0.11642 -0.51859,-0.16933 -0.254,-0.0635 -0.47625,-0.0635 -0.635,0 -1.18533,0.29633 -0.55033,0.28575 -0.84667,0.889 h -0.10583 q 0,-0.29634 0.1905,-0.56092 0.1905,-0.26458 0.41275,-0.46566 0.23283,-0.21167 0.42333,-0.33867 0.1905,-0.127 0.1905,-0.14817 v -0.0423 q -0.33866,0.0423 -0.59266,0.17992 -0.254,0.13758 -0.4445,0.34925 -0.1905,0.20108 -0.3175,0.46566 -0.127,0.26458 -0.20109,0.56092 -0.0106,0.0106 -0.0423,0.0741 -0.0317,0.0529 -0.0317,0.0741 -0.0212,0.0529 -0.0529,0.16934 -0.0212,0.10583 -0.0212,0.127 v 2.65641 q 0,0.0212 0.0318,0.10584 0.0317,0.0741 0.0741,0.17991 0.0529,0.10584 0.10583,0.21167 0.0529,0.10583 0.0847,0.16933 0.13758,0.254 0.35983,0.45509 0.22225,0.1905 0.48684,0.32808 0.27516,0.127 0.5715,0.20108 0.29633,0.0635 0.5715,0.0635 h 0.30691 q 0.21167,0 0.41275,-0.0317 0.20109,-0.0318 0.46567,-0.127 0.0847,-0.11641 0.1905,-0.20108 0.11642,-0.0847 0.23283,-0.16933 0.127,-0.0847 0.24342,-0.16934 0.127,-0.0847 0.22225,-0.20108 0.13758,-0.16933 0.20108,-0.33867 0.0741,-0.16933 0.14817,-0.30691 0.0847,-0.13759 0.21167,-0.22225 0.13758,-0.0952 0.40216,-0.0952 0.23284,0 0.41275,0.15875 0.17992,0.14816 0.17992,0.40216 0,0.0847 -0.0317,0.13759 -0.0212,0.0529 -0.10583,0.0529 -0.0847,0 -0.14817,-0.0317 -0.0635,-0.0317 -0.14817,-0.0317 0,0.11642 0.0318,0.23284 0.0423,0.10583 0.0423,0.23283 0,0.0847 -0.0106,0.16933 0,0.0847 -0.0741,0.15875 -0.40217,0.48684 -0.96308,0.91017 -0.55034,0.41275 -1.18534,0.5715 -0.0212,0.0106 -0.127,0.0317 -0.0952,0.0212 -0.21166,0.0529 -0.10584,0.0212 -0.20109,0.0423 -0.0952,0.0106 -0.127,0.0212 l -0.14816,0.0741 h 0.14816 q 0.39159,0 0.80434,-0.11642 0.41275,-0.127 0.79375,-0.3175 0.39158,-0.20108 0.74083,-0.45508 0.34925,-0.254 0.62442,-0.51858 h 0.0741 q -0.0952,0.40216 -0.46567,0.70908 -0.37041,0.29633 -0.83608,0.508 -0.46567,0.21167 -0.9525,0.3175 -0.47625,0.10583 -0.80433,0.10583 -0.53975,0 -1.03717,-0.10583 -0.48683,-0.11642 -0.93133,-0.42333 -0.0318,-0.0212 -0.11642,-0.10584 -0.0847,-0.0847 -0.10583,-0.11641 -0.0106,0 -0.0106,-0.0317 0.0106,-0.0423 0.0106,-0.0423 l -0.22225,-0.0741 q -0.0529,-0.0212 -0.127,-0.0529 -0.0741,-0.0423 -0.14817,-0.0741 -0.0635,-0.0423 -0.11642,-0.0635 -0.0529,-0.0317 -0.0529,-0.0317 -0.0106,-0.0106 -0.0212,-0.0529 -0.0106,-0.0423 -0.0212,-0.0847 -0.0106,-0.0529 -0.0212,-0.0952 -0.0106,-0.0529 -0.0106,-0.0635 -0.0212,-0.0212 -0.11641,-0.0741 -0.0847,-0.0529 -0.10584,-0.0741 -0.127,-0.0952 -0.254,-0.34925 -0.127,-0.26458 -0.24341,-0.5715 -0.10584,-0.30692 -0.17992,-0.59267 -0.0635,-0.28575 -0.0635,-0.41275 z m 3.03742,3.18559 q -0.0529,0 -0.0529,0.0741 0,0.0741 0.0529,0.0741 0.0529,0 0.0529,-0.0741 0,-0.0741 -0.0529,-0.0741 z m 1.69333,-7.62 q -0.0529,0 -0.0529,0.0741 0,0.0741 0.0529,0.0741 0.0529,0 0.0529,-0.0741 0,-0.0741 -0.0529,-0.0741 z"
         style="font-style:normal;font-variant:normal;font-weight:normal;font-stretch:normal;font-family:'Embossing Tape 1 (BRK)';-inkscape-font-specification:'Embossing Tape 1 (BRK)';stroke-width:0.26458332"
         id="path9401"
         inkscape:connector-curvature="0" />
      <path
         d="m 167.49873,141.80816 q 0,-1.62983 0.11642,-3.25966 0.11642,-1.62984 0.11642,-3.25967 0,-0.254 -0.0847,-0.48683 -0.0741,-0.23283 -0.0741,-0.48683 0,-0.27517 0.15875,-0.43392 0.16933,-0.15875 0.4445,-0.15875 0.1905,0 0.30691,0.0318 0.127,0.0317 0.28575,0.20108 0.0741,0.28575 0.16934,0.5715 0.10583,0.27517 0.34925,0.46567 0.0741,0.10583 0.26458,0.37042 0.1905,0.26458 0.40217,0.56091 0.21166,0.28575 0.40216,0.55033 0.1905,0.26459 0.26459,0.37042 0.0106,0.0212 0.0741,0.127 0.0635,0.10583 0.13758,0.254 0.0847,0.13758 0.16934,0.28575 0.0847,0.13758 0.13758,0.22225 0.0529,0.0953 0.0635,0.15875 0.0212,0.0529 0.0317,0.0847 0.0212,0.0317 0.0423,0.0423 0.0317,0.0106 0.10584,0.0106 0.14816,0 0.27516,-0.14816 0.127,-0.14817 0.23284,-0.34925 0.10583,-0.20109 0.1905,-0.39159 0.0847,-0.20108 0.15875,-0.29633 0.0952,-0.11642 0.32808,-0.41275 0.23283,-0.29633 0.48683,-0.62441 0.26459,-0.33867 0.48684,-0.62442 0.23283,-0.29633 0.32808,-0.41275 0.0847,-0.17992 0.14817,-0.34925 0.0741,-0.17992 0.16933,-0.3175 0.0952,-0.13758 0.23283,-0.22225 0.14817,-0.0847 0.37042,-0.0847 0.23283,0 0.40217,0.127 0.16933,0.11642 0.16933,0.381 0,0.17992 -0.0318,0.35984 -0.0212,0.17991 -0.127,0.32808 v 0.10583 q 0,0.0635 -0.0106,0.13759 0,0.0741 0,0.14816 v 0.0847 0.34925 q 0,0.21167 0.0847,0.35983 v 4.80483 q 0.0106,0.0529 0.0318,0.17992 0.0212,0.127 0.0423,0.26458 0.0212,0.13759 0.0423,0.26459 0.0212,0.127 0.0317,0.17991 v 0.0741 q 0,0.14816 -0.0741,0.28575 -0.0741,0.13758 -0.1905,0.24341 -0.11642,0.10584 -0.26459,0.16934 -0.14816,0.0529 -0.28575,0.0423 -0.34925,-0.0317 -0.47625,-0.24342 -0.127,-0.22225 -0.127,-0.508 0,-0.6985 0.0847,-1.38641 0.0847,-0.68792 0.0847,-1.397 v -0.27517 q 0,-0.16933 -0.0106,-0.33867 0,-0.16933 0,-0.29633 V 138.104 q 0,-0.0318 -0.0106,-0.11642 0,-0.0847 -0.0212,-0.1905 -0.0106,-0.10583 -0.0423,-0.20108 -0.0318,-0.10584 -0.0741,-0.15875 l -0.0741,0.0741 v 0.66675 q 0,0.16933 -0.0106,0.59267 -0.0106,0.41275 -0.0318,0.889 -0.0106,0.46566 -0.0212,0.889 -0.0106,0.41275 -0.0106,0.58208 -0.0317,-0.0952 -0.0529,-0.33867 -0.0212,-0.24341 -0.0423,-0.55033 -0.0212,-0.30692 -0.0529,-0.635 -0.0212,-0.32808 -0.0635,-0.60325 -0.0423,-0.27517 -0.0952,-0.4445 -0.0529,-0.17992 -0.13758,-0.17992 -0.0106,0 -0.0423,0.0106 -0.0212,0 -0.0318,0.0106 -0.0423,0.0423 -0.14817,0.14817 -0.10583,0.0953 -0.22225,0.22225 -0.11642,0.11641 -0.22225,0.22225 -0.10583,0.0952 -0.14817,0.13758 -0.11641,0.11642 -0.23283,0.27517 -0.11642,0.15875 -0.24342,0.29633 -0.127,0.13758 -0.28575,0.23283 -0.14816,0.0952 -0.33866,0.0952 -0.35984,0 -0.62442,-0.24341 -0.254,-0.24342 -0.47625,-0.53975 -0.22225,-0.29634 -0.4445,-0.53975 -0.21167,-0.24342 -0.49742,-0.24342 -0.0847,0 -0.127,0.0212 -0.0317,0.0212 -0.0529,0.13758 -0.10584,0.6985 -0.0952,1.397 0.0106,0.6985 -0.0529,1.40758 l -0.0741,-0.51858 v -3.32317 l -0.22225,-0.51858 q -0.0212,0.30692 -0.0423,0.5715 -0.0106,0.254 -0.0212,0.48683 -0.0106,0.23284 -0.0212,0.46567 0,0.22225 0,0.46567 v 0.70908 q 0,0.27517 -0.0106,0.46567 0,0.1905 0,0.35983 0.0106,0.16933 0.0318,0.34925 0.0212,0.17992 0.0635,0.41275 0,0.0212 0.0212,0.127 0.0212,0.0953 0.0529,0.21167 0.0317,0.10583 0.0529,0.21166 0.0212,0.0952 0.0212,0.11642 v 0.11642 q 0,0.23283 -0.17991,0.43391 -0.16934,0.1905 -0.41275,0.1905 -0.17992,0 -0.34925,-0.0847 -0.15875,-0.0847 -0.28575,-0.22225 -0.11642,-0.13759 -0.1905,-0.30692 -0.0741,-0.16933 -0.0741,-0.33867 z m 5.85259,-4.37091 q -0.0212,0.0317 -0.10584,0.14816 -0.0847,0.11642 -0.11641,0.14817 l -0.14817,0.14817 q -0.0635,0.0847 -0.16933,0.22225 -0.0952,0.127 -0.1905,0.26458 -0.0952,0.127 -0.16934,0.22225 -0.0635,0.0952 -0.0635,0.10583 l -0.0741,0.28575 q 0.0106,0.0106 0.0423,0.0106 0.0317,0 0.0317,-0.0106 0.0106,0 0.0318,-0.0212 0.0317,-0.0318 0.0423,-0.0529 l 0.96308,-1.47108 z m 0.22225,-0.29634 q -0.0317,-0.0106 -0.0317,0.0423 0,0.0423 0.0317,0.0318 0.0318,-0.0106 0.0318,-0.0318 0,-0.0212 -0.0318,-0.0423 z m -4.953,-0.51858 v 0.14817 h 0.0741 v -0.14817 z m 5.24933,0 q -0.0529,0 -0.0529,0.0741 0,0.0741 0.0529,0.0741 0.0529,0 0.0529,-0.0741 0,-0.0741 -0.0529,-0.0741 z"
         style="font-style:normal;font-variant:normal;font-weight:normal;font-stretch:normal;font-family:'Embossing Tape 1 (BRK)';-inkscape-font-specification:'Embossing Tape 1 (BRK)';stroke-width:0.26458332"
         id="path9403"
         inkscape:connector-curvature="0" />
      <path
         d="m 177.26103,138.89775 q 0,-0.0741 0.0741,-0.0741 0.0318,-0.0106 0.0953,-0.0212 0.0741,-0.0106 0.15875,-0.0212 0.0847,-0.0106 0.15875,-0.0212 0.0741,-0.0106 0.10583,-0.0106 0.127,0 0.40217,0 0.27516,-0.0106 0.61383,-0.0212 0.33867,-0.0106 0.71967,-0.0106 0.381,-0.0106 0.71966,-0.0212 0.33867,-0.0106 0.61384,-0.0106 0.27516,-0.0106 0.40216,-0.0106 h 0.29634 q 0.14816,0 0.254,0.0106 0.10583,0 0.21166,0.0106 0.10584,0 0.23284,0.0212 0.13758,0.0106 0.33866,0.0318 -0.127,0.14817 -0.30691,0.17992 -0.17992,0.0212 -0.35984,0.0423 -0.0212,0 -0.13758,0.0106 -0.10583,0 -0.254,0.0106 -0.13758,0.0106 -0.27517,0.0318 -0.13758,0.0106 -0.22225,0.0212 h -0.0317 -0.0423 q -0.0847,0 -0.33867,0 -0.254,-0.0106 -0.60325,-0.0212 -0.33866,-0.0106 -0.71966,-0.0106 -0.381,-0.0106 -0.73025,-0.0212 -0.33867,-0.0106 -0.59267,-0.0106 -0.254,-0.0106 -0.33867,-0.0106 -0.11641,0 -0.23283,0.0106 -0.11642,0 -0.21167,-0.0847 z m -0.75141,-0.85725 q 0,-0.15875 0.0423,-0.26459 0.0529,-0.10583 0.1905,-0.21166 0.22225,0 0.67733,0 0.46567,-0.0106 1.04775,-0.0212 0.59267,-0.0106 1.22767,-0.0106 0.64558,-0.0106 1.22767,-0.0212 0.59266,-0.0106 1.04775,-0.0106 0.46566,-0.0106 0.68791,-0.0106 h 0.30692 q 0.27517,0 0.34925,0.0847 0.0847,0.0847 0.0847,0.40217 0,0.0847 -0.10584,0.21166 -0.0952,0.127 -0.11641,0.23284 h -5.54567 q -0.16933,0.13758 -0.28575,0.16933 -0.11642,0.0212 -0.29633,0.0212 -0.29634,0 -0.42334,-0.127 -0.11641,-0.13759 -0.11641,-0.4445 z"
         style="font-style:normal;font-variant:normal;font-weight:normal;font-stretch:normal;font-family:'Embossing Tape 1 (BRK)';-inkscape-font-specification:'Embossing Tape 1 (BRK)';stroke-width:0.26458332"
         id="path9405"
         inkscape:connector-curvature="0" />
      <path
         d="m 188.03387,142.2315 v -0.0741 q 0,-0.0106 0.0212,-0.0741 0.0212,-0.0741 0.0529,-0.14817 0.0318,-0.0741 0.0529,-0.13758 0.0212,-0.0635 0.0212,-0.0847 0.0106,-0.0317 0.0317,-0.16933 0.0212,-0.13758 0.0423,-0.30692 0.0317,-0.16933 0.0529,-0.30691 0.0212,-0.14817 0.0212,-0.17992 0.0106,-0.0106 0.0423,-0.0635 0.0318,-0.0635 0.0318,-0.0847 0.0212,-0.0423 0.0423,-0.127 0.0318,-0.0847 0.0318,-0.0952 0,-0.0952 -0.0423,-0.11641 -0.0317,-0.0318 -0.0952,-0.0318 -0.0317,0 -0.11642,0.0212 -0.0847,0.0212 -0.17991,0.0635 -0.0952,0.0317 -0.16934,0.0847 -0.0635,0.0423 -0.0635,0.0953 0,0.10583 0.0423,0.1905 0.0423,0.0847 0.0423,0.21167 0,0.14816 -0.0106,0.26458 -0.0106,0.10583 -0.0741,0.254 -0.0212,-0.0423 -0.10583,-0.17992 -0.0847,-0.14816 -0.10583,-0.1905 -0.0212,-0.0212 -0.21167,-0.0423 -0.17992,-0.0317 -0.45508,-0.0635 -0.26459,-0.0317 -0.60325,-0.0741 -0.32809,-0.0529 -0.64559,-0.10584 -0.30691,-0.0635 -0.5715,-0.13758 -0.26458,-0.0741 -0.40216,-0.16933 -0.0106,-0.0317 -0.0423,-0.127 -0.0318,-0.0953 -0.0741,-0.20109 -0.0317,-0.10583 -0.0635,-0.20108 -0.0317,-0.0952 -0.0423,-0.13758 v -0.0318 q 0,-0.0106 0.15875,-0.1905 0.16933,-0.17992 0.37041,-0.40217 0.21167,-0.23283 0.40217,-0.45508 0.1905,-0.22225 0.254,-0.3175 0.24342,-0.4445 0.52917,-0.84667 0.29633,-0.40217 0.60325,-0.79375 0.30691,-0.39158 0.60325,-0.78316 0.29633,-0.40217 0.55033,-0.83609 0.127,-0.20108 0.1905,-0.40216 0.0635,-0.20109 0.14817,-0.35984 0.0847,-0.15875 0.23283,-0.254 0.14817,-0.0952 0.43392,-0.0952 0.0423,0 0.10583,0.0212 0.0741,0.0106 0.13758,0.0423 0.0635,0.0212 0.10584,0.0635 0.0529,0.0423 0.0529,0.0953 v 4.51908 q 0,0.0106 -0.0317,0.127 -0.0212,0.10584 -0.0423,0.16934 0,0.0212 -0.0318,0.11641 -0.0317,0.0847 -0.0423,0.10584 v 0.0317 q 0,0.0847 0.0635,0.13758 0.0741,0.0529 0.15875,0.0529 0.14816,0 0.26458,-0.0741 0.11642,-0.0847 0.26458,-0.0847 0.11642,0 0.15875,0.11641 0.0529,0.10584 0.0952,0.26459 0.0423,0.15875 0.10584,0.32808 0.0635,0.15875 0.22225,0.254 l 0.0741,0.0741 q -0.0635,0.10584 -0.15875,0.21167 -0.0847,0.10583 -0.20108,0.20108 -0.11642,0.0847 -0.24342,0.13759 -0.11642,0.0529 -0.24342,0.0529 -0.0741,0 -0.0953,-0.0529 -0.0212,-0.0529 -0.0212,-0.10584 0,-0.0847 0.0423,-0.10583 0.0423,-0.0317 0.0423,-0.11642 0,-0.0635 -0.0106,-0.0741 -0.0106,-0.0212 -0.0741,-0.0741 -0.0529,-0.0317 -0.13759,-0.0847 -0.0741,-0.0635 -0.0847,-0.0635 l -0.0741,0.0741 v 0.21167 q 0,0.27517 0.0106,0.62442 0.0212,0.34925 0.0635,0.5715 0,0.0212 0.0212,0.0847 0.0212,0.0635 0.0529,0.13759 0.0318,0.0741 0.0529,0.14816 0.0212,0.0635 0.0212,0.0741 0,0.15875 -0.0952,0.27516 -0.0847,0.10584 -0.22225,0.17992 -0.127,0.0741 -0.27516,0.11642 -0.14817,0.0318 -0.254,0.0318 -0.26459,0 -0.48684,-0.14817 -0.22225,-0.14817 -0.22225,-0.45508 z m -2.50825,-1.778 q 0.15875,0.0741 0.28575,0.0847 0.127,0 0.29634,0 0.26458,0 0.45508,-0.0106 0.20108,-0.0212 0.51858,-0.0741 l -0.14816,-0.0741 h -1.3335 z m 0.81492,-1.02659 q 0.0741,0 0.26458,0 0.1905,-0.0106 0.40217,-0.0106 0.21167,0 0.39158,0.0106 0.1905,0 0.26459,0 0.0318,0 0.14816,0.0423 0.127,0.0318 0.14817,0.0318 h 0.21167 q 0.13758,0 0.22225,-0.0529 0.0952,-0.0529 0.0952,-0.21167 0,-0.0952 -0.0423,-0.17991 -0.0317,-0.0952 -0.0741,-0.17992 -0.0423,-0.0847 -0.0847,-0.16933 -0.0317,-0.0952 -0.0317,-0.20109 0,-0.4445 0.0847,-0.84666 0.0847,-0.41275 0.0847,-0.8255 h -0.0952 q -0.0106,0.0317 -0.0423,0.10583 -0.0317,0.0741 -0.0741,0.15875 -0.0317,0.0741 -0.0635,0.14817 -0.0318,0.0741 -0.0423,0.10583 -0.0106,0.0212 -0.0317,0.0741 -0.0212,0.0529 -0.0423,0.0741 l -0.22225,1.18533 q 0,0.0741 -0.0741,0.0741 -0.0212,0 -0.14817,-0.0318 -0.11641,-0.0423 -0.13758,-0.0423 -0.0106,0 -0.0212,0 -0.0106,-0.0106 -0.0212,-0.0106 -0.0106,0 -0.0212,0.0106 -0.0106,0 -0.0106,0 -0.0212,0 -0.11642,0.0423 -0.0847,0.0318 -0.10583,0.0318 -0.0106,0 -0.0423,-0.0212 -0.0212,-0.0318 -0.0318,-0.0529 -0.0106,0 -0.0106,-0.0423 0,-0.254 0.14817,-0.47625 0.15875,-0.23284 0.34925,-0.46567 0.1905,-0.23283 0.33866,-0.46567 0.15875,-0.23283 0.15875,-0.508 -0.0847,0 -0.15875,0.10584 -0.0741,0.10583 -0.13758,0.24341 -0.0529,0.127 -0.10583,0.254 -0.0423,0.127 -0.0635,0.16934 -0.254,0.47625 -0.61384,0.89958 -0.35983,0.41275 -0.71966,0.80433 0,0.0106 -0.0106,0.0423 0,0.0212 0,0.0317 0,0.0529 0.0106,0.0952 0.0106,0.0318 0.0741,0.0529 z"
         style="font-style:normal;font-variant:normal;font-weight:normal;font-stretch:normal;font-family:'Embossing Tape 1 (BRK)';-inkscape-font-specification:'Embossing Tape 1 (BRK)';stroke-width:0.26458332"
         id="path9407"
         inkscape:connector-curvature="0" />
      <path
         d="m 191.71257,140.25241 q 0,-0.0317 0,-0.127 0.0106,-0.10583 0.0106,-0.13758 0.17991,0.30692 0.28575,0.62442 0.10583,0.3175 0.30691,0.635 0.0952,0.15875 0.30692,0.39158 0.21167,0.22225 0.46567,0.43392 0.254,0.21166 0.49741,0.35983 0.254,0.14817 0.43392,0.14817 0.0741,0 0.0741,-0.0741 -0.37041,-0.21166 -0.71966,-0.46566 -0.33867,-0.254 -0.61384,-0.5715 -0.27516,-0.3175 -0.4445,-0.6985 -0.15875,-0.381 -0.15875,-0.84667 v -0.37042 q 0,-0.17991 0.0847,-0.37041 v -0.889 q 0,-0.47625 -0.0423,-0.91017 -0.0317,-0.4445 -0.0317,-0.92075 0,-0.39158 0.15875,-0.77258 0.15875,-0.381 0.41275,-0.70908 0.26458,-0.32809 0.59266,-0.58209 0.33867,-0.254 0.68792,-0.40216 0.10583,-0.0423 0.254,-0.0529 0.15875,-0.0212 0.3175,-0.0212 0.15875,-0.0106 0.29633,0 0.14817,0 0.23284,0 h 0.74083 q 0.4445,0.0423 0.81492,0.29634 0.37041,0.24341 0.64558,0.61383 0.28575,0.35983 0.45508,0.79375 0.17992,0.42333 0.23284,0.81491 v 0.26459 q 0,0.1905 0,0.40216 0.0106,0.21167 0.0106,0.40217 v 0.26458 q 0,0.381 0.0212,0.83609 0.0212,0.4445 0,0.89958 -0.0106,0.45508 -0.0953,0.889 -0.0847,0.42333 -0.30692,0.77258 -0.0529,0.0847 -0.16933,0.1905 -0.11642,0.10584 -0.23284,0.21167 -0.11641,0.0952 -0.22225,0.1905 -0.0952,0.0847 -0.11641,0.14817 -0.0106,0.0212 0,0.11641 0.0106,0.0847 0,0.10584 -0.0106,0.0318 -0.1905,0.0847 -0.16934,0.0529 -0.381,0.11642 -0.21167,0.0635 -0.41275,0.127 -0.20109,0.0635 -0.27517,0.11642 -0.0106,0.0106 -0.0318,0.0741 -0.0212,0.0635 -0.0423,0.0741 -0.11642,0.0635 -0.32809,0.0741 -0.20108,0.0106 -0.381,0.0106 h -0.17991 -0.11642 q -0.0741,0 -0.14817,0 -0.0635,-0.0106 -0.11641,-0.0106 h -0.0529 q -0.43392,-0.0529 -0.889,-0.27517 -0.4445,-0.23283 -0.81492,-0.58208 -0.35983,-0.34925 -0.59266,-0.78317 -0.23284,-0.43392 -0.23284,-0.91017 z m 1.64042,-0.0423 q 0.30692,0.5715 0.71967,0.889 0.42333,0.30692 1.09008,0.30692 0.3175,0 0.62442,-0.11642 0.3175,-0.11642 0.56091,-0.3175 0.24342,-0.21167 0.39159,-0.49742 0.15875,-0.29633 0.15875,-0.635 v -3.47133 q 0,-0.24342 -0.127,-0.47625 -0.11642,-0.24341 -0.3175,-0.43391 -0.20109,-0.1905 -0.4445,-0.30692 -0.24342,-0.11642 -0.47625,-0.11642 h -0.11642 q 0.15875,0.0635 0.32808,0.16934 0.16934,0.10583 0.30692,0.24341 0.13758,0.127 0.22225,0.29634 0.0952,0.15875 0.0952,0.32808 h -0.13758 q -0.127,-0.11642 -0.26459,-0.23283 -0.127,-0.127 -0.27516,-0.22225 -0.13759,-0.0952 -0.29634,-0.14817 -0.15875,-0.0635 -0.33866,-0.0635 -0.381,0 -0.61384,0.0741 -0.22225,0.0741 -0.381,0.22225 -0.15875,0.13759 -0.28575,0.34925 -0.11641,0.20108 -0.27516,0.46567 l -0.0741,-0.14817 q 0,0 -0.0212,0 -0.0106,-0.0106 -0.0212,-0.0106 l -0.0317,0.0106 q -0.0106,0.0212 -0.0318,0.0847 -0.0106,0.0635 -0.0212,0.13758 -0.0106,0.0635 -0.0212,0.127 0,0.0635 0,0.0952 0,0.0318 0.0106,0.15875 0.0106,0.11642 0.0212,0.254 0.0212,0.127 0.0317,0.254 0.0106,0.11642 0.0106,0.14817 0,0.0318 -0.0106,0.15875 -0.0106,0.127 -0.0317,0.28575 -0.0106,0.14816 -0.0212,0.28575 -0.0106,0.127 -0.0106,0.15875 0,0.0952 0,0.33866 0.0106,0.24342 0.0212,0.51859 0.0106,0.26458 0.0212,0.508 0.0212,0.23283 0.0318,0.32808 z m 0.14817,-1.10067 q 0.0317,0.0212 0.0317,0.10584 0,0.0847 -0.0317,0.11641 -0.0212,0.0106 -0.0317,-0.0212 0,-0.0423 0,-0.0847 0,-0.127 0.0317,-0.11642 z m 2.87866,-0.15875 q 0,-0.0529 0.0106,-0.0847 0.0106,-0.0318 0.0635,-0.0529 0.0529,0.0529 0.0635,0.10583 0.0212,0.0423 0.0212,0.11642 0,0.0529 -0.0106,0.0953 -0.0106,0.0317 -0.0741,0.0529 -0.0529,-0.0635 -0.0635,-0.10584 -0.0106,-0.0529 -0.0106,-0.127 z m -0.0741,-2.07433 q 0,-0.0952 0.0212,-0.15875 0.0212,-0.0635 0.13758,-0.0635 0.0847,0 0.14817,0.0741 0.0741,0.0635 0.0741,0.15875 0,0.11642 -0.0529,0.20109 -0.0529,0.0741 -0.13758,0.16933 v 1.25942 q -0.0106,-0.16934 -0.0423,-0.37042 -0.0318,-0.21167 -0.0635,-0.42333 -0.0318,-0.22225 -0.0635,-0.43392 -0.0212,-0.22225 -0.0212,-0.41275 z m -2.40242,-1.47108 h -0.0318 q -0.0212,0.0106 -0.0529,0.0423 -0.0212,0.0212 -0.0212,0.0318 l 0.0317,0.0106 q 0.0106,0 0.0212,0 0.0106,-0.0106 0.0212,-0.0106 0.0106,-0.0106 0.0318,-0.0318 0.0317,-0.0212 0.0423,-0.0423 z m 0.1905,-0.14817 q -0.0529,0 -0.0529,0.0741 0,0.0741 0.0529,0.0741 0.0529,0 0.0529,-0.0741 0,-0.0741 -0.0529,-0.0741 z"
         style="font-style:normal;font-variant:normal;font-weight:normal;font-stretch:normal;font-family:'Embossing Tape 1 (BRK)';-inkscape-font-specification:'Embossing Tape 1 (BRK)';stroke-width:0.26458332"
         id="path9409"
         inkscape:connector-curvature="0" />
      <path
         d="m 199.30363,140.28416 h 0.0952 q 0.0318,0.127 0.14817,0.40217 0.11642,0.26458 0.27517,0.55033 0.15875,0.27517 0.32808,0.48684 0.16933,0.20108 0.3175,0.20108 0.0106,0 0.0212,0 0.0106,-0.0106 0.0212,-0.0106 -0.127,-0.1905 -0.26458,-0.381 -0.127,-0.1905 -0.23283,-0.39159 -0.10584,-0.21166 -0.17992,-0.42333 -0.0635,-0.21167 -0.0635,-0.45508 0,-0.41275 0.0741,-0.84667 0.0741,-0.43392 0.37042,-0.75142 0.0106,-0.0106 0.0741,-0.0529 0.0635,-0.0529 0.13759,-0.0952 0.0741,-0.0529 0.13758,-0.0952 0.0741,-0.0423 0.0952,-0.0529 l 0.22225,-0.22225 q -0.13758,-0.17992 -0.32808,-0.23283 -0.17992,-0.0635 -0.33867,-0.21167 -0.3175,-0.3175 -0.39158,-0.68792 -0.0635,-0.381 -0.0635,-0.79375 0,-0.73024 0.32808,-1.34408 0.33867,-0.61383 1.016,-0.9525 0.15875,-0.0847 0.32808,-0.10583 0.17992,-0.0212 0.33867,-0.11642 h 1.76742 q 0.0212,0 0.127,0.0423 0.10583,0.0317 0.23283,0.0847 0.127,0.0423 0.254,0.0952 0.127,0.0423 0.20108,0.0741 0.28575,0.13758 0.46567,0.32808 0.17992,0.1905 0.30692,0.42333 0.127,0.22225 0.23283,0.46567 0.11642,0.24342 0.254,0.48683 v 0.10584 q 0,0.0741 0,0.15875 0.0106,0.0741 0.0106,0.14816 v 0.10583 q 0,0.37042 -0.0635,0.67734 -0.0529,0.29633 -0.0952,0.65616 l -0.0741,-0.0741 q 0,0.0212 0.0106,0.11642 0.0106,0.0952 0.0106,0.20108 0,0.10583 -0.0423,0.20108 -0.0318,0.0847 -0.127,0.0847 -0.0529,0 -0.0952,-0.0212 -0.0318,-0.0317 -0.0635,-0.0635 -0.0318,-0.0318 -0.0741,-0.0529 -0.0317,-0.0317 -0.0952,-0.0317 -0.0847,0 -0.17992,0.0423 -0.0847,0.0423 -0.0847,0.14817 v 0.0423 q 0.22225,0.17992 0.41275,0.40217 0.1905,0.22225 0.32808,0.48683 0,0.14817 0.0212,0.33867 0.0212,0.17991 0.0529,0.381 0.0317,0.1905 0.0529,0.39158 0.0212,0.1905 0.0212,0.35983 v 0.0741 q 0,0.0317 -0.0106,0.10583 -0.0106,0.0741 -0.0318,0.15875 -0.0106,0.0847 -0.0212,0.15875 -0.0106,0.0635 -0.0106,0.0952 -0.11641,-0.0635 -0.1905,0.0741 -0.0635,0.127 -0.11641,0.3175 -0.0529,0.1905 -0.11642,0.35984 -0.0635,0.15875 -0.16933,0.15875 v -0.16934 q -0.13759,-0.0212 -0.1905,0.0212 -0.0423,0.0318 -0.0423,0.11642 0,0.0529 0.0106,0.0953 0.0212,0.0423 0.0741,0.0635 -0.23283,0.27516 -0.51858,0.41275 -0.27517,0.13758 -0.58209,0.20108 -0.30691,0.0529 -0.64558,0.0635 -0.32808,0 -0.65617,0 h -0.16933 q -0.11642,0 -0.254,0 -0.13758,-0.0106 -0.26458,-0.0106 h -0.15875 q -0.4445,-0.0741 -0.83609,-0.29634 -0.39158,-0.23283 -0.68791,-0.56091 -0.29634,-0.33867 -0.47625,-0.762 -0.16934,-0.42334 -0.16934,-0.89959 z m 4.23334,2.29659 0.0741,0.0741 h 0.0423 0.0317 q 0.0212,-0.0106 0.0423,-0.0318 0.0317,-0.0317 0.0317,-0.0423 0,-0.0741 -0.0741,-0.0741 -0.0212,0 -0.0741,0.0317 -0.0529,0.0212 -0.0741,0.0423 z m -0.74084,-0.0741 q 0.0106,-0.0318 -0.0423,-0.0318 -0.0423,0 -0.0318,0.0318 0.0106,0.0317 0.0318,0.0317 0.0212,0 0.0423,-0.0317 z m 1.25942,-0.0741 q 0.0106,-0.0317 -0.0423,-0.0317 -0.0423,0 -0.0317,0.0317 0.0106,0.0317 0.0317,0.0317 0.0212,0 0.0423,-0.0317 z m -3.32317,-0.37042 q -0.0529,0 -0.0529,0.0741 0,0.0741 0.0529,0.0741 0.0529,0 0.0529,-0.0741 0,-0.0741 -0.0529,-0.0741 z m 0.22225,-1.95791 q 0,0.40216 0.15875,0.64558 0.16934,0.23283 0.42334,0.37042 0.254,0.127 0.5715,0.16933 0.3175,0.0423 0.62441,0.0423 0.27517,0 0.58209,-0.0423 0.3175,-0.0529 0.58208,-0.17992 0.26458,-0.13758 0.43392,-0.35983 0.17991,-0.23283 0.17991,-0.60325 0,-0.20108 -0.0635,-0.4445 -0.0529,-0.24342 -0.17991,-0.45508 -0.11642,-0.22225 -0.29634,-0.37042 -0.17991,-0.14817 -0.43391,-0.14817 v 0.15875 q 0.21166,0.15875 0.40216,0.381 0.20109,0.22225 0.20109,0.49742 0,0.14817 -0.0529,0.29633 -0.0529,0.14817 -0.17992,0.22225 0,-0.127 -0.0423,-0.27516 -0.0317,-0.15875 -0.10583,-0.29634 -0.0741,-0.13758 -0.1905,-0.24341 -0.10584,-0.10584 -0.254,-0.13759 -0.0529,0 -0.17992,-0.0106 -0.11642,-0.0106 -0.23283,-0.0106 h -0.10584 q -0.508,0 -0.86783,0.15875 -0.35983,0.14816 -0.67733,0.51858 -0.0317,-0.0529 -0.0952,-0.14817 -0.0635,-0.0953 -0.127,-0.14816 -0.0212,0.0529 -0.0423,0.1905 -0.0212,0.13758 -0.0317,0.17991 z m 0.30692,-0.80434 q -0.0741,0 -0.11642,0.0529 -0.0317,0.0529 -0.0423,0.127 h 0.0317 q 0.0741,0 0.0953,-0.0635 0.0317,-0.0635 0.0317,-0.11642 z m 0.52917,-0.508 q -0.0635,0 -0.14817,0.0423 -0.0847,0.0318 -0.15875,0.0952 -0.0741,0.0529 -0.127,0.127 -0.0529,0.0741 -0.0529,0.14816 0.0318,0 0.11642,-0.0423 0.0847,-0.0529 0.15875,-0.11642 0.0847,-0.0741 0.14817,-0.13758 0.0635,-0.0741 0.0635,-0.11642 z m -2.4765,-2.02141 q 0,-0.0529 0,-0.10584 0.0106,-0.0529 0.0847,-0.0741 0,0 0.11642,0.21167 0.127,0.21166 0.26458,0.47625 0.13759,0.26458 0.24342,0.48683 0.11642,0.22225 0.11642,0.23283 0,0.0106 -0.0635,0.0741 -0.0529,0.0529 -0.0847,0.0741 h -0.0423 q -0.11642,0 -0.23284,-0.17992 -0.11641,-0.1905 -0.21166,-0.42333 -0.0847,-0.24342 -0.13759,-0.46567 -0.0529,-0.22225 -0.0529,-0.30691 z m 1.68275,-1.016 q 0,0.26458 -0.0106,0.49741 0,0.22225 0.0318,0.42334 0.0423,0.20108 0.13759,0.381 0.10583,0.17991 0.3175,0.34925 0.0317,0.0318 0.0741,0.0741 0.0529,0.0317 0.0952,0.0635 0.0529,0.0317 0.0847,0.0635 0.0423,0.0212 0.0423,0.0212 h 1.91558 q 0.16934,0 0.3175,-0.16934 0.14817,-0.17991 0.254,-0.41275 0.11642,-0.24341 0.17992,-0.48683 0.0741,-0.24342 0.0741,-0.381 0,-0.20108 -0.0847,-0.42333 -0.0741,-0.23283 -0.21167,-0.42333 -0.13758,-0.20109 -0.33867,-0.32809 -0.1905,-0.13758 -0.41275,-0.13758 v 0.0952 q 0.29634,0.21167 0.4445,0.41275 0.15875,0.1905 0.15875,0.51858 0,0.0529 -0.0106,0.10584 0,0.0529 -0.0741,0.0741 -0.11642,-0.24342 -0.33867,-0.45508 -0.21167,-0.21167 -0.49742,-0.21167 h -0.127 q -0.0635,0 -0.22225,0.0106 -0.14816,0.0106 -0.32808,0.0317 -0.17992,0.0106 -0.33867,0.0212 -0.14816,0.0106 -0.21166,0.0106 -0.22225,0.0529 -0.37042,0.22225 -0.14817,0.16934 -0.22225,0.37042 -0.0635,-0.0318 -0.0952,-0.0847 -0.0212,-0.0635 -0.0529,-0.10583 -0.0212,-0.0529 -0.0635,-0.0847 -0.0423,-0.0423 -0.11641,-0.0423 z m -1.89442,0.24342 q 0,-0.0423 0.10583,-0.0952 0.11642,-0.0529 0.11642,-0.0529 h 0.0423 q 0.0952,0 0.10584,0.0847 0.0106,0.0741 0.0106,0.13758 0,0.0635 -0.0106,0.14816 -0.0106,0.0741 -0.11642,0.0741 -0.0635,0 -0.15875,-0.10584 -0.0952,-0.11641 -0.0952,-0.19049 z m 2.51883,-1.03717 q 0,0 -0.0423,0.0212 -0.0317,0.0212 -0.0847,0.0635 -0.0423,0.0317 -0.0952,0.0741 -0.0423,0.0318 -0.0741,0.0635 -0.0212,0.0212 -0.0741,0.10583 -0.0529,0.0847 -0.0741,0.11642 -0.0106,0.0106 -0.0212,0.0423 0,0.0212 0,0.0318 h 0.0952 q 0.0952,-0.13758 0.17991,-0.26458 0.0952,-0.127 0.26459,-0.17992 z"
         style="font-style:normal;font-variant:normal;font-weight:normal;font-stretch:normal;font-family:'Embossing Tape 1 (BRK)';-inkscape-font-specification:'Embossing Tape 1 (BRK)';stroke-width:0.26458332"
         id="path9411"
         inkscape:connector-curvature="0" />
    </g>
    <path
       d="M 356.13251,156.86751 H 353.1325"
       style="fill:none;stroke:#0000ff;stroke-width:0.1;stroke-miterlimit:4;stroke-dasharray:none;stroke-opacity:1"
       id="path9430"
       inkscape:connector-curvature="0" />
    <path
       d="M 353.1325,156.86751 V 136.86749"
       style="fill:none;stroke:#0000ff;stroke-width:0.1;stroke-miterlimit:4;stroke-dasharray:none;stroke-opacity:1"
       id="path9432"
       inkscape:connector-curvature="0" />
    <path
       d="m 353.1325,136.86749 h 3.00001"
       style="fill:none;stroke:#0000ff;stroke-width:0.1;stroke-miterlimit:4;stroke-dasharray:none;stroke-opacity:1"
       id="path9434"
       inkscape:connector-curvature="0" />
    <path
       d="M 356.13251,136.86749 V 116.8675"
       style="fill:none;stroke:#0000ff;stroke-width:0.1;stroke-miterlimit:4;stroke-dasharray:none;stroke-opacity:1"
       id="path9436"
       inkscape:connector-curvature="0" />
    <path
       d="M 356.13251,116.8675 H 335.19132"
       style="fill:none;stroke:#0000ff;stroke-width:0.1;stroke-miterlimit:4;stroke-dasharray:none;stroke-opacity:1"
       id="path9438"
       inkscape:connector-curvature="0" />
    <path
       d="m 335.19132,116.8675 v 3.00001"
       style="fill:none;stroke:#0000ff;stroke-width:0.1;stroke-miterlimit:4;stroke-dasharray:none;stroke-opacity:1"
       id="path9440"
       inkscape:connector-curvature="0" />
    <path
       d="M 335.19132,119.86751 H 314.25016"
       style="fill:none;stroke:#0000ff;stroke-width:0.1;stroke-miterlimit:4;stroke-dasharray:none;stroke-opacity:1"
       id="path9442"
       inkscape:connector-curvature="0" />
    <path
       d="M 314.25016,119.86751 V 116.8675"
       style="fill:none;stroke:#0000ff;stroke-width:0.1;stroke-miterlimit:4;stroke-dasharray:none;stroke-opacity:1"
       id="path9444"
       inkscape:connector-curvature="0" />
    <path
       d="M 314.25016,116.8675 H 293.30897"
       style="fill:none;stroke:#0000ff;stroke-width:0.1;stroke-miterlimit:4;stroke-dasharray:none;stroke-opacity:1"
       id="path9446"
       inkscape:connector-curvature="0" />
    <path
       d="m 293.30897,116.8675 v 3.00001"
       style="fill:none;stroke:#0000ff;stroke-width:0.1;stroke-miterlimit:4;stroke-dasharray:none;stroke-opacity:1"
       id="path9448"
       inkscape:connector-curvature="0" />
    <path
       d="M 293.30897,119.86751 H 272.36781"
       style="fill:none;stroke:#0000ff;stroke-width:0.1;stroke-miterlimit:4;stroke-dasharray:none;stroke-opacity:1"
       id="path9450"
       inkscape:connector-curvature="0" />
    <path
       d="M 272.36781,119.86751 V 116.8675"
       style="fill:none;stroke:#0000ff;stroke-width:0.1;stroke-miterlimit:4;stroke-dasharray:none;stroke-opacity:1"
       id="path9452"
       inkscape:connector-curvature="0" />
    <path
       d="M 272.36781,116.8675 H 251.42663"
       style="fill:none;stroke:#0000ff;stroke-width:0.1;stroke-miterlimit:4;stroke-dasharray:none;stroke-opacity:1"
       id="path9454"
       inkscape:connector-curvature="0" />
    <path
       d="m 251.42663,116.8675 v 3.00001"
       style="fill:none;stroke:#0000ff;stroke-width:0.1;stroke-miterlimit:4;stroke-dasharray:none;stroke-opacity:1"
       id="path9456"
       inkscape:connector-curvature="0" />
    <path
       d="M 251.42663,119.86751 H 230.48545"
       style="fill:none;stroke:#0000ff;stroke-width:0.1;stroke-miterlimit:4;stroke-dasharray:none;stroke-opacity:1"
       id="path9458"
       inkscape:connector-curvature="0" />
    <path
       d="M 230.48545,119.86751 V 116.8675"
       style="fill:none;stroke:#0000ff;stroke-width:0.1;stroke-miterlimit:4;stroke-dasharray:none;stroke-opacity:1"
       id="path9460"
       inkscape:connector-curvature="0" />
    <path
       d="M 230.48545,116.8675 H 209.54427"
       style="fill:none;stroke:#0000ff;stroke-width:0.1;stroke-miterlimit:4;stroke-dasharray:none;stroke-opacity:1"
       id="path9462"
       inkscape:connector-curvature="0" />
    <path
       d="m 209.54427,116.8675 v 3.00001"
       style="fill:none;stroke:#0000ff;stroke-width:0.1;stroke-miterlimit:4;stroke-dasharray:none;stroke-opacity:1"
       id="path9464"
       inkscape:connector-curvature="0" />
    <path
       d="M 209.54427,119.86751 H 188.6031"
       style="fill:none;stroke:#0000ff;stroke-width:0.1;stroke-miterlimit:4;stroke-dasharray:none;stroke-opacity:1"
       id="path9466"
       inkscape:connector-curvature="0" />
    <path
       d="M 188.6031,119.86751 V 116.8675"
       style="fill:none;stroke:#0000ff;stroke-width:0.1;stroke-miterlimit:4;stroke-dasharray:none;stroke-opacity:1"
       id="path9468"
       inkscape:connector-curvature="0" />
    <path
       d="M 188.6031,116.8675 H 167.66192"
       style="fill:none;stroke:#0000ff;stroke-width:0.1;stroke-miterlimit:4;stroke-dasharray:none;stroke-opacity:1"
       id="path9470"
       inkscape:connector-curvature="0" />
    <path
       d="m 167.66192,116.8675 v 3.00001"
       style="fill:none;stroke:#0000ff;stroke-width:0.1;stroke-miterlimit:4;stroke-dasharray:none;stroke-opacity:1"
       id="path9472"
       inkscape:connector-curvature="0" />
    <path
       d="M 167.66192,119.86751 H 146.72074"
       style="fill:none;stroke:#0000ff;stroke-width:0.1;stroke-miterlimit:4;stroke-dasharray:none;stroke-opacity:1"
       id="path9474"
       inkscape:connector-curvature="0" />
    <path
       d="M 146.72074,119.86751 V 116.8675"
       style="fill:none;stroke:#0000ff;stroke-width:0.1;stroke-miterlimit:4;stroke-dasharray:none;stroke-opacity:1"
       id="path9476"
       inkscape:connector-curvature="0" />
    <path
       d="M 146.72074,116.8675 H 125.77957"
       style="fill:none;stroke:#0000ff;stroke-width:0.1;stroke-miterlimit:4;stroke-dasharray:none;stroke-opacity:1"
       id="path9478"
       inkscape:connector-curvature="0" />
    <path
       d="m 125.77957,116.8675 v 3.00001"
       style="fill:none;stroke:#0000ff;stroke-width:0.1;stroke-miterlimit:4;stroke-dasharray:none;stroke-opacity:1"
       id="path9480"
       inkscape:connector-curvature="0" />
    <path
       d="M 125.77957,119.86751 H 104.83839"
       style="fill:none;stroke:#0000ff;stroke-width:0.1;stroke-miterlimit:4;stroke-dasharray:none;stroke-opacity:1"
       id="path9482"
       inkscape:connector-curvature="0" />
    <path
       d="M 104.83839,119.86751 V 116.8675"
       style="fill:none;stroke:#0000ff;stroke-width:0.1;stroke-miterlimit:4;stroke-dasharray:none;stroke-opacity:1"
       id="path9484"
       inkscape:connector-curvature="0" />
    <path
       d="M 104.83839,116.8675 H 83.89721"
       style="fill:none;stroke:#0000ff;stroke-width:0.1;stroke-miterlimit:4;stroke-dasharray:none;stroke-opacity:1"
       id="path9486"
       inkscape:connector-curvature="0" />
    <path
       d="m 83.89721,116.8675 v 3.00001"
       style="fill:none;stroke:#0000ff;stroke-width:0.1;stroke-miterlimit:4;stroke-dasharray:none;stroke-opacity:1"
       id="path9488"
       inkscape:connector-curvature="0" />
    <path
       d="M 83.89721,119.86751 H 62.956021"
       style="fill:none;stroke:#0000ff;stroke-width:0.1;stroke-miterlimit:4;stroke-dasharray:none;stroke-opacity:1"
       id="path9490"
       inkscape:connector-curvature="0" />
    <path
       d="M 62.956021,119.86751 V 116.8675"
       style="fill:none;stroke:#0000ff;stroke-width:0.1;stroke-miterlimit:4;stroke-dasharray:none;stroke-opacity:1"
       id="path9492"
       inkscape:connector-curvature="0" />
    <path
       d="M 62.956021,116.8675 H 42.014859"
       style="fill:none;stroke:#0000ff;stroke-width:0.1;stroke-miterlimit:4;stroke-dasharray:none;stroke-opacity:1"
       id="path9494"
       inkscape:connector-curvature="0" />
    <path
       d="m 42.014859,116.8675 v 3.00001"
       style="fill:none;stroke:#0000ff;stroke-width:0.1;stroke-miterlimit:4;stroke-dasharray:none;stroke-opacity:1"
       id="path9496"
       inkscape:connector-curvature="0" />
    <path
       d="M 42.014859,119.86751 H 21.07367"
       style="fill:none;stroke:#0000ff;stroke-width:0.1;stroke-miterlimit:4;stroke-dasharray:none;stroke-opacity:1"
       id="path9498"
       inkscape:connector-curvature="0" />
    <path
       d="M 21.07367,119.86751 V 116.8675"
       style="fill:none;stroke:#0000ff;stroke-width:0.1;stroke-miterlimit:4;stroke-dasharray:none;stroke-opacity:1"
       id="path9500"
       inkscape:connector-curvature="0" />
    <path
       d="M 21.07367,116.8675 H 0.13250777"
       style="fill:none;stroke:#0000ff;stroke-width:0.1;stroke-miterlimit:4;stroke-dasharray:none;stroke-opacity:1"
       id="path9502"
       inkscape:connector-curvature="0" />
    <path
       d="m 0.13250777,116.8675 v 19.99999"
       style="fill:none;stroke:#0000ff;stroke-width:0.1;stroke-miterlimit:4;stroke-dasharray:none;stroke-opacity:1"
       id="path9504"
       inkscape:connector-curvature="0" />
    <path
       d="M 0.13250777,136.86749 H 3.1325123"
       style="fill:none;stroke:#0000ff;stroke-width:0.1;stroke-miterlimit:4;stroke-dasharray:none;stroke-opacity:1"
       id="path9506"
       inkscape:connector-curvature="0" />
    <path
       d="m 3.1325123,136.86749 v 20.00002"
       style="fill:none;stroke:#0000ff;stroke-width:0.1;stroke-miterlimit:4;stroke-dasharray:none;stroke-opacity:1"
       id="path9508"
       inkscape:connector-curvature="0" />
    <path
       d="M 3.1325123,156.86751 H 0.13250777"
       style="fill:none;stroke:#0000ff;stroke-width:0.1;stroke-miterlimit:4;stroke-dasharray:none;stroke-opacity:1"
       id="path9510"
       inkscape:connector-curvature="0" />
    <path
       d="M 0.13250777,156.86751 V 176.8675"
       style="fill:none;stroke:#0000ff;stroke-width:0.1;stroke-miterlimit:4;stroke-dasharray:none;stroke-opacity:1"
       id="path9512"
       inkscape:connector-curvature="0" />
    <path
       d="M 0.13250777,176.8675 H 3.1325123"
       style="fill:none;stroke:#0000ff;stroke-width:0.1;stroke-miterlimit:4;stroke-dasharray:none;stroke-opacity:1"
       id="path9514"
       inkscape:connector-curvature="0" />
    <path
       d="m 3.1325123,176.8675 v 20.00001"
       style="fill:none;stroke:#0000ff;stroke-width:0.1;stroke-miterlimit:4;stroke-dasharray:none;stroke-opacity:1"
       id="path9516"
       inkscape:connector-curvature="0" />
    <path
       d="M 3.1325123,196.86751 H 0.13250777"
       style="fill:none;stroke:#0000ff;stroke-width:0.1;stroke-miterlimit:4;stroke-dasharray:none;stroke-opacity:1"
       id="path9518"
       inkscape:connector-curvature="0" />
    <path
       d="M 0.13250777,196.86751 V 216.8675"
       style="fill:none;stroke:#0000ff;stroke-width:0.1;stroke-miterlimit:4;stroke-dasharray:none;stroke-opacity:1"
       id="path9520"
       inkscape:connector-curvature="0" />
    <path
       d="M 0.13250777,216.8675 H 3.1325123"
       style="fill:none;stroke:#0000ff;stroke-width:0.1;stroke-miterlimit:4;stroke-dasharray:none;stroke-opacity:1"
       id="path9522"
       inkscape:connector-curvature="0" />
    <path
       d="m 3.1325123,216.8675 v 20.00001"
       style="fill:none;stroke:#0000ff;stroke-width:0.1;stroke-miterlimit:4;stroke-dasharray:none;stroke-opacity:1"
       id="path9524"
       inkscape:connector-curvature="0" />
    <path
       d="M 3.1325123,236.86751 H 0.13250777"
       style="fill:none;stroke:#0000ff;stroke-width:0.1;stroke-miterlimit:4;stroke-dasharray:none;stroke-opacity:1"
       id="path9526"
       inkscape:connector-curvature="0" />
    <path
       d="M 0.13250777,236.86751 V 256.8675"
       style="fill:none;stroke:#0000ff;stroke-width:0.1;stroke-miterlimit:4;stroke-dasharray:none;stroke-opacity:1"
       id="path9528"
       inkscape:connector-curvature="0" />
    <path
       d="M 0.13250777,256.8675 H 3.1325123"
       style="fill:none;stroke:#0000ff;stroke-width:0.1;stroke-miterlimit:4;stroke-dasharray:none;stroke-opacity:1"
       id="path9530"
       inkscape:connector-curvature="0" />
    <path
       d="m 3.1325123,256.8675 v 20.00001"
       style="fill:none;stroke:#0000ff;stroke-width:0.1;stroke-miterlimit:4;stroke-dasharray:none;stroke-opacity:1"
       id="path9532"
       inkscape:connector-curvature="0" />
    <path
       d="M 3.1325123,276.86751 H 0.13250777"
       style="fill:none;stroke:#0000ff;stroke-width:0.1;stroke-miterlimit:4;stroke-dasharray:none;stroke-opacity:1"
       id="path9534"
       inkscape:connector-curvature="0" />
    <path
       d="M 0.13250777,276.86751 V 296.8675"
       style="fill:none;stroke:#0000ff;stroke-width:0.1;stroke-miterlimit:4;stroke-dasharray:none;stroke-opacity:1"
       id="path9536"
       inkscape:connector-curvature="0" />
    <path
       d="M 0.13250777,296.8675 H 21.07367"
       style="fill:none;stroke:#0000ff;stroke-width:0.1;stroke-miterlimit:4;stroke-dasharray:none;stroke-opacity:1"
       id="path9538"
       inkscape:connector-curvature="0" />
    <path
       d="m 21.07367,296.8675 v -2.99998"
       style="fill:none;stroke:#0000ff;stroke-width:0.1;stroke-miterlimit:4;stroke-dasharray:none;stroke-opacity:1"
       id="path9540"
       inkscape:connector-curvature="0" />
    <path
       d="M 21.07367,293.86752 H 42.014859"
       style="fill:none;stroke:#0000ff;stroke-width:0.1;stroke-miterlimit:4;stroke-dasharray:none;stroke-opacity:1"
       id="path9542"
       inkscape:connector-curvature="0" />
    <path
       d="m 42.014859,293.86752 v 2.99998"
       style="fill:none;stroke:#0000ff;stroke-width:0.1;stroke-miterlimit:4;stroke-dasharray:none;stroke-opacity:1"
       id="path9544"
       inkscape:connector-curvature="0" />
    <path
       d="M 42.014859,296.8675 H 62.956021"
       style="fill:none;stroke:#0000ff;stroke-width:0.1;stroke-miterlimit:4;stroke-dasharray:none;stroke-opacity:1"
       id="path9546"
       inkscape:connector-curvature="0" />
    <path
       d="m 62.956021,296.8675 v -2.99998"
       style="fill:none;stroke:#0000ff;stroke-width:0.1;stroke-miterlimit:4;stroke-dasharray:none;stroke-opacity:1"
       id="path9548"
       inkscape:connector-curvature="0" />
    <path
       d="M 62.956021,293.86752 H 83.89721"
       style="fill:none;stroke:#0000ff;stroke-width:0.1;stroke-miterlimit:4;stroke-dasharray:none;stroke-opacity:1"
       id="path9550"
       inkscape:connector-curvature="0" />
    <path
       d="m 83.89721,293.86752 v 2.99998"
       style="fill:none;stroke:#0000ff;stroke-width:0.1;stroke-miterlimit:4;stroke-dasharray:none;stroke-opacity:1"
       id="path9552"
       inkscape:connector-curvature="0" />
    <path
       d="m 83.89721,296.8675 h 20.94118"
       style="fill:none;stroke:#0000ff;stroke-width:0.1;stroke-miterlimit:4;stroke-dasharray:none;stroke-opacity:1"
       id="path9554"
       inkscape:connector-curvature="0" />
    <path
       d="m 104.83839,296.8675 v -2.99998"
       style="fill:none;stroke:#0000ff;stroke-width:0.1;stroke-miterlimit:4;stroke-dasharray:none;stroke-opacity:1"
       id="path9556"
       inkscape:connector-curvature="0" />
    <path
       d="m 104.83839,293.86752 h 20.94118"
       style="fill:none;stroke:#0000ff;stroke-width:0.1;stroke-miterlimit:4;stroke-dasharray:none;stroke-opacity:1"
       id="path9558"
       inkscape:connector-curvature="0" />
    <path
       d="m 125.77957,293.86752 v 2.99998"
       style="fill:none;stroke:#0000ff;stroke-width:0.1;stroke-miterlimit:4;stroke-dasharray:none;stroke-opacity:1"
       id="path9560"
       inkscape:connector-curvature="0" />
    <path
       d="m 125.77957,296.8675 h 20.94117"
       style="fill:none;stroke:#0000ff;stroke-width:0.1;stroke-miterlimit:4;stroke-dasharray:none;stroke-opacity:1"
       id="path9562"
       inkscape:connector-curvature="0" />
    <path
       d="m 146.72074,296.8675 v -2.99998"
       style="fill:none;stroke:#0000ff;stroke-width:0.1;stroke-miterlimit:4;stroke-dasharray:none;stroke-opacity:1"
       id="path9564"
       inkscape:connector-curvature="0" />
    <path
       d="m 146.72074,293.86752 h 20.94118"
       style="fill:none;stroke:#0000ff;stroke-width:0.1;stroke-miterlimit:4;stroke-dasharray:none;stroke-opacity:1"
       id="path9566"
       inkscape:connector-curvature="0" />
    <path
       d="m 167.66192,293.86752 v 2.99998"
       style="fill:none;stroke:#0000ff;stroke-width:0.1;stroke-miterlimit:4;stroke-dasharray:none;stroke-opacity:1"
       id="path9568"
       inkscape:connector-curvature="0" />
    <path
       d="M 167.66192,296.8675 H 188.6031"
       style="fill:none;stroke:#0000ff;stroke-width:0.1;stroke-miterlimit:4;stroke-dasharray:none;stroke-opacity:1"
       id="path9570"
       inkscape:connector-curvature="0" />
    <path
       d="m 188.6031,296.8675 v -2.99998"
       style="fill:none;stroke:#0000ff;stroke-width:0.1;stroke-miterlimit:4;stroke-dasharray:none;stroke-opacity:1"
       id="path9572"
       inkscape:connector-curvature="0" />
    <path
       d="m 188.6031,293.86752 h 20.94117"
       style="fill:none;stroke:#0000ff;stroke-width:0.1;stroke-miterlimit:4;stroke-dasharray:none;stroke-opacity:1"
       id="path9574"
       inkscape:connector-curvature="0" />
    <path
       d="m 209.54427,293.86752 v 2.99998"
       style="fill:none;stroke:#0000ff;stroke-width:0.1;stroke-miterlimit:4;stroke-dasharray:none;stroke-opacity:1"
       id="path9576"
       inkscape:connector-curvature="0" />
    <path
       d="m 209.54427,296.8675 h 20.94118"
       style="fill:none;stroke:#0000ff;stroke-width:0.1;stroke-miterlimit:4;stroke-dasharray:none;stroke-opacity:1"
       id="path9578"
       inkscape:connector-curvature="0" />
    <path
       d="m 230.48545,296.8675 v -2.99998"
       style="fill:none;stroke:#0000ff;stroke-width:0.1;stroke-miterlimit:4;stroke-dasharray:none;stroke-opacity:1"
       id="path9580"
       inkscape:connector-curvature="0" />
    <path
       d="m 230.48545,293.86752 h 20.94118"
       style="fill:none;stroke:#0000ff;stroke-width:0.1;stroke-miterlimit:4;stroke-dasharray:none;stroke-opacity:1"
       id="path9582"
       inkscape:connector-curvature="0" />
    <path
       d="m 251.42663,293.86752 v 2.99998"
       style="fill:none;stroke:#0000ff;stroke-width:0.1;stroke-miterlimit:4;stroke-dasharray:none;stroke-opacity:1"
       id="path9584"
       inkscape:connector-curvature="0" />
    <path
       d="m 251.42663,296.8675 h 20.94118"
       style="fill:none;stroke:#0000ff;stroke-width:0.1;stroke-miterlimit:4;stroke-dasharray:none;stroke-opacity:1"
       id="path9586"
       inkscape:connector-curvature="0" />
    <path
       d="m 272.36781,296.8675 v -2.99998"
       style="fill:none;stroke:#0000ff;stroke-width:0.1;stroke-miterlimit:4;stroke-dasharray:none;stroke-opacity:1"
       id="path9588"
       inkscape:connector-curvature="0" />
    <path
       d="m 272.36781,293.86752 h 20.94116"
       style="fill:none;stroke:#0000ff;stroke-width:0.1;stroke-miterlimit:4;stroke-dasharray:none;stroke-opacity:1"
       id="path9590"
       inkscape:connector-curvature="0" />
    <path
       d="m 293.30897,293.86752 v 2.99998"
       style="fill:none;stroke:#0000ff;stroke-width:0.1;stroke-miterlimit:4;stroke-dasharray:none;stroke-opacity:1"
       id="path9592"
       inkscape:connector-curvature="0" />
    <path
       d="m 293.30897,296.8675 h 20.94119"
       style="fill:none;stroke:#0000ff;stroke-width:0.1;stroke-miterlimit:4;stroke-dasharray:none;stroke-opacity:1"
       id="path9594"
       inkscape:connector-curvature="0" />
    <path
       d="m 314.25016,296.8675 v -2.99998"
       style="fill:none;stroke:#0000ff;stroke-width:0.1;stroke-miterlimit:4;stroke-dasharray:none;stroke-opacity:1"
       id="path9596"
       inkscape:connector-curvature="0" />
    <path
       d="m 314.25016,293.86752 h 20.94116"
       style="fill:none;stroke:#0000ff;stroke-width:0.1;stroke-miterlimit:4;stroke-dasharray:none;stroke-opacity:1"
       id="path9598"
       inkscape:connector-curvature="0" />
    <path
       d="m 335.19132,293.86752 v 2.99998"
       style="fill:none;stroke:#0000ff;stroke-width:0.1;stroke-miterlimit:4;stroke-dasharray:none;stroke-opacity:1"
       id="path9600"
       inkscape:connector-curvature="0" />
    <path
       d="m 335.19132,296.8675 h 20.94119"
       style="fill:none;stroke:#0000ff;stroke-width:0.1;stroke-miterlimit:4;stroke-dasharray:none;stroke-opacity:1"
       id="path9602"
       inkscape:connector-curvature="0" />
    <path
       d="M 356.13251,296.8675 V 276.86751"
       style="fill:none;stroke:#0000ff;stroke-width:0.1;stroke-miterlimit:4;stroke-dasharray:none;stroke-opacity:1"
       id="path9604"
       inkscape:connector-curvature="0" />
    <path
       d="M 356.13251,276.86751 H 353.1325"
       style="fill:none;stroke:#0000ff;stroke-width:0.1;stroke-miterlimit:4;stroke-dasharray:none;stroke-opacity:1"
       id="path9606"
       inkscape:connector-curvature="0" />
    <path
       d="M 353.1325,276.86751 V 256.8675"
       style="fill:none;stroke:#0000ff;stroke-width:0.1;stroke-miterlimit:4;stroke-dasharray:none;stroke-opacity:1"
       id="path9608"
       inkscape:connector-curvature="0" />
    <path
       d="m 353.1325,256.8675 h 3.00001"
       style="fill:none;stroke:#0000ff;stroke-width:0.1;stroke-miterlimit:4;stroke-dasharray:none;stroke-opacity:1"
       id="path9610"
       inkscape:connector-curvature="0" />
    <path
       d="M 356.13251,256.8675 V 236.86751"
       style="fill:none;stroke:#0000ff;stroke-width:0.1;stroke-miterlimit:4;stroke-dasharray:none;stroke-opacity:1"
       id="path9612"
       inkscape:connector-curvature="0" />
    <path
       d="M 356.13251,236.86751 H 353.1325"
       style="fill:none;stroke:#0000ff;stroke-width:0.1;stroke-miterlimit:4;stroke-dasharray:none;stroke-opacity:1"
       id="path9614"
       inkscape:connector-curvature="0" />
    <path
       d="M 353.1325,236.86751 V 216.8675"
       style="fill:none;stroke:#0000ff;stroke-width:0.1;stroke-miterlimit:4;stroke-dasharray:none;stroke-opacity:1"
       id="path9616"
       inkscape:connector-curvature="0" />
    <path
       d="m 353.1325,216.8675 h 3.00001"
       style="fill:none;stroke:#0000ff;stroke-width:0.1;stroke-miterlimit:4;stroke-dasharray:none;stroke-opacity:1"
       id="path9618"
       inkscape:connector-curvature="0" />
    <path
       d="M 356.13251,216.8675 V 196.86751"
       style="fill:none;stroke:#0000ff;stroke-width:0.1;stroke-miterlimit:4;stroke-dasharray:none;stroke-opacity:1"
       id="path9620"
       inkscape:connector-curvature="0" />
    <path
       d="M 356.13251,196.86751 H 353.1325"
       style="fill:none;stroke:#0000ff;stroke-width:0.1;stroke-miterlimit:4;stroke-dasharray:none;stroke-opacity:1"
       id="path9622"
       inkscape:connector-curvature="0" />
    <path
       d="M 353.1325,196.86751 V 176.8675"
       style="fill:none;stroke:#0000ff;stroke-width:0.1;stroke-miterlimit:4;stroke-dasharray:none;stroke-opacity:1"
       id="path9624"
       inkscape:connector-curvature="0" />
    <path
       d="m 353.1325,176.8675 h 3.00001"
       style="fill:none;stroke:#0000ff;stroke-width:0.1;stroke-miterlimit:4;stroke-dasharray:none;stroke-opacity:1"
       id="path9626"
       inkscape:connector-curvature="0" />
    <path
       d="M 356.13251,176.8675 V 156.86751"
       style="fill:none;stroke:#0000ff;stroke-width:0.1;stroke-miterlimit:4;stroke-dasharray:none;stroke-opacity:1"
       id="path9628"
       inkscape:connector-curvature="0" />
    <path
       d="m 28.132515,266.8675 a 12,12 0 1 0 23.999984,0 12,12 0 1 0 -23.999984,0 z"
       style="fill:none;stroke:#0000ff;stroke-width:0.1;stroke-miterlimit:4;stroke-dasharray:none;stroke-opacity:1"
       id="path9648"
       inkscape:connector-curvature="0" />
    <path
       d="m 58.01834,264.25284 a 12.000006,12.000006 0 1 0 24.000011,0 12.000006,12.000006 0 1 0 -24.000011,0 z"
       style="fill:none;stroke:#0000ff;stroke-width:0.1;stroke-miterlimit:4;stroke-dasharray:none;stroke-opacity:1"
       id="path9674"
       inkscape:connector-curvature="0" />
    <path
       d="m 87.904192,261.63817 a 12,12 0 1 0 23.999998,0 12,12 0 1 0 -23.999998,0 z"
       style="fill:none;stroke:#0000ff;stroke-width:0.1;stroke-miterlimit:4;stroke-dasharray:none;stroke-opacity:1"
       id="path9676"
       inkscape:connector-curvature="0" />
    <path
       d="m 117.79003,259.02348 a 12,12 0 1 0 24,0 12,12 0 1 0 -24,0 z"
       style="fill:none;stroke:#0000ff;stroke-width:0.1;stroke-miterlimit:4;stroke-dasharray:none;stroke-opacity:1"
       id="path9678"
       inkscape:connector-curvature="0" />
    <path
       d="m 25.517823,236.98168 a 12.000005,12.000005 0 1 0 24.00001,0 12.000005,12.000005 0 1 0 -24.00001,0 z"
       style="fill:none;stroke:#0000ff;stroke-width:0.1;stroke-miterlimit:4;stroke-dasharray:none;stroke-opacity:1"
       id="path9680"
       inkscape:connector-curvature="0" />
    <path
       d="m 55.403675,234.36699 a 12.000005,12.000005 0 1 0 24.00001,0 12.000005,12.000005 0 1 0 -24.00001,0 z"
       style="fill:none;stroke:#0000ff;stroke-width:0.1;stroke-miterlimit:4;stroke-dasharray:none;stroke-opacity:1"
       id="path9682"
       inkscape:connector-curvature="0" />
    <path
       d="m 85.289527,231.75232 a 12,12 0 1 0 23.999993,0 12,12 0 1 0 -23.999993,0 z"
       style="fill:none;stroke:#0000ff;stroke-width:0.1;stroke-miterlimit:4;stroke-dasharray:none;stroke-opacity:1"
       id="path9684"
       inkscape:connector-curvature="0" />
    <path
       d="m 115.17536,229.13765 a 12.000001,12.000001 0 1 0 24,0 12.000001,12.000001 0 1 0 -24,0 z"
       style="fill:none;stroke:#0000ff;stroke-width:0.1;stroke-miterlimit:4;stroke-dasharray:none;stroke-opacity:1"
       id="path9686"
       inkscape:connector-curvature="0" />
    <path
       d="m 22.903158,207.09583 a 12.000005,12.000005 0 1 0 24.00001,0 12.000005,12.000005 0 1 0 -24.00001,0 z"
       style="fill:none;stroke:#0000ff;stroke-width:0.1;stroke-miterlimit:4;stroke-dasharray:none;stroke-opacity:1"
       id="path9688"
       inkscape:connector-curvature="0" />
    <path
       d="m 52.78901,204.48116 a 12,12 0 1 0 23.999983,0 12,12 0 1 0 -23.999983,0 z"
       style="fill:none;stroke:#0000ff;stroke-width:0.1;stroke-miterlimit:4;stroke-dasharray:none;stroke-opacity:1"
       id="path9690"
       inkscape:connector-curvature="0" />
    <path
       d="m 82.674835,201.86647 a 12.000008,12.000008 0 1 0 24.000015,0 12.000007,12.000007 0 1 0 -24.000015,0 z"
       style="fill:none;stroke:#0000ff;stroke-width:0.1;stroke-miterlimit:4;stroke-dasharray:none;stroke-opacity:1"
       id="path9692"
       inkscape:connector-curvature="0" />
    <path
       d="m 112.56069,199.2518 a 12,12 0 1 0 24,0 12,12 0 1 0 -24,0 z"
       style="fill:none;stroke:#0000ff;stroke-width:0.1;stroke-miterlimit:4;stroke-dasharray:none;stroke-opacity:1"
       id="path9694"
       inkscape:connector-curvature="0" />
    <path
       d="m 20.288492,177.20997 a 12,12 0 1 0 23.999984,0 12,12 0 1 0 -23.999984,0 z"
       style="fill:none;stroke:#0000ff;stroke-width:0.1;stroke-miterlimit:4;stroke-dasharray:none;stroke-opacity:1"
       id="path9696"
       inkscape:connector-curvature="0" />
    <path
       d="m 50.174318,174.59531 a 12.000005,12.000005 0 1 0 24.00001,0 12.000005,12.000005 0 1 0 -24.00001,0 z"
       style="fill:none;stroke:#0000ff;stroke-width:0.1;stroke-miterlimit:4;stroke-dasharray:none;stroke-opacity:1"
       id="path9698"
       inkscape:connector-curvature="0" />
    <path
       d="m 80.060169,171.98064 a 12,12 0 1 0 24.000001,0 12,12 0 1 0 -24.000001,0 z"
       style="fill:none;stroke:#0000ff;stroke-width:0.1;stroke-miterlimit:4;stroke-dasharray:none;stroke-opacity:1"
       id="path9700"
       inkscape:connector-curvature="0" />
    <path
       d="m 109.94601,169.36598 a 12,12 0 1 0 24,0 12,12 0 1 0 -24,0 z"
       style="fill:none;stroke:#0000ff;stroke-width:0.1;stroke-miterlimit:4;stroke-dasharray:none;stroke-opacity:1"
       id="path9702"
       inkscape:connector-curvature="0" />
    <path
       d="m 151.13251,229.02349 a 12,12 0 1 0 24,0 12,12 0 1 0 -24,0 z"
       style="fill:none;stroke:#0000ff;stroke-width:0.1;stroke-miterlimit:4;stroke-dasharray:none;stroke-opacity:1"
       id="path9720"
       inkscape:connector-curvature="0" />
    <path
       d="m 151.13251,199.02349 a 12,12 0 1 0 24,0 12,12 0 1 0 -24,0 z"
       style="fill:none;stroke:#0000ff;stroke-width:0.1;stroke-miterlimit:4;stroke-dasharray:none;stroke-opacity:1"
       id="path9722"
       inkscape:connector-curvature="0" />
    <path
       d="m 151.13251,169.0235 a 12,12 0 1 0 24,0 12,12 0 1 0 -24,0 z"
       style="fill:none;stroke:#0000ff;stroke-width:0.1;stroke-miterlimit:4;stroke-dasharray:none;stroke-opacity:1"
       id="path9724"
       inkscape:connector-curvature="0" />
    <path
       d="m 306.74718,236.98168 a 12.000005,12.000005 0 1 0 24.00001,0 12.000005,12.000005 0 1 0 -24.00001,0 z"
       style="fill:none;stroke:#0000ff;stroke-width:0.1;stroke-miterlimit:4;stroke-dasharray:none;stroke-opacity:1"
       id="path9736"
       inkscape:connector-curvature="0" />
    <path
       d="m 282.09069,174.59531 a 12.000005,12.000005 0 1 0 24.00001,0 12.000005,12.000005 0 1 0 -24.00001,0 z"
       style="fill:none;stroke:#0000ff;stroke-width:0.1;stroke-miterlimit:4;stroke-dasharray:none;stroke-opacity:1"
       id="path9738"
       inkscape:connector-curvature="0" />
    <path
       d="m 252.20484,171.98064 a 12.000005,12.000005 0 1 0 24.00001,0 12.000005,12.000005 0 1 0 -24.00001,0 z"
       style="fill:none;stroke:#0000ff;stroke-width:0.1;stroke-miterlimit:4;stroke-dasharray:none;stroke-opacity:1"
       id="path9740"
       inkscape:connector-curvature="0" />
    <path
       d="m 279.47602,204.48116 a 12,12 0 1 0 23.99999,0 12,12 0 1 0 -23.99999,0 z"
       style="fill:none;stroke:#0000ff;stroke-width:0.1;stroke-miterlimit:4;stroke-dasharray:none;stroke-opacity:1"
       id="path9742"
       inkscape:connector-curvature="0" />
    <path
       d="m 181.13251,229.02349 a 12,12 0 1 0 24,0 12,12 0 1 0 -24,0 z"
       style="fill:none;stroke:#0000ff;stroke-width:0.1;stroke-miterlimit:4;stroke-dasharray:none;stroke-opacity:1"
       id="path9744"
       inkscape:connector-curvature="0" />
    <path
       d="m 304.13252,266.8675 a 12,12 0 1 0 23.99998,0 12,12 0 1 0 -23.99998,0 z"
       style="fill:none;stroke:#0000ff;stroke-width:0.1;stroke-miterlimit:4;stroke-dasharray:none;stroke-opacity:1"
       id="path9746"
       inkscape:connector-curvature="0" />
    <path
       d="m 274.24667,264.25284 a 12.000005,12.000005 0 1 0 24.00001,0 12.000005,12.000005 0 1 0 -24.00001,0 z"
       style="fill:none;stroke:#0000ff;stroke-width:0.1;stroke-miterlimit:4;stroke-dasharray:none;stroke-opacity:1"
       id="path9750"
       inkscape:connector-curvature="0" />
    <path
       d="m 276.86133,234.36699 a 12.000005,12.000005 0 1 0 24.00001,0 12.000005,12.000005 0 1 0 -24.00001,0 z"
       style="fill:none;stroke:#0000ff;stroke-width:0.1;stroke-miterlimit:4;stroke-dasharray:none;stroke-opacity:1"
       id="path9752"
       inkscape:connector-curvature="0" />
    <path
       d="m 219.70433,199.2518 a 12,12 0 1 0 24,0 12,12 0 1 0 -24,0 z"
       style="fill:none;stroke:#0000ff;stroke-width:0.1;stroke-miterlimit:4;stroke-dasharray:none;stroke-opacity:1"
       id="path9754"
       inkscape:connector-curvature="0" />
    <path
       d="m 246.9755,231.75232 a 12.000001,12.000001 0 1 0 23.99999,0 12.000001,12.000001 0 1 0 -23.99999,0 z"
       style="fill:none;stroke:#0000ff;stroke-width:0.1;stroke-miterlimit:4;stroke-dasharray:none;stroke-opacity:1"
       id="path9756"
       inkscape:connector-curvature="0" />
    <path
       d="m 249.59017,201.86647 a 12.000005,12.000005 0 1 0 24.00001,0 12.000005,12.000005 0 1 0 -24.00001,0 z"
       style="fill:none;stroke:#0000ff;stroke-width:0.1;stroke-miterlimit:4;stroke-dasharray:none;stroke-opacity:1"
       id="path9758"
       inkscape:connector-curvature="0" />
    <path
       d="m 214.47499,259.02348 a 12,12 0 1 0 24,0 12,12 0 1 0 -24,0 z"
       style="fill:none;stroke:#0000ff;stroke-width:0.1;stroke-miterlimit:4;stroke-dasharray:none;stroke-opacity:1"
       id="path9760"
       inkscape:connector-curvature="0" />
    <path
       d="m 244.36083,261.63817 a 12,12 0 1 0 23.99999,0 12,12 0 1 0 -23.99999,0 z"
       style="fill:none;stroke:#0000ff;stroke-width:0.1;stroke-miterlimit:4;stroke-dasharray:none;stroke-opacity:1"
       id="path9762"
       inkscape:connector-curvature="0" />
    <path
       d="m 181.13251,169.0235 a 12,12 0 1 0 24,0 12,12 0 1 0 -24,0 z"
       style="fill:none;stroke:#0000ff;stroke-width:0.1;stroke-miterlimit:4;stroke-dasharray:none;stroke-opacity:1"
       id="path9766"
       inkscape:connector-curvature="0" />
    <path
       d="m 309.36185,207.09583 a 12.000005,12.000005 0 1 0 24.00001,0 12.000005,12.000005 0 1 0 -24.00001,0 z"
       style="fill:none;stroke:#0000ff;stroke-width:0.1;stroke-miterlimit:4;stroke-dasharray:none;stroke-opacity:1"
       id="path9768"
       inkscape:connector-curvature="0" />
    <path
       d="m 222.319,169.36598 a 12,12 0 1 0 24,0 12,12 0 1 0 -24,0 z"
       style="fill:none;stroke:#0000ff;stroke-width:0.1;stroke-miterlimit:4;stroke-dasharray:none;stroke-opacity:1"
       id="path9770"
       inkscape:connector-curvature="0" />
    <path
       d="m 217.08966,229.13765 a 12.000001,12.000001 0 1 0 24,0 12.000001,12.000001 0 1 0 -24,0 z"
       style="fill:none;stroke:#0000ff;stroke-width:0.1;stroke-miterlimit:4;stroke-dasharray:none;stroke-opacity:1"
       id="path9772"
       inkscape:connector-curvature="0" />
    <path
       d="m 181.13251,199.02349 a 12,12 0 1 0 24,0 12,12 0 1 0 -24,0 z"
       style="fill:none;stroke:#0000ff;stroke-width:0.1;stroke-miterlimit:4;stroke-dasharray:none;stroke-opacity:1"
       id="path9776"
       inkscape:connector-curvature="0" />
    <path
       d="m 311.97651,177.20997 a 12.000005,12.000005 0 1 0 24.00001,0 12.000005,12.000005 0 1 0 -24.00001,0 z"
       style="fill:none;stroke:#0000ff;stroke-width:0.1;stroke-miterlimit:4;stroke-dasharray:none;stroke-opacity:1"
       id="path9782"
       inkscape:connector-curvature="0" />
    <path
       d="m 6.5325141,288.8675 a 1.6000016,1.6000016 0 1 0 3.2000031,0 1.6000016,1.6000016 0 1 0 -3.2000031,0 z"
       style="fill:none;stroke:#0000ff;stroke-width:0.1;stroke-miterlimit:4;stroke-dasharray:none;stroke-opacity:1"
       id="path9810"
       inkscape:connector-curvature="0" />
    <path
       d="m 6.5325141,124.8675 a 1.6000016,1.6000016 0 1 0 3.2000031,0 1.6000016,1.6000016 0 1 0 -3.2000031,0 z"
       style="fill:none;stroke:#0000ff;stroke-width:0.1;stroke-miterlimit:4;stroke-dasharray:none;stroke-opacity:1"
       id="path9812"
       inkscape:connector-curvature="0" />
    <path
       d="m 176.53251,124.8675 a 1.6000002,1.6000002 0 1 0 3.2,0 1.6000002,1.6000002 0 1 0 -3.2,0 z"
       style="fill:none;stroke:#0000ff;stroke-width:0.1;stroke-miterlimit:4;stroke-dasharray:none;stroke-opacity:1"
       id="path9814"
       inkscape:connector-curvature="0" />
    <path
       d="m 346.5325,124.8675 a 1.6000016,1.6000016 0 1 0 3.2,0 1.6000016,1.6000016 0 1 0 -3.2,0 z"
       style="fill:none;stroke:#0000ff;stroke-width:0.1;stroke-miterlimit:4;stroke-dasharray:none;stroke-opacity:1"
       id="path9816"
       inkscape:connector-curvature="0" />
    <path
       d="m 346.5325,288.8675 a 1.6000016,1.6000016 0 1 0 3.2,0 1.6000016,1.6000016 0 1 0 -3.2,0 z"
       style="fill:none;stroke:#0000ff;stroke-width:0.1;stroke-miterlimit:4;stroke-dasharray:none;stroke-opacity:1"
       id="path9818"
       inkscape:connector-curvature="0" />
    <path
       d="m 346.5325,206.86752 a 1.6000016,1.6000016 0 1 0 3.2,0 1.6000016,1.6000016 0 1 0 -3.2,0 z"
       style="fill:none;stroke:#0000ff;stroke-width:0.1;stroke-miterlimit:4;stroke-dasharray:none;stroke-opacity:1"
       id="path9822"
       inkscape:connector-curvature="0" />
    <path
       d="m 176.53251,288.8675 a 1.6000002,1.6000002 0 1 0 3.2,0 1.6000002,1.6000002 0 1 0 -3.2,0 z"
       style="fill:none;stroke:#0000ff;stroke-width:0.1;stroke-miterlimit:4;stroke-dasharray:none;stroke-opacity:1"
       id="path9824"
       inkscape:connector-curvature="0" />
    <path
       d="m 6.5325141,206.86752 a 1.6000016,1.6000016 0 1 0 3.2000031,0 1.6000016,1.6000016 0 1 0 -3.2000031,0 z"
       style="fill:none;stroke:#0000ff;stroke-width:0.1;stroke-miterlimit:4;stroke-dasharray:none;stroke-opacity:1"
       id="path9826"
       inkscape:connector-curvature="0" />
    <path
       d="m 41.116731,146.01682 a 3.5000009,3.5000009 0 1 0 7.000001,0 3.5000009,3.5000009 0 1 0 -7.000001,0 z"
       style="fill:none;stroke:#0000ff;stroke-width:0.1;stroke-miterlimit:4;stroke-dasharray:none;stroke-opacity:1"
       id="path9828"
       inkscape:connector-curvature="0" />
    <path
       d="m 37.716729,144.51681 h -1.799987 v 3.00001 h 1.799987 z"
       style="fill:none;stroke:#0000ff;stroke-width:0.1;stroke-miterlimit:4;stroke-dasharray:none;stroke-opacity:1"
       id="path9830"
       inkscape:connector-curvature="0" />
    <path
       d="m 71.002582,143.40212 a 3.500001,3.500001 0 1 0 7.000002,0 3.500001,3.500001 0 1 0 -7.000002,0 z"
       style="fill:none;stroke:#0000ff;stroke-width:0.1;stroke-miterlimit:4;stroke-dasharray:none;stroke-opacity:1"
       id="path9832"
       inkscape:connector-curvature="0" />
    <path
       d="m 100.88842,140.78746 a 3.5000005,3.5000005 0 1 0 7,0 3.5000005,3.5000005 0 1 0 -7,0 z"
       style="fill:none;stroke:#0000ff;stroke-width:0.1;stroke-miterlimit:4;stroke-dasharray:none;stroke-opacity:1"
       id="path9834"
       inkscape:connector-curvature="0" />
    <path
       d="m 130.77426,138.17278 a 3.5,3.5 0 1 0 7,0 3.5000001,3.5000001 0 1 0 -7,0 z"
       style="fill:none;stroke:#0000ff;stroke-width:0.1;stroke-miterlimit:4;stroke-dasharray:none;stroke-opacity:1"
       id="path9836"
       inkscape:connector-curvature="0" />
    <path
       d="m 308.14828,146.01682 a 3.500005,3.500005 0 1 0 7.00001,0 3.500005,3.500005 0 1 0 -7.00001,0 z"
       style="fill:none;stroke:#0000ff;stroke-width:0.1;stroke-miterlimit:4;stroke-dasharray:none;stroke-opacity:1"
       id="path9838"
       inkscape:connector-curvature="0" />
    <path
       d="m 278.26243,143.40212 a 3.5000009,3.5000009 0 1 0 7,0 3.5000009,3.5000009 0 1 0 -7,0 z"
       style="fill:none;stroke:#0000ff;stroke-width:0.1;stroke-miterlimit:4;stroke-dasharray:none;stroke-opacity:1"
       id="path9840"
       inkscape:connector-curvature="0" />
    <path
       d="m 248.3766,140.78746 a 3.5000001,3.5000001 0 1 0 7,0 3.5,3.5 0 1 0 -7,0 z"
       style="fill:none;stroke:#0000ff;stroke-width:0.1;stroke-miterlimit:4;stroke-dasharray:none;stroke-opacity:1"
       id="path9842"
       inkscape:connector-curvature="0" />
    <path
       d="m 218.49076,138.17278 a 3.4999999,3.4999999 0 1 0 6.99999,0 3.5000001,3.5000001 0 1 0 -6.99999,0 z"
       style="fill:none;stroke:#0000ff;stroke-width:0.1;stroke-miterlimit:4;stroke-dasharray:none;stroke-opacity:1"
       id="path9844"
       inkscape:connector-curvature="0" />
    <path
       d="m 65.802567,144.90213 h 1.800014 v -2.99998 h -1.800014 z"
       style="fill:none;stroke:#0000ff;stroke-width:0.1;stroke-miterlimit:4;stroke-dasharray:none;stroke-opacity:1"
       id="path9846"
       inkscape:connector-curvature="0" />
    <path
       d="m 95.688419,142.28746 h 1.8 v -3 h -1.8 z"
       style="fill:none;stroke:#0000ff;stroke-width:0.1;stroke-miterlimit:4;stroke-dasharray:none;stroke-opacity:1"
       id="path9848"
       inkscape:connector-curvature="0" />
    <path
       d="m 125.57426,139.6728 h 1.8 v -3.00002 h -1.8 z"
       style="fill:none;stroke:#0000ff;stroke-width:0.1;stroke-miterlimit:4;stroke-dasharray:none;stroke-opacity:1"
       id="path9850"
       inkscape:connector-curvature="0" />
    <path
       d="m 215.09075,139.6728 v -3.00002 h -1.8 v 3.00002 z"
       style="fill:none;stroke:#0000ff;stroke-width:0.1;stroke-miterlimit:4;stroke-dasharray:none;stroke-opacity:1"
       id="path9852"
       inkscape:connector-curvature="0" />
    <path
       d="m 244.97659,142.28746 v -3 h -1.8 v 3 z"
       style="fill:none;stroke:#0000ff;stroke-width:0.1;stroke-miterlimit:4;stroke-dasharray:none;stroke-opacity:1"
       id="path9854"
       inkscape:connector-curvature="0" />
    <path
       d="m 273.06244,141.90215 v 2.99998 h 1.79999 v -2.99998 z"
       style="fill:none;stroke:#0000ff;stroke-width:0.1;stroke-miterlimit:4;stroke-dasharray:none;stroke-opacity:1"
       id="path9856"
       inkscape:connector-curvature="0" />
    <path
       d="m 302.94827,144.51681 v 3.00001 h 1.80001 v -3.00001 z"
       style="fill:none;stroke:#0000ff;stroke-width:0.1;stroke-miterlimit:4;stroke-dasharray:none;stroke-opacity:1"
       id="path9858"
       inkscape:connector-curvature="0" />
    <path
       d="m 151.13251,259.02348 a 12,12 0 1 0 24,0 12,12 0 1 0 -24,0 z"
       style="fill:none;stroke:#0000ff;stroke-width:0.1;stroke-miterlimit:4;stroke-dasharray:none;stroke-opacity:1"
       id="path9860"
       inkscape:connector-curvature="0" />
    <path
       d="m 181.13251,259.02348 a 12,12 0 1 0 24,0 12,12 0 1 0 -24,0 z"
       style="fill:none;stroke:#0000ff;stroke-width:0.1;stroke-miterlimit:4;stroke-dasharray:none;stroke-opacity:1"
       id="path9862"
       inkscape:connector-curvature="0" />
  </g>
</svg>
