<?xml version="1.0" encoding="UTF-8" standalone="no"?>
<!-- Created with Inkscape (http://www.inkscape.org/) -->

<svg
   xmlns:dc="http://purl.org/dc/elements/1.1/"
   xmlns:cc="http://creativecommons.org/ns#"
   xmlns:rdf="http://www.w3.org/1999/02/22-rdf-syntax-ns#"
   xmlns:svg="http://www.w3.org/2000/svg"
   xmlns="http://www.w3.org/2000/svg"
   xmlns:sodipodi="http://sodipodi.sourceforge.net/DTD/sodipodi-0.dtd"
   xmlns:inkscape="http://www.inkscape.org/namespaces/inkscape"
   width="356mm"
   height="180mm"
   viewBox="0 0 356 180"
   version="1.1"
   id="svg987"
   inkscape:version="0.92.2 (5c3e80d, 2017-08-06)"
   sodipodi:docname="ECM-408-Cutout-Ponoko.svg">
  <defs
     id="defs981" />
  <sodipodi:namedview
     id="base"
     pagecolor="#ffffff"
     bordercolor="#666666"
     borderopacity="1.0"
     inkscape:pageopacity="0.0"
     inkscape:pageshadow="2"
     inkscape:zoom="2.8"
     inkscape:cx="637.47728"
     inkscape:cy="610.15201"
     inkscape:document-units="mm"
     inkscape:current-layer="layer1"
     showgrid="false"
     inkscape:window-width="1920"
     inkscape:window-height="1027"
     inkscape:window-x="1912"
     inkscape:window-y="-8"
     inkscape:window-maximized="1"
     showguides="true"
     inkscape:guide-bbox="true" />
  <metadata
     id="metadata984">
    <rdf:RDF>
      <cc:Work
         rdf:about="">
        <dc:format>image/svg+xml</dc:format>
        <dc:type
           rdf:resource="http://purl.org/dc/dcmitype/StillImage" />
        <dc:title></dc:title>
      </cc:Work>
    </rdf:RDF>
  </metadata>
  <g
     inkscape:label="Layer 1"
     inkscape:groupmode="layer"
     id="layer1"
     transform="translate(0,-117)">
    <path
       d="M 356.00025,297.00014 H -2.495e-4 V 116.99986 H 356.00025 Z"
       style="fill:none;stroke:#0000ff;stroke-width:0.01;stroke-miterlimit:4;stroke-dasharray:none;stroke-opacity:1"
       id="path831"
       inkscape:connector-curvature="0" />
    <path
       d="m 55.34983,267.0001 a 12.000017,12.000017 0 1 0 -24.000034,0 12.000017,12.000017 0 1 0 24.000034,0 z"
       style="fill:none;stroke:#0000ff;stroke-width:0.01;stroke-miterlimit:4;stroke-dasharray:none;stroke-opacity:1"
       id="path889"
       inkscape:connector-curvature="0" />
    <path
       d="m 85.235714,264.3854 a 12.000017,12.000017 0 1 0 -24.000034,0 12.000017,12.000017 0 1 0 24.000034,0 z"
       style="fill:none;stroke:#0000ff;stroke-width:0.01;stroke-miterlimit:4;stroke-dasharray:none;stroke-opacity:1"
       id="path891"
       inkscape:connector-curvature="0" />
    <path
       d="m 115.1216,261.77073 a 12.00002,12.00002 0 1 0 -24.000037,0 12.00002,12.00002 0 1 0 24.000037,0 z"
       style="fill:none;stroke:#0000ff;stroke-width:0.01;stroke-miterlimit:4;stroke-dasharray:none;stroke-opacity:1"
       id="path893"
       inkscape:connector-curvature="0" />
    <path
       d="m 145.00748,259.15605 a 12.00002,12.00002 0 1 0 -24.00004,0 12.00002,12.00002 0 1 0 24.00004,0 z"
       style="fill:none;stroke:#0000ff;stroke-width:0.01;stroke-miterlimit:4;stroke-dasharray:none;stroke-opacity:1"
       id="path895"
       inkscape:connector-curvature="0" />
    <path
       d="m 52.735156,237.1142 a 12.000017,12.000017 0 1 0 -24.000033,0 12.000017,12.000017 0 1 0 24.000033,0 z"
       style="fill:none;stroke:#0000ff;stroke-width:0.01;stroke-miterlimit:4;stroke-dasharray:none;stroke-opacity:1"
       id="path897"
       inkscape:connector-curvature="0" />
    <path
       d="m 82.621038,234.49952 a 12.000018,12.000018 0 1 0 -24.000034,0 12.000018,12.000018 0 1 0 24.000034,0 z"
       style="fill:none;stroke:#0000ff;stroke-width:0.01;stroke-miterlimit:4;stroke-dasharray:none;stroke-opacity:1"
       id="path899"
       inkscape:connector-curvature="0" />
    <path
       d="m 112.50692,231.88485 a 12.000017,12.000017 0 1 0 -24.000033,0 12.000017,12.000017 0 1 0 24.000033,0 z"
       style="fill:none;stroke:#0000ff;stroke-width:0.01;stroke-miterlimit:4;stroke-dasharray:none;stroke-opacity:1"
       id="path901"
       inkscape:connector-curvature="0" />
    <path
       d="m 142.3928,229.27017 a 12.000017,12.000017 0 1 0 -24.00003,0 12.000017,12.000017 0 1 0 24.00003,0 z"
       style="fill:none;stroke:#0000ff;stroke-width:0.01;stroke-miterlimit:4;stroke-dasharray:none;stroke-opacity:1"
       id="path903"
       inkscape:connector-curvature="0" />
    <path
       d="m 50.120477,207.22832 a 12.000017,12.000017 0 1 0 -24.000032,0 12.000017,12.000017 0 1 0 24.000032,0 z"
       style="fill:none;stroke:#0000ff;stroke-width:0.01;stroke-miterlimit:4;stroke-dasharray:none;stroke-opacity:1"
       id="path905"
       inkscape:connector-curvature="0" />
    <path
       d="m 80.006362,204.61364 a 12.000017,12.000017 0 1 0 -24.000034,0 12.000017,12.000017 0 1 0 24.000034,0 z"
       style="fill:none;stroke:#0000ff;stroke-width:0.01;stroke-miterlimit:4;stroke-dasharray:none;stroke-opacity:1"
       id="path907"
       inkscape:connector-curvature="0" />
    <path
       d="m 109.89224,201.99896 a 12.000017,12.000017 0 1 0 -24.000029,0 12.000017,12.000017 0 1 0 24.000029,0 z"
       style="fill:none;stroke:#0000ff;stroke-width:0.01;stroke-miterlimit:4;stroke-dasharray:none;stroke-opacity:1"
       id="path909"
       inkscape:connector-curvature="0" />
    <path
       d="m 139.77813,199.38429 a 12.00002,12.00002 0 1 0 -24.00004,0 12.00002,12.00002 0 1 0 24.00004,0 z"
       style="fill:none;stroke:#0000ff;stroke-width:0.01;stroke-miterlimit:4;stroke-dasharray:none;stroke-opacity:1"
       id="path911"
       inkscape:connector-curvature="0" />
    <path
       d="m 47.505804,177.34243 a 12.000018,12.000018 0 1 0 -24.000035,0 12.000018,12.000018 0 1 0 24.000035,0 z"
       style="fill:none;stroke:#0000ff;stroke-width:0.01;stroke-miterlimit:4;stroke-dasharray:none;stroke-opacity:1"
       id="path913"
       inkscape:connector-curvature="0" />
    <path
       d="m 77.391686,174.72776 a 12.000017,12.000017 0 1 0 -24.000035,0 12.000017,12.000017 0 1 0 24.000035,0 z"
       style="fill:none;stroke:#0000ff;stroke-width:0.01;stroke-miterlimit:4;stroke-dasharray:none;stroke-opacity:1"
       id="path915"
       inkscape:connector-curvature="0" />
    <path
       d="m 107.27756,172.11308 a 12.000017,12.000017 0 1 0 -24.000025,0 12.000017,12.000017 0 1 0 24.000025,0 z"
       style="fill:none;stroke:#0000ff;stroke-width:0.01;stroke-miterlimit:4;stroke-dasharray:none;stroke-opacity:1"
       id="path917"
       inkscape:connector-curvature="0" />
    <path
       d="m 137.16345,169.49841 a 12.000017,12.000017 0 1 0 -24.00003,0 12.000017,12.000017 0 1 0 24.00003,0 z"
       style="fill:none;stroke:#0000ff;stroke-width:0.01;stroke-miterlimit:4;stroke-dasharray:none;stroke-opacity:1"
       id="path919"
       inkscape:connector-curvature="0" />
    <path
       d="m 324.65019,267.0001 a 12.000017,12.000017 0 1 0 -24.00001,0 12.000017,12.000017 0 1 0 24.00001,0 z"
       style="fill:none;stroke:#0000ff;stroke-width:0.01;stroke-miterlimit:4;stroke-dasharray:none;stroke-opacity:1"
       id="path921"
       inkscape:connector-curvature="0" />
    <path
       d="m 294.76434,264.3854 a 12.000032,12.000032 0 1 0 -24.00006,0 12.000032,12.000032 0 1 0 24.00006,0 z"
       style="fill:none;stroke:#0000ff;stroke-width:0.01;stroke-miterlimit:4;stroke-dasharray:none;stroke-opacity:1"
       id="path923"
       inkscape:connector-curvature="0" />
    <path
       d="m 264.87844,261.77073 a 12.000022,12.000022 0 1 0 -24.00003,0 12.000022,12.000022 0 1 0 24.00003,0 z"
       style="fill:none;stroke:#0000ff;stroke-width:0.01;stroke-miterlimit:4;stroke-dasharray:none;stroke-opacity:1"
       id="path925"
       inkscape:connector-curvature="0" />
    <path
       d="m 234.99256,259.15605 a 12.00002,12.00002 0 1 0 -24.00004,0 12.00002,12.00002 0 1 0 24.00004,0 z"
       style="fill:none;stroke:#0000ff;stroke-width:0.01;stroke-miterlimit:4;stroke-dasharray:none;stroke-opacity:1"
       id="path927"
       inkscape:connector-curvature="0" />
    <path
       d="m 327.26486,237.1142 a 12.000017,12.000017 0 1 0 -24.00001,0 12.000017,12.000017 0 1 0 24.00001,0 z"
       style="fill:none;stroke:#0000ff;stroke-width:0.01;stroke-miterlimit:4;stroke-dasharray:none;stroke-opacity:1"
       id="path929"
       inkscape:connector-curvature="0" />
    <path
       d="m 297.37901,234.49952 a 12.000022,12.000022 0 1 0 -24.00004,0 12.000022,12.000022 0 1 0 24.00004,0 z"
       style="fill:none;stroke:#0000ff;stroke-width:0.01;stroke-miterlimit:4;stroke-dasharray:none;stroke-opacity:1"
       id="path931"
       inkscape:connector-curvature="0" />
    <path
       d="m 267.4931,231.88485 a 12.000018,12.000018 0 1 0 -24.00002,0 12.000018,12.000018 0 1 0 24.00002,0 z"
       style="fill:none;stroke:#0000ff;stroke-width:0.01;stroke-miterlimit:4;stroke-dasharray:none;stroke-opacity:1"
       id="path933"
       inkscape:connector-curvature="0" />
    <path
       d="m 237.60723,229.27017 a 12.000017,12.000017 0 1 0 -24.00003,0 12.000017,12.000017 0 1 0 24.00003,0 z"
       style="fill:none;stroke:#0000ff;stroke-width:0.01;stroke-miterlimit:4;stroke-dasharray:none;stroke-opacity:1"
       id="path935"
       inkscape:connector-curvature="0" />
    <path
       d="m 329.87958,207.22832 a 12.000035,12.000035 0 1 0 -24.00007,0 12.000035,12.000035 0 1 0 24.00007,0 z"
       style="fill:none;stroke:#0000ff;stroke-width:0.01;stroke-miterlimit:4;stroke-dasharray:none;stroke-opacity:1"
       id="path937"
       inkscape:connector-curvature="0" />
    <path
       d="m 299.99367,204.61364 a 12.000017,12.000017 0 1 0 -24.00001,0 12.000017,12.000017 0 1 0 24.00001,0 z"
       style="fill:none;stroke:#0000ff;stroke-width:0.01;stroke-miterlimit:4;stroke-dasharray:none;stroke-opacity:1"
       id="path939"
       inkscape:connector-curvature="0" />
    <path
       d="m 270.10779,201.99896 a 12.000028,12.000028 0 1 0 -24.00003,0 12.000028,12.000028 0 1 0 24.00003,0 z"
       style="fill:none;stroke:#0000ff;stroke-width:0.01;stroke-miterlimit:4;stroke-dasharray:none;stroke-opacity:1"
       id="path941"
       inkscape:connector-curvature="0" />
    <path
       d="m 240.22191,199.38429 a 12.00002,12.00002 0 1 0 -24.00004,0 12.00002,12.00002 0 1 0 24.00004,0 z"
       style="fill:none;stroke:#0000ff;stroke-width:0.01;stroke-miterlimit:4;stroke-dasharray:none;stroke-opacity:1"
       id="path943"
       inkscape:connector-curvature="0" />
    <path
       d="m 332.49424,177.34243 a 12.000032,12.000032 0 1 0 -24.00006,0 12.000032,12.000032 0 1 0 24.00006,0 z"
       style="fill:none;stroke:#0000ff;stroke-width:0.01;stroke-miterlimit:4;stroke-dasharray:none;stroke-opacity:1"
       id="path945"
       inkscape:connector-curvature="0" />
    <path
       d="m 302.60834,174.72776 a 12.000017,12.000017 0 1 0 -24.00001,0 12.000017,12.000017 0 1 0 24.00001,0 z"
       style="fill:none;stroke:#0000ff;stroke-width:0.01;stroke-miterlimit:4;stroke-dasharray:none;stroke-opacity:1"
       id="path947"
       inkscape:connector-curvature="0" />
    <path
       d="m 272.72249,172.11308 a 12.00003,12.00003 0 1 0 -24.00006,0 12.00003,12.00003 0 1 0 24.00006,0 z"
       style="fill:none;stroke:#0000ff;stroke-width:0.01;stroke-miterlimit:4;stroke-dasharray:none;stroke-opacity:1"
       id="path949"
       inkscape:connector-curvature="0" />
    <path
       d="m 242.83658,169.4984 a 12.000017,12.000017 0 1 0 -24.00003,0 12.000017,12.000017 0 1 0 24.00003,0 z"
       style="fill:none;stroke:#0000ff;stroke-width:0.01;stroke-miterlimit:4;stroke-dasharray:none;stroke-opacity:1"
       id="path951"
       inkscape:connector-curvature="0" />
    <path
       d="m 175.00752,259.15605 a 12.000018,12.000018 0 1 0 -24.00003,0 12.000018,12.000018 0 1 0 24.00003,0 z"
       style="fill:none;stroke:#0000ff;stroke-width:0.01;stroke-miterlimit:4;stroke-dasharray:none;stroke-opacity:1"
       id="path953"
       inkscape:connector-curvature="0" />
    <path
       d="m 204.99252,259.15605 a 12.00002,12.00002 0 1 0 -24.00004,0 12.00002,12.00002 0 1 0 24.00004,0 z"
       style="fill:none;stroke:#0000ff;stroke-width:0.01;stroke-miterlimit:4;stroke-dasharray:none;stroke-opacity:1"
       id="path955"
       inkscape:connector-curvature="0" />
    <path
       d="m 175.00752,229.15601 a 12.000018,12.000018 0 1 0 -24.00003,0 12.000018,12.000018 0 1 0 24.00003,0 z"
       style="fill:none;stroke:#0000ff;stroke-width:0.01;stroke-miterlimit:4;stroke-dasharray:none;stroke-opacity:1"
       id="path957"
       inkscape:connector-curvature="0" />
    <path
       d="m 204.99252,229.15601 a 12.00002,12.00002 0 1 0 -24.00004,0 12.00002,12.00002 0 1 0 24.00004,0 z"
       style="fill:none;stroke:#0000ff;stroke-width:0.01;stroke-miterlimit:4;stroke-dasharray:none;stroke-opacity:1"
       id="path959"
       inkscape:connector-curvature="0" />
    <path
       d="m 204.99252,199.15597 a 12.00002,12.00002 0 1 0 -24.00004,0 12.00002,12.00002 0 1 0 24.00004,0 z"
       style="fill:none;stroke:#0000ff;stroke-width:0.01;stroke-miterlimit:4;stroke-dasharray:none;stroke-opacity:1"
       id="path961"
       inkscape:connector-curvature="0" />
    <path
       d="m 175.00752,199.15597 a 12.000018,12.000018 0 1 0 -24.00003,0 12.000018,12.000018 0 1 0 24.00003,0 z"
       style="fill:none;stroke:#0000ff;stroke-width:0.01;stroke-miterlimit:4;stroke-dasharray:none;stroke-opacity:1"
       id="path963"
       inkscape:connector-curvature="0" />
    <path
       d="m 175.00752,169.15593 a 12.000018,12.000018 0 1 0 -24.00003,0 12.000018,12.000018 0 1 0 24.00003,0 z"
       style="fill:none;stroke:#0000ff;stroke-width:0.01;stroke-miterlimit:4;stroke-dasharray:none;stroke-opacity:1"
       id="path965"
       inkscape:connector-curvature="0" />
    <path
       d="m 204.99252,169.15593 a 12.00002,12.00002 0 1 0 -24.00004,0 12.00002,12.00002 0 1 0 24.00004,0 z"
       style="fill:none;stroke:#0000ff;stroke-width:0.01;stroke-miterlimit:4;stroke-dasharray:none;stroke-opacity:1"
       id="path967"
       inkscape:connector-curvature="0" />
    <path
       d="m 39.134041,147.64921 h 1.8 v -3 h -1.8 z"
       style="fill:none;stroke:#0000ff;stroke-width:0.01;stroke-miterlimit:4;stroke-dasharray:none;stroke-opacity:1"
       id="path969"
       inkscape:connector-curvature="0" />
    <path
       d="m 50.934058,146.14921 a 3.1000052,3.1000052 0 1 0 -6.20001,0 3.1000052,3.1000052 0 1 0 6.20001,0 z"
       style="fill:none;stroke:#0000ff;stroke-width:0.01;stroke-miterlimit:4;stroke-dasharray:none;stroke-opacity:1"
       id="path971"
       inkscape:connector-curvature="0" />
    <path
       d="m 69.01992,145.03454 h 1.800003 v -3.00001 H 69.01992 Z"
       style="fill:none;stroke:#0000ff;stroke-width:0.01;stroke-miterlimit:4;stroke-dasharray:none;stroke-opacity:1"
       id="path973"
       inkscape:connector-curvature="0" />
    <path
       d="m 80.819937,143.53453 a 3.1000041,3.1000041 0 1 0 -6.200008,0 3.1000044,3.1000044 0 1 0 6.200008,0 z"
       style="fill:none;stroke:#0000ff;stroke-width:0.01;stroke-miterlimit:4;stroke-dasharray:none;stroke-opacity:1"
       id="path975"
       inkscape:connector-curvature="0" />
    <path
       d="m 98.905806,142.41986 h 1.799994 v -3 h -1.799994 z"
       style="fill:none;stroke:#0000ff;stroke-width:0.01;stroke-miterlimit:4;stroke-dasharray:none;stroke-opacity:1"
       id="path977"
       inkscape:connector-curvature="0" />
    <path
       d="m 110.70582,140.91986 a 3.100005,3.100005 0 1 0 -6.20001,0 3.100005,3.100005 0 1 0 6.20001,0 z"
       style="fill:none;stroke:#0000ff;stroke-width:0.01;stroke-miterlimit:4;stroke-dasharray:none;stroke-opacity:1"
       id="path979"
       inkscape:connector-curvature="0" />
    <path
       d="m 128.79168,139.80519 h 1.80001 v -3.00001 h -1.80001 z"
       style="fill:none;stroke:#0000ff;stroke-width:0.01;stroke-miterlimit:4;stroke-dasharray:none;stroke-opacity:1"
       id="path981"
       inkscape:connector-curvature="0" />
    <path
       d="m 140.5917,138.30519 a 3.100005,3.100005 0 1 0 -6.20001,0 3.100005,3.100005 0 1 0 6.20001,0 z"
       style="fill:none;stroke:#0000ff;stroke-width:0.01;stroke-miterlimit:4;stroke-dasharray:none;stroke-opacity:1"
       id="path983"
       inkscape:connector-curvature="0" />
    <path
       d="m 299.46593,144.64921 v 3 h 1.80002 v -3 z"
       style="fill:none;stroke:#0000ff;stroke-width:0.01;stroke-miterlimit:4;stroke-dasharray:none;stroke-opacity:1"
       id="path985"
       inkscape:connector-curvature="0" />
    <path
       d="m 311.26598,146.14921 a 3.1000171,3.1000171 0 1 0 -6.20003,0 3.1000171,3.1000171 0 1 0 6.20003,0 z"
       style="fill:none;stroke:#0000ff;stroke-width:0.01;stroke-miterlimit:4;stroke-dasharray:none;stroke-opacity:1"
       id="path987"
       inkscape:connector-curvature="0" />
    <path
       d="m 269.58006,142.03453 v 3.00001 h 1.80001 v -3.00001 z"
       style="fill:none;stroke:#0000ff;stroke-width:0.01;stroke-miterlimit:4;stroke-dasharray:none;stroke-opacity:1"
       id="path989"
       inkscape:connector-curvature="0" />
    <path
       d="m 281.38008,143.53453 a 3.1000081,3.1000081 0 1 0 -6.20001,0 3.1000081,3.1000081 0 1 0 6.20001,0 z"
       style="fill:none;stroke:#0000ff;stroke-width:0.01;stroke-miterlimit:4;stroke-dasharray:none;stroke-opacity:1"
       id="path991"
       inkscape:connector-curvature="0" />
    <path
       d="m 239.69418,139.41986 v 3 h 1.8 v -3 z"
       style="fill:none;stroke:#0000ff;stroke-width:0.01;stroke-miterlimit:4;stroke-dasharray:none;stroke-opacity:1"
       id="path993"
       inkscape:connector-curvature="0" />
    <path
       d="m 251.49419,140.91986 a 3.1000052,3.1000052 0 1 0 -6.20001,0 3.1000052,3.1000052 0 1 0 6.20001,0 z"
       style="fill:none;stroke:#0000ff;stroke-width:0.01;stroke-miterlimit:4;stroke-dasharray:none;stroke-opacity:1"
       id="path995"
       inkscape:connector-curvature="0" />
    <path
       d="m 209.80829,136.80518 v 3.00001 h 1.8 v -3.00001 z"
       style="fill:none;stroke:#0000ff;stroke-width:0.01;stroke-miterlimit:4;stroke-dasharray:none;stroke-opacity:1"
       id="path997"
       inkscape:connector-curvature="0" />
    <path
       d="m 221.60831,138.30518 a 3.100005,3.100005 0 1 0 -6.20001,0 3.100005,3.100005 0 1 0 6.20001,0 z"
       style="fill:none;stroke:#0000ff;stroke-width:0.01;stroke-miterlimit:4;stroke-dasharray:none;stroke-dashoffset:0;stroke-opacity:1"
       id="path999"
       inkscape:connector-curvature="0" />
    <path
       d="m 351.60025,195.50613 a 1.6000038,1.6000038 0 1 0 -3.2,0 1.6000038,1.6000038 0 1 0 3.2,0 z"
       style="fill:none;stroke:#0000ff;stroke-width:0.01;stroke-miterlimit:4;stroke-dasharray:none;stroke-opacity:1"
       id="path1021"
       inkscape:connector-curvature="0" />
    <path
       d="m 351.60025,225.62076 a 1.6000038,1.6000038 0 1 0 -3.2,0 1.6000038,1.6000038 0 1 0 3.2,0 z"
       style="fill:none;stroke:#0000ff;stroke-width:0.01;stroke-miterlimit:4;stroke-dasharray:none;stroke-opacity:1"
       id="path1023"
       inkscape:connector-curvature="0" />
    <path
       d="m 351.60025,255.7354 a 1.6000038,1.6000038 0 1 0 -3.2,0 1.6000038,1.6000038 0 1 0 3.2,0 z"
       style="fill:none;stroke:#0000ff;stroke-width:0.01;stroke-miterlimit:4;stroke-dasharray:none;stroke-opacity:1"
       id="path1025"
       inkscape:connector-curvature="0" />
    <path
       d="m 7.5997605,195.50613 a 1.6000022,1.6000022 0 1 0 -3.200004,0 1.6000022,1.6000022 0 1 0 3.200004,0 z"
       style="fill:none;stroke:#0000ff;stroke-width:0.01;stroke-miterlimit:4;stroke-dasharray:none;stroke-opacity:1"
       id="path1027"
       inkscape:connector-curvature="0" />
    <path
       d="m 7.5997605,225.62076 a 1.6000022,1.6000022 0 1 0 -3.200004,0 1.6000022,1.6000022 0 1 0 3.200004,0 z"
       style="fill:none;stroke:#0000ff;stroke-width:0.01;stroke-miterlimit:4;stroke-dasharray:none;stroke-opacity:1"
       id="path1029"
       inkscape:connector-curvature="0" />
    <path
       d="m 7.5997605,255.7354 a 1.6000022,1.6000022 0 1 0 -3.200004,0 1.6000022,1.6000022 0 1 0 3.200004,0 z"
       style="fill:none;stroke:#0000ff;stroke-width:0.01;stroke-miterlimit:4;stroke-dasharray:none;stroke-opacity:1"
       id="path1031"
       inkscape:connector-curvature="0" />
    <path
       d="m 62.106842,291.00012 a 1.600003,1.600003 0 1 0 -3.200006,0 1.600003,1.600003 0 1 0 3.200006,0 z"
       style="fill:none;stroke:#0000ff;stroke-width:0.01;stroke-miterlimit:4;stroke-dasharray:none;stroke-opacity:1"
       id="path1033"
       inkscape:connector-curvature="0" />
    <path
       d="m 47.408818,122.99988 a 1.6000029,1.6000029 0 1 0 -3.200005,0 1.6000029,1.6000029 0 1 0 3.200005,0 z"
       style="fill:none;stroke:#0000ff;stroke-width:0.01;stroke-miterlimit:4;stroke-dasharray:none;stroke-opacity:1"
       id="path1035"
       inkscape:connector-curvature="0" />
    <path
       d="m 92.221881,291.00012 a 1.6000025,1.6000025 0 1 0 -3.200003,0 1.6000025,1.6000025 0 1 0 3.200003,0 z"
       style="fill:none;stroke:#0000ff;stroke-width:0.01;stroke-miterlimit:4;stroke-dasharray:none;stroke-opacity:1"
       id="path1037"
       inkscape:connector-curvature="0" />
    <path
       d="m 122.33692,291.00012 a 1.6000025,1.6000025 0 1 0 -3.2,0 1.6000025,1.6000025 0 1 0 3.2,0 z"
       style="fill:none;stroke:#0000ff;stroke-width:0.01;stroke-miterlimit:4;stroke-dasharray:none;stroke-opacity:1"
       id="path1039"
       inkscape:connector-curvature="0" />
    <path
       d="m 179.601,291.00012 a 1.6000029,1.6000029 0 1 0 -3.2,0 1.6000029,1.6000029 0 1 0 3.2,0 z"
       style="fill:none;stroke:#0000ff;stroke-width:0.01;stroke-miterlimit:4;stroke-dasharray:none;stroke-opacity:1"
       id="path1041"
       inkscape:connector-curvature="0" />
    <path
       d="m 236.86508,291.00012 a 1.6000022,1.6000022 0 1 0 -3.2,0 1.6000022,1.6000022 0 1 0 3.2,0 z"
       style="fill:none;stroke:#0000ff;stroke-width:0.01;stroke-miterlimit:4;stroke-dasharray:none;stroke-opacity:1"
       id="path1043"
       inkscape:connector-curvature="0" />
    <path
       d="m 266.98013,291.00012 a 1.600017,1.600017 0 1 0 -3.20002,0 1.600017,1.600017 0 1 0 3.20002,0 z"
       style="fill:none;stroke:#0000ff;stroke-width:0.01;stroke-miterlimit:4;stroke-dasharray:none;stroke-opacity:1"
       id="path1045"
       inkscape:connector-curvature="0" />
    <path
       d="m 297.09516,291.00012 a 1.6000022,1.6000022 0 1 0 -3.19997,0 1.6000022,1.6000022 0 1 0 3.19997,0 z"
       style="fill:none;stroke:#0000ff;stroke-width:0.01;stroke-miterlimit:4;stroke-dasharray:none;stroke-opacity:1"
       id="path1047"
       inkscape:connector-curvature="0" />
    <path
       d="m 77.523861,122.99988 a 1.6000022,1.6000022 0 1 0 -3.200003,0 1.6000022,1.6000022 0 1 0 3.200003,0 z"
       style="fill:none;stroke:#0000ff;stroke-width:0.01;stroke-miterlimit:4;stroke-dasharray:none;stroke-opacity:1"
       id="path1049"
       inkscape:connector-curvature="0" />
    <path
       d="m 107.6389,122.99988 a 1.6000029,1.6000029 0 1 0 -3.2,0 1.6000029,1.6000029 0 1 0 3.2,0 z"
       style="fill:none;stroke:#0000ff;stroke-width:0.01;stroke-miterlimit:4;stroke-dasharray:none;stroke-opacity:1"
       id="path1051"
       inkscape:connector-curvature="0" />
    <path
       d="m 179.601,122.99988 a 1.6000029,1.6000029 0 1 0 -3.2,0 1.6000029,1.6000029 0 1 0 3.2,0 z"
       style="fill:none;stroke:#0000ff;stroke-width:0.01;stroke-miterlimit:4;stroke-dasharray:none;stroke-opacity:1"
       id="path1053"
       inkscape:connector-curvature="0" />
    <path
       d="m 251.5631,122.99988 a 1.6000029,1.6000029 0 1 0 -3.2,0 1.6000029,1.6000029 0 1 0 3.2,0 z"
       style="fill:none;stroke:#0000ff;stroke-width:0.01;stroke-miterlimit:4;stroke-dasharray:none;stroke-opacity:1"
       id="path1055"
       inkscape:connector-curvature="0" />
    <path
       d="m 281.67816,122.99988 a 1.600005,1.600005 0 1 0 -3.20001,0 1.600005,1.600005 0 1 0 3.20001,0 z"
       style="fill:none;stroke:#0000ff;stroke-width:0.01;stroke-miterlimit:4;stroke-dasharray:none;stroke-opacity:1"
       id="path1057"
       inkscape:connector-curvature="0" />
    <path
       d="m 311.79319,122.99988 a 1.600015,1.600015 0 1 0 -3.20003,0 1.600015,1.600015 0 1 0 3.20003,0 z"
       style="fill:none;stroke:#0000ff;stroke-width:0.01;stroke-miterlimit:4;stroke-dasharray:none;stroke-opacity:1"
       id="path1059"
       inkscape:connector-curvature="0" />
    <path
       inkscape:connector-curvature="0"
       id="path2112"
       style="font-style:normal;font-weight:normal;font-size:medium;line-height:1.25;font-family:sans-serif;letter-spacing:0px;word-spacing:0px;fill:#000000;fill-opacity:1;stroke:none;stroke-width:0.01;stroke-miterlimit:4;stroke-dasharray:none;stroke-opacity:1"
       d="m 153.81195,134.44238 h 4.87826 v 0.8785 h -3.8344 v 2.2841 h 3.6742 v 0.87849 h -3.6742 v 2.7957 h 3.92741 v 0.8785 h -4.97127 z" />
    <path
       inkscape:connector-curvature="0"
       id="path2114"
       style="font-style:normal;font-weight:normal;font-size:medium;line-height:1.25;font-family:sans-serif;letter-spacing:0px;word-spacing:0px;fill:#000000;fill-opacity:1;stroke:none;stroke-width:0.01;stroke-miterlimit:4;stroke-dasharray:none;stroke-opacity:1"
       d="m 166.28664,135.03666 v 1.1007 q -0.5271,-0.49092 -1.12654,-0.7338 -0.59428,-0.24288 -1.26608,-0.24288 -1.32291,0 -2.02571,0.81132 -0.7028,0.80615 -0.7028,2.33577 0,1.52446 0.7028,2.33578 0.7028,0.80615 2.02571,0.80615 0.6718,0 1.26608,-0.24288 0.59944,-0.24288 1.12654,-0.7338 v 1.09037 q -0.54777,0.37207 -1.16272,0.55811 -0.60978,0.18603 -1.29191,0.18603 -1.75183,0 -2.75952,-1.0697 -1.00769,-1.07487 -1.00769,-2.93006 0,-1.86035 1.00769,-2.93005 1.00769,-1.07487 2.75952,-1.07487 0.69246,0 1.30225,0.18604 0.61495,0.18086 1.15238,0.54777 z" />
    <path
       inkscape:connector-curvature="0"
       id="path2116"
       style="font-style:normal;font-weight:normal;font-size:medium;line-height:1.25;font-family:sans-serif;letter-spacing:0px;word-spacing:0px;fill:#000000;fill-opacity:1;stroke:none;stroke-width:0.01;stroke-miterlimit:4;stroke-dasharray:none;stroke-opacity:1"
       d="m 167.90928,134.44238 h 1.55546 l 1.96887,5.25032 1.97921,-5.25032 h 1.55546 v 7.71529 h -1.01802 v -6.77478 l -1.98955,5.29167 h -1.04903 l -1.98954,-5.29167 v 6.77478 h -1.01286 z" />
    <path
       inkscape:connector-curvature="0"
       id="path2118"
       style="font-style:normal;font-weight:normal;font-size:medium;line-height:1.25;font-family:sans-serif;letter-spacing:0px;word-spacing:0px;fill:#000000;fill-opacity:1;stroke:none;stroke-width:0.01;stroke-miterlimit:4;stroke-dasharray:none;stroke-opacity:1"
       d="m 176.52374,138.83487 h 2.78536 v 0.8475 h -2.78536 z" />
    <path
       inkscape:connector-curvature="0"
       id="path2120"
       style="font-style:normal;font-weight:normal;font-size:medium;line-height:1.25;font-family:sans-serif;letter-spacing:0px;word-spacing:0px;fill:#000000;fill-opacity:1;stroke:none;stroke-width:0.01;stroke-miterlimit:4;stroke-dasharray:none;stroke-opacity:1"
       d="m 183.83079,135.35188 -2.6355,4.11861 h 2.6355 z m -0.27389,-0.9095 h 1.31259 v 5.02811 h 1.1007 v 0.86817 h -1.1007 v 1.81901 h -1.0387 v -1.81901 h -3.48299 v -1.00769 z" />
    <path
       inkscape:connector-curvature="0"
       id="path2122"
       style="font-style:normal;font-weight:normal;font-size:medium;line-height:1.25;font-family:sans-serif;letter-spacing:0px;word-spacing:0px;fill:#000000;fill-opacity:1;stroke:none;stroke-width:0.01;stroke-miterlimit:4;stroke-dasharray:none;stroke-opacity:1"
       d="m 189.93378,135.12967 q -0.80616,0 -1.2144,0.79582 -0.40308,0.79065 -0.40308,2.38228 0,1.58647 0.40308,2.38229 0.40824,0.79065 1.2144,0.79065 0.81132,0 1.21439,-0.79065 0.40825,-0.79582 0.40825,-2.38229 0,-1.59163 -0.40825,-2.38228 -0.40307,-0.79582 -1.21439,-0.79582 z m 0,-0.82682 q 1.29708,0 1.9792,1.02836 0.6873,1.0232 0.6873,2.97656 0,1.94821 -0.6873,2.97657 -0.68212,1.02319 -1.9792,1.02319 -1.29708,0 -1.98438,-1.02319 -0.68213,-1.02836 -0.68213,-2.97657 0,-1.95336 0.68213,-2.97656 0.6873,-1.02836 1.98438,-1.02836 z" />
    <path
       inkscape:connector-curvature="0"
       id="path2124"
       style="font-style:normal;font-weight:normal;font-size:medium;line-height:1.25;font-family:sans-serif;letter-spacing:0px;word-spacing:0px;fill:#000000;fill-opacity:1;stroke:none;stroke-width:0.01;stroke-miterlimit:4;stroke-dasharray:none;stroke-opacity:1"
       d="m 196.67238,138.49381 q -0.74414,0 -1.17305,0.39791 -0.42375,0.39791 -0.42375,1.09554 0,0.69763 0.42375,1.09554 0.42891,0.39791 1.17305,0.39791 0.74414,0 1.17306,-0.39791 0.42891,-0.40308 0.42891,-1.09554 0,-0.69763 -0.42891,-1.09554 -0.42375,-0.39791 -1.17306,-0.39791 z m -1.04386,-0.44442 q -0.6718,-0.16536 -1.04903,-0.62528 -0.37207,-0.45992 -0.37207,-1.12138 0,-0.92501 0.65629,-1.46244 0.66146,-0.53744 1.80867,-0.53744 1.15239,0 1.80868,0.53744 0.65629,0.53743 0.65629,1.46244 0,0.66146 -0.37724,1.12138 -0.37207,0.45992 -1.0387,0.62528 0.75448,0.1757 1.17306,0.6873 0.42375,0.5116 0.42375,1.25057 0,1.12138 -0.6873,1.72082 -0.68213,0.59945 -1.95854,0.59945 -1.27641,0 -1.9637,-0.59945 -0.68213,-0.59944 -0.68213,-1.72082 0,-0.73897 0.42375,-1.25057 0.42374,-0.5116 1.17822,-0.6873 z m -0.38241,-1.64848 q 0,0.59945 0.37207,0.93535 0.37724,0.33589 1.0542,0.33589 0.6718,0 1.04903,-0.33589 0.38241,-0.3359 0.38241,-0.93535 0,-0.59944 -0.38241,-0.93534 -0.37723,-0.3359 -1.04903,-0.3359 -0.67696,0 -1.0542,0.3359 -0.37207,0.3359 -0.37207,0.93534 z" />
  </g>
</svg>
