<?xml version="1.0" encoding="UTF-8" standalone="no"?>
<!-- Created with Inkscape (http://www.inkscape.org/) -->

<svg
   xmlns:dc="http://purl.org/dc/elements/1.1/"
   xmlns:cc="http://creativecommons.org/ns#"
   xmlns:rdf="http://www.w3.org/1999/02/22-rdf-syntax-ns#"
   xmlns:svg="http://www.w3.org/2000/svg"
   xmlns="http://www.w3.org/2000/svg"
   xmlns:sodipodi="http://sodipodi.sourceforge.net/DTD/sodipodi-0.dtd"
   xmlns:inkscape="http://www.inkscape.org/namespaces/inkscape"
   width="356mm"
   height="180mm"
   viewBox="0 0 356 180"
   version="1.1"
   id="svg4583"
   inkscape:version="0.92.2 (5c3e80d, 2017-08-06)"
   sodipodi:docname="ECM-408-Cutout.svg">
  <defs
     id="defs4577" />
  <sodipodi:namedview
     id="base"
     pagecolor="#ffffff"
     bordercolor="#666666"
     borderopacity="1.0"
     inkscape:pageopacity="0.0"
     inkscape:pageshadow="2"
     inkscape:zoom="2.8"
     inkscape:cx="570.47142"
     inkscape:cy="581.02218"
     inkscape:document-units="mm"
     inkscape:current-layer="layer1"
     showgrid="false"
     inkscape:window-width="1920"
     inkscape:window-height="1027"
     inkscape:window-x="-8"
     inkscape:window-y="-8"
     inkscape:window-maximized="1" />
  <metadata
     id="metadata4580">
    <rdf:RDF>
      <cc:Work
         rdf:about="">
        <dc:format>image/svg+xml</dc:format>
        <dc:type
           rdf:resource="http://purl.org/dc/dcmitype/StillImage" />
        <dc:title></dc:title>
      </cc:Work>
    </rdf:RDF>
  </metadata>
  <g
     inkscape:label="Layer 1"
     inkscape:groupmode="layer"
     id="layer1"
     transform="translate(0,-117)">
    <path
       d="M 356,297 H -5e-6 V 117 H 356 Z"
       style="fill:none;stroke:#000000;stroke-width:0.02645833;stroke-miterlimit:4;stroke-dasharray:none"
       id="path3696"
       inkscape:connector-curvature="0" />
    <path
       d="m 55.35,267.00001 a 12.000003,12.000003 0 1 0 -24.000005,0 12.000003,12.000003 0 1 0 24.000005,0 z"
       style="fill:none;stroke:#000000;stroke-width:0.02645833;stroke-miterlimit:4;stroke-dasharray:none"
       id="path3754"
       inkscape:connector-curvature="0" />
    <path
       d="m 85.235841,264.38533 a 12,12 0 1 0 -23.999999,0 12,12 0 1 0 23.999999,0 z"
       style="fill:none;stroke:#000000;stroke-width:0.02645833;stroke-miterlimit:4;stroke-dasharray:none"
       id="path3756"
       inkscape:connector-curvature="0" />
    <path
       d="m 115.12168,261.77066 a 12,12 0 1 0 -23.999997,0 12,12 0 1 0 23.999997,0 z"
       style="fill:none;stroke:#000000;stroke-width:0.02645833;stroke-miterlimit:4;stroke-dasharray:none"
       id="path3758"
       inkscape:connector-curvature="0" />
    <path
       d="m 145.00752,259.15598 a 12,12 0 1 0 -24,0 12,12 0 1 0 24,0 z"
       style="fill:none;stroke:#000000;stroke-width:0.02645833;stroke-miterlimit:4;stroke-dasharray:none"
       id="path3760"
       inkscape:connector-curvature="0" />
    <path
       d="m 52.735329,237.11416 a 12.000002,12.000002 0 1 0 -24.000004,0 12.000002,12.000002 0 1 0 24.000004,0 z"
       style="fill:none;stroke:#000000;stroke-width:0.02645833;stroke-miterlimit:4;stroke-dasharray:none"
       id="path3762"
       inkscape:connector-curvature="0" />
    <path
       d="m 82.62117,234.49949 a 12.000001,12.000001 0 1 0 -24.000002,0 12.000001,12.000001 0 1 0 24.000002,0 z"
       style="fill:none;stroke:#000000;stroke-width:0.02645833;stroke-miterlimit:4;stroke-dasharray:none"
       id="path3764"
       inkscape:connector-curvature="0" />
    <path
       d="m 112.50701,231.88482 a 12.000001,12.000001 0 1 0 -24.000001,0 12.000001,12.000001 0 1 0 24.000001,0 z"
       style="fill:none;stroke:#000000;stroke-width:0.02645833;stroke-miterlimit:4;stroke-dasharray:none"
       id="path3766"
       inkscape:connector-curvature="0" />
    <path
       d="m 142.39285,229.27014 a 12,12 0 1 0 -24,0 12,12 0 1 0 24,0 z"
       style="fill:none;stroke:#000000;stroke-width:0.02645833;stroke-miterlimit:4;stroke-dasharray:none"
       id="path3768"
       inkscape:connector-curvature="0" />
    <path
       d="m 50.120656,207.22832 a 12,12 0 1 0 -24.000001,0 12.000001,12.000001 0 1 0 24.000001,0 z"
       style="fill:none;stroke:#000000;stroke-width:0.02645833;stroke-miterlimit:4;stroke-dasharray:none"
       id="path3770"
       inkscape:connector-curvature="0" />
    <path
       d="m 80.006497,204.61365 a 12,12 0 1 0 -24,0 12,12 0 1 0 24,0 z"
       style="fill:none;stroke:#000000;stroke-width:0.02645833;stroke-miterlimit:4;stroke-dasharray:none"
       id="path3772"
       inkscape:connector-curvature="0" />
    <path
       d="m 109.89234,201.99898 a 12.000001,12.000001 0 1 0 -24.000001,0 12.000001,12.000001 0 1 0 24.000001,0 z"
       style="fill:none;stroke:#000000;stroke-width:0.02645833;stroke-miterlimit:4;stroke-dasharray:none"
       id="path3774"
       inkscape:connector-curvature="0" />
    <path
       d="m 139.77818,199.38431 a 12,12 0 1 0 -24,0 12,12 0 1 0 24,0 z"
       style="fill:none;stroke:#000000;stroke-width:0.02645833;stroke-miterlimit:4;stroke-dasharray:none"
       id="path3776"
       inkscape:connector-curvature="0" />
    <path
       d="m 47.505985,177.34248 a 12,12 0 1 0 -24,0 12,12 0 1 0 24,0 z"
       style="fill:none;stroke:#000000;stroke-width:0.02645833;stroke-miterlimit:4;stroke-dasharray:none"
       id="path3778"
       inkscape:connector-curvature="0" />
    <path
       d="m 77.391824,174.72781 a 12,12 0 1 0 -24,0 12,12 0 1 0 24,0 z"
       style="fill:none;stroke:#000000;stroke-width:0.02645833;stroke-miterlimit:4;stroke-dasharray:none"
       id="path3780"
       inkscape:connector-curvature="0" />
    <path
       d="m 107.27766,172.11314 a 12,12 0 1 0 -23.999995,0 12,12 0 1 0 23.999995,0 z"
       style="fill:none;stroke:#000000;stroke-width:0.02645833;stroke-miterlimit:4;stroke-dasharray:none"
       id="path3782"
       inkscape:connector-curvature="0" />
    <path
       d="m 137.1635,169.49847 a 12,12 0 1 0 -23.99999,0 12,12 0 1 0 23.99999,0 z"
       style="fill:none;stroke:#000000;stroke-width:0.02645833;stroke-miterlimit:4;stroke-dasharray:none"
       id="path3784"
       inkscape:connector-curvature="0" />
    <path
       d="m 324.64999,267.00001 a 12,12 0 1 0 -23.99997,0 12,12 0 1 0 23.99997,0 z"
       style="fill:none;stroke:#000000;stroke-width:0.02645833;stroke-miterlimit:4;stroke-dasharray:none"
       id="path3786"
       inkscape:connector-curvature="0" />
    <path
       d="m 294.76418,264.38533 a 12.000005,12.000005 0 1 0 -24.00001,0 12.000005,12.000005 0 1 0 24.00001,0 z"
       style="fill:none;stroke:#000000;stroke-width:0.02645833;stroke-miterlimit:4;stroke-dasharray:none"
       id="path3788"
       inkscape:connector-curvature="0" />
    <path
       d="m 264.87833,261.77066 a 12,12 0 1 0 -24,0 12,12 0 1 0 24,0 z"
       style="fill:none;stroke:#000000;stroke-width:0.02645833;stroke-miterlimit:4;stroke-dasharray:none"
       id="path3790"
       inkscape:connector-curvature="0" />
    <path
       d="m 234.99249,259.15598 a 12.000005,12.000005 0 1 0 -24.00001,0 12.000005,12.000005 0 1 0 24.00001,0 z"
       style="fill:none;stroke:#000000;stroke-width:0.02645833;stroke-miterlimit:4;stroke-dasharray:none"
       id="path3792"
       inkscape:connector-curvature="0" />
    <path
       d="m 327.26467,237.11416 a 12,12 0 1 0 -24,0 12,12 0 1 0 24,0 z"
       style="fill:none;stroke:#000000;stroke-width:0.02645833;stroke-miterlimit:4;stroke-dasharray:none"
       id="path3794"
       inkscape:connector-curvature="0" />
    <path
       d="m 297.37883,234.49949 a 12.000005,12.000005 0 1 0 -24.00001,0 12.000005,12.000005 0 1 0 24.00001,0 z"
       style="fill:none;stroke:#000000;stroke-width:0.02645833;stroke-miterlimit:4;stroke-dasharray:none"
       id="path3796"
       inkscape:connector-curvature="0" />
    <path
       d="m 267.49298,231.88482 a 12,12 0 1 0 -23.99999,0 12,12 0 1 0 23.99999,0 z"
       style="fill:none;stroke:#000000;stroke-width:0.02645833;stroke-miterlimit:4;stroke-dasharray:none"
       id="path3798"
       inkscape:connector-curvature="0" />
    <path
       d="m 237.60715,229.27014 a 12.000002,12.000002 0 1 0 -24,0 12.000002,12.000002 0 1 0 24,0 z"
       style="fill:none;stroke:#000000;stroke-width:0.02645833;stroke-miterlimit:4;stroke-dasharray:none"
       id="path3800"
       inkscape:connector-curvature="0" />
    <path
       d="m 329.87936,207.22832 a 12.00001,12.00001 0 1 0 -24.00002,0 12.00001,12.00001 0 1 0 24.00002,0 z"
       style="fill:none;stroke:#000000;stroke-width:0.02645833;stroke-miterlimit:4;stroke-dasharray:none"
       id="path3802"
       inkscape:connector-curvature="0" />
    <path
       d="m 299.99351,204.61365 a 12,12 0 1 0 -23.99999,0 12,12 0 1 0 23.99999,0 z"
       style="fill:none;stroke:#000000;stroke-width:0.02645833;stroke-miterlimit:4;stroke-dasharray:none"
       id="path3804"
       inkscape:connector-curvature="0" />
    <path
       d="m 270.10767,201.99898 a 12.000006,12.000006 0 1 0 -24.00001,0 12.000006,12.000006 0 1 0 24.00001,0 z"
       style="fill:none;stroke:#000000;stroke-width:0.02645833;stroke-miterlimit:4;stroke-dasharray:none"
       id="path3806"
       inkscape:connector-curvature="0" />
    <path
       d="m 240.22183,199.3843 a 12.000005,12.000005 0 1 0 -24.00001,0 12.000005,12.000005 0 1 0 24.00001,0 z"
       style="fill:none;stroke:#000000;stroke-width:0.02645833;stroke-miterlimit:4;stroke-dasharray:none"
       id="path3808"
       inkscape:connector-curvature="0" />
    <path
       d="m 332.49403,177.34248 a 12.00001,12.00001 0 1 0 -24.00002,0 12.00001,12.00001 0 1 0 24.00002,0 z"
       style="fill:none;stroke:#000000;stroke-width:0.02645833;stroke-miterlimit:4;stroke-dasharray:none"
       id="path3810"
       inkscape:connector-curvature="0" />
    <path
       d="m 302.60816,174.72781 a 12,12 0 1 0 -23.99997,0 12,12 0 1 0 23.99997,0 z"
       style="fill:none;stroke:#000000;stroke-width:0.02645833;stroke-miterlimit:4;stroke-dasharray:none"
       id="path3812"
       inkscape:connector-curvature="0" />
    <path
       d="m 272.72235,172.11314 a 12.000005,12.000005 0 1 0 -24.00001,0 12.000005,12.000005 0 1 0 24.00001,0 z"
       style="fill:none;stroke:#000000;stroke-width:0.02645833;stroke-miterlimit:4;stroke-dasharray:none"
       id="path3814"
       inkscape:connector-curvature="0" />
    <path
       d="m 242.8365,169.49846 a 12.000005,12.000005 0 1 0 -24.00001,0 12.000005,12.000005 0 1 0 24.00001,0 z"
       style="fill:none;stroke:#000000;stroke-width:0.02645833;stroke-miterlimit:4;stroke-dasharray:none"
       id="path3816"
       inkscape:connector-curvature="0" />
    <path
       d="m 175.00752,259.15598 a 12.000001,12.000001 0 1 0 -24,0 12.000001,12.000001 0 1 0 24,0 z"
       style="fill:none;stroke:#000000;stroke-width:0.02645833;stroke-miterlimit:4;stroke-dasharray:none"
       id="path3818"
       inkscape:connector-curvature="0" />
    <path
       d="m 204.99248,259.15598 a 12.000005,12.000005 0 1 0 -24.00001,0 12.000005,12.000005 0 1 0 24.00001,0 z"
       style="fill:none;stroke:#000000;stroke-width:0.02645833;stroke-miterlimit:4;stroke-dasharray:none"
       id="path3820"
       inkscape:connector-curvature="0" />
    <path
       d="m 175.00752,229.15598 a 12.000001,12.000001 0 1 0 -24,0 12.000001,12.000001 0 1 0 24,0 z"
       style="fill:none;stroke:#000000;stroke-width:0.02645833;stroke-miterlimit:4;stroke-dasharray:none"
       id="path3822"
       inkscape:connector-curvature="0" />
    <path
       d="m 204.99248,229.15598 a 12.000005,12.000005 0 1 0 -24.00001,0 12.000005,12.000005 0 1 0 24.00001,0 z"
       style="fill:none;stroke:#000000;stroke-width:0.02645833;stroke-miterlimit:4;stroke-dasharray:none"
       id="path3824"
       inkscape:connector-curvature="0" />
    <path
       d="m 204.99248,199.15599 a 12.000005,12.000005 0 1 0 -24.00001,0 12.000005,12.000005 0 1 0 24.00001,0 z"
       style="fill:none;stroke:#000000;stroke-width:0.02645833;stroke-miterlimit:4;stroke-dasharray:none"
       id="path3826"
       inkscape:connector-curvature="0" />
    <path
       d="m 175.00752,199.15599 a 12.000001,12.000001 0 1 0 -24,0 12.000001,12.000001 0 1 0 24,0 z"
       style="fill:none;stroke:#000000;stroke-width:0.02645833;stroke-miterlimit:4;stroke-dasharray:none"
       id="path3828"
       inkscape:connector-curvature="0" />
    <path
       d="m 175.00752,169.15599 a 12.000001,12.000001 0 1 0 -24,0 12.000001,12.000001 0 1 0 24,0 z"
       style="fill:none;stroke:#000000;stroke-width:0.02645833;stroke-miterlimit:4;stroke-dasharray:none"
       id="path3830"
       inkscape:connector-curvature="0" />
    <path
       d="m 204.99248,169.15599 a 12.000005,12.000005 0 1 0 -24.00001,0 12.000005,12.000005 0 1 0 24.00001,0 z"
       style="fill:none;stroke:#000000;stroke-width:0.02645833;stroke-miterlimit:4;stroke-dasharray:none"
       id="path3832"
       inkscape:connector-curvature="0" />
    <path
       d="m 39.134235,147.6493 h 1.799998 v -3 h -1.799998 z"
       style="fill:none;stroke:#000000;stroke-width:0.02645833;stroke-miterlimit:4;stroke-dasharray:none"
       id="path3834"
       inkscape:connector-curvature="0" />
    <path
       d="m 51.334234,146.1493 a 3.5000001,3.5000001 0 1 0 -7,0 3.5,3.5 0 1 0 7,0 z"
       style="fill:none;stroke:#000000;stroke-width:0.02645833;stroke-miterlimit:4;stroke-dasharray:none"
       id="path3836"
       inkscape:connector-curvature="0" />
    <path
       d="m 69.020071,145.03463 h 1.8 v -3 h -1.8 z"
       style="fill:none;stroke:#000000;stroke-width:0.02645833;stroke-miterlimit:4;stroke-dasharray:none"
       id="path3838"
       inkscape:connector-curvature="0" />
    <path
       d="m 81.220072,143.53463 a 3.4999999,3.4999999 0 1 0 -6.999999,0 3.4999999,3.4999999 0 1 0 6.999999,0 z"
       style="fill:none;stroke:#000000;stroke-width:0.02645833;stroke-miterlimit:4;stroke-dasharray:none"
       id="path3840"
       inkscape:connector-curvature="0" />
    <path
       d="m 98.905915,142.41996 h 1.799995 v -3 h -1.799995 z"
       style="fill:none;stroke:#000000;stroke-width:0.02645833;stroke-miterlimit:4;stroke-dasharray:none"
       id="path3842"
       inkscape:connector-curvature="0" />
    <path
       d="m 111.10591,140.91996 a 3.5000001,3.5000001 0 1 0 -7,0 3.5,3.5 0 1 0 7,0 z"
       style="fill:none;stroke:#000000;stroke-width:0.02645833;stroke-miterlimit:4;stroke-dasharray:none"
       id="path3844"
       inkscape:connector-curvature="0" />
    <path
       d="m 128.79175,139.80529 h 1.8 v -3 h -1.8 z"
       style="fill:none;stroke:#000000;stroke-width:0.02645833;stroke-miterlimit:4;stroke-dasharray:none"
       id="path3846"
       inkscape:connector-curvature="0" />
    <path
       d="m 140.99175,138.30529 a 3.5,3.5 0 1 0 -7,0 3.5000001,3.5000001 0 1 0 7,0 z"
       style="fill:none;stroke:#000000;stroke-width:0.02645833;stroke-miterlimit:4;stroke-dasharray:none"
       id="path3848"
       inkscape:connector-curvature="0" />
    <path
       d="m 299.46577,144.6493 v 3 h 1.8 v -3 z"
       style="fill:none;stroke:#000000;stroke-width:0.02645833;stroke-miterlimit:4;stroke-dasharray:none"
       id="path3850"
       inkscape:connector-curvature="0" />
    <path
       d="m 311.66579,146.1493 a 3.5000009,3.5000009 0 1 0 -7,0 3.5000009,3.5000009 0 1 0 7,0 z"
       style="fill:none;stroke:#000000;stroke-width:0.02645833;stroke-miterlimit:4;stroke-dasharray:none"
       id="path3852"
       inkscape:connector-curvature="0" />
    <path
       d="m 269.57994,142.03463 v 3 h 1.79999 v -3 z"
       style="fill:none;stroke:#000000;stroke-width:0.02645833;stroke-miterlimit:4;stroke-dasharray:none"
       id="path3854"
       inkscape:connector-curvature="0" />
    <path
       d="m 281.77994,143.53463 a 3.500005,3.500005 0 1 0 -7.00001,0 3.500005,3.500005 0 1 0 7.00001,0 z"
       style="fill:none;stroke:#000000;stroke-width:0.02645833;stroke-miterlimit:4;stroke-dasharray:none"
       id="path3856"
       inkscape:connector-curvature="0" />
    <path
       d="m 239.69409,139.41996 v 3 h 1.80001 v -3 z"
       style="fill:none;stroke:#000000;stroke-width:0.02645833;stroke-miterlimit:4;stroke-dasharray:none"
       id="path3858"
       inkscape:connector-curvature="0" />
    <path
       d="m 251.89409,140.91996 a 3.5000001,3.5000001 0 1 0 -7,0 3.5000001,3.5000001 0 1 0 7,0 z"
       style="fill:none;stroke:#000000;stroke-width:0.02645833;stroke-miterlimit:4;stroke-dasharray:none"
       id="path3860"
       inkscape:connector-curvature="0" />
    <path
       d="m 209.80825,136.80529 v 3 h 1.8 v -3 z"
       style="fill:none;stroke:#000000;stroke-width:0.02645833;stroke-miterlimit:4;stroke-dasharray:none"
       id="path3862"
       inkscape:connector-curvature="0" />
    <path
       d="m 222.00824,138.30529 a 3.5,3.5 0 1 0 -7,0 3.5,3.5 0 1 0 7,0 z"
       style="fill:none;stroke:#000000;stroke-width:0.02645833;stroke-miterlimit:4;stroke-dasharray:none"
       id="path3864"
       inkscape:connector-curvature="0" />
    <path
       d="m 351.6,195.50615 a 1.6000016,1.6000016 0 1 0 -3.19999,0 1.6000016,1.6000016 0 1 0 3.19999,0 z"
       style="fill:none;stroke:#000000;stroke-width:0.02645833;stroke-miterlimit:4;stroke-dasharray:none"
       id="path3886"
       inkscape:connector-curvature="0" />
    <path
       d="m 351.6,225.62074 a 1.6000016,1.6000016 0 1 0 -3.19999,0 1.6000016,1.6000016 0 1 0 3.19999,0 z"
       style="fill:none;stroke:#000000;stroke-width:0.02645833;stroke-miterlimit:4;stroke-dasharray:none"
       id="path3888"
       inkscape:connector-curvature="0" />
    <path
       d="m 351.6,255.73534 a 1.6000016,1.6000016 0 1 0 -3.19999,0 1.6000016,1.6000016 0 1 0 3.19999,0 z"
       style="fill:none;stroke:#000000;stroke-width:0.02645833;stroke-miterlimit:4;stroke-dasharray:none"
       id="path3890"
       inkscape:connector-curvature="0" />
    <path
       d="m 7.599995,195.50615 a 1.6,1.6 0 1 0 -3.2,0 1.6,1.6 0 1 0 3.2,0 z"
       style="fill:none;stroke:#000000;stroke-width:0.02645833;stroke-miterlimit:4;stroke-dasharray:none"
       id="path3892"
       inkscape:connector-curvature="0" />
    <path
       d="m 7.599995,225.62074 a 1.6,1.6 0 1 0 -3.2,0 1.6,1.6 0 1 0 3.2,0 z"
       style="fill:none;stroke:#000000;stroke-width:0.02645833;stroke-miterlimit:4;stroke-dasharray:none"
       id="path3894"
       inkscape:connector-curvature="0" />
    <path
       d="m 7.599995,255.73534 a 1.6,1.6 0 1 0 -3.2,0 1.6,1.6 0 1 0 3.2,0 z"
       style="fill:none;stroke:#000000;stroke-width:0.02645833;stroke-miterlimit:4;stroke-dasharray:none"
       id="path3896"
       inkscape:connector-curvature="0" />
    <path
       d="m 62.107001,291 a 1.6000005,1.6000005 0 1 0 -3.200001,0 1.6000005,1.6000005 0 1 0 3.200001,0 z"
       style="fill:none;stroke:#000000;stroke-width:0.02645833;stroke-miterlimit:4;stroke-dasharray:none"
       id="path3898"
       inkscape:connector-curvature="0" />
    <path
       d="m 47.409,123 a 1.6000005,1.6000005 0 1 0 -3.200001,0 1.6000005,1.6000005 0 1 0 3.200001,0 z"
       style="fill:none;stroke:#000000;stroke-width:0.02645833;stroke-miterlimit:4;stroke-dasharray:none"
       id="path3900"
       inkscape:connector-curvature="0" />
    <path
       d="m 92.222,291 a 1.6000002,1.6000002 0 1 0 -3.2,0 1.6000002,1.6000002 0 1 0 3.2,0 z"
       style="fill:none;stroke:#000000;stroke-width:0.02645833;stroke-miterlimit:4;stroke-dasharray:none"
       id="path3902"
       inkscape:connector-curvature="0" />
    <path
       d="m 122.337,291 a 1.6000002,1.6000002 0 1 0 -3.2,0 1.6000002,1.6000002 0 1 0 3.2,0 z"
       style="fill:none;stroke:#000000;stroke-width:0.02645833;stroke-miterlimit:4;stroke-dasharray:none"
       id="path3904"
       inkscape:connector-curvature="0" />
    <path
       d="m 179.601,291 a 1.6000002,1.6000002 0 1 0 -3.2,0 1.6000002,1.6000002 0 1 0 3.2,0 z"
       style="fill:none;stroke:#000000;stroke-width:0.02645833;stroke-miterlimit:4;stroke-dasharray:none"
       id="path3906"
       inkscape:connector-curvature="0" />
    <path
       d="m 236.865,291 a 1.6,1.6 0 1 0 -3.2,0 1.6,1.6 0 1 0 3.2,0 z"
       style="fill:none;stroke:#000000;stroke-width:0.02645833;stroke-miterlimit:4;stroke-dasharray:none"
       id="path3908"
       inkscape:connector-curvature="0" />
    <path
       d="m 266.98001,291 a 1.600005,1.600005 0 1 0 -3.2,0 1.600005,1.600005 0 1 0 3.2,0 z"
       style="fill:none;stroke:#000000;stroke-width:0.02645833;stroke-miterlimit:4;stroke-dasharray:none"
       id="path3910"
       inkscape:connector-curvature="0" />
    <path
       d="m 297.095,291 a 1.6,1.6 0 1 0 -3.19999,0 1.6,1.6 0 1 0 3.19999,0 z"
       style="fill:none;stroke:#000000;stroke-width:0.02645833;stroke-miterlimit:4;stroke-dasharray:none"
       id="path3912"
       inkscape:connector-curvature="0" />
    <path
       d="m 77.523999,123 a 1.6,1.6 0 1 0 -3.199998,0 1.6,1.6 0 1 0 3.199998,0 z"
       style="fill:none;stroke:#000000;stroke-width:0.02645833;stroke-miterlimit:4;stroke-dasharray:none"
       id="path3914"
       inkscape:connector-curvature="0" />
    <path
       d="m 107.639,123 a 1.6000002,1.6000002 0 1 0 -3.2,0 1.6000002,1.6000002 0 1 0 3.2,0 z"
       style="fill:none;stroke:#000000;stroke-width:0.02645833;stroke-miterlimit:4;stroke-dasharray:none"
       id="path3916"
       inkscape:connector-curvature="0" />
    <path
       d="m 179.601,123 a 1.6000002,1.6000002 0 1 0 -3.2,0 1.6000002,1.6000002 0 1 0 3.2,0 z"
       style="fill:none;stroke:#000000;stroke-width:0.02645833;stroke-miterlimit:4;stroke-dasharray:none"
       id="path3918"
       inkscape:connector-curvature="0" />
    <path
       d="m 251.56301,123 a 1.6000002,1.6000002 0 1 0 -3.2,0 1.6000002,1.6000002 0 1 0 3.2,0 z"
       style="fill:none;stroke:#000000;stroke-width:0.02645833;stroke-miterlimit:4;stroke-dasharray:none"
       id="path3920"
       inkscape:connector-curvature="0" />
    <path
       d="m 281.67802,123 a 1.6000016,1.6000016 0 1 0 -3.2,0 1.6000016,1.6000016 0 1 0 3.2,0 z"
       style="fill:none;stroke:#000000;stroke-width:0.02645833;stroke-miterlimit:4;stroke-dasharray:none"
       id="path3922"
       inkscape:connector-curvature="0" />
    <path
       d="m 311.793,123 a 1.6000016,1.6000016 0 1 0 -3.2,0 1.6000016,1.6000016 0 1 0 3.2,0 z"
       style="fill:none;stroke:#000000;stroke-width:0.02645833;stroke-miterlimit:4;stroke-dasharray:none"
       id="path3924"
       inkscape:connector-curvature="0" />
  </g>
</svg>
