<?xml version="1.0" encoding="UTF-8" standalone="no"?>
<svg
   xmlns:dc="http://purl.org/dc/elements/1.1/"
   xmlns:cc="http://creativecommons.org/ns#"
   xmlns:rdf="http://www.w3.org/1999/02/22-rdf-syntax-ns#"
   xmlns:svg="http://www.w3.org/2000/svg"
   xmlns="http://www.w3.org/2000/svg"
   xmlns:sodipodi="http://sodipodi.sourceforge.net/DTD/sodipodi-0.dtd"
   xmlns:inkscape="http://www.inkscape.org/namespaces/inkscape"
   width="356mm"
   height="180mm"
   version="1.1"
   id="svg1063"
   sodipodi:docname="ECM-408-Cutout.svg"
   inkscape:version="0.92.2 (5c3e80d, 2017-08-06)">
  <metadata
     id="metadata1067">
    <rdf:RDF>
      <cc:Work
         rdf:about="">
        <dc:format>image/svg+xml</dc:format>
        <dc:type
           rdf:resource="http://purl.org/dc/dcmitype/StillImage" />
        <dc:title />
      </cc:Work>
    </rdf:RDF>
  </metadata>
  <sodipodi:namedview
     pagecolor="#ffffff"
     bordercolor="#666666"
     borderopacity="1"
     objecttolerance="10"
     gridtolerance="10"
     guidetolerance="10"
     inkscape:pageopacity="0"
     inkscape:pageshadow="2"
     inkscape:window-width="1920"
     inkscape:window-height="1027"
     id="namedview1065"
     showgrid="false"
     units="mm"
     inkscape:zoom="0.76613358"
     inkscape:cx="236.90797"
     inkscape:cy="229.35948"
     inkscape:window-x="1912"
     inkscape:window-y="-8"
     inkscape:window-maximized="1"
     inkscape:current-layer="g1061" />
  <desc
     id="desc815">C:\Users\Ellis\Desktop\ECM-408.dxf - scale = 1.000000, origin = (0.000000, 0.000000), method = manual</desc>
  <defs
     id="defs829">
    <marker
       id="DistanceX"
       orient="auto"
       refX="0"
       refY="0"
       style="overflow:visible">
      <path
         d="M 3,-3 -3,3 M 0,-5 V 5"
         style="stroke:#000000;stroke-width:0.5"
         id="path817"
         inkscape:connector-curvature="0" />
    </marker>
    <pattern
       height="8"
       id="Hatch"
       patternUnits="userSpaceOnUse"
       width="8"
       x="0"
       y="0">
      <path
         d="M8 4 l-4,4"
         linecap="square"
         stroke="#000000"
         stroke-width="0.25"
         id="path820" />
      <path
         d="M6 2 l-4,4"
         linecap="square"
         stroke="#000000"
         stroke-width="0.25"
         id="path822" />
      <path
         d="M4 0 l-4,4"
         linecap="square"
         stroke="#000000"
         stroke-width="0.25"
         id="path824" />
    </pattern>
    <symbol
       id="*MODEL_SPACE" />
    <symbol
       id="*PAPER_SPACE" />
  </defs>
  <g
     inkscape:groupmode="layer"
     inkscape:label="0"
     id="g1061"
     transform="translate(0,-442.20469)">
    <path
       d="M 1345.5118,1122.5197 H -1.6938189e-5 V 442.20468 H 1345.5118 Z"
       style="fill:none;stroke:#000000;stroke-width:0.37795276;stroke-miterlimit:4;stroke-dasharray:none"
       id="path831"
       inkscape:connector-curvature="0" />
    <path
       d="m 209.19684,1009.1339 a 45.354331,45.354331 0 1 0 -90.70866,0 45.354331,45.354331 0 1 0 90.70866,0 z"
       style="fill:none;stroke:#000000;stroke-width:0.37795276;stroke-miterlimit:4;stroke-dasharray:none"
       id="path889"
       inkscape:connector-curvature="0" />
    <path
       d="m 322.1512,999.25159 a 45.354331,45.354331 0 1 0 -90.70866,0 45.354331,45.354331 0 1 0 90.70866,0 z"
       style="fill:none;stroke:#000000;stroke-width:0.37795276;stroke-miterlimit:4;stroke-dasharray:none"
       id="path891"
       inkscape:connector-curvature="0" />
    <path
       d="m 435.10556,989.36937 a 45.354331,45.354331 0 1 0 -90.70866,0 45.354331,45.354331 0 1 0 90.70866,0 z"
       style="fill:none;stroke:#000000;stroke-width:0.37795276;stroke-miterlimit:4;stroke-dasharray:none"
       id="path893"
       inkscape:connector-curvature="0" />
    <path
       d="m 548.05992,979.48714 a 45.354331,45.354331 0 1 0 -90.70866,0 45.354331,45.354331 0 1 0 90.70866,0 z"
       style="fill:none;stroke:#000000;stroke-width:0.37795276;stroke-miterlimit:4;stroke-dasharray:none"
       id="path895"
       inkscape:connector-curvature="0" />
    <path
       d="m 199.31462,896.17946 a 45.354331,45.354331 0 1 0 -90.70866,0 45.354331,45.354331 0 1 0 90.70866,0 z"
       style="fill:none;stroke:#000000;stroke-width:0.37795276;stroke-miterlimit:4;stroke-dasharray:none"
       id="path897"
       inkscape:connector-curvature="0" />
    <path
       d="m 312.26898,886.29724 a 45.354335,45.354335 0 1 0 -90.70867,0 45.354335,45.354335 0 1 0 90.70867,0 z"
       style="fill:none;stroke:#000000;stroke-width:0.37795276;stroke-miterlimit:4;stroke-dasharray:none"
       id="path899"
       inkscape:connector-curvature="0" />
    <path
       d="m 425.22333,876.41501 a 45.354331,45.354331 0 1 0 -90.70866,0 45.354331,45.354331 0 1 0 90.70866,0 z"
       style="fill:none;stroke:#000000;stroke-width:0.37795276;stroke-miterlimit:4;stroke-dasharray:none"
       id="path901"
       inkscape:connector-curvature="0" />
    <path
       d="m 538.17769,866.53279 a 45.354331,45.354331 0 1 0 -90.70866,0 45.354331,45.354331 0 1 0 90.70866,0 z"
       style="fill:none;stroke:#000000;stroke-width:0.37795276;stroke-miterlimit:4;stroke-dasharray:none"
       id="path903"
       inkscape:connector-curvature="0" />
    <path
       d="m 189.43239,783.2251 a 45.354331,45.354331 0 1 0 -90.708662,0 45.354331,45.354331 0 1 0 90.708662,0 z"
       style="fill:none;stroke:#000000;stroke-width:0.37795276;stroke-miterlimit:4;stroke-dasharray:none"
       id="path905"
       inkscape:connector-curvature="0" />
    <path
       d="m 302.38675,773.34287 a 45.354331,45.354331 0 1 0 -90.70866,0 45.354331,45.354331 0 1 0 90.70866,0 z"
       style="fill:none;stroke:#000000;stroke-width:0.37795276;stroke-miterlimit:4;stroke-dasharray:none"
       id="path907"
       inkscape:connector-curvature="0" />
    <path
       d="m 415.34111,763.46065 a 45.354331,45.354331 0 1 0 -90.70866,0 45.354331,45.354331 0 1 0 90.70866,0 z"
       style="fill:none;stroke:#000000;stroke-width:0.37795276;stroke-miterlimit:4;stroke-dasharray:none"
       id="path909"
       inkscape:connector-curvature="0" />
    <path
       d="m 528.29547,753.57843 a 45.354331,45.354331 0 1 0 -90.70866,0 45.354331,45.354331 0 1 0 90.70866,0 z"
       style="fill:none;stroke:#000000;stroke-width:0.37795276;stroke-miterlimit:4;stroke-dasharray:none"
       id="path911"
       inkscape:connector-curvature="0" />
    <path
       d="m 179.55017,670.27074 a 45.354334,45.354334 0 1 0 -90.708668,0 45.354334,45.354334 0 1 0 90.708668,0 z"
       style="fill:none;stroke:#000000;stroke-width:0.37795276;stroke-miterlimit:4;stroke-dasharray:none"
       id="path913"
       inkscape:connector-curvature="0" />
    <path
       d="m 292.50452,660.38852 a 45.354331,45.354331 0 1 0 -90.70866,0 45.354331,45.354331 0 1 0 90.70866,0 z"
       style="fill:none;stroke:#000000;stroke-width:0.37795276;stroke-miterlimit:4;stroke-dasharray:none"
       id="path915"
       inkscape:connector-curvature="0" />
    <path
       d="m 405.45888,650.50629 a 45.354331,45.354331 0 1 0 -90.70866,0 45.354331,45.354331 0 1 0 90.70866,0 z"
       style="fill:none;stroke:#000000;stroke-width:0.37799999;stroke-miterlimit:4;stroke-dasharray:none"
       id="path917"
       inkscape:connector-curvature="0" />
    <path
       d="m 518.41324,640.62407 a 45.354331,45.354331 0 1 0 -90.70866,0 45.354331,45.354331 0 1 0 90.70866,0 z"
       style="fill:none;stroke:#000000;stroke-width:0.37795276;stroke-miterlimit:4;stroke-dasharray:none"
       id="path919"
       inkscape:connector-curvature="0" />
    <path
       d="m 1227.0236,1009.1339 a 45.354331,45.354331 0 1 0 -90.7086,0 45.354331,45.354331 0 1 0 90.7086,0 z"
       style="fill:none;stroke:#000000;stroke-width:0.37795276;stroke-miterlimit:4;stroke-dasharray:none"
       id="path921"
       inkscape:connector-curvature="0" />
    <path
       d="m 1114.0693,999.25159 a 45.35435,45.35435 0 1 0 -90.7087,0 45.35435,45.35435 0 1 0 90.7087,0 z"
       style="fill:none;stroke:#000000;stroke-width:0.37795276;stroke-miterlimit:4;stroke-dasharray:none"
       id="path923"
       inkscape:connector-curvature="0" />
    <path
       d="m 1001.1149,989.36937 a 45.35435,45.35435 0 1 0 -90.70867,0 45.35435,45.35435 0 1 0 90.70867,0 z"
       style="fill:none;stroke:#000000;stroke-width:0.37795276;stroke-miterlimit:4;stroke-dasharray:none"
       id="path925"
       inkscape:connector-curvature="0" />
    <path
       d="m 888.16053,979.48714 a 45.354331,45.354331 0 1 0 -90.70866,0 45.354331,45.354331 0 1 0 90.70866,0 z"
       style="fill:none;stroke:#000000;stroke-width:0.37795276;stroke-miterlimit:4;stroke-dasharray:none"
       id="path927"
       inkscape:connector-curvature="0" />
    <path
       d="m 1236.9058,896.17946 a 45.354331,45.354331 0 1 0 -90.7086,0 45.354331,45.354331 0 1 0 90.7086,0 z"
       style="fill:none;stroke:#000000;stroke-width:0.37795276;stroke-miterlimit:4;stroke-dasharray:none"
       id="path929"
       inkscape:connector-curvature="0" />
    <path
       d="m 1123.9515,886.29723 a 45.35435,45.35435 0 1 0 -90.7087,0 45.35435,45.35435 0 1 0 90.7087,0 z"
       style="fill:none;stroke:#000000;stroke-width:0.37795276;stroke-miterlimit:4;stroke-dasharray:none"
       id="path931"
       inkscape:connector-curvature="0" />
    <path
       d="m 1010.9971,876.41501 a 45.354335,45.354335 0 1 0 -90.70864,0 45.354335,45.354335 0 1 0 90.70864,0 z"
       style="fill:none;stroke:#000000;stroke-width:0.37795276;stroke-miterlimit:4;stroke-dasharray:none"
       id="path933"
       inkscape:connector-curvature="0" />
    <path
       d="m 898.04276,866.53278 a 45.354331,45.354331 0 1 0 -90.70866,0 45.354331,45.354331 0 1 0 90.70866,0 z"
       style="fill:none;stroke:#000000;stroke-width:0.37795276;stroke-miterlimit:4;stroke-dasharray:none"
       id="path935"
       inkscape:connector-curvature="0" />
    <path
       d="m 1246.7881,783.2251 a 45.35435,45.35435 0 1 0 -90.7087,0 45.35435,45.35435 0 1 0 90.7087,0 z"
       style="fill:none;stroke:#000000;stroke-width:0.37795276;stroke-miterlimit:4;stroke-dasharray:none"
       id="path937"
       inkscape:connector-curvature="0" />
    <path
       d="m 1133.8337,773.34287 a 45.354331,45.354331 0 1 0 -90.7086,0 45.354331,45.354331 0 1 0 90.7086,0 z"
       style="fill:none;stroke:#000000;stroke-width:0.37795276;stroke-miterlimit:4;stroke-dasharray:none"
       id="path939"
       inkscape:connector-curvature="0" />
    <path
       d="m 1020.8794,763.46065 a 45.354375,45.354375 0 1 0 -90.70872,0 45.354375,45.354375 0 1 0 90.70872,0 z"
       style="fill:none;stroke:#000000;stroke-width:0.37795276;stroke-miterlimit:4;stroke-dasharray:none"
       id="path941"
       inkscape:connector-curvature="0" />
    <path
       d="m 907.92499,753.57842 a 45.354335,45.354335 0 1 0 -90.70867,0 45.354335,45.354335 0 1 0 90.70867,0 z"
       style="fill:none;stroke:#000000;stroke-width:0.37795276;stroke-miterlimit:4;stroke-dasharray:none"
       id="path943"
       inkscape:connector-curvature="0" />
    <path
       d="m 1256.6703,670.27074 a 45.35435,45.35435 0 1 0 -90.7087,0 45.35435,45.35435 0 1 0 90.7087,0 z"
       style="fill:none;stroke:#000000;stroke-width:0.37795276;stroke-miterlimit:4;stroke-dasharray:none"
       id="path945"
       inkscape:connector-curvature="0" />
    <path
       d="m 1143.7159,660.38851 a 45.354331,45.354331 0 1 0 -90.7086,0 45.354331,45.354331 0 1 0 90.7086,0 z"
       style="fill:none;stroke:#000000;stroke-width:0.37795276;stroke-miterlimit:4;stroke-dasharray:none"
       id="path947"
       inkscape:connector-curvature="0" />
    <path
       d="m 1030.7616,650.50629 a 45.35436,45.35436 0 1 0 -90.70869,0 45.35436,45.35436 0 1 0 90.70869,0 z"
       style="fill:none;stroke:#000000;stroke-width:0.37795276;stroke-miterlimit:4;stroke-dasharray:none"
       id="path949"
       inkscape:connector-curvature="0" />
    <path
       d="m 917.80721,640.62406 a 45.354331,45.354331 0 1 0 -90.70866,0 45.354331,45.354331 0 1 0 90.70866,0 z"
       style="fill:none;stroke:#000000;stroke-width:0.37795276;stroke-miterlimit:4;stroke-dasharray:none"
       id="path951"
       inkscape:connector-curvature="0" />
    <path
       d="m 661.44575,979.48714 a 45.354335,45.354335 0 1 0 -90.70867,0 45.354335,45.354335 0 1 0 90.70867,0 z"
       style="fill:none;stroke:#000000;stroke-width:0.37795276;stroke-miterlimit:4;stroke-dasharray:none"
       id="path953"
       inkscape:connector-curvature="0" />
    <path
       d="m 774.77471,979.48714 a 45.354335,45.354335 0 1 0 -90.70867,0 45.354335,45.354335 0 1 0 90.70867,0 z"
       style="fill:none;stroke:#000000;stroke-width:0.37795276;stroke-miterlimit:4;stroke-dasharray:none"
       id="path955"
       inkscape:connector-curvature="0" />
    <path
       d="m 661.44575,866.10131 a 45.354335,45.354335 0 1 0 -90.70867,0 45.354335,45.354335 0 1 0 90.70867,0 z"
       style="fill:none;stroke:#000000;stroke-width:0.37795276;stroke-miterlimit:4;stroke-dasharray:none"
       id="path957"
       inkscape:connector-curvature="0" />
    <path
       d="m 774.77471,866.10131 a 45.354335,45.354335 0 1 0 -90.70867,0 45.354335,45.354335 0 1 0 90.70867,0 z"
       style="fill:none;stroke:#000000;stroke-width:0.37795276;stroke-miterlimit:4;stroke-dasharray:none"
       id="path959"
       inkscape:connector-curvature="0" />
    <path
       d="m 774.77471,752.71549 a 45.354335,45.354335 0 1 0 -90.70867,0 45.354335,45.354335 0 1 0 90.70867,0 z"
       style="fill:none;stroke:#000000;stroke-width:0.37795276;stroke-miterlimit:4;stroke-dasharray:none"
       id="path961"
       inkscape:connector-curvature="0" />
    <path
       d="m 661.44575,752.71549 a 45.354335,45.354335 0 1 0 -90.70867,0 45.354335,45.354335 0 1 0 90.70867,0 z"
       style="fill:none;stroke:#000000;stroke-width:0.37795276;stroke-miterlimit:4;stroke-dasharray:none"
       id="path963"
       inkscape:connector-curvature="0" />
    <path
       d="m 661.44575,639.32966 a 45.354335,45.354335 0 1 0 -90.70867,0 45.354335,45.354335 0 1 0 90.70867,0 z"
       style="fill:none;stroke:#000000;stroke-width:0.37795276;stroke-miterlimit:4;stroke-dasharray:none"
       id="path965"
       inkscape:connector-curvature="0" />
    <path
       d="m 774.77471,639.32966 a 45.354335,45.354335 0 1 0 -90.70867,0 45.354335,45.354335 0 1 0 90.70867,0 z"
       style="fill:none;stroke:#000000;stroke-width:0.37795276;stroke-miterlimit:4;stroke-dasharray:none"
       id="path967"
       inkscape:connector-curvature="0" />
    <path
       d="m 147.90891,558.04456 h 6.80314 v -11.33858 h -6.80314 z"
       style="fill:none;stroke:#000000;stroke-width:0.37795276;stroke-miterlimit:4;stroke-dasharray:none"
       id="path969"
       inkscape:connector-curvature="0" />
    <path
       d="m 192.50733,552.37527 a 11.716535,11.716535 0 1 0 -23.43307,0 11.716535,11.716535 0 1 0 23.43307,0 z"
       style="fill:none;stroke:#000000;stroke-width:0.37795276;stroke-miterlimit:4;stroke-dasharray:none"
       id="path971"
       inkscape:connector-curvature="0" />
    <path
       d="m 260.86325,548.16233 h 6.80315 v -11.33858 h -6.80315 z"
       style="fill:none;stroke:#000000;stroke-width:0.37795276;stroke-miterlimit:4;stroke-dasharray:none"
       id="path973"
       inkscape:connector-curvature="0" />
    <path
       d="m 305.46168,542.49304 a 11.716535,11.716535 0 1 0 -23.43307,0 11.716536,11.716536 0 1 0 23.43307,0 z"
       style="fill:none;stroke:#000000;stroke-width:0.37795276;stroke-miterlimit:4;stroke-dasharray:none"
       id="path975"
       inkscape:connector-curvature="0" />
    <path
       d="m 373.81762,538.28011 h 6.80314 v -11.33859 h -6.80314 z"
       style="fill:none;stroke:#000000;stroke-width:0.37795276;stroke-miterlimit:4;stroke-dasharray:none"
       id="path977"
       inkscape:connector-curvature="0" />
    <path
       d="m 418.41604,532.61082 a 11.716536,11.716536 0 1 0 -23.43307,0 11.716535,11.716535 0 1 0 23.43307,0 z"
       style="fill:none;stroke:#000000;stroke-width:0.37795276;stroke-miterlimit:4;stroke-dasharray:none"
       id="path979"
       inkscape:connector-curvature="0" />
    <path
       d="m 486.77197,528.39788 h 6.80315 V 517.0593 h -6.80315 z"
       style="fill:none;stroke:#000000;stroke-width:0.37795276;stroke-miterlimit:4;stroke-dasharray:none"
       id="path981"
       inkscape:connector-curvature="0" />
    <path
       d="m 531.3704,522.7286 a 11.716535,11.716535 0 1 0 -23.43307,0 11.716536,11.716536 0 1 0 23.43307,0 z"
       style="fill:none;stroke:#000000;stroke-width:0.37795276;stroke-miterlimit:4;stroke-dasharray:none"
       id="path983"
       inkscape:connector-curvature="0" />
    <path
       d="m 1131.8391,546.70598 v 11.33858 h 6.8032 v -11.33858 z"
       style="fill:none;stroke:#000000;stroke-width:0.37795276;stroke-miterlimit:4;stroke-dasharray:none"
       id="path985"
       inkscape:connector-curvature="0" />
    <path
       d="m 1176.4376,552.37527 a 11.71655,11.71655 0 1 0 -23.4331,0 11.71655,11.71655 0 1 0 23.4331,0 z"
       style="fill:none;stroke:#000000;stroke-width:0.37795276;stroke-miterlimit:4;stroke-dasharray:none"
       id="path987"
       inkscape:connector-curvature="0" />
    <path
       d="m 1018.8848,536.82375 v 11.33858 h 6.8031 v -11.33858 z"
       style="fill:none;stroke:#000000;stroke-width:0.37795276;stroke-miterlimit:4;stroke-dasharray:none"
       id="path989"
       inkscape:connector-curvature="0" />
    <path
       d="m 1063.4832,542.49304 a 11.71655,11.71655 0 1 0 -23.4331,0 11.71655,11.71655 0 1 0 23.4331,0 z"
       style="fill:none;stroke:#000000;stroke-width:0.37795276;stroke-miterlimit:4;stroke-dasharray:none"
       id="path991"
       inkscape:connector-curvature="0" />
    <path
       d="m 905.9304,526.94152 v 11.33859 h 6.80315 v -11.33859 z"
       style="fill:none;stroke:#000000;stroke-width:0.37795276;stroke-miterlimit:4;stroke-dasharray:none"
       id="path993"
       inkscape:connector-curvature="0" />
    <path
       d="m 950.52882,532.61082 a 11.716535,11.716535 0 1 0 -23.43307,0 11.716535,11.716535 0 1 0 23.43307,0 z"
       style="fill:none;stroke:#000000;stroke-width:0.37795276;stroke-miterlimit:4;stroke-dasharray:none"
       id="path995"
       inkscape:connector-curvature="0" />
    <path
       d="m 792.97604,517.0593 v 11.33858 h 6.80315 V 517.0593 Z"
       style="fill:none;stroke:#000000;stroke-width:0.37795276;stroke-miterlimit:4;stroke-dasharray:none"
       id="path997"
       inkscape:connector-curvature="0" />
    <path
       d="m 837.57446,522.72859 a 11.716535,11.716535 0 1 0 -23.43307,0 11.716535,11.716535 0 1 0 23.43307,0 z"
       style="fill:none;stroke:#000000;stroke-width:0.37795276;stroke-miterlimit:4;stroke-dasharray:none"
       id="path999"
       inkscape:connector-curvature="0" />
    <path
       d="m 1328.8819,738.92083 a 6.04725,6.04725 0 1 0 -12.0945,0 6.04725,6.04725 0 1 0 12.0945,0 z"
       style="fill:none;stroke:#000000;stroke-width:0.37795276;stroke-miterlimit:4;stroke-dasharray:none"
       id="path1021"
       inkscape:connector-curvature="0" />
    <path
       d="m 1328.8819,852.73977 a 6.04725,6.04725 0 1 0 -12.0945,0 6.04725,6.04725 0 1 0 12.0945,0 z"
       style="fill:none;stroke:#000000;stroke-width:0.37795276;stroke-miterlimit:4;stroke-dasharray:none"
       id="path1023"
       inkscape:connector-curvature="0" />
    <path
       d="m 1328.8819,966.55871 a 6.04725,6.04725 0 1 0 -12.0945,0 6.04725,6.04725 0 1 0 12.0945,0 z"
       style="fill:none;stroke:#000000;stroke-width:0.37795276;stroke-miterlimit:4;stroke-dasharray:none"
       id="path1025"
       inkscape:connector-curvature="0" />
    <path
       d="m 28.724392,738.92083 a 6.047244,6.047244 0 1 0 -12.094488,0 6.047244,6.047244 0 1 0 12.094488,0 z"
       style="fill:none;stroke:#000000;stroke-width:0.37795276;stroke-miterlimit:4;stroke-dasharray:none"
       id="path1027"
       inkscape:connector-curvature="0" />
    <path
       d="m 28.724392,852.73977 a 6.047244,6.047244 0 1 0 -12.094488,0 6.047244,6.047244 0 1 0 12.094488,0 z"
       style="fill:none;stroke:#000000;stroke-width:0.37795276;stroke-miterlimit:4;stroke-dasharray:none"
       id="path1029"
       inkscape:connector-curvature="0" />
    <path
       d="m 28.724392,966.55871 a 6.047244,6.047244 0 1 0 -12.094488,0 6.047244,6.047244 0 1 0 12.094488,0 z"
       style="fill:none;stroke:#000000;stroke-width:0.37795276;stroke-miterlimit:4;stroke-dasharray:none"
       id="path1031"
       inkscape:connector-curvature="0" />
    <path
       d="m 234.73511,1099.8425 a 6.047245,6.047245 0 1 0 -12.09449,0 6.047245,6.047245 0 1 0 12.09449,0 z"
       style="fill:none;stroke:#000000;stroke-width:0.37795276;stroke-miterlimit:4;stroke-dasharray:none"
       id="path1033"
       inkscape:connector-curvature="0" />
    <path
       d="m 179.18361,464.88185 a 6.047245,6.047245 0 1 0 -12.09449,0 6.047245,6.047245 0 1 0 12.09449,0 z"
       style="fill:none;stroke:#000000;stroke-width:0.37795276;stroke-miterlimit:4;stroke-dasharray:none"
       id="path1035"
       inkscape:connector-curvature="0" />
    <path
       d="m 348.55558,1099.8425 a 6.047245,6.047245 0 1 0 -12.09449,0 6.047245,6.047245 0 1 0 12.09449,0 z"
       style="fill:none;stroke:#000000;stroke-width:0.37795276;stroke-miterlimit:4;stroke-dasharray:none"
       id="path1037"
       inkscape:connector-curvature="0" />
    <path
       d="m 462.37605,1099.8425 a 6.047245,6.047245 0 1 0 -12.09449,0 6.047245,6.047245 0 1 0 12.09449,0 z"
       style="fill:none;stroke:#000000;stroke-width:0.37795276;stroke-miterlimit:4;stroke-dasharray:none"
       id="path1039"
       inkscape:connector-curvature="0" />
    <path
       d="m 678.80692,1099.8425 a 6.047245,6.047245 0 1 0 -12.09449,0 6.047245,6.047245 0 1 0 12.09449,0 z"
       style="fill:none;stroke:#000000;stroke-width:0.37795276;stroke-miterlimit:4;stroke-dasharray:none"
       id="path1041"
       inkscape:connector-curvature="0" />
    <path
       d="m 895.23778,1099.8425 a 6.047244,6.047244 0 1 0 -12.09448,0 6.047244,6.047244 0 1 0 12.09448,0 z"
       style="fill:none;stroke:#000000;stroke-width:0.37795276;stroke-miterlimit:4;stroke-dasharray:none"
       id="path1043"
       inkscape:connector-curvature="0" />
    <path
       d="m 1009.0583,1099.8425 a 6.0473,6.0473 0 1 0 -12.09457,0 6.0473,6.0473 0 1 0 12.09457,0 z"
       style="fill:none;stroke:#000000;stroke-width:0.37795276;stroke-miterlimit:4;stroke-dasharray:none"
       id="path1045"
       inkscape:connector-curvature="0" />
    <path
       d="m 1122.8787,1099.8425 a 6.047244,6.047244 0 1 0 -12.0944,0 6.047244,6.047244 0 1 0 12.0944,0 z"
       style="fill:none;stroke:#000000;stroke-width:0.37795276;stroke-miterlimit:4;stroke-dasharray:none"
       id="path1047"
       inkscape:connector-curvature="0" />
    <path
       d="m 293.00408,464.88185 a 6.047244,6.047244 0 1 0 -12.09448,0 6.047244,6.047244 0 1 0 12.09448,0 z"
       style="fill:none;stroke:#000000;stroke-width:0.37795276;stroke-miterlimit:4;stroke-dasharray:none"
       id="path1049"
       inkscape:connector-curvature="0" />
    <path
       d="m 406.82456,464.88185 a 6.047245,6.047245 0 1 0 -12.09449,0 6.047245,6.047245 0 1 0 12.09449,0 z"
       style="fill:none;stroke:#000000;stroke-width:0.37795276;stroke-miterlimit:4;stroke-dasharray:none"
       id="path1051"
       inkscape:connector-curvature="0" />
    <path
       d="m 678.80692,464.88185 a 6.047245,6.047245 0 1 0 -12.09449,0 6.047245,6.047245 0 1 0 12.09449,0 z"
       style="fill:none;stroke:#000000;stroke-width:0.37795276;stroke-miterlimit:4;stroke-dasharray:none"
       id="path1053"
       inkscape:connector-curvature="0" />
    <path
       d="m 950.78928,464.88185 a 6.047245,6.047245 0 1 0 -12.09449,0 6.047245,6.047245 0 1 0 12.09449,0 z"
       style="fill:none;stroke:#000000;stroke-width:0.37795276;stroke-miterlimit:4;stroke-dasharray:none"
       id="path1055"
       inkscape:connector-curvature="0" />
    <path
       d="m 1064.6098,464.88185 a 6.04725,6.04725 0 1 0 -12.0945,0 6.04725,6.04725 0 1 0 12.0945,0 z"
       style="fill:none;stroke:#000000;stroke-width:0.37795276;stroke-miterlimit:4;stroke-dasharray:none"
       id="path1057"
       inkscape:connector-curvature="0" />
    <path
       d="m 1178.4302,464.88185 a 6.04725,6.04725 0 1 0 -12.0945,0 6.04725,6.04725 0 1 0 12.0945,0 z"
       style="fill:none;stroke:#000000;stroke-width:0.37795276;stroke-miterlimit:4;stroke-dasharray:none"
       id="path1059"
       inkscape:connector-curvature="0" />
  </g>
</svg>
