  0
SECTION
  2
HEADER
  9
$ACADVER
  1
AC1014
  9
$HANDSEED
  5
FFFF
  9
$MEASUREMENT
 70
     1
  0
ENDSEC
  0
SECTION
  2
TABLES
  0
TABLE
  2
VPORT
  5
8
330
0
100
AcDbSymbolTable
 70
     4
  0
VPORT
  5
2E
330
8
100
AcDbSymbolTableRecord
100
AcDbViewportTableRecord
  2
*ACTIVE
 70
     0
 10
0.0
 20
0.0
 11
1.0
 21
1.0
 12
210.0
 22
148.5
 13
0.0
 23
0.0
 14
10.0
 24
10.0
 15
10.0
 25
10.0
 16
0.0
 26
0.0
 36
1.0
 17
0.0
 27
0.0
 37
0.0
 40
341.0
 41
1.24
 42
50.0
 43
0.0
 44
0.0
 50
0.0
 51
0.0
 71
     0
 72
   100
 73
     1
 74
     3
 75
     0
 76
     0
 77
     0
 78
     0
  0
ENDTAB
  0
TABLE
  2
LTYPE
  5
5
330
0
100
AcDbSymbolTable
 70
     1
  0
LTYPE
  5
14
330
5
100
AcDbSymbolTableRecord
100
AcDbLinetypeTableRecord
  2
BYBLOCK
 70
     0
  3

 72
    65
 73
     0
 40
0.0
  0
LTYPE
  5
15
330
5
100
AcDbSymbolTableRecord
100
AcDbLinetypeTableRecord
  2
BYLAYER
 70
     0
  3

 72
    65
 73
     0
 40
0.0
  0
LTYPE
  5
16
330
5
100
AcDbSymbolTableRecord
100
AcDbLinetypeTableRecord
  2
CONTINUOUS
 70
     0
  3
Solid line
 72
    65
 73
     0
 40
0.0
  0
ENDTAB
  0
TABLE
  2
LAYER
  5
2
100
AcDbSymbolTable
 70
1
  0
LAYER
  5
50
100
AcDbSymbolTableRecord
100
AcDbLayerTableRecord
  2
0
 70
0
  6
CONTINUOUS
  0
ENDTAB
  0
TABLE
  2
STYLE
  5
3
330
0
100
AcDbSymbolTable
 70
     1
  0
STYLE
  5
11
330
3
100
AcDbSymbolTableRecord
100
AcDbTextStyleTableRecord
  2
STANDARD
 70
     0
 40
0.0
 41
1.0
 50
0.0
 71
     0
 42
2.5
  3
txt
  4

  0
ENDTAB
  0
TABLE
  2
VIEW
  5
6
330
0
100
AcDbSymbolTable
 70
     0
  0
ENDTAB
  0
TABLE
  2
UCS
  5
7
330
0
100
AcDbSymbolTable
 70
     0
  0
ENDTAB
  0
TABLE
  2
APPID
  5
9
330
0
100
AcDbSymbolTable
 70
     2
  0
APPID
  5
12
330
9
100
AcDbSymbolTableRecord
100
AcDbRegAppTableRecord
  2
ACAD
 70
     0
  0
ENDTAB
  0
TABLE
  2
DIMSTYLE
  5
A
330
0
100
AcDbSymbolTable
 70
     1
  0
DIMSTYLE
105
27
330
A
100
AcDbSymbolTableRecord
100
AcDbDimStyleTableRecord
  2
ISO-25
 70
     0
  3

  4

  5

  6

  7

 40
1.0
 41
2.5
 42
0.625
 43
3.75
 44
1.25
 45
0.0
 46
0.0
 47
0.0
 48
0.0
140
2.5
141
2.5
142
0.0
143
0.03937007874016
144
1.0
145
0.0
146
1.0
147
0.625
 71
     0
 72
     0
 73
     0
 74
     0
 75
     0
 76
     0
 77
     1
 78
     8
170
     0
171
     3
172
     1
173
     0
174
     0
175
     0
176
     0
177
     0
178
     0
270
     2
271
     2
272
     2
273
     2
274
     3
340
11
275
     0
280
     0
281
     0
282
     0
283
     0
284
     8
285
     0
286
     0
287
     3
288
     0
  0
ENDTAB
  0
TABLE
  2
BLOCK_RECORD
  5
1
330
0
100
AcDbSymbolTable
 70
     1
  0
BLOCK_RECORD
  5
1F
330
1
100
AcDbSymbolTableRecord
100
AcDbBlockTableRecord
  2
*MODEL_SPACE
  0
BLOCK_RECORD
  5
1B
330
1
100
AcDbSymbolTableRecord
100
AcDbBlockTableRecord
  2
*PAPER_SPACE
  0
ENDTAB
  0
ENDSEC
  0
SECTION
  2
BLOCKS
  0
BLOCK
  5
20
330
1F
100
AcDbEntity
  8
0
100
AcDbBlockBegin
  2
*MODEL_SPACE
 70
     0
 10
0.0
 20
0.0
 30
0.0
  3
*MODEL_SPACE
  1

  0
ENDBLK
  5
21
330
1F
100
AcDbEntity
  8
0
100
AcDbBlockEnd
  0
BLOCK
  5
1C
330
1B
100
AcDbEntity
 67
     1
  8
0
100
AcDbBlockBegin
  2
*PAPER_SPACE
  1

  0
ENDBLK
  5
1D
330
1B
100
AcDbEntity
 67
     1
  8
0
100
AcDbBlockEnd
  0
ENDSEC
  0
SECTION
  2
ENTITIES
  0
SPLINE
  5
100
100
AcDbEntity
  8
0
 62
7
100
AcDbSpline
 70
8
 71
3
 72
8
 73
4
 74
0
 40
0
 40
0
 40
0
 40
0
 40
1
 40
1
 40
1
 40
1
 10
55.350000
 20
29.999990
 30
0.0
 10
55.350900
 20
34.287778
 30
0.0
 10
53.063910
 20
38.250242
 30
0.0
 10
49.350728
 20
40.394395
 30
0.0
  0
SPLINE
  5
101
100
AcDbEntity
  8
0
 62
7
100
AcDbSpline
 70
8
 71
3
 72
8
 73
4
 74
0
 40
0
 40
0
 40
0
 40
0
 40
1
 40
1
 40
1
 40
1
 10
49.350728
 20
40.394395
 30
0.0
 10
45.637545
 20
42.538549
 30
0.0
 10
41.062455
 20
42.538549
 30
0.0
 10
37.349273
 20
40.394395
 30
0.0
  0
SPLINE
  5
102
100
AcDbEntity
  8
0
 62
7
100
AcDbSpline
 70
8
 71
3
 72
8
 73
4
 74
0
 40
0
 40
0
 40
0
 40
0
 40
1
 40
1
 40
1
 40
1
 10
37.349273
 20
40.394395
 30
0.0
 10
33.636090
 20
38.250242
 30
0.0
 10
31.349100
 20
34.287778
 30
0.0
 10
31.350000
 20
29.999990
 30
0.0
  0
SPLINE
  5
103
100
AcDbEntity
  8
0
 62
7
100
AcDbSpline
 70
8
 71
3
 72
8
 73
4
 74
0
 40
0
 40
0
 40
0
 40
0
 40
1
 40
1
 40
1
 40
1
 10
31.350000
 20
29.999990
 30
0.0
 10
31.349100
 20
25.712203
 30
0.0
 10
33.636090
 20
21.749739
 30
0.0
 10
37.349273
 20
19.605586
 30
0.0
  0
SPLINE
  5
104
100
AcDbEntity
  8
0
 62
7
100
AcDbSpline
 70
8
 71
3
 72
8
 73
4
 74
0
 40
0
 40
0
 40
0
 40
0
 40
1
 40
1
 40
1
 40
1
 10
37.349273
 20
19.605586
 30
0.0
 10
41.062455
 20
17.461432
 30
0.0
 10
45.637545
 20
17.461432
 30
0.0
 10
49.350728
 20
19.605586
 30
0.0
  0
SPLINE
  5
105
100
AcDbEntity
  8
0
 62
7
100
AcDbSpline
 70
8
 71
3
 72
8
 73
4
 74
0
 40
0
 40
0
 40
0
 40
0
 40
1
 40
1
 40
1
 40
1
 10
49.350728
 20
19.605586
 30
0.0
 10
53.063910
 20
21.749739
 30
0.0
 10
55.350900
 20
25.712203
 30
0.0
 10
55.350000
 20
29.999990
 30
0.0
  0
LWPOLYLINE
  5
106
100
AcDbEntity
  8
0
 62
7
100
AcDbPolyline
 90
4
 70
1
 10
355.999997
 20
-0.000002
 30
0.0
 10
0.000000
 20
-0.000002
 30
0.0
 10
0.000000
 20
180.000003
 30
0.0
 10
355.999997
 20
180.000003
 30
0.0
  0
SPLINE
  5
107
100
AcDbEntity
  8
0
 62
7
100
AcDbSpline
 70
8
 71
3
 72
8
 73
4
 74
0
 40
0
 40
0
 40
0
 40
0
 40
1
 40
1
 40
1
 40
1
 10
85.235841
 20
32.614674
 30
0.0
 10
85.236741
 20
36.902462
 30
0.0
 10
82.949751
 20
40.864926
 30
0.0
 10
79.236569
 20
43.009079
 30
0.0
  0
SPLINE
  5
108
100
AcDbEntity
  8
0
 62
7
100
AcDbSpline
 70
8
 71
3
 72
8
 73
4
 74
0
 40
0
 40
0
 40
0
 40
0
 40
1
 40
1
 40
1
 40
1
 10
79.236569
 20
43.009079
 30
0.0
 10
75.523386
 20
45.153233
 30
0.0
 10
70.948296
 20
45.153233
 30
0.0
 10
67.235114
 20
43.009079
 30
0.0
  0
SPLINE
  5
109
100
AcDbEntity
  8
0
 62
7
100
AcDbSpline
 70
8
 71
3
 72
8
 73
4
 74
0
 40
0
 40
0
 40
0
 40
0
 40
1
 40
1
 40
1
 40
1
 10
67.235114
 20
43.009079
 30
0.0
 10
63.521931
 20
40.864926
 30
0.0
 10
61.234941
 20
36.902462
 30
0.0
 10
61.235841
 20
32.614674
 30
0.0
  0
SPLINE
  5
10a
100
AcDbEntity
  8
0
 62
7
100
AcDbSpline
 70
8
 71
3
 72
8
 73
4
 74
0
 40
0
 40
0
 40
0
 40
0
 40
1
 40
1
 40
1
 40
1
 10
61.235841
 20
32.614674
 30
0.0
 10
61.234941
 20
28.326887
 30
0.0
 10
63.521931
 20
24.364423
 30
0.0
 10
67.235114
 20
22.220270
 30
0.0
  0
SPLINE
  5
10b
100
AcDbEntity
  8
0
 62
7
100
AcDbSpline
 70
8
 71
3
 72
8
 73
4
 74
0
 40
0
 40
0
 40
0
 40
0
 40
1
 40
1
 40
1
 40
1
 10
67.235114
 20
22.220270
 30
0.0
 10
70.948296
 20
20.076116
 30
0.0
 10
75.523386
 20
20.076116
 30
0.0
 10
79.236569
 20
22.220270
 30
0.0
  0
SPLINE
  5
10c
100
AcDbEntity
  8
0
 62
7
100
AcDbSpline
 70
8
 71
3
 72
8
 73
4
 74
0
 40
0
 40
0
 40
0
 40
0
 40
1
 40
1
 40
1
 40
1
 10
79.236569
 20
22.220270
 30
0.0
 10
82.949751
 20
24.364423
 30
0.0
 10
85.236741
 20
28.326887
 30
0.0
 10
85.235841
 20
32.614674
 30
0.0
  0
LWPOLYLINE
  5
10d
100
AcDbEntity
  8
0
 62
7
100
AcDbPolyline
 90
1
 70
1
 10
55.350000
 20
29.999990
 30
0.0
  0
SPLINE
  5
10e
100
AcDbEntity
  8
0
 62
7
100
AcDbSpline
 70
8
 71
3
 72
8
 73
4
 74
0
 40
0
 40
0
 40
0
 40
0
 40
1
 40
1
 40
1
 40
1
 10
115.121682
 20
35.229345
 30
0.0
 10
115.122582
 20
39.517132
 30
0.0
 10
112.835592
 20
43.479596
 30
0.0
 10
109.122410
 20
45.623750
 30
0.0
  0
SPLINE
  5
10f
100
AcDbEntity
  8
0
 62
7
100
AcDbSpline
 70
8
 71
3
 72
8
 73
4
 74
0
 40
0
 40
0
 40
0
 40
0
 40
1
 40
1
 40
1
 40
1
 10
109.122410
 20
45.623750
 30
0.0
 10
105.409227
 20
47.767903
 30
0.0
 10
100.834137
 20
47.767903
 30
0.0
 10
97.120955
 20
45.623750
 30
0.0
  0
SPLINE
  5
110
100
AcDbEntity
  8
0
 62
7
100
AcDbSpline
 70
8
 71
3
 72
8
 73
4
 74
0
 40
0
 40
0
 40
0
 40
0
 40
1
 40
1
 40
1
 40
1
 10
97.120955
 20
45.623750
 30
0.0
 10
93.407772
 20
43.479596
 30
0.0
 10
91.120782
 20
39.517132
 30
0.0
 10
91.121682
 20
35.229345
 30
0.0
  0
SPLINE
  5
111
100
AcDbEntity
  8
0
 62
7
100
AcDbSpline
 70
8
 71
3
 72
8
 73
4
 74
0
 40
0
 40
0
 40
0
 40
0
 40
1
 40
1
 40
1
 40
1
 10
91.121682
 20
35.229345
 30
0.0
 10
91.120782
 20
30.941558
 30
0.0
 10
93.407772
 20
26.979094
 30
0.0
 10
97.120955
 20
24.834940
 30
0.0
  0
SPLINE
  5
112
100
AcDbEntity
  8
0
 62
7
100
AcDbSpline
 70
8
 71
3
 72
8
 73
4
 74
0
 40
0
 40
0
 40
0
 40
0
 40
1
 40
1
 40
1
 40
1
 10
97.120955
 20
24.834940
 30
0.0
 10
100.834137
 20
22.690787
 30
0.0
 10
105.409227
 20
22.690787
 30
0.0
 10
109.122410
 20
24.834940
 30
0.0
  0
SPLINE
  5
113
100
AcDbEntity
  8
0
 62
7
100
AcDbSpline
 70
8
 71
3
 72
8
 73
4
 74
0
 40
0
 40
0
 40
0
 40
0
 40
1
 40
1
 40
1
 40
1
 10
109.122410
 20
24.834940
 30
0.0
 10
112.835592
 20
26.979094
 30
0.0
 10
115.122582
 20
30.941558
 30
0.0
 10
115.121682
 20
35.229345
 30
0.0
  0
LWPOLYLINE
  5
114
100
AcDbEntity
  8
0
 62
7
100
AcDbPolyline
 90
1
 70
1
 10
85.235841
 20
32.614674
 30
0.0
  0
SPLINE
  5
115
100
AcDbEntity
  8
0
 62
7
100
AcDbSpline
 70
8
 71
3
 72
8
 73
4
 74
0
 40
0
 40
0
 40
0
 40
0
 40
1
 40
1
 40
1
 40
1
 10
145.007523
 20
37.844018
 30
0.0
 10
145.008424
 20
42.131806
 30
0.0
 10
142.721433
 20
46.094270
 30
0.0
 10
139.008251
 20
48.238423
 30
0.0
  0
SPLINE
  5
116
100
AcDbEntity
  8
0
 62
7
100
AcDbSpline
 70
8
 71
3
 72
8
 73
4
 74
0
 40
0
 40
0
 40
0
 40
0
 40
1
 40
1
 40
1
 40
1
 10
139.008251
 20
48.238423
 30
0.0
 10
135.295068
 20
50.382577
 30
0.0
 10
130.719979
 20
50.382577
 30
0.0
 10
127.006796
 20
48.238423
 30
0.0
  0
SPLINE
  5
117
100
AcDbEntity
  8
0
 62
7
100
AcDbSpline
 70
8
 71
3
 72
8
 73
4
 74
0
 40
0
 40
0
 40
0
 40
0
 40
1
 40
1
 40
1
 40
1
 10
127.006796
 20
48.238423
 30
0.0
 10
123.293613
 20
46.094270
 30
0.0
 10
121.006623
 20
42.131806
 30
0.0
 10
121.007524
 20
37.844018
 30
0.0
  0
SPLINE
  5
118
100
AcDbEntity
  8
0
 62
7
100
AcDbSpline
 70
8
 71
3
 72
8
 73
4
 74
0
 40
0
 40
0
 40
0
 40
0
 40
1
 40
1
 40
1
 40
1
 10
121.007524
 20
37.844018
 30
0.0
 10
121.006623
 20
33.556231
 30
0.0
 10
123.293613
 20
29.593767
 30
0.0
 10
127.006796
 20
27.449614
 30
0.0
  0
SPLINE
  5
119
100
AcDbEntity
  8
0
 62
7
100
AcDbSpline
 70
8
 71
3
 72
8
 73
4
 74
0
 40
0
 40
0
 40
0
 40
0
 40
1
 40
1
 40
1
 40
1
 10
127.006796
 20
27.449614
 30
0.0
 10
130.719979
 20
25.305460
 30
0.0
 10
135.295068
 20
25.305460
 30
0.0
 10
139.008251
 20
27.449614
 30
0.0
  0
SPLINE
  5
11a
100
AcDbEntity
  8
0
 62
7
100
AcDbSpline
 70
8
 71
3
 72
8
 73
4
 74
0
 40
0
 40
0
 40
0
 40
0
 40
1
 40
1
 40
1
 40
1
 10
139.008251
 20
27.449614
 30
0.0
 10
142.721433
 20
29.593767
 30
0.0
 10
145.008424
 20
33.556231
 30
0.0
 10
145.007523
 20
37.844018
 30
0.0
  0
LWPOLYLINE
  5
11b
100
AcDbEntity
  8
0
 62
7
100
AcDbPolyline
 90
1
 70
1
 10
115.121682
 20
35.229345
 30
0.0
  0
SPLINE
  5
11c
100
AcDbEntity
  8
0
 62
7
100
AcDbSpline
 70
8
 71
3
 72
8
 73
4
 74
0
 40
0
 40
0
 40
0
 40
0
 40
1
 40
1
 40
1
 40
1
 10
52.735329
 20
59.885842
 30
0.0
 10
52.736230
 20
64.173629
 30
0.0
 10
50.449239
 20
68.136093
 30
0.0
 10
46.736057
 20
70.280247
 30
0.0
  0
SPLINE
  5
11d
100
AcDbEntity
  8
0
 62
7
100
AcDbSpline
 70
8
 71
3
 72
8
 73
4
 74
0
 40
0
 40
0
 40
0
 40
0
 40
1
 40
1
 40
1
 40
1
 10
46.736057
 20
70.280247
 30
0.0
 10
43.022874
 20
72.424400
 30
0.0
 10
38.447785
 20
72.424400
 30
0.0
 10
34.734602
 20
70.280247
 30
0.0
  0
SPLINE
  5
11e
100
AcDbEntity
  8
0
 62
7
100
AcDbSpline
 70
8
 71
3
 72
8
 73
4
 74
0
 40
0
 40
0
 40
0
 40
0
 40
1
 40
1
 40
1
 40
1
 10
34.734602
 20
70.280247
 30
0.0
 10
31.021419
 20
68.136093
 30
0.0
 10
28.734429
 20
64.173629
 30
0.0
 10
28.735330
 20
59.885842
 30
0.0
  0
SPLINE
  5
11f
100
AcDbEntity
  8
0
 62
7
100
AcDbSpline
 70
8
 71
3
 72
8
 73
4
 74
0
 40
0
 40
0
 40
0
 40
0
 40
1
 40
1
 40
1
 40
1
 10
28.735330
 20
59.885842
 30
0.0
 10
28.734429
 20
55.598055
 30
0.0
 10
31.021419
 20
51.635591
 30
0.0
 10
34.734602
 20
49.491437
 30
0.0
  0
SPLINE
  5
120
100
AcDbEntity
  8
0
 62
7
100
AcDbSpline
 70
8
 71
3
 72
8
 73
4
 74
0
 40
0
 40
0
 40
0
 40
0
 40
1
 40
1
 40
1
 40
1
 10
34.734602
 20
49.491437
 30
0.0
 10
38.447785
 20
47.347284
 30
0.0
 10
43.022874
 20
47.347284
 30
0.0
 10
46.736057
 20
49.491437
 30
0.0
  0
SPLINE
  5
121
100
AcDbEntity
  8
0
 62
7
100
AcDbSpline
 70
8
 71
3
 72
8
 73
4
 74
0
 40
0
 40
0
 40
0
 40
0
 40
1
 40
1
 40
1
 40
1
 10
46.736057
 20
49.491437
 30
0.0
 10
50.449239
 20
51.635591
 30
0.0
 10
52.736230
 20
55.598055
 30
0.0
 10
52.735329
 20
59.885842
 30
0.0
  0
LWPOLYLINE
  5
122
100
AcDbEntity
  8
0
 62
7
100
AcDbPolyline
 90
1
 70
1
 10
145.007523
 20
37.844018
 30
0.0
  0
SPLINE
  5
123
100
AcDbEntity
  8
0
 62
7
100
AcDbSpline
 70
8
 71
3
 72
8
 73
4
 74
0
 40
0
 40
0
 40
0
 40
0
 40
1
 40
1
 40
1
 40
1
 10
82.621170
 20
62.500513
 30
0.0
 10
82.621170
 20
66.787700
 30
0.0
 10
80.333983
 20
70.749225
 30
0.0
 10
76.621170
 20
72.892819
 30
0.0
  0
SPLINE
  5
124
100
AcDbEntity
  8
0
 62
7
100
AcDbSpline
 70
8
 71
3
 72
8
 73
4
 74
0
 40
0
 40
0
 40
0
 40
0
 40
1
 40
1
 40
1
 40
1
 10
76.621170
 20
72.892819
 30
0.0
 10
72.908356
 20
75.036412
 30
0.0
 10
68.333982
 20
75.036412
 30
0.0
 10
64.621169
 20
72.892819
 30
0.0
  0
SPLINE
  5
125
100
AcDbEntity
  8
0
 62
7
100
AcDbSpline
 70
8
 71
3
 72
8
 73
4
 74
0
 40
0
 40
0
 40
0
 40
0
 40
1
 40
1
 40
1
 40
1
 10
64.621169
 20
72.892819
 30
0.0
 10
60.908355
 20
70.749225
 30
0.0
 10
58.621168
 20
66.787700
 30
0.0
 10
58.621168
 20
62.500513
 30
0.0
  0
SPLINE
  5
126
100
AcDbEntity
  8
0
 62
7
100
AcDbSpline
 70
8
 71
3
 72
8
 73
4
 74
0
 40
0
 40
0
 40
0
 40
0
 40
1
 40
1
 40
1
 40
1
 10
58.621168
 20
62.500513
 30
0.0
 10
58.621168
 20
58.213325
 30
0.0
 10
60.908355
 20
54.251801
 30
0.0
 10
64.621169
 20
52.108207
 30
0.0
  0
SPLINE
  5
127
100
AcDbEntity
  8
0
 62
7
100
AcDbSpline
 70
8
 71
3
 72
8
 73
4
 74
0
 40
0
 40
0
 40
0
 40
0
 40
1
 40
1
 40
1
 40
1
 10
64.621169
 20
52.108207
 30
0.0
 10
68.333982
 20
49.964613
 30
0.0
 10
72.908356
 20
49.964613
 30
0.0
 10
76.621170
 20
52.108207
 30
0.0
  0
SPLINE
  5
128
100
AcDbEntity
  8
0
 62
7
100
AcDbSpline
 70
8
 71
3
 72
8
 73
4
 74
0
 40
0
 40
0
 40
0
 40
0
 40
1
 40
1
 40
1
 40
1
 10
76.621170
 20
52.108207
 30
0.0
 10
80.333983
 20
54.251801
 30
0.0
 10
82.621170
 20
58.213325
 30
0.0
 10
82.621170
 20
62.500513
 30
0.0
  0
LWPOLYLINE
  5
129
100
AcDbEntity
  8
0
 62
7
100
AcDbPolyline
 90
1
 70
1
 10
52.735329
 20
59.885842
 30
0.0
  0
SPLINE
  5
12a
100
AcDbEntity
  8
0
 62
7
100
AcDbSpline
 70
8
 71
3
 72
8
 73
4
 74
0
 40
0
 40
0
 40
0
 40
0
 40
1
 40
1
 40
1
 40
1
 10
112.507009
 20
65.115186
 30
0.0
 10
112.507909
 20
69.402973
 30
0.0
 10
110.220919
 20
73.365437
 30
0.0
 10
106.507736
 20
75.509591
 30
0.0
  0
SPLINE
  5
12b
100
AcDbEntity
  8
0
 62
7
100
AcDbSpline
 70
8
 71
3
 72
8
 73
4
 74
0
 40
0
 40
0
 40
0
 40
0
 40
1
 40
1
 40
1
 40
1
 10
106.507736
 20
75.509591
 30
0.0
 10
102.794554
 20
77.653745
 30
0.0
 10
98.219464
 20
77.653745
 30
0.0
 10
94.506281
 20
75.509591
 30
0.0
  0
SPLINE
  5
12c
100
AcDbEntity
  8
0
 62
7
100
AcDbSpline
 70
8
 71
3
 72
8
 73
4
 74
0
 40
0
 40
0
 40
0
 40
0
 40
1
 40
1
 40
1
 40
1
 10
94.506281
 20
75.509591
 30
0.0
 10
90.793099
 20
73.365437
 30
0.0
 10
88.506109
 20
69.402973
 30
0.0
 10
88.507009
 20
65.115186
 30
0.0
  0
SPLINE
  5
12d
100
AcDbEntity
  8
0
 62
7
100
AcDbSpline
 70
8
 71
3
 72
8
 73
4
 74
0
 40
0
 40
0
 40
0
 40
0
 40
1
 40
1
 40
1
 40
1
 10
88.507009
 20
65.115186
 30
0.0
 10
88.506109
 20
60.827399
 30
0.0
 10
90.793099
 20
56.864935
 30
0.0
 10
94.506281
 20
54.720781
 30
0.0
  0
SPLINE
  5
12e
100
AcDbEntity
  8
0
 62
7
100
AcDbSpline
 70
8
 71
3
 72
8
 73
4
 74
0
 40
0
 40
0
 40
0
 40
0
 40
1
 40
1
 40
1
 40
1
 10
94.506281
 20
54.720781
 30
0.0
 10
98.219464
 20
52.576628
 30
0.0
 10
102.794554
 20
52.576628
 30
0.0
 10
106.507736
 20
54.720781
 30
0.0
  0
SPLINE
  5
12f
100
AcDbEntity
  8
0
 62
7
100
AcDbSpline
 70
8
 71
3
 72
8
 73
4
 74
0
 40
0
 40
0
 40
0
 40
0
 40
1
 40
1
 40
1
 40
1
 10
106.507736
 20
54.720781
 30
0.0
 10
110.220919
 20
56.864935
 30
0.0
 10
112.507909
 20
60.827399
 30
0.0
 10
112.507009
 20
65.115186
 30
0.0
  0
LWPOLYLINE
  5
130
100
AcDbEntity
  8
0
 62
7
100
AcDbPolyline
 90
1
 70
1
 10
82.621170
 20
62.500513
 30
0.0
  0
SPLINE
  5
131
100
AcDbEntity
  8
0
 62
7
100
AcDbSpline
 70
8
 71
3
 72
8
 73
4
 74
0
 40
0
 40
0
 40
0
 40
0
 40
1
 40
1
 40
1
 40
1
 10
142.392850
 20
67.729857
 30
0.0
 10
142.393750
 20
72.017644
 30
0.0
 10
140.106760
 20
75.980108
 30
0.0
 10
136.393577
 20
78.124262
 30
0.0
  0
SPLINE
  5
132
100
AcDbEntity
  8
0
 62
7
100
AcDbSpline
 70
8
 71
3
 72
8
 73
4
 74
0
 40
0
 40
0
 40
0
 40
0
 40
1
 40
1
 40
1
 40
1
 10
136.393577
 20
78.124262
 30
0.0
 10
132.680395
 20
80.268415
 30
0.0
 10
128.105305
 20
80.268415
 30
0.0
 10
124.392123
 20
78.124262
 30
0.0
  0
SPLINE
  5
133
100
AcDbEntity
  8
0
 62
7
100
AcDbSpline
 70
8
 71
3
 72
8
 73
4
 74
0
 40
0
 40
0
 40
0
 40
0
 40
1
 40
1
 40
1
 40
1
 10
124.392123
 20
78.124262
 30
0.0
 10
120.678940
 20
75.980108
 30
0.0
 10
118.391950
 20
72.017644
 30
0.0
 10
118.392850
 20
67.729857
 30
0.0
  0
SPLINE
  5
134
100
AcDbEntity
  8
0
 62
7
100
AcDbSpline
 70
8
 71
3
 72
8
 73
4
 74
0
 40
0
 40
0
 40
0
 40
0
 40
1
 40
1
 40
1
 40
1
 10
118.392850
 20
67.729857
 30
0.0
 10
118.391950
 20
63.442070
 30
0.0
 10
120.678940
 20
59.479606
 30
0.0
 10
124.392123
 20
57.335452
 30
0.0
  0
SPLINE
  5
135
100
AcDbEntity
  8
0
 62
7
100
AcDbSpline
 70
8
 71
3
 72
8
 73
4
 74
0
 40
0
 40
0
 40
0
 40
0
 40
1
 40
1
 40
1
 40
1
 10
124.392123
 20
57.335452
 30
0.0
 10
128.105305
 20
55.191298
 30
0.0
 10
132.680395
 20
55.191298
 30
0.0
 10
136.393577
 20
57.335452
 30
0.0
  0
SPLINE
  5
136
100
AcDbEntity
  8
0
 62
7
100
AcDbSpline
 70
8
 71
3
 72
8
 73
4
 74
0
 40
0
 40
0
 40
0
 40
0
 40
1
 40
1
 40
1
 40
1
 10
136.393577
 20
57.335452
 30
0.0
 10
140.106760
 20
59.479606
 30
0.0
 10
142.393750
 20
63.442070
 30
0.0
 10
142.392850
 20
67.729857
 30
0.0
  0
LWPOLYLINE
  5
137
100
AcDbEntity
  8
0
 62
7
100
AcDbPolyline
 90
1
 70
1
 10
112.507009
 20
65.115186
 30
0.0
  0
SPLINE
  5
138
100
AcDbEntity
  8
0
 62
7
100
AcDbSpline
 70
8
 71
3
 72
8
 73
4
 74
0
 40
0
 40
0
 40
0
 40
0
 40
1
 40
1
 40
1
 40
1
 10
50.120656
 20
89.771683
 30
0.0
 10
50.121929
 20
94.059719
 30
0.0
 10
47.835021
 20
98.022572
 30
0.0
 10
44.121685
 20
100.166958
 30
0.0
  0
SPLINE
  5
139
100
AcDbEntity
  8
0
 62
7
100
AcDbSpline
 70
8
 71
3
 72
8
 73
4
 74
0
 40
0
 40
0
 40
0
 40
0
 40
1
 40
1
 40
1
 40
1
 10
44.121685
 20
100.166958
 30
0.0
 10
40.408349
 20
102.311343
 30
0.0
 10
35.832963
 20
102.311343
 30
0.0
 10
32.119628
 20
100.166958
 30
0.0
  0
SPLINE
  5
13a
100
AcDbEntity
  8
0
 62
7
100
AcDbSpline
 70
8
 71
3
 72
8
 73
4
 74
0
 40
0
 40
0
 40
0
 40
0
 40
1
 40
1
 40
1
 40
1
 10
32.119628
 20
100.166958
 30
0.0
 10
28.406292
 20
98.022572
 30
0.0
 10
26.119383
 20
94.059719
 30
0.0
 10
26.120657
 20
89.771683
 30
0.0
  0
SPLINE
  5
13b
100
AcDbEntity
  8
0
 62
7
100
AcDbSpline
 70
8
 71
3
 72
8
 73
4
 74
0
 40
0
 40
0
 40
0
 40
0
 40
1
 40
1
 40
1
 40
1
 10
26.120657
 20
89.771683
 30
0.0
 10
26.119383
 20
85.483647
 30
0.0
 10
28.406292
 20
81.520794
 30
0.0
 10
32.119628
 20
79.376409
 30
0.0
  0
SPLINE
  5
13c
100
AcDbEntity
  8
0
 62
7
100
AcDbSpline
 70
8
 71
3
 72
8
 73
4
 74
0
 40
0
 40
0
 40
0
 40
0
 40
1
 40
1
 40
1
 40
1
 10
32.119628
 20
79.376409
 30
0.0
 10
35.832963
 20
77.232023
 30
0.0
 10
40.408349
 20
77.232023
 30
0.0
 10
44.121685
 20
79.376409
 30
0.0
  0
SPLINE
  5
13d
100
AcDbEntity
  8
0
 62
7
100
AcDbSpline
 70
8
 71
3
 72
8
 73
4
 74
0
 40
0
 40
0
 40
0
 40
0
 40
1
 40
1
 40
1
 40
1
 10
44.121685
 20
79.376409
 30
0.0
 10
47.835021
 20
81.520794
 30
0.0
 10
50.121929
 20
85.483647
 30
0.0
 10
50.120656
 20
89.771683
 30
0.0
  0
LWPOLYLINE
  5
13e
100
AcDbEntity
  8
0
 62
7
100
AcDbPolyline
 90
1
 70
1
 10
142.392850
 20
67.729857
 30
0.0
  0
SPLINE
  5
13f
100
AcDbEntity
  8
0
 62
7
100
AcDbSpline
 70
8
 71
3
 72
8
 73
4
 74
0
 40
0
 40
0
 40
0
 40
0
 40
1
 40
1
 40
1
 40
1
 10
80.006497
 20
92.386357
 30
0.0
 10
80.007397
 20
96.674144
 30
0.0
 10
77.720407
 20
100.636608
 30
0.0
 10
74.007225
 20
102.780761
 30
0.0
  0
SPLINE
  5
140
100
AcDbEntity
  8
0
 62
7
100
AcDbSpline
 70
8
 71
3
 72
8
 73
4
 74
0
 40
0
 40
0
 40
0
 40
0
 40
1
 40
1
 40
1
 40
1
 10
74.007225
 20
102.780761
 30
0.0
 10
70.294042
 20
104.924915
 30
0.0
 10
65.718952
 20
104.924915
 30
0.0
 10
62.005770
 20
102.780761
 30
0.0
  0
SPLINE
  5
141
100
AcDbEntity
  8
0
 62
7
100
AcDbSpline
 70
8
 71
3
 72
8
 73
4
 74
0
 40
0
 40
0
 40
0
 40
0
 40
1
 40
1
 40
1
 40
1
 10
62.005770
 20
102.780761
 30
0.0
 10
58.292587
 20
100.636608
 30
0.0
 10
56.005597
 20
96.674144
 30
0.0
 10
56.006497
 20
92.386357
 30
0.0
  0
SPLINE
  5
142
100
AcDbEntity
  8
0
 62
7
100
AcDbSpline
 70
8
 71
3
 72
8
 73
4
 74
0
 40
0
 40
0
 40
0
 40
0
 40
1
 40
1
 40
1
 40
1
 10
56.006497
 20
92.386357
 30
0.0
 10
56.005597
 20
88.098569
 30
0.0
 10
58.292587
 20
84.136105
 30
0.0
 10
62.005770
 20
81.991952
 30
0.0
  0
SPLINE
  5
143
100
AcDbEntity
  8
0
 62
7
100
AcDbSpline
 70
8
 71
3
 72
8
 73
4
 74
0
 40
0
 40
0
 40
0
 40
0
 40
1
 40
1
 40
1
 40
1
 10
62.005770
 20
81.991952
 30
0.0
 10
65.718952
 20
79.847798
 30
0.0
 10
70.294042
 20
79.847798
 30
0.0
 10
74.007225
 20
81.991952
 30
0.0
  0
SPLINE
  5
144
100
AcDbEntity
  8
0
 62
7
100
AcDbSpline
 70
8
 71
3
 72
8
 73
4
 74
0
 40
0
 40
0
 40
0
 40
0
 40
1
 40
1
 40
1
 40
1
 10
74.007225
 20
81.991952
 30
0.0
 10
77.720407
 20
84.136105
 30
0.0
 10
80.007397
 20
88.098569
 30
0.0
 10
80.006497
 20
92.386357
 30
0.0
  0
LWPOLYLINE
  5
145
100
AcDbEntity
  8
0
 62
7
100
AcDbPolyline
 90
1
 70
1
 10
50.120656
 20
89.771683
 30
0.0
  0
SPLINE
  5
146
100
AcDbEntity
  8
0
 62
7
100
AcDbSpline
 70
8
 71
3
 72
8
 73
4
 74
0
 40
0
 40
0
 40
0
 40
0
 40
1
 40
1
 40
1
 40
1
 10
109.892338
 20
95.001027
 30
0.0
 10
109.893238
 20
99.288814
 30
0.0
 10
107.606248
 20
103.251279
 30
0.0
 10
103.893066
 20
105.395432
 30
0.0
  0
SPLINE
  5
147
100
AcDbEntity
  8
0
 62
7
100
AcDbSpline
 70
8
 71
3
 72
8
 73
4
 74
0
 40
0
 40
0
 40
0
 40
0
 40
1
 40
1
 40
1
 40
1
 10
103.893066
 20
105.395432
 30
0.0
 10
100.179883
 20
107.539586
 30
0.0
 10
95.604793
 20
107.539586
 30
0.0
 10
91.891611
 20
105.395432
 30
0.0
  0
SPLINE
  5
148
100
AcDbEntity
  8
0
 62
7
100
AcDbSpline
 70
8
 71
3
 72
8
 73
4
 74
0
 40
0
 40
0
 40
0
 40
0
 40
1
 40
1
 40
1
 40
1
 10
91.891611
 20
105.395432
 30
0.0
 10
88.178428
 20
103.251279
 30
0.0
 10
85.891438
 20
99.288814
 30
0.0
 10
85.892338
 20
95.001027
 30
0.0
  0
SPLINE
  5
149
100
AcDbEntity
  8
0
 62
7
100
AcDbSpline
 70
8
 71
3
 72
8
 73
4
 74
0
 40
0
 40
0
 40
0
 40
0
 40
1
 40
1
 40
1
 40
1
 10
85.892338
 20
95.001027
 30
0.0
 10
85.891438
 20
90.713240
 30
0.0
 10
88.178428
 20
86.750776
 30
0.0
 10
91.891611
 20
84.606622
 30
0.0
  0
SPLINE
  5
14a
100
AcDbEntity
  8
0
 62
7
100
AcDbSpline
 70
8
 71
3
 72
8
 73
4
 74
0
 40
0
 40
0
 40
0
 40
0
 40
1
 40
1
 40
1
 40
1
 10
91.891611
 20
84.606622
 30
0.0
 10
95.604793
 20
82.462469
 30
0.0
 10
100.179883
 20
82.462469
 30
0.0
 10
103.893066
 20
84.606622
 30
0.0
  0
SPLINE
  5
14b
100
AcDbEntity
  8
0
 62
7
100
AcDbSpline
 70
8
 71
3
 72
8
 73
4
 74
0
 40
0
 40
0
 40
0
 40
0
 40
1
 40
1
 40
1
 40
1
 10
103.893066
 20
84.606622
 30
0.0
 10
107.606248
 20
86.750776
 30
0.0
 10
109.893238
 20
90.713240
 30
0.0
 10
109.892338
 20
95.001027
 30
0.0
  0
LWPOLYLINE
  5
14c
100
AcDbEntity
  8
0
 62
7
100
AcDbPolyline
 90
1
 70
1
 10
80.006497
 20
92.386357
 30
0.0
  0
SPLINE
  5
14d
100
AcDbEntity
  8
0
 62
7
100
AcDbSpline
 70
8
 71
3
 72
8
 73
4
 74
0
 40
0
 40
0
 40
0
 40
0
 40
1
 40
1
 40
1
 40
1
 10
139.778179
 20
97.615698
 30
0.0
 10
139.779079
 20
101.903485
 30
0.0
 10
137.492089
 20
105.865949
 30
0.0
 10
133.778907
 20
108.010103
 30
0.0
  0
SPLINE
  5
14e
100
AcDbEntity
  8
0
 62
7
100
AcDbSpline
 70
8
 71
3
 72
8
 73
4
 74
0
 40
0
 40
0
 40
0
 40
0
 40
1
 40
1
 40
1
 40
1
 10
133.778907
 20
108.010103
 30
0.0
 10
130.065724
 20
110.154256
 30
0.0
 10
125.490634
 20
110.154256
 30
0.0
 10
121.777452
 20
108.010103
 30
0.0
  0
SPLINE
  5
14f
100
AcDbEntity
  8
0
 62
7
100
AcDbSpline
 70
8
 71
3
 72
8
 73
4
 74
0
 40
0
 40
0
 40
0
 40
0
 40
1
 40
1
 40
1
 40
1
 10
121.777452
 20
108.010103
 30
0.0
 10
118.064269
 20
105.865949
 30
0.0
 10
115.777279
 20
101.903485
 30
0.0
 10
115.778179
 20
97.615698
 30
0.0
  0
SPLINE
  5
150
100
AcDbEntity
  8
0
 62
7
100
AcDbSpline
 70
8
 71
3
 72
8
 73
4
 74
0
 40
0
 40
0
 40
0
 40
0
 40
1
 40
1
 40
1
 40
1
 10
115.778179
 20
97.615698
 30
0.0
 10
115.777279
 20
93.327911
 30
0.0
 10
118.064269
 20
89.365447
 30
0.0
 10
121.777452
 20
87.221293
 30
0.0
  0
SPLINE
  5
151
100
AcDbEntity
  8
0
 62
7
100
AcDbSpline
 70
8
 71
3
 72
8
 73
4
 74
0
 40
0
 40
0
 40
0
 40
0
 40
1
 40
1
 40
1
 40
1
 10
121.777452
 20
87.221293
 30
0.0
 10
125.490634
 20
85.077140
 30
0.0
 10
130.065724
 20
85.077140
 30
0.0
 10
133.778907
 20
87.221293
 30
0.0
  0
SPLINE
  5
152
100
AcDbEntity
  8
0
 62
7
100
AcDbSpline
 70
8
 71
3
 72
8
 73
4
 74
0
 40
0
 40
0
 40
0
 40
0
 40
1
 40
1
 40
1
 40
1
 10
133.778907
 20
87.221293
 30
0.0
 10
137.492089
 20
89.365447
 30
0.0
 10
139.779079
 20
93.327911
 30
0.0
 10
139.778179
 20
97.615698
 30
0.0
  0
LWPOLYLINE
  5
153
100
AcDbEntity
  8
0
 62
7
100
AcDbPolyline
 90
1
 70
1
 10
109.892338
 20
95.001027
 30
0.0
  0
SPLINE
  5
154
100
AcDbEntity
  8
0
 62
7
100
AcDbSpline
 70
8
 71
3
 72
8
 73
4
 74
0
 40
0
 40
0
 40
0
 40
0
 40
1
 40
1
 40
1
 40
1
 10
47.505985
 20
119.657524
 30
0.0
 10
47.506622
 20
123.945136
 30
0.0
 10
45.219574
 20
127.907325
 30
0.0
 10
41.506500
 20
130.051314
 30
0.0
  0
SPLINE
  5
155
100
AcDbEntity
  8
0
 62
7
100
AcDbSpline
 70
8
 71
3
 72
8
 73
4
 74
0
 40
0
 40
0
 40
0
 40
0
 40
1
 40
1
 40
1
 40
1
 10
41.506500
 20
130.051314
 30
0.0
 10
37.793425
 20
132.195304
 30
0.0
 10
33.218545
 20
132.195304
 30
0.0
 10
29.505471
 20
130.051314
 30
0.0
  0
SPLINE
  5
156
100
AcDbEntity
  8
0
 62
7
100
AcDbSpline
 70
8
 71
3
 72
8
 73
4
 74
0
 40
0
 40
0
 40
0
 40
0
 40
1
 40
1
 40
1
 40
1
 10
29.505471
 20
130.051314
 30
0.0
 10
25.792396
 20
127.907325
 30
0.0
 10
23.505349
 20
123.945136
 30
0.0
 10
23.505985
 20
119.657524
 30
0.0
  0
SPLINE
  5
157
100
AcDbEntity
  8
0
 62
7
100
AcDbSpline
 70
8
 71
3
 72
8
 73
4
 74
0
 40
0
 40
0
 40
0
 40
0
 40
1
 40
1
 40
1
 40
1
 10
23.505985
 20
119.657524
 30
0.0
 10
23.505349
 20
115.369913
 30
0.0
 10
25.792396
 20
111.407724
 30
0.0
 10
29.505471
 20
109.263734
 30
0.0
  0
SPLINE
  5
158
100
AcDbEntity
  8
0
 62
7
100
AcDbSpline
 70
8
 71
3
 72
8
 73
4
 74
0
 40
0
 40
0
 40
0
 40
0
 40
1
 40
1
 40
1
 40
1
 10
29.505471
 20
109.263734
 30
0.0
 10
33.218545
 20
107.119745
 30
0.0
 10
37.793425
 20
107.119745
 30
0.0
 10
41.506500
 20
109.263734
 30
0.0
  0
SPLINE
  5
159
100
AcDbEntity
  8
0
 62
7
100
AcDbSpline
 70
8
 71
3
 72
8
 73
4
 74
0
 40
0
 40
0
 40
0
 40
0
 40
1
 40
1
 40
1
 40
1
 10
41.506500
 20
109.263734
 30
0.0
 10
45.219574
 20
111.407724
 30
0.0
 10
47.506622
 20
115.369913
 30
0.0
 10
47.505985
 20
119.657524
 30
0.0
  0
LWPOLYLINE
  5
15a
100
AcDbEntity
  8
0
 62
7
100
AcDbPolyline
 90
1
 70
1
 10
139.778179
 20
97.615698
 30
0.0
  0
SPLINE
  5
15b
100
AcDbEntity
  8
0
 62
7
100
AcDbSpline
 70
8
 71
3
 72
8
 73
4
 74
0
 40
0
 40
0
 40
0
 40
0
 40
1
 40
1
 40
1
 40
1
 10
77.391824
 20
122.272195
 30
0.0
 10
77.392724
 20
126.559982
 30
0.0
 10
75.105734
 20
130.522446
 30
0.0
 10
71.392551
 20
132.666600
 30
0.0
  0
SPLINE
  5
15c
100
AcDbEntity
  8
0
 62
7
100
AcDbSpline
 70
8
 71
3
 72
8
 73
4
 74
0
 40
0
 40
0
 40
0
 40
0
 40
1
 40
1
 40
1
 40
1
 10
71.392551
 20
132.666600
 30
0.0
 10
67.679369
 20
134.810753
 30
0.0
 10
63.104279
 20
134.810753
 30
0.0
 10
59.391096
 20
132.666600
 30
0.0
  0
SPLINE
  5
15d
100
AcDbEntity
  8
0
 62
7
100
AcDbSpline
 70
8
 71
3
 72
8
 73
4
 74
0
 40
0
 40
0
 40
0
 40
0
 40
1
 40
1
 40
1
 40
1
 10
59.391096
 20
132.666600
 30
0.0
 10
55.677914
 20
130.522446
 30
0.0
 10
53.390924
 20
126.559982
 30
0.0
 10
53.391824
 20
122.272195
 30
0.0
  0
SPLINE
  5
15e
100
AcDbEntity
  8
0
 62
7
100
AcDbSpline
 70
8
 71
3
 72
8
 73
4
 74
0
 40
0
 40
0
 40
0
 40
0
 40
1
 40
1
 40
1
 40
1
 10
53.391824
 20
122.272195
 30
0.0
 10
53.390924
 20
117.984408
 30
0.0
 10
55.677914
 20
114.021944
 30
0.0
 10
59.391096
 20
111.877790
 30
0.0
  0
SPLINE
  5
15f
100
AcDbEntity
  8
0
 62
7
100
AcDbSpline
 70
8
 71
3
 72
8
 73
4
 74
0
 40
0
 40
0
 40
0
 40
0
 40
1
 40
1
 40
1
 40
1
 10
59.391096
 20
111.877790
 30
0.0
 10
63.104279
 20
109.733637
 30
0.0
 10
67.679369
 20
109.733637
 30
0.0
 10
71.392551
 20
111.877790
 30
0.0
  0
SPLINE
  5
160
100
AcDbEntity
  8
0
 62
7
100
AcDbSpline
 70
8
 71
3
 72
8
 73
4
 74
0
 40
0
 40
0
 40
0
 40
0
 40
1
 40
1
 40
1
 40
1
 10
71.392551
 20
111.877790
 30
0.0
 10
75.105734
 20
114.021944
 30
0.0
 10
77.392724
 20
117.984408
 30
0.0
 10
77.391824
 20
122.272195
 30
0.0
  0
LWPOLYLINE
  5
161
100
AcDbEntity
  8
0
 62
7
100
AcDbPolyline
 90
1
 70
1
 10
47.505985
 20
119.657524
 30
0.0
  0
SPLINE
  5
162
100
AcDbEntity
  8
0
 62
7
100
AcDbSpline
 70
8
 71
3
 72
8
 73
4
 74
0
 40
0
 40
0
 40
0
 40
0
 40
1
 40
1
 40
1
 40
1
 10
107.277665
 20
124.886868
 30
0.0
 10
107.278565
 20
129.174656
 30
0.0
 10
104.991575
 20
133.137120
 30
0.0
 10
101.278392
 20
135.281273
 30
0.0
  0
SPLINE
  5
163
100
AcDbEntity
  8
0
 62
7
100
AcDbSpline
 70
8
 71
3
 72
8
 73
4
 74
0
 40
0
 40
0
 40
0
 40
0
 40
1
 40
1
 40
1
 40
1
 10
101.278392
 20
135.281273
 30
0.0
 10
97.565210
 20
137.425427
 30
0.0
 10
92.990120
 20
137.425427
 30
0.0
 10
89.276937
 20
135.281273
 30
0.0
  0
SPLINE
  5
164
100
AcDbEntity
  8
0
 62
7
100
AcDbSpline
 70
8
 71
3
 72
8
 73
4
 74
0
 40
0
 40
0
 40
0
 40
0
 40
1
 40
1
 40
1
 40
1
 10
89.276937
 20
135.281273
 30
0.0
 10
85.563755
 20
133.137120
 30
0.0
 10
83.276765
 20
129.174656
 30
0.0
 10
83.277665
 20
124.886868
 30
0.0
  0
SPLINE
  5
165
100
AcDbEntity
  8
0
 62
7
100
AcDbSpline
 70
8
 71
3
 72
8
 73
4
 74
0
 40
0
 40
0
 40
0
 40
0
 40
1
 40
1
 40
1
 40
1
 10
83.277665
 20
124.886868
 30
0.0
 10
83.276765
 20
120.599081
 30
0.0
 10
85.563755
 20
116.636617
 30
0.0
 10
89.276937
 20
114.492464
 30
0.0
  0
SPLINE
  5
166
100
AcDbEntity
  8
0
 62
7
100
AcDbSpline
 70
8
 71
3
 72
8
 73
4
 74
0
 40
0
 40
0
 40
0
 40
0
 40
1
 40
1
 40
1
 40
1
 10
89.276937
 20
114.492464
 30
0.0
 10
92.990120
 20
112.348310
 30
0.0
 10
97.565210
 20
112.348310
 30
0.0
 10
101.278392
 20
114.492464
 30
0.0
  0
SPLINE
  5
167
100
AcDbEntity
  8
0
 62
7
100
AcDbSpline
 70
8
 71
3
 72
8
 73
4
 74
0
 40
0
 40
0
 40
0
 40
0
 40
1
 40
1
 40
1
 40
1
 10
101.278392
 20
114.492464
 30
0.0
 10
104.991575
 20
116.636617
 30
0.0
 10
107.278565
 20
120.599081
 30
0.0
 10
107.277665
 20
124.886868
 30
0.0
  0
LWPOLYLINE
  5
168
100
AcDbEntity
  8
0
 62
7
100
AcDbPolyline
 90
1
 70
1
 10
77.391824
 20
122.272195
 30
0.0
  0
SPLINE
  5
169
100
AcDbEntity
  8
0
 62
7
100
AcDbSpline
 70
8
 71
3
 72
8
 73
4
 74
0
 40
0
 40
0
 40
0
 40
0
 40
1
 40
1
 40
1
 40
1
 10
137.163506
 20
127.501539
 30
0.0
 10
137.164406
 20
131.789326
 30
0.0
 10
134.877416
 20
135.751790
 30
0.0
 10
131.164233
 20
137.895944
 30
0.0
  0
SPLINE
  5
16a
100
AcDbEntity
  8
0
 62
7
100
AcDbSpline
 70
8
 71
3
 72
8
 73
4
 74
0
 40
0
 40
0
 40
0
 40
0
 40
1
 40
1
 40
1
 40
1
 10
131.164233
 20
137.895944
 30
0.0
 10
127.451051
 20
140.040097
 30
0.0
 10
122.875961
 20
140.040097
 30
0.0
 10
119.162778
 20
137.895944
 30
0.0
  0
SPLINE
  5
16b
100
AcDbEntity
  8
0
 62
7
100
AcDbSpline
 70
8
 71
3
 72
8
 73
4
 74
0
 40
0
 40
0
 40
0
 40
0
 40
1
 40
1
 40
1
 40
1
 10
119.162778
 20
137.895944
 30
0.0
 10
115.449596
 20
135.751790
 30
0.0
 10
113.162606
 20
131.789326
 30
0.0
 10
113.163506
 20
127.501539
 30
0.0
  0
SPLINE
  5
16c
100
AcDbEntity
  8
0
 62
7
100
AcDbSpline
 70
8
 71
3
 72
8
 73
4
 74
0
 40
0
 40
0
 40
0
 40
0
 40
1
 40
1
 40
1
 40
1
 10
113.163506
 20
127.501539
 30
0.0
 10
113.162606
 20
123.213752
 30
0.0
 10
115.449596
 20
119.251288
 30
0.0
 10
119.162778
 20
117.107134
 30
0.0
  0
SPLINE
  5
16d
100
AcDbEntity
  8
0
 62
7
100
AcDbSpline
 70
8
 71
3
 72
8
 73
4
 74
0
 40
0
 40
0
 40
0
 40
0
 40
1
 40
1
 40
1
 40
1
 10
119.162778
 20
117.107134
 30
0.0
 10
122.875961
 20
114.962981
 30
0.0
 10
127.451051
 20
114.962981
 30
0.0
 10
131.164233
 20
117.107134
 30
0.0
  0
SPLINE
  5
16e
100
AcDbEntity
  8
0
 62
7
100
AcDbSpline
 70
8
 71
3
 72
8
 73
4
 74
0
 40
0
 40
0
 40
0
 40
0
 40
1
 40
1
 40
1
 40
1
 10
131.164233
 20
117.107134
 30
0.0
 10
134.877416
 20
119.251288
 30
0.0
 10
137.164406
 20
123.213752
 30
0.0
 10
137.163506
 20
127.501539
 30
0.0
  0
LWPOLYLINE
  5
16f
100
AcDbEntity
  8
0
 62
7
100
AcDbPolyline
 90
1
 70
1
 10
107.277665
 20
124.886868
 30
0.0
  0
SPLINE
  5
170
100
AcDbEntity
  8
0
 62
7
100
AcDbSpline
 70
8
 71
3
 72
8
 73
4
 74
0
 40
0
 40
0
 40
0
 40
0
 40
1
 40
1
 40
1
 40
1
 10
324.649994
 20
29.999990
 30
0.0
 10
324.655011
 20
34.290516
 30
0.0
 10
322.368923
 20
38.257274
 30
0.0
 10
318.654052
 20
40.403986
 30
0.0
  0
SPLINE
  5
171
100
AcDbEntity
  8
0
 62
7
100
AcDbSpline
 70
8
 71
3
 72
8
 73
4
 74
0
 40
0
 40
0
 40
0
 40
0
 40
1
 40
1
 40
1
 40
1
 10
318.654052
 20
40.403986
 30
0.0
 10
314.939181
 20
42.550699
 30
0.0
 10
310.360823
 20
42.550699
 30
0.0
 10
306.645953
 20
40.403986
 30
0.0
  0
SPLINE
  5
172
100
AcDbEntity
  8
0
 62
7
100
AcDbSpline
 70
8
 71
3
 72
8
 73
4
 74
0
 40
0
 40
0
 40
0
 40
0
 40
1
 40
1
 40
1
 40
1
 10
306.645953
 20
40.403986
 30
0.0
 10
302.931082
 20
38.257274
 30
0.0
 10
300.644994
 20
34.290516
 30
0.0
 10
300.650010
 20
29.999990
 30
0.0
  0
SPLINE
  5
173
100
AcDbEntity
  8
0
 62
7
100
AcDbSpline
 70
8
 71
3
 72
8
 73
4
 74
0
 40
0
 40
0
 40
0
 40
0
 40
1
 40
1
 40
1
 40
1
 10
300.650010
 20
29.999990
 30
0.0
 10
300.644994
 20
25.709464
 30
0.0
 10
302.931082
 20
21.742707
 30
0.0
 10
306.645953
 20
19.595994
 30
0.0
  0
SPLINE
  5
174
100
AcDbEntity
  8
0
 62
7
100
AcDbSpline
 70
8
 71
3
 72
8
 73
4
 74
0
 40
0
 40
0
 40
0
 40
0
 40
1
 40
1
 40
1
 40
1
 10
306.645953
 20
19.595994
 30
0.0
 10
310.360823
 20
17.449282
 30
0.0
 10
314.939181
 20
17.449282
 30
0.0
 10
318.654052
 20
19.595994
 30
0.0
  0
SPLINE
  5
175
100
AcDbEntity
  8
0
 62
7
100
AcDbSpline
 70
8
 71
3
 72
8
 73
4
 74
0
 40
0
 40
0
 40
0
 40
0
 40
1
 40
1
 40
1
 40
1
 10
318.654052
 20
19.595994
 30
0.0
 10
322.368923
 20
21.742707
 30
0.0
 10
324.655011
 20
25.709464
 30
0.0
 10
324.649994
 20
29.999990
 30
0.0
  0
LWPOLYLINE
  5
176
100
AcDbEntity
  8
0
 62
7
100
AcDbPolyline
 90
1
 70
1
 10
137.163506
 20
127.501539
 30
0.0
  0
SPLINE
  5
177
100
AcDbEntity
  8
0
 62
7
100
AcDbSpline
 70
8
 71
3
 72
8
 73
4
 74
0
 40
0
 40
0
 40
0
 40
0
 40
1
 40
1
 40
1
 40
1
 10
294.764169
 20
32.614674
 30
0.0
 10
294.764169
 20
36.901863
 30
0.0
 10
292.476981
 20
40.863389
 30
0.0
 10
288.764166
 20
43.006984
 30
0.0
  0
SPLINE
  5
178
100
AcDbEntity
  8
0
 62
7
100
AcDbSpline
 70
8
 71
3
 72
8
 73
4
 74
0
 40
0
 40
0
 40
0
 40
0
 40
1
 40
1
 40
1
 40
1
 10
288.764166
 20
43.006984
 30
0.0
 10
285.051352
 20
45.150578
 30
0.0
 10
280.476976
 20
45.150578
 30
0.0
 10
276.764161
 20
43.006984
 30
0.0
  0
SPLINE
  5
179
100
AcDbEntity
  8
0
 62
7
100
AcDbSpline
 70
8
 71
3
 72
8
 73
4
 74
0
 40
0
 40
0
 40
0
 40
0
 40
1
 40
1
 40
1
 40
1
 10
276.764161
 20
43.006984
 30
0.0
 10
273.051347
 20
40.863389
 30
0.0
 10
270.764159
 20
36.901863
 30
0.0
 10
270.764159
 20
32.614674
 30
0.0
  0
SPLINE
  5
17a
100
AcDbEntity
  8
0
 62
7
100
AcDbSpline
 70
8
 71
3
 72
8
 73
4
 74
0
 40
0
 40
0
 40
0
 40
0
 40
1
 40
1
 40
1
 40
1
 10
270.764159
 20
32.614674
 30
0.0
 10
270.764159
 20
28.327485
 30
0.0
 10
273.051347
 20
24.365960
 30
0.0
 10
276.764161
 20
22.222365
 30
0.0
  0
SPLINE
  5
17b
100
AcDbEntity
  8
0
 62
7
100
AcDbSpline
 70
8
 71
3
 72
8
 73
4
 74
0
 40
0
 40
0
 40
0
 40
0
 40
1
 40
1
 40
1
 40
1
 10
276.764161
 20
22.222365
 30
0.0
 10
280.476976
 20
20.078771
 30
0.0
 10
285.051352
 20
20.078771
 30
0.0
 10
288.764166
 20
22.222365
 30
0.0
  0
SPLINE
  5
17c
100
AcDbEntity
  8
0
 62
7
100
AcDbSpline
 70
8
 71
3
 72
8
 73
4
 74
0
 40
0
 40
0
 40
0
 40
0
 40
1
 40
1
 40
1
 40
1
 10
288.764166
 20
22.222365
 30
0.0
 10
292.476981
 20
24.365960
 30
0.0
 10
294.764169
 20
28.327485
 30
0.0
 10
294.764169
 20
32.614674
 30
0.0
  0
LWPOLYLINE
  5
17d
100
AcDbEntity
  8
0
 62
7
100
AcDbPolyline
 90
1
 70
1
 10
324.649994
 20
29.999990
 30
0.0
  0
SPLINE
  5
17e
100
AcDbEntity
  8
0
 62
7
100
AcDbSpline
 70
8
 71
3
 72
8
 73
4
 74
0
 40
0
 40
0
 40
0
 40
0
 40
1
 40
1
 40
1
 40
1
 10
264.878317
 20
35.229345
 30
0.0
 10
264.879218
 20
39.517132
 30
0.0
 10
262.592228
 20
43.479596
 30
0.0
 10
258.879045
 20
45.623750
 30
0.0
  0
SPLINE
  5
17f
100
AcDbEntity
  8
0
 62
7
100
AcDbSpline
 70
8
 71
3
 72
8
 73
4
 74
0
 40
0
 40
0
 40
0
 40
0
 40
1
 40
1
 40
1
 40
1
 10
258.879045
 20
45.623750
 30
0.0
 10
255.165862
 20
47.767903
 30
0.0
 10
250.590773
 20
47.767903
 30
0.0
 10
246.877590
 20
45.623750
 30
0.0
  0
SPLINE
  5
180
100
AcDbEntity
  8
0
 62
7
100
AcDbSpline
 70
8
 71
3
 72
8
 73
4
 74
0
 40
0
 40
0
 40
0
 40
0
 40
1
 40
1
 40
1
 40
1
 10
246.877590
 20
45.623750
 30
0.0
 10
243.164407
 20
43.479596
 30
0.0
 10
240.877417
 20
39.517132
 30
0.0
 10
240.878318
 20
35.229345
 30
0.0
  0
SPLINE
  5
181
100
AcDbEntity
  8
0
 62
7
100
AcDbSpline
 70
8
 71
3
 72
8
 73
4
 74
0
 40
0
 40
0
 40
0
 40
0
 40
1
 40
1
 40
1
 40
1
 10
240.878318
 20
35.229345
 30
0.0
 10
240.877417
 20
30.941558
 30
0.0
 10
243.164407
 20
26.979094
 30
0.0
 10
246.877590
 20
24.834940
 30
0.0
  0
SPLINE
  5
182
100
AcDbEntity
  8
0
 62
7
100
AcDbSpline
 70
8
 71
3
 72
8
 73
4
 74
0
 40
0
 40
0
 40
0
 40
0
 40
1
 40
1
 40
1
 40
1
 10
246.877590
 20
24.834940
 30
0.0
 10
250.590773
 20
22.690787
 30
0.0
 10
255.165862
 20
22.690787
 30
0.0
 10
258.879045
 20
24.834940
 30
0.0
  0
SPLINE
  5
183
100
AcDbEntity
  8
0
 62
7
100
AcDbSpline
 70
8
 71
3
 72
8
 73
4
 74
0
 40
0
 40
0
 40
0
 40
0
 40
1
 40
1
 40
1
 40
1
 10
258.879045
 20
24.834940
 30
0.0
 10
262.592228
 20
26.979094
 30
0.0
 10
264.879218
 20
30.941558
 30
0.0
 10
264.878317
 20
35.229345
 30
0.0
  0
LWPOLYLINE
  5
184
100
AcDbEntity
  8
0
 62
7
100
AcDbPolyline
 90
1
 70
1
 10
294.764169
 20
32.614674
 30
0.0
  0
SPLINE
  5
185
100
AcDbEntity
  8
0
 62
7
100
AcDbSpline
 70
8
 71
3
 72
8
 73
4
 74
0
 40
0
 40
0
 40
0
 40
0
 40
1
 40
1
 40
1
 40
1
 10
234.992476
 20
37.844018
 30
0.0
 10
234.993377
 20
42.131806
 30
0.0
 10
232.706387
 20
46.094270
 30
0.0
 10
228.993204
 20
48.238423
 30
0.0
  0
SPLINE
  5
186
100
AcDbEntity
  8
0
 62
7
100
AcDbSpline
 70
8
 71
3
 72
8
 73
4
 74
0
 40
0
 40
0
 40
0
 40
0
 40
1
 40
1
 40
1
 40
1
 10
228.993204
 20
48.238423
 30
0.0
 10
225.280021
 20
50.382577
 30
0.0
 10
220.704932
 20
50.382577
 30
0.0
 10
216.991749
 20
48.238423
 30
0.0
  0
SPLINE
  5
187
100
AcDbEntity
  8
0
 62
7
100
AcDbSpline
 70
8
 71
3
 72
8
 73
4
 74
0
 40
0
 40
0
 40
0
 40
0
 40
1
 40
1
 40
1
 40
1
 10
216.991749
 20
48.238423
 30
0.0
 10
213.278566
 20
46.094270
 30
0.0
 10
210.991576
 20
42.131806
 30
0.0
 10
210.992477
 20
37.844018
 30
0.0
  0
SPLINE
  5
188
100
AcDbEntity
  8
0
 62
7
100
AcDbSpline
 70
8
 71
3
 72
8
 73
4
 74
0
 40
0
 40
0
 40
0
 40
0
 40
1
 40
1
 40
1
 40
1
 10
210.992477
 20
37.844018
 30
0.0
 10
210.991576
 20
33.556231
 30
0.0
 10
213.278566
 20
29.593767
 30
0.0
 10
216.991749
 20
27.449614
 30
0.0
  0
SPLINE
  5
189
100
AcDbEntity
  8
0
 62
7
100
AcDbSpline
 70
8
 71
3
 72
8
 73
4
 74
0
 40
0
 40
0
 40
0
 40
0
 40
1
 40
1
 40
1
 40
1
 10
216.991749
 20
27.449614
 30
0.0
 10
220.704932
 20
25.305460
 30
0.0
 10
225.280021
 20
25.305460
 30
0.0
 10
228.993204
 20
27.449614
 30
0.0
  0
SPLINE
  5
18a
100
AcDbEntity
  8
0
 62
7
100
AcDbSpline
 70
8
 71
3
 72
8
 73
4
 74
0
 40
0
 40
0
 40
0
 40
0
 40
1
 40
1
 40
1
 40
1
 10
228.993204
 20
27.449614
 30
0.0
 10
232.706387
 20
29.593767
 30
0.0
 10
234.993377
 20
33.556231
 30
0.0
 10
234.992476
 20
37.844018
 30
0.0
  0
LWPOLYLINE
  5
18b
100
AcDbEntity
  8
0
 62
7
100
AcDbPolyline
 90
1
 70
1
 10
264.878317
 20
35.229345
 30
0.0
  0
SPLINE
  5
18c
100
AcDbEntity
  8
0
 62
7
100
AcDbSpline
 70
8
 71
3
 72
8
 73
4
 74
0
 40
0
 40
0
 40
0
 40
0
 40
1
 40
1
 40
1
 40
1
 10
327.264660
 20
59.885842
 30
0.0
 10
327.269676
 20
64.176368
 30
0.0
 10
324.983588
 20
68.143126
 30
0.0
 10
321.268717
 20
70.289838
 30
0.0
  0
SPLINE
  5
18d
100
AcDbEntity
  8
0
 62
7
100
AcDbSpline
 70
8
 71
3
 72
8
 73
4
 74
0
 40
0
 40
0
 40
0
 40
0
 40
1
 40
1
 40
1
 40
1
 10
321.268717
 20
70.289838
 30
0.0
 10
317.553847
 20
72.436551
 30
0.0
 10
312.975489
 20
72.436551
 30
0.0
 10
309.260618
 20
70.289838
 30
0.0
  0
SPLINE
  5
18e
100
AcDbEntity
  8
0
 62
7
100
AcDbSpline
 70
8
 71
3
 72
8
 73
4
 74
0
 40
0
 40
0
 40
0
 40
0
 40
1
 40
1
 40
1
 40
1
 10
309.260618
 20
70.289838
 30
0.0
 10
305.545747
 20
68.143126
 30
0.0
 10
303.259659
 20
64.176368
 30
0.0
 10
303.264676
 20
59.885842
 30
0.0
  0
SPLINE
  5
18f
100
AcDbEntity
  8
0
 62
7
100
AcDbSpline
 70
8
 71
3
 72
8
 73
4
 74
0
 40
0
 40
0
 40
0
 40
0
 40
1
 40
1
 40
1
 40
1
 10
303.264676
 20
59.885842
 30
0.0
 10
303.259659
 20
55.595316
 30
0.0
 10
305.545747
 20
51.628559
 30
0.0
 10
309.260618
 20
49.481846
 30
0.0
  0
SPLINE
  5
190
100
AcDbEntity
  8
0
 62
7
100
AcDbSpline
 70
8
 71
3
 72
8
 73
4
 74
0
 40
0
 40
0
 40
0
 40
0
 40
1
 40
1
 40
1
 40
1
 10
309.260618
 20
49.481846
 30
0.0
 10
312.975489
 20
47.335134
 30
0.0
 10
317.553847
 20
47.335134
 30
0.0
 10
321.268717
 20
49.481846
 30
0.0
  0
SPLINE
  5
191
100
AcDbEntity
  8
0
 62
7
100
AcDbSpline
 70
8
 71
3
 72
8
 73
4
 74
0
 40
0
 40
0
 40
0
 40
0
 40
1
 40
1
 40
1
 40
1
 10
321.268717
 20
49.481846
 30
0.0
 10
324.983588
 20
51.628559
 30
0.0
 10
327.269676
 20
55.595316
 30
0.0
 10
327.264660
 20
59.885842
 30
0.0
  0
LWPOLYLINE
  5
192
100
AcDbEntity
  8
0
 62
7
100
AcDbPolyline
 90
1
 70
1
 10
234.992476
 20
37.844018
 30
0.0
  0
SPLINE
  5
193
100
AcDbEntity
  8
0
 62
7
100
AcDbSpline
 70
8
 71
3
 72
8
 73
4
 74
0
 40
0
 40
0
 40
0
 40
0
 40
1
 40
1
 40
1
 40
1
 10
297.378834
 20
62.500515
 30
0.0
 10
297.378835
 20
66.787705
 30
0.0
 10
295.091647
 20
70.749231
 30
0.0
 10
291.378832
 20
72.892825
 30
0.0
  0
SPLINE
  5
194
100
AcDbEntity
  8
0
 62
7
100
AcDbSpline
 70
8
 71
3
 72
8
 73
4
 74
0
 40
0
 40
0
 40
0
 40
0
 40
1
 40
1
 40
1
 40
1
 10
291.378832
 20
72.892825
 30
0.0
 10
287.666017
 20
75.036420
 30
0.0
 10
283.091641
 20
75.036420
 30
0.0
 10
279.378827
 20
72.892825
 30
0.0
  0
SPLINE
  5
195
100
AcDbEntity
  8
0
 62
7
100
AcDbSpline
 70
8
 71
3
 72
8
 73
4
 74
0
 40
0
 40
0
 40
0
 40
0
 40
1
 40
1
 40
1
 40
1
 10
279.378827
 20
72.892825
 30
0.0
 10
275.666012
 20
70.749231
 30
0.0
 10
273.378824
 20
66.787705
 30
0.0
 10
273.378824
 20
62.500515
 30
0.0
  0
SPLINE
  5
196
100
AcDbEntity
  8
0
 62
7
100
AcDbSpline
 70
8
 71
3
 72
8
 73
4
 74
0
 40
0
 40
0
 40
0
 40
0
 40
1
 40
1
 40
1
 40
1
 10
273.378824
 20
62.500515
 30
0.0
 10
273.378824
 20
58.213326
 30
0.0
 10
275.666012
 20
54.251800
 30
0.0
 10
279.378827
 20
52.108206
 30
0.0
  0
SPLINE
  5
197
100
AcDbEntity
  8
0
 62
7
100
AcDbSpline
 70
8
 71
3
 72
8
 73
4
 74
0
 40
0
 40
0
 40
0
 40
0
 40
1
 40
1
 40
1
 40
1
 10
279.378827
 20
52.108206
 30
0.0
 10
283.091641
 20
49.964611
 30
0.0
 10
287.666017
 20
49.964611
 30
0.0
 10
291.378832
 20
52.108206
 30
0.0
  0
SPLINE
  5
198
100
AcDbEntity
  8
0
 62
7
100
AcDbSpline
 70
8
 71
3
 72
8
 73
4
 74
0
 40
0
 40
0
 40
0
 40
0
 40
1
 40
1
 40
1
 40
1
 10
291.378832
 20
52.108206
 30
0.0
 10
295.091647
 20
54.251800
 30
0.0
 10
297.378835
 20
58.213326
 30
0.0
 10
297.378834
 20
62.500515
 30
0.0
  0
LWPOLYLINE
  5
199
100
AcDbEntity
  8
0
 62
7
100
AcDbPolyline
 90
1
 70
1
 10
327.264660
 20
59.885842
 30
0.0
  0
SPLINE
  5
19a
100
AcDbEntity
  8
0
 62
7
100
AcDbSpline
 70
8
 71
3
 72
8
 73
4
 74
0
 40
0
 40
0
 40
0
 40
0
 40
1
 40
1
 40
1
 40
1
 10
267.492983
 20
65.115186
 30
0.0
 10
267.496586
 20
69.404773
 30
0.0
 10
265.210188
 20
73.370056
 30
0.0
 10
261.495896
 20
75.515890
 30
0.0
  0
SPLINE
  5
19b
100
AcDbEntity
  8
0
 62
7
100
AcDbSpline
 70
8
 71
3
 72
8
 73
4
 74
0
 40
0
 40
0
 40
0
 40
0
 40
1
 40
1
 40
1
 40
1
 10
261.495896
 20
75.515890
 30
0.0
 10
257.781605
 20
77.661724
 30
0.0
 10
253.204369
 20
77.661724
 30
0.0
 10
249.490077
 20
75.515890
 30
0.0
  0
SPLINE
  5
19c
100
AcDbEntity
  8
0
 62
7
100
AcDbSpline
 70
8
 71
3
 72
8
 73
4
 74
0
 40
0
 40
0
 40
0
 40
0
 40
1
 40
1
 40
1
 40
1
 10
249.490077
 20
75.515890
 30
0.0
 10
245.775786
 20
73.370056
 30
0.0
 10
243.489388
 20
69.404773
 30
0.0
 10
243.492991
 20
65.115186
 30
0.0
  0
SPLINE
  5
19d
100
AcDbEntity
  8
0
 62
7
100
AcDbSpline
 70
8
 71
3
 72
8
 73
4
 74
0
 40
0
 40
0
 40
0
 40
0
 40
1
 40
1
 40
1
 40
1
 10
243.492991
 20
65.115186
 30
0.0
 10
243.489388
 20
60.825600
 30
0.0
 10
245.775786
 20
56.860316
 30
0.0
 10
249.490077
 20
54.714482
 30
0.0
  0
SPLINE
  5
19e
100
AcDbEntity
  8
0
 62
7
100
AcDbSpline
 70
8
 71
3
 72
8
 73
4
 74
0
 40
0
 40
0
 40
0
 40
0
 40
1
 40
1
 40
1
 40
1
 10
249.490077
 20
54.714482
 30
0.0
 10
253.204369
 20
52.568648
 30
0.0
 10
257.781605
 20
52.568648
 30
0.0
 10
261.495896
 20
54.714482
 30
0.0
  0
SPLINE
  5
19f
100
AcDbEntity
  8
0
 62
7
100
AcDbSpline
 70
8
 71
3
 72
8
 73
4
 74
0
 40
0
 40
0
 40
0
 40
0
 40
1
 40
1
 40
1
 40
1
 10
261.495896
 20
54.714482
 30
0.0
 10
265.210188
 20
56.860316
 30
0.0
 10
267.496586
 20
60.825600
 30
0.0
 10
267.492983
 20
65.115186
 30
0.0
  0
LWPOLYLINE
  5
1a0
100
AcDbEntity
  8
0
 62
7
100
AcDbPolyline
 90
1
 70
1
 10
297.378834
 20
62.500515
 30
0.0
  0
SPLINE
  5
1a1
100
AcDbEntity
  8
0
 62
7
100
AcDbSpline
 70
8
 71
3
 72
8
 73
4
 74
0
 40
0
 40
0
 40
0
 40
0
 40
1
 40
1
 40
1
 40
1
 10
237.607150
 20
67.729860
 30
0.0
 10
237.608050
 20
72.017647
 30
0.0
 10
235.321060
 20
75.980111
 30
0.0
 10
231.607877
 20
78.124264
 30
0.0
  0
SPLINE
  5
1a2
100
AcDbEntity
  8
0
 62
7
100
AcDbSpline
 70
8
 71
3
 72
8
 73
4
 74
0
 40
0
 40
0
 40
0
 40
0
 40
1
 40
1
 40
1
 40
1
 10
231.607877
 20
78.124264
 30
0.0
 10
227.894695
 20
80.268418
 30
0.0
 10
223.319605
 20
80.268418
 30
0.0
 10
219.606422
 20
78.124264
 30
0.0
  0
SPLINE
  5
1a3
100
AcDbEntity
  8
0
 62
7
100
AcDbSpline
 70
8
 71
3
 72
8
 73
4
 74
0
 40
0
 40
0
 40
0
 40
0
 40
1
 40
1
 40
1
 40
1
 10
219.606422
 20
78.124264
 30
0.0
 10
215.893240
 20
75.980111
 30
0.0
 10
213.606250
 20
72.017647
 30
0.0
 10
213.607150
 20
67.729860
 30
0.0
  0
SPLINE
  5
1a4
100
AcDbEntity
  8
0
 62
7
100
AcDbSpline
 70
8
 71
3
 72
8
 73
4
 74
0
 40
0
 40
0
 40
0
 40
0
 40
1
 40
1
 40
1
 40
1
 10
213.607150
 20
67.729860
 30
0.0
 10
213.606250
 20
63.442072
 30
0.0
 10
215.893240
 20
59.479608
 30
0.0
 10
219.606422
 20
57.335455
 30
0.0
  0
SPLINE
  5
1a5
100
AcDbEntity
  8
0
 62
7
100
AcDbSpline
 70
8
 71
3
 72
8
 73
4
 74
0
 40
0
 40
0
 40
0
 40
0
 40
1
 40
1
 40
1
 40
1
 10
219.606422
 20
57.335455
 30
0.0
 10
223.319605
 20
55.191301
 30
0.0
 10
227.894695
 20
55.191301
 30
0.0
 10
231.607877
 20
57.335455
 30
0.0
  0
SPLINE
  5
1a6
100
AcDbEntity
  8
0
 62
7
100
AcDbSpline
 70
8
 71
3
 72
8
 73
4
 74
0
 40
0
 40
0
 40
0
 40
0
 40
1
 40
1
 40
1
 40
1
 10
231.607877
 20
57.335455
 30
0.0
 10
235.321060
 20
59.479608
 30
0.0
 10
237.608050
 20
63.442072
 30
0.0
 10
237.607150
 20
67.729860
 30
0.0
  0
LWPOLYLINE
  5
1a7
100
AcDbEntity
  8
0
 62
7
100
AcDbPolyline
 90
1
 70
1
 10
267.492983
 20
65.115186
 30
0.0
  0
SPLINE
  5
1a8
100
AcDbEntity
  8
0
 62
7
100
AcDbSpline
 70
8
 71
3
 72
8
 73
4
 74
0
 40
0
 40
0
 40
0
 40
0
 40
1
 40
1
 40
1
 40
1
 10
329.879351
 20
89.771683
 30
0.0
 10
329.879352
 20
94.058872
 30
0.0
 10
327.592164
 20
98.020398
 30
0.0
 10
323.879349
 20
100.163993
 30
0.0
  0
SPLINE
  5
1a9
100
AcDbEntity
  8
0
 62
7
100
AcDbSpline
 70
8
 71
3
 72
8
 73
4
 74
0
 40
0
 40
0
 40
0
 40
0
 40
1
 40
1
 40
1
 40
1
 10
323.879349
 20
100.163993
 30
0.0
 10
320.166535
 20
102.307588
 30
0.0
 10
315.592158
 20
102.307588
 30
0.0
 10
311.879344
 20
100.163993
 30
0.0
  0
SPLINE
  5
1aa
100
AcDbEntity
  8
0
 62
7
100
AcDbSpline
 70
8
 71
3
 72
8
 73
4
 74
0
 40
0
 40
0
 40
0
 40
0
 40
1
 40
1
 40
1
 40
1
 10
311.879344
 20
100.163993
 30
0.0
 10
308.166529
 20
98.020398
 30
0.0
 10
305.879341
 20
94.058872
 30
0.0
 10
305.879341
 20
89.771683
 30
0.0
  0
SPLINE
  5
1ab
100
AcDbEntity
  8
0
 62
7
100
AcDbSpline
 70
8
 71
3
 72
8
 73
4
 74
0
 40
0
 40
0
 40
0
 40
0
 40
1
 40
1
 40
1
 40
1
 10
305.879341
 20
89.771683
 30
0.0
 10
305.879341
 20
85.484494
 30
0.0
 10
308.166529
 20
81.522968
 30
0.0
 10
311.879344
 20
79.379374
 30
0.0
  0
SPLINE
  5
1ac
100
AcDbEntity
  8
0
 62
7
100
AcDbSpline
 70
8
 71
3
 72
8
 73
4
 74
0
 40
0
 40
0
 40
0
 40
0
 40
1
 40
1
 40
1
 40
1
 10
311.879344
 20
79.379374
 30
0.0
 10
315.592158
 20
77.235779
 30
0.0
 10
320.166534
 20
77.235779
 30
0.0
 10
323.879349
 20
79.379374
 30
0.0
  0
SPLINE
  5
1ad
100
AcDbEntity
  8
0
 62
7
100
AcDbSpline
 70
8
 71
3
 72
8
 73
4
 74
0
 40
0
 40
0
 40
0
 40
0
 40
1
 40
1
 40
1
 40
1
 10
323.879349
 20
79.379374
 30
0.0
 10
327.592163
 20
81.522968
 30
0.0
 10
329.879351
 20
85.484494
 30
0.0
 10
329.879351
 20
89.771683
 30
0.0
  0
LWPOLYLINE
  5
1ae
100
AcDbEntity
  8
0
 62
7
100
AcDbPolyline
 90
1
 70
1
 10
237.607150
 20
67.729860
 30
0.0
  0
SPLINE
  5
1af
100
AcDbEntity
  8
0
 62
7
100
AcDbSpline
 70
8
 71
3
 72
8
 73
4
 74
0
 40
0
 40
0
 40
0
 40
0
 40
1
 40
1
 40
1
 40
1
 10
299.993500
 20
92.386357
 30
0.0
 10
299.998516
 20
96.676883
 30
0.0
 10
297.712428
 20
100.643640
 30
0.0
 10
293.997558
 20
102.790353
 30
0.0
  0
SPLINE
  5
1b0
100
AcDbEntity
  8
0
 62
7
100
AcDbSpline
 70
8
 71
3
 72
8
 73
4
 74
0
 40
0
 40
0
 40
0
 40
0
 40
1
 40
1
 40
1
 40
1
 10
293.997558
 20
102.790353
 30
0.0
 10
290.282687
 20
104.937065
 30
0.0
 10
285.704329
 20
104.937065
 30
0.0
 10
281.989458
 20
102.790353
 30
0.0
  0
SPLINE
  5
1b1
100
AcDbEntity
  8
0
 62
7
100
AcDbSpline
 70
8
 71
3
 72
8
 73
4
 74
0
 40
0
 40
0
 40
0
 40
0
 40
1
 40
1
 40
1
 40
1
 10
281.989458
 20
102.790353
 30
0.0
 10
278.274587
 20
100.643640
 30
0.0
 10
275.988500
 20
96.676883
 30
0.0
 10
275.993516
 20
92.386357
 30
0.0
  0
SPLINE
  5
1b2
100
AcDbEntity
  8
0
 62
7
100
AcDbSpline
 70
8
 71
3
 72
8
 73
4
 74
0
 40
0
 40
0
 40
0
 40
0
 40
1
 40
1
 40
1
 40
1
 10
275.993516
 20
92.386357
 30
0.0
 10
275.988500
 20
88.095830
 30
0.0
 10
278.274587
 20
84.129073
 30
0.0
 10
281.989458
 20
81.982360
 30
0.0
  0
SPLINE
  5
1b3
100
AcDbEntity
  8
0
 62
7
100
AcDbSpline
 70
8
 71
3
 72
8
 73
4
 74
0
 40
0
 40
0
 40
0
 40
0
 40
1
 40
1
 40
1
 40
1
 10
281.989458
 20
81.982360
 30
0.0
 10
285.704329
 20
79.835648
 30
0.0
 10
290.282687
 20
79.835648
 30
0.0
 10
293.997558
 20
81.982360
 30
0.0
  0
SPLINE
  5
1b4
100
AcDbEntity
  8
0
 62
7
100
AcDbSpline
 70
8
 71
3
 72
8
 73
4
 74
0
 40
0
 40
0
 40
0
 40
0
 40
1
 40
1
 40
1
 40
1
 10
293.997558
 20
81.982360
 30
0.0
 10
297.712428
 20
84.129073
 30
0.0
 10
299.998516
 20
88.095830
 30
0.0
 10
299.993500
 20
92.386357
 30
0.0
  0
LWPOLYLINE
  5
1b5
100
AcDbEntity
  8
0
 62
7
100
AcDbPolyline
 90
1
 70
1
 10
329.879351
 20
89.771683
 30
0.0
  0
SPLINE
  5
1b6
100
AcDbEntity
  8
0
 62
7
100
AcDbSpline
 70
8
 71
3
 72
8
 73
4
 74
0
 40
0
 40
0
 40
0
 40
0
 40
1
 40
1
 40
1
 40
1
 10
270.107675
 20
95.001027
 30
0.0
 10
270.107675
 20
99.288217
 30
0.0
 10
267.820486
 20
103.249743
 30
0.0
 10
264.107671
 20
105.393338
 30
0.0
  0
SPLINE
  5
1b7
100
AcDbEntity
  8
0
 62
7
100
AcDbSpline
 70
8
 71
3
 72
8
 73
4
 74
0
 40
0
 40
0
 40
0
 40
0
 40
1
 40
1
 40
1
 40
1
 10
264.107671
 20
105.393338
 30
0.0
 10
260.394856
 20
107.536932
 30
0.0
 10
255.820480
 20
107.536932
 30
0.0
 10
252.107665
 20
105.393338
 30
0.0
  0
SPLINE
  5
1b8
100
AcDbEntity
  8
0
 62
7
100
AcDbSpline
 70
8
 71
3
 72
8
 73
4
 74
0
 40
0
 40
0
 40
0
 40
0
 40
1
 40
1
 40
1
 40
1
 10
252.107665
 20
105.393338
 30
0.0
 10
248.394850
 20
103.249743
 30
0.0
 10
246.107662
 20
99.288217
 30
0.0
 10
246.107662
 20
95.001027
 30
0.0
  0
SPLINE
  5
1b9
100
AcDbEntity
  8
0
 62
7
100
AcDbSpline
 70
8
 71
3
 72
8
 73
4
 74
0
 40
0
 40
0
 40
0
 40
0
 40
1
 40
1
 40
1
 40
1
 10
246.107662
 20
95.001027
 30
0.0
 10
246.107662
 20
90.713838
 30
0.0
 10
248.394850
 20
86.752312
 30
0.0
 10
252.107665
 20
84.608717
 30
0.0
  0
SPLINE
  5
1ba
100
AcDbEntity
  8
0
 62
7
100
AcDbSpline
 70
8
 71
3
 72
8
 73
4
 74
0
 40
0
 40
0
 40
0
 40
0
 40
1
 40
1
 40
1
 40
1
 10
252.107665
 20
84.608717
 30
0.0
 10
255.820480
 20
82.465122
 30
0.0
 10
260.394856
 20
82.465122
 30
0.0
 10
264.107671
 20
84.608717
 30
0.0
  0
SPLINE
  5
1bb
100
AcDbEntity
  8
0
 62
7
100
AcDbSpline
 70
8
 71
3
 72
8
 73
4
 74
0
 40
0
 40
0
 40
0
 40
0
 40
1
 40
1
 40
1
 40
1
 10
264.107671
 20
84.608717
 30
0.0
 10
267.820486
 20
86.752312
 30
0.0
 10
270.107675
 20
90.713838
 30
0.0
 10
270.107675
 20
95.001027
 30
0.0
  0
LWPOLYLINE
  5
1bc
100
AcDbEntity
  8
0
 62
7
100
AcDbPolyline
 90
1
 70
1
 10
299.993500
 20
92.386357
 30
0.0
  0
SPLINE
  5
1bd
100
AcDbEntity
  8
0
 62
7
100
AcDbSpline
 70
8
 71
3
 72
8
 73
4
 74
0
 40
0
 40
0
 40
0
 40
0
 40
1
 40
1
 40
1
 40
1
 10
240.221823
 20
97.615701
 30
0.0
 10
240.221823
 20
101.902888
 30
0.0
 10
237.934636
 20
105.864413
 30
0.0
 10
234.221822
 20
108.008006
 30
0.0
  0
SPLINE
  5
1be
100
AcDbEntity
  8
0
 62
7
100
AcDbSpline
 70
8
 71
3
 72
8
 73
4
 74
0
 40
0
 40
0
 40
0
 40
0
 40
1
 40
1
 40
1
 40
1
 10
234.221822
 20
108.008006
 30
0.0
 10
230.509009
 20
110.151600
 30
0.0
 10
225.934634
 20
110.151600
 30
0.0
 10
222.221821
 20
108.008006
 30
0.0
  0
SPLINE
  5
1bf
100
AcDbEntity
  8
0
 62
7
100
AcDbSpline
 70
8
 71
3
 72
8
 73
4
 74
0
 40
0
 40
0
 40
0
 40
0
 40
1
 40
1
 40
1
 40
1
 10
222.221821
 20
108.008006
 30
0.0
 10
218.509008
 20
105.864413
 30
0.0
 10
216.221821
 20
101.902888
 30
0.0
 10
216.221821
 20
97.615701
 30
0.0
  0
SPLINE
  5
1c0
100
AcDbEntity
  8
0
 62
7
100
AcDbSpline
 70
8
 71
3
 72
8
 73
4
 74
0
 40
0
 40
0
 40
0
 40
0
 40
1
 40
1
 40
1
 40
1
 10
216.221821
 20
97.615701
 30
0.0
 10
216.221821
 20
93.328513
 30
0.0
 10
218.509008
 20
89.366989
 30
0.0
 10
222.221821
 20
87.223395
 30
0.0
  0
SPLINE
  5
1c1
100
AcDbEntity
  8
0
 62
7
100
AcDbSpline
 70
8
 71
3
 72
8
 73
4
 74
0
 40
0
 40
0
 40
0
 40
0
 40
1
 40
1
 40
1
 40
1
 10
222.221821
 20
87.223395
 30
0.0
 10
225.934634
 20
85.079801
 30
0.0
 10
230.509009
 20
85.079801
 30
0.0
 10
234.221822
 20
87.223395
 30
0.0
  0
SPLINE
  5
1c2
100
AcDbEntity
  8
0
 62
7
100
AcDbSpline
 70
8
 71
3
 72
8
 73
4
 74
0
 40
0
 40
0
 40
0
 40
0
 40
1
 40
1
 40
1
 40
1
 10
234.221822
 20
87.223395
 30
0.0
 10
237.934636
 20
89.366989
 30
0.0
 10
240.221823
 20
93.328513
 30
0.0
 10
240.221823
 20
97.615701
 30
0.0
  0
LWPOLYLINE
  5
1c3
100
AcDbEntity
  8
0
 62
7
100
AcDbPolyline
 90
1
 70
1
 10
270.107675
 20
95.001027
 30
0.0
  0
SPLINE
  5
1c4
100
AcDbEntity
  8
0
 62
7
100
AcDbSpline
 70
8
 71
3
 72
8
 73
4
 74
0
 40
0
 40
0
 40
0
 40
0
 40
1
 40
1
 40
1
 40
1
 10
332.494017
 20
119.657524
 30
0.0
 10
332.494017
 20
123.944713
 30
0.0
 10
330.206829
 20
127.906239
 30
0.0
 10
326.494014
 20
130.049834
 30
0.0
  0
SPLINE
  5
1c5
100
AcDbEntity
  8
0
 62
7
100
AcDbSpline
 70
8
 71
3
 72
8
 73
4
 74
0
 40
0
 40
0
 40
0
 40
0
 40
1
 40
1
 40
1
 40
1
 10
326.494014
 20
130.049834
 30
0.0
 10
322.781200
 20
132.193428
 30
0.0
 10
318.206824
 20
132.193428
 30
0.0
 10
314.494009
 20
130.049834
 30
0.0
  0
SPLINE
  5
1c6
100
AcDbEntity
  8
0
 62
7
100
AcDbSpline
 70
8
 71
3
 72
8
 73
4
 74
0
 40
0
 40
0
 40
0
 40
0
 40
1
 40
1
 40
1
 40
1
 10
314.494009
 20
130.049834
 30
0.0
 10
310.781195
 20
127.906239
 30
0.0
 10
308.494007
 20
123.944713
 30
0.0
 10
308.494007
 20
119.657524
 30
0.0
  0
SPLINE
  5
1c7
100
AcDbEntity
  8
0
 62
7
100
AcDbSpline
 70
8
 71
3
 72
8
 73
4
 74
0
 40
0
 40
0
 40
0
 40
0
 40
1
 40
1
 40
1
 40
1
 10
308.494007
 20
119.657524
 30
0.0
 10
308.494007
 20
115.370335
 30
0.0
 10
310.781195
 20
111.408809
 30
0.0
 10
314.494009
 20
109.265215
 30
0.0
  0
SPLINE
  5
1c8
100
AcDbEntity
  8
0
 62
7
100
AcDbSpline
 70
8
 71
3
 72
8
 73
4
 74
0
 40
0
 40
0
 40
0
 40
0
 40
1
 40
1
 40
1
 40
1
 10
314.494009
 20
109.265215
 30
0.0
 10
318.206824
 20
107.121621
 30
0.0
 10
322.781200
 20
107.121621
 30
0.0
 10
326.494014
 20
109.265215
 30
0.0
  0
SPLINE
  5
1c9
100
AcDbEntity
  8
0
 62
7
100
AcDbSpline
 70
8
 71
3
 72
8
 73
4
 74
0
 40
0
 40
0
 40
0
 40
0
 40
1
 40
1
 40
1
 40
1
 10
326.494014
 20
109.265215
 30
0.0
 10
330.206829
 20
111.408809
 30
0.0
 10
332.494017
 20
115.370335
 30
0.0
 10
332.494017
 20
119.657524
 30
0.0
  0
LWPOLYLINE
  5
1ca
100
AcDbEntity
  8
0
 62
7
100
AcDbPolyline
 90
1
 70
1
 10
240.221823
 20
97.615701
 30
0.0
  0
SPLINE
  5
1cb
100
AcDbEntity
  8
0
 62
7
100
AcDbSpline
 70
8
 71
3
 72
8
 73
4
 74
0
 40
0
 40
0
 40
0
 40
0
 40
1
 40
1
 40
1
 40
1
 10
302.608165
 20
122.272198
 30
0.0
 10
302.613182
 20
126.562724
 30
0.0
 10
300.327094
 20
130.529481
 30
0.0
 10
296.612223
 20
132.676194
 30
0.0
  0
SPLINE
  5
1cc
100
AcDbEntity
  8
0
 62
7
100
AcDbSpline
 70
8
 71
3
 72
8
 73
4
 74
0
 40
0
 40
0
 40
0
 40
0
 40
1
 40
1
 40
1
 40
1
 10
296.612223
 20
132.676194
 30
0.0
 10
292.897352
 20
134.822906
 30
0.0
 10
288.318994
 20
134.822906
 30
0.0
 10
284.604124
 20
132.676194
 30
0.0
  0
SPLINE
  5
1cd
100
AcDbEntity
  8
0
 62
7
100
AcDbSpline
 70
8
 71
3
 72
8
 73
4
 74
0
 40
0
 40
0
 40
0
 40
0
 40
1
 40
1
 40
1
 40
1
 10
284.604124
 20
132.676194
 30
0.0
 10
280.889253
 20
130.529481
 30
0.0
 10
278.603165
 20
126.562724
 30
0.0
 10
278.608181
 20
122.272198
 30
0.0
  0
SPLINE
  5
1ce
100
AcDbEntity
  8
0
 62
7
100
AcDbSpline
 70
8
 71
3
 72
8
 73
4
 74
0
 40
0
 40
0
 40
0
 40
0
 40
1
 40
1
 40
1
 40
1
 10
278.608181
 20
122.272198
 30
0.0
 10
278.603165
 20
117.981672
 30
0.0
 10
280.889253
 20
114.014914
 30
0.0
 10
284.604124
 20
111.868202
 30
0.0
  0
SPLINE
  5
1cf
100
AcDbEntity
  8
0
 62
7
100
AcDbSpline
 70
8
 71
3
 72
8
 73
4
 74
0
 40
0
 40
0
 40
0
 40
0
 40
1
 40
1
 40
1
 40
1
 10
284.604124
 20
111.868202
 30
0.0
 10
288.318994
 20
109.721489
 30
0.0
 10
292.897352
 20
109.721489
 30
0.0
 10
296.612223
 20
111.868202
 30
0.0
  0
SPLINE
  5
1d0
100
AcDbEntity
  8
0
 62
7
100
AcDbSpline
 70
8
 71
3
 72
8
 73
4
 74
0
 40
0
 40
0
 40
0
 40
0
 40
1
 40
1
 40
1
 40
1
 10
296.612223
 20
111.868202
 30
0.0
 10
300.327094
 20
114.014914
 30
0.0
 10
302.613182
 20
117.981672
 30
0.0
 10
302.608165
 20
122.272198
 30
0.0
  0
LWPOLYLINE
  5
1d1
100
AcDbEntity
  8
0
 62
7
100
AcDbPolyline
 90
1
 70
1
 10
332.494017
 20
119.657524
 30
0.0
  0
SPLINE
  5
1d2
100
AcDbEntity
  8
0
 62
7
100
AcDbSpline
 70
8
 71
3
 72
8
 73
4
 74
0
 40
0
 40
0
 40
0
 40
0
 40
1
 40
1
 40
1
 40
1
 10
272.722340
 20
124.886868
 30
0.0
 10
272.722340
 20
129.174056
 30
0.0
 10
270.435152
 20
133.135581
 30
0.0
 10
266.722339
 20
135.279175
 30
0.0
  0
SPLINE
  5
1d3
100
AcDbEntity
  8
0
 62
7
100
AcDbSpline
 70
8
 71
3
 72
8
 73
4
 74
0
 40
0
 40
0
 40
0
 40
0
 40
1
 40
1
 40
1
 40
1
 10
266.722339
 20
135.279175
 30
0.0
 10
263.009525
 20
137.422769
 30
0.0
 10
258.435150
 20
137.422769
 30
0.0
 10
254.722336
 20
135.279175
 30
0.0
  0
SPLINE
  5
1d4
100
AcDbEntity
  8
0
 62
7
100
AcDbSpline
 70
8
 71
3
 72
8
 73
4
 74
0
 40
0
 40
0
 40
0
 40
0
 40
1
 40
1
 40
1
 40
1
 10
254.722336
 20
135.279175
 30
0.0
 10
251.009523
 20
133.135581
 30
0.0
 10
248.722335
 20
129.174056
 30
0.0
 10
248.722335
 20
124.886868
 30
0.0
  0
SPLINE
  5
1d5
100
AcDbEntity
  8
0
 62
7
100
AcDbSpline
 70
8
 71
3
 72
8
 73
4
 74
0
 40
0
 40
0
 40
0
 40
0
 40
1
 40
1
 40
1
 40
1
 10
248.722335
 20
124.886868
 30
0.0
 10
248.722335
 20
120.599680
 30
0.0
 10
251.009523
 20
116.638155
 30
0.0
 10
254.722336
 20
114.494561
 30
0.0
  0
SPLINE
  5
1d6
100
AcDbEntity
  8
0
 62
7
100
AcDbSpline
 70
8
 71
3
 72
8
 73
4
 74
0
 40
0
 40
0
 40
0
 40
0
 40
1
 40
1
 40
1
 40
1
 10
254.722336
 20
114.494561
 30
0.0
 10
258.435150
 20
112.350967
 30
0.0
 10
263.009525
 20
112.350967
 30
0.0
 10
266.722339
 20
114.494561
 30
0.0
  0
SPLINE
  5
1d7
100
AcDbEntity
  8
0
 62
7
100
AcDbSpline
 70
8
 71
3
 72
8
 73
4
 74
0
 40
0
 40
0
 40
0
 40
0
 40
1
 40
1
 40
1
 40
1
 10
266.722339
 20
114.494561
 30
0.0
 10
270.435152
 20
116.638155
 30
0.0
 10
272.722340
 20
120.599680
 30
0.0
 10
272.722340
 20
124.886868
 30
0.0
  0
LWPOLYLINE
  5
1d8
100
AcDbEntity
  8
0
 62
7
100
AcDbPolyline
 90
1
 70
1
 10
302.608165
 20
122.272198
 30
0.0
  0
SPLINE
  5
1d9
100
AcDbEntity
  8
0
 62
7
100
AcDbSpline
 70
8
 71
3
 72
8
 73
4
 74
0
 40
0
 40
0
 40
0
 40
0
 40
1
 40
1
 40
1
 40
1
 10
242.836494
 20
127.501542
 30
0.0
 10
242.837394
 20
131.789329
 30
0.0
 10
240.550404
 20
135.751793
 30
0.0
 10
236.837221
 20
137.895947
 30
0.0
  0
SPLINE
  5
1da
100
AcDbEntity
  8
0
 62
7
100
AcDbSpline
 70
8
 71
3
 72
8
 73
4
 74
0
 40
0
 40
0
 40
0
 40
0
 40
1
 40
1
 40
1
 40
1
 10
236.837221
 20
137.895947
 30
0.0
 10
233.124039
 20
140.040100
 30
0.0
 10
228.548949
 20
140.040100
 30
0.0
 10
224.835766
 20
137.895947
 30
0.0
  0
SPLINE
  5
1db
100
AcDbEntity
  8
0
 62
7
100
AcDbSpline
 70
8
 71
3
 72
8
 73
4
 74
0
 40
0
 40
0
 40
0
 40
0
 40
1
 40
1
 40
1
 40
1
 10
224.835766
 20
137.895947
 30
0.0
 10
221.122584
 20
135.751793
 30
0.0
 10
218.835594
 20
131.789329
 30
0.0
 10
218.836494
 20
127.501542
 30
0.0
  0
SPLINE
  5
1dc
100
AcDbEntity
  8
0
 62
7
100
AcDbSpline
 70
8
 71
3
 72
8
 73
4
 74
0
 40
0
 40
0
 40
0
 40
0
 40
1
 40
1
 40
1
 40
1
 10
218.836494
 20
127.501542
 30
0.0
 10
218.835594
 20
123.213754
 30
0.0
 10
221.122584
 20
119.251290
 30
0.0
 10
224.835766
 20
117.107137
 30
0.0
  0
SPLINE
  5
1dd
100
AcDbEntity
  8
0
 62
7
100
AcDbSpline
 70
8
 71
3
 72
8
 73
4
 74
0
 40
0
 40
0
 40
0
 40
0
 40
1
 40
1
 40
1
 40
1
 10
224.835766
 20
117.107137
 30
0.0
 10
228.548949
 20
114.962983
 30
0.0
 10
233.124039
 20
114.962983
 30
0.0
 10
236.837221
 20
117.107137
 30
0.0
  0
SPLINE
  5
1de
100
AcDbEntity
  8
0
 62
7
100
AcDbSpline
 70
8
 71
3
 72
8
 73
4
 74
0
 40
0
 40
0
 40
0
 40
0
 40
1
 40
1
 40
1
 40
1
 10
236.837221
 20
117.107137
 30
0.0
 10
240.550404
 20
119.251290
 30
0.0
 10
242.837394
 20
123.213754
 30
0.0
 10
242.836494
 20
127.501542
 30
0.0
  0
LWPOLYLINE
  5
1df
100
AcDbEntity
  8
0
 62
7
100
AcDbPolyline
 90
1
 70
1
 10
272.722340
 20
124.886868
 30
0.0
  0
SPLINE
  5
1e0
100
AcDbEntity
  8
0
 62
7
100
AcDbSpline
 70
8
 71
3
 72
8
 73
4
 74
0
 40
0
 40
0
 40
0
 40
0
 40
1
 40
1
 40
1
 40
1
 10
175.007524
 20
37.844018
 30
0.0
 10
175.007524
 20
42.131206
 30
0.0
 10
172.720337
 20
46.092731
 30
0.0
 10
169.007523
 20
48.236324
 30
0.0
  0
SPLINE
  5
1e1
100
AcDbEntity
  8
0
 62
7
100
AcDbSpline
 70
8
 71
3
 72
8
 73
4
 74
0
 40
0
 40
0
 40
0
 40
0
 40
1
 40
1
 40
1
 40
1
 10
169.007523
 20
48.236324
 30
0.0
 10
165.294710
 20
50.379918
 30
0.0
 10
160.720336
 20
50.379918
 30
0.0
 10
157.007522
 20
48.236324
 30
0.0
  0
SPLINE
  5
1e2
100
AcDbEntity
  8
0
 62
7
100
AcDbSpline
 70
8
 71
3
 72
8
 73
4
 74
0
 40
0
 40
0
 40
0
 40
0
 40
1
 40
1
 40
1
 40
1
 10
157.007522
 20
48.236324
 30
0.0
 10
153.294709
 20
46.092731
 30
0.0
 10
151.007522
 20
42.131206
 30
0.0
 10
151.007522
 20
37.844018
 30
0.0
  0
SPLINE
  5
1e3
100
AcDbEntity
  8
0
 62
7
100
AcDbSpline
 70
8
 71
3
 72
8
 73
4
 74
0
 40
0
 40
0
 40
0
 40
0
 40
1
 40
1
 40
1
 40
1
 10
151.007522
 20
37.844018
 30
0.0
 10
151.007522
 20
33.556831
 30
0.0
 10
153.294709
 20
29.595306
 30
0.0
 10
157.007522
 20
27.451713
 30
0.0
  0
SPLINE
  5
1e4
100
AcDbEntity
  8
0
 62
7
100
AcDbSpline
 70
8
 71
3
 72
8
 73
4
 74
0
 40
0
 40
0
 40
0
 40
0
 40
1
 40
1
 40
1
 40
1
 10
157.007522
 20
27.451713
 30
0.0
 10
160.720336
 20
25.308119
 30
0.0
 10
165.294710
 20
25.308119
 30
0.0
 10
169.007523
 20
27.451713
 30
0.0
  0
SPLINE
  5
1e5
100
AcDbEntity
  8
0
 62
7
100
AcDbSpline
 70
8
 71
3
 72
8
 73
4
 74
0
 40
0
 40
0
 40
0
 40
0
 40
1
 40
1
 40
1
 40
1
 10
169.007523
 20
27.451713
 30
0.0
 10
172.720337
 20
29.595306
 30
0.0
 10
175.007524
 20
33.556831
 30
0.0
 10
175.007524
 20
37.844018
 30
0.0
  0
LWPOLYLINE
  5
1e6
100
AcDbEntity
  8
0
 62
7
100
AcDbPolyline
 90
1
 70
1
 10
242.836494
 20
127.501542
 30
0.0
  0
SPLINE
  5
1e7
100
AcDbEntity
  8
0
 62
7
100
AcDbSpline
 70
8
 71
3
 72
8
 73
4
 74
0
 40
0
 40
0
 40
0
 40
0
 40
1
 40
1
 40
1
 40
1
 10
204.992478
 20
37.844018
 30
0.0
 10
204.992478
 20
42.131206
 30
0.0
 10
202.705291
 20
46.092731
 30
0.0
 10
198.992477
 20
48.236324
 30
0.0
  0
SPLINE
  5
1e8
100
AcDbEntity
  8
0
 62
7
100
AcDbSpline
 70
8
 71
3
 72
8
 73
4
 74
0
 40
0
 40
0
 40
0
 40
0
 40
1
 40
1
 40
1
 40
1
 10
198.992477
 20
48.236324
 30
0.0
 10
195.279664
 20
50.379918
 30
0.0
 10
190.705290
 20
50.379918
 30
0.0
 10
186.992476
 20
48.236324
 30
0.0
  0
SPLINE
  5
1e9
100
AcDbEntity
  8
0
 62
7
100
AcDbSpline
 70
8
 71
3
 72
8
 73
4
 74
0
 40
0
 40
0
 40
0
 40
0
 40
1
 40
1
 40
1
 40
1
 10
186.992476
 20
48.236324
 30
0.0
 10
183.279663
 20
46.092731
 30
0.0
 10
180.992476
 20
42.131206
 30
0.0
 10
180.992476
 20
37.844018
 30
0.0
  0
SPLINE
  5
1ea
100
AcDbEntity
  8
0
 62
7
100
AcDbSpline
 70
8
 71
3
 72
8
 73
4
 74
0
 40
0
 40
0
 40
0
 40
0
 40
1
 40
1
 40
1
 40
1
 10
180.992476
 20
37.844018
 30
0.0
 10
180.992476
 20
33.556831
 30
0.0
 10
183.279663
 20
29.595306
 30
0.0
 10
186.992476
 20
27.451713
 30
0.0
  0
SPLINE
  5
1eb
100
AcDbEntity
  8
0
 62
7
100
AcDbSpline
 70
8
 71
3
 72
8
 73
4
 74
0
 40
0
 40
0
 40
0
 40
0
 40
1
 40
1
 40
1
 40
1
 10
186.992476
 20
27.451713
 30
0.0
 10
190.705290
 20
25.308119
 30
0.0
 10
195.279664
 20
25.308119
 30
0.0
 10
198.992477
 20
27.451713
 30
0.0
  0
SPLINE
  5
1ec
100
AcDbEntity
  8
0
 62
7
100
AcDbSpline
 70
8
 71
3
 72
8
 73
4
 74
0
 40
0
 40
0
 40
0
 40
0
 40
1
 40
1
 40
1
 40
1
 10
198.992477
 20
27.451713
 30
0.0
 10
202.705291
 20
29.595306
 30
0.0
 10
204.992478
 20
33.556831
 30
0.0
 10
204.992478
 20
37.844018
 30
0.0
  0
LWPOLYLINE
  5
1ed
100
AcDbEntity
  8
0
 62
7
100
AcDbPolyline
 90
1
 70
1
 10
175.007524
 20
37.844018
 30
0.0
  0
SPLINE
  5
1ee
100
AcDbEntity
  8
0
 62
7
100
AcDbSpline
 70
8
 71
3
 72
8
 73
4
 74
0
 40
0
 40
0
 40
0
 40
0
 40
1
 40
1
 40
1
 40
1
 10
175.007524
 20
67.844019
 30
0.0
 10
175.007524
 20
72.131207
 30
0.0
 10
172.720337
 20
76.092731
 30
0.0
 10
169.007523
 20
78.236325
 30
0.0
  0
SPLINE
  5
1ef
100
AcDbEntity
  8
0
 62
7
100
AcDbSpline
 70
8
 71
3
 72
8
 73
4
 74
0
 40
0
 40
0
 40
0
 40
0
 40
1
 40
1
 40
1
 40
1
 10
169.007523
 20
78.236325
 30
0.0
 10
165.294710
 20
80.379919
 30
0.0
 10
160.720336
 20
80.379919
 30
0.0
 10
157.007522
 20
78.236325
 30
0.0
  0
SPLINE
  5
1f0
100
AcDbEntity
  8
0
 62
7
100
AcDbSpline
 70
8
 71
3
 72
8
 73
4
 74
0
 40
0
 40
0
 40
0
 40
0
 40
1
 40
1
 40
1
 40
1
 10
157.007522
 20
78.236325
 30
0.0
 10
153.294709
 20
76.092731
 30
0.0
 10
151.007522
 20
72.131207
 30
0.0
 10
151.007522
 20
67.844019
 30
0.0
  0
SPLINE
  5
1f1
100
AcDbEntity
  8
0
 62
7
100
AcDbSpline
 70
8
 71
3
 72
8
 73
4
 74
0
 40
0
 40
0
 40
0
 40
0
 40
1
 40
1
 40
1
 40
1
 10
151.007522
 20
67.844019
 30
0.0
 10
151.007522
 20
63.556832
 30
0.0
 10
153.294709
 20
59.595307
 30
0.0
 10
157.007522
 20
57.451713
 30
0.0
  0
SPLINE
  5
1f2
100
AcDbEntity
  8
0
 62
7
100
AcDbSpline
 70
8
 71
3
 72
8
 73
4
 74
0
 40
0
 40
0
 40
0
 40
0
 40
1
 40
1
 40
1
 40
1
 10
157.007522
 20
57.451713
 30
0.0
 10
160.720336
 20
55.308120
 30
0.0
 10
165.294710
 20
55.308120
 30
0.0
 10
169.007523
 20
57.451713
 30
0.0
  0
SPLINE
  5
1f3
100
AcDbEntity
  8
0
 62
7
100
AcDbSpline
 70
8
 71
3
 72
8
 73
4
 74
0
 40
0
 40
0
 40
0
 40
0
 40
1
 40
1
 40
1
 40
1
 10
169.007523
 20
57.451713
 30
0.0
 10
172.720337
 20
59.595307
 30
0.0
 10
175.007524
 20
63.556832
 30
0.0
 10
175.007524
 20
67.844019
 30
0.0
  0
LWPOLYLINE
  5
1f4
100
AcDbEntity
  8
0
 62
7
100
AcDbPolyline
 90
1
 70
1
 10
204.992478
 20
37.844018
 30
0.0
  0
SPLINE
  5
1f5
100
AcDbEntity
  8
0
 62
7
100
AcDbSpline
 70
8
 71
3
 72
8
 73
4
 74
0
 40
0
 40
0
 40
0
 40
0
 40
1
 40
1
 40
1
 40
1
 10
204.992478
 20
67.844019
 30
0.0
 10
204.992478
 20
72.131207
 30
0.0
 10
202.705291
 20
76.092731
 30
0.0
 10
198.992477
 20
78.236325
 30
0.0
  0
SPLINE
  5
1f6
100
AcDbEntity
  8
0
 62
7
100
AcDbSpline
 70
8
 71
3
 72
8
 73
4
 74
0
 40
0
 40
0
 40
0
 40
0
 40
1
 40
1
 40
1
 40
1
 10
198.992477
 20
78.236325
 30
0.0
 10
195.279664
 20
80.379919
 30
0.0
 10
190.705290
 20
80.379919
 30
0.0
 10
186.992476
 20
78.236325
 30
0.0
  0
SPLINE
  5
1f7
100
AcDbEntity
  8
0
 62
7
100
AcDbSpline
 70
8
 71
3
 72
8
 73
4
 74
0
 40
0
 40
0
 40
0
 40
0
 40
1
 40
1
 40
1
 40
1
 10
186.992476
 20
78.236325
 30
0.0
 10
183.279663
 20
76.092731
 30
0.0
 10
180.992476
 20
72.131207
 30
0.0
 10
180.992476
 20
67.844019
 30
0.0
  0
SPLINE
  5
1f8
100
AcDbEntity
  8
0
 62
7
100
AcDbSpline
 70
8
 71
3
 72
8
 73
4
 74
0
 40
0
 40
0
 40
0
 40
0
 40
1
 40
1
 40
1
 40
1
 10
180.992476
 20
67.844019
 30
0.0
 10
180.992476
 20
63.556832
 30
0.0
 10
183.279663
 20
59.595307
 30
0.0
 10
186.992476
 20
57.451713
 30
0.0
  0
SPLINE
  5
1f9
100
AcDbEntity
  8
0
 62
7
100
AcDbSpline
 70
8
 71
3
 72
8
 73
4
 74
0
 40
0
 40
0
 40
0
 40
0
 40
1
 40
1
 40
1
 40
1
 10
186.992476
 20
57.451713
 30
0.0
 10
190.705290
 20
55.308120
 30
0.0
 10
195.279664
 20
55.308120
 30
0.0
 10
198.992477
 20
57.451713
 30
0.0
  0
SPLINE
  5
1fa
100
AcDbEntity
  8
0
 62
7
100
AcDbSpline
 70
8
 71
3
 72
8
 73
4
 74
0
 40
0
 40
0
 40
0
 40
0
 40
1
 40
1
 40
1
 40
1
 10
198.992477
 20
57.451713
 30
0.0
 10
202.705291
 20
59.595307
 30
0.0
 10
204.992478
 20
63.556832
 30
0.0
 10
204.992478
 20
67.844019
 30
0.0
  0
LWPOLYLINE
  5
1fb
100
AcDbEntity
  8
0
 62
7
100
AcDbPolyline
 90
1
 70
1
 10
175.007524
 20
67.844019
 30
0.0
  0
SPLINE
  5
1fc
100
AcDbEntity
  8
0
 62
7
100
AcDbSpline
 70
8
 71
3
 72
8
 73
4
 74
0
 40
0
 40
0
 40
0
 40
0
 40
1
 40
1
 40
1
 40
1
 10
204.992478
 20
97.844018
 30
0.0
 10
204.992478
 20
102.131205
 30
0.0
 10
202.705291
 20
106.092730
 30
0.0
 10
198.992477
 20
108.236323
 30
0.0
  0
SPLINE
  5
1fd
100
AcDbEntity
  8
0
 62
7
100
AcDbSpline
 70
8
 71
3
 72
8
 73
4
 74
0
 40
0
 40
0
 40
0
 40
0
 40
1
 40
1
 40
1
 40
1
 10
198.992477
 20
108.236323
 30
0.0
 10
195.279664
 20
110.379917
 30
0.0
 10
190.705290
 20
110.379917
 30
0.0
 10
186.992476
 20
108.236323
 30
0.0
  0
SPLINE
  5
1fe
100
AcDbEntity
  8
0
 62
7
100
AcDbSpline
 70
8
 71
3
 72
8
 73
4
 74
0
 40
0
 40
0
 40
0
 40
0
 40
1
 40
1
 40
1
 40
1
 10
186.992476
 20
108.236323
 30
0.0
 10
183.279663
 20
106.092730
 30
0.0
 10
180.992476
 20
102.131205
 30
0.0
 10
180.992476
 20
97.844018
 30
0.0
  0
SPLINE
  5
1ff
100
AcDbEntity
  8
0
 62
7
100
AcDbSpline
 70
8
 71
3
 72
8
 73
4
 74
0
 40
0
 40
0
 40
0
 40
0
 40
1
 40
1
 40
1
 40
1
 10
180.992476
 20
97.844018
 30
0.0
 10
180.992476
 20
93.556830
 30
0.0
 10
183.279663
 20
89.595305
 30
0.0
 10
186.992476
 20
87.451712
 30
0.0
  0
SPLINE
  5
200
100
AcDbEntity
  8
0
 62
7
100
AcDbSpline
 70
8
 71
3
 72
8
 73
4
 74
0
 40
0
 40
0
 40
0
 40
0
 40
1
 40
1
 40
1
 40
1
 10
186.992476
 20
87.451712
 30
0.0
 10
190.705290
 20
85.308118
 30
0.0
 10
195.279664
 20
85.308118
 30
0.0
 10
198.992477
 20
87.451712
 30
0.0
  0
SPLINE
  5
201
100
AcDbEntity
  8
0
 62
7
100
AcDbSpline
 70
8
 71
3
 72
8
 73
4
 74
0
 40
0
 40
0
 40
0
 40
0
 40
1
 40
1
 40
1
 40
1
 10
198.992477
 20
87.451712
 30
0.0
 10
202.705291
 20
89.595305
 30
0.0
 10
204.992478
 20
93.556830
 30
0.0
 10
204.992478
 20
97.844018
 30
0.0
  0
LWPOLYLINE
  5
202
100
AcDbEntity
  8
0
 62
7
100
AcDbPolyline
 90
1
 70
1
 10
204.992478
 20
67.844019
 30
0.0
  0
SPLINE
  5
203
100
AcDbEntity
  8
0
 62
7
100
AcDbSpline
 70
8
 71
3
 72
8
 73
4
 74
0
 40
0
 40
0
 40
0
 40
0
 40
1
 40
1
 40
1
 40
1
 10
175.007524
 20
97.844018
 30
0.0
 10
175.007524
 20
102.131205
 30
0.0
 10
172.720337
 20
106.092730
 30
0.0
 10
169.007523
 20
108.236323
 30
0.0
  0
SPLINE
  5
204
100
AcDbEntity
  8
0
 62
7
100
AcDbSpline
 70
8
 71
3
 72
8
 73
4
 74
0
 40
0
 40
0
 40
0
 40
0
 40
1
 40
1
 40
1
 40
1
 10
169.007523
 20
108.236323
 30
0.0
 10
165.294710
 20
110.379917
 30
0.0
 10
160.720336
 20
110.379917
 30
0.0
 10
157.007522
 20
108.236323
 30
0.0
  0
SPLINE
  5
205
100
AcDbEntity
  8
0
 62
7
100
AcDbSpline
 70
8
 71
3
 72
8
 73
4
 74
0
 40
0
 40
0
 40
0
 40
0
 40
1
 40
1
 40
1
 40
1
 10
157.007522
 20
108.236323
 30
0.0
 10
153.294709
 20
106.092730
 30
0.0
 10
151.007522
 20
102.131205
 30
0.0
 10
151.007522
 20
97.844018
 30
0.0
  0
SPLINE
  5
206
100
AcDbEntity
  8
0
 62
7
100
AcDbSpline
 70
8
 71
3
 72
8
 73
4
 74
0
 40
0
 40
0
 40
0
 40
0
 40
1
 40
1
 40
1
 40
1
 10
151.007522
 20
97.844018
 30
0.0
 10
151.007522
 20
93.556830
 30
0.0
 10
153.294709
 20
89.595305
 30
0.0
 10
157.007522
 20
87.451712
 30
0.0
  0
SPLINE
  5
207
100
AcDbEntity
  8
0
 62
7
100
AcDbSpline
 70
8
 71
3
 72
8
 73
4
 74
0
 40
0
 40
0
 40
0
 40
0
 40
1
 40
1
 40
1
 40
1
 10
157.007522
 20
87.451712
 30
0.0
 10
160.720336
 20
85.308118
 30
0.0
 10
165.294710
 20
85.308118
 30
0.0
 10
169.007523
 20
87.451712
 30
0.0
  0
SPLINE
  5
208
100
AcDbEntity
  8
0
 62
7
100
AcDbSpline
 70
8
 71
3
 72
8
 73
4
 74
0
 40
0
 40
0
 40
0
 40
0
 40
1
 40
1
 40
1
 40
1
 10
169.007523
 20
87.451712
 30
0.0
 10
172.720337
 20
89.595305
 30
0.0
 10
175.007524
 20
93.556830
 30
0.0
 10
175.007524
 20
97.844018
 30
0.0
  0
LWPOLYLINE
  5
209
100
AcDbEntity
  8
0
 62
7
100
AcDbPolyline
 90
1
 70
1
 10
204.992478
 20
97.844018
 30
0.0
  0
SPLINE
  5
20a
100
AcDbEntity
  8
0
 62
7
100
AcDbSpline
 70
8
 71
3
 72
8
 73
4
 74
0
 40
0
 40
0
 40
0
 40
0
 40
1
 40
1
 40
1
 40
1
 10
175.007524
 20
127.844018
 30
0.0
 10
175.007524
 20
132.131206
 30
0.0
 10
172.720337
 20
136.092730
 30
0.0
 10
169.007523
 20
138.236324
 30
0.0
  0
SPLINE
  5
20b
100
AcDbEntity
  8
0
 62
7
100
AcDbSpline
 70
8
 71
3
 72
8
 73
4
 74
0
 40
0
 40
0
 40
0
 40
0
 40
1
 40
1
 40
1
 40
1
 10
169.007523
 20
138.236324
 30
0.0
 10
165.294710
 20
140.379918
 30
0.0
 10
160.720336
 20
140.379918
 30
0.0
 10
157.007522
 20
138.236324
 30
0.0
  0
SPLINE
  5
20c
100
AcDbEntity
  8
0
 62
7
100
AcDbSpline
 70
8
 71
3
 72
8
 73
4
 74
0
 40
0
 40
0
 40
0
 40
0
 40
1
 40
1
 40
1
 40
1
 10
157.007522
 20
138.236324
 30
0.0
 10
153.294709
 20
136.092730
 30
0.0
 10
151.007522
 20
132.131206
 30
0.0
 10
151.007522
 20
127.844018
 30
0.0
  0
SPLINE
  5
20d
100
AcDbEntity
  8
0
 62
7
100
AcDbSpline
 70
8
 71
3
 72
8
 73
4
 74
0
 40
0
 40
0
 40
0
 40
0
 40
1
 40
1
 40
1
 40
1
 10
151.007522
 20
127.844018
 30
0.0
 10
151.007522
 20
123.556831
 30
0.0
 10
153.294709
 20
119.595306
 30
0.0
 10
157.007522
 20
117.451713
 30
0.0
  0
SPLINE
  5
20e
100
AcDbEntity
  8
0
 62
7
100
AcDbSpline
 70
8
 71
3
 72
8
 73
4
 74
0
 40
0
 40
0
 40
0
 40
0
 40
1
 40
1
 40
1
 40
1
 10
157.007522
 20
117.451713
 30
0.0
 10
160.720336
 20
115.308119
 30
0.0
 10
165.294710
 20
115.308119
 30
0.0
 10
169.007523
 20
117.451713
 30
0.0
  0
SPLINE
  5
20f
100
AcDbEntity
  8
0
 62
7
100
AcDbSpline
 70
8
 71
3
 72
8
 73
4
 74
0
 40
0
 40
0
 40
0
 40
0
 40
1
 40
1
 40
1
 40
1
 10
169.007523
 20
117.451713
 30
0.0
 10
172.720337
 20
119.595306
 30
0.0
 10
175.007524
 20
123.556831
 30
0.0
 10
175.007524
 20
127.844018
 30
0.0
  0
LWPOLYLINE
  5
210
100
AcDbEntity
  8
0
 62
7
100
AcDbPolyline
 90
1
 70
1
 10
175.007524
 20
97.844018
 30
0.0
  0
SPLINE
  5
211
100
AcDbEntity
  8
0
 62
7
100
AcDbSpline
 70
8
 71
3
 72
8
 73
4
 74
0
 40
0
 40
0
 40
0
 40
0
 40
1
 40
1
 40
1
 40
1
 10
204.992478
 20
127.844018
 30
0.0
 10
204.992478
 20
132.131206
 30
0.0
 10
202.705291
 20
136.092730
 30
0.0
 10
198.992477
 20
138.236324
 30
0.0
  0
SPLINE
  5
212
100
AcDbEntity
  8
0
 62
7
100
AcDbSpline
 70
8
 71
3
 72
8
 73
4
 74
0
 40
0
 40
0
 40
0
 40
0
 40
1
 40
1
 40
1
 40
1
 10
198.992477
 20
138.236324
 30
0.0
 10
195.279664
 20
140.379918
 30
0.0
 10
190.705290
 20
140.379918
 30
0.0
 10
186.992476
 20
138.236324
 30
0.0
  0
SPLINE
  5
213
100
AcDbEntity
  8
0
 62
7
100
AcDbSpline
 70
8
 71
3
 72
8
 73
4
 74
0
 40
0
 40
0
 40
0
 40
0
 40
1
 40
1
 40
1
 40
1
 10
186.992476
 20
138.236324
 30
0.0
 10
183.279663
 20
136.092730
 30
0.0
 10
180.992476
 20
132.131206
 30
0.0
 10
180.992476
 20
127.844018
 30
0.0
  0
SPLINE
  5
214
100
AcDbEntity
  8
0
 62
7
100
AcDbSpline
 70
8
 71
3
 72
8
 73
4
 74
0
 40
0
 40
0
 40
0
 40
0
 40
1
 40
1
 40
1
 40
1
 10
180.992476
 20
127.844018
 30
0.0
 10
180.992476
 20
123.556831
 30
0.0
 10
183.279663
 20
119.595306
 30
0.0
 10
186.992476
 20
117.451713
 30
0.0
  0
SPLINE
  5
215
100
AcDbEntity
  8
0
 62
7
100
AcDbSpline
 70
8
 71
3
 72
8
 73
4
 74
0
 40
0
 40
0
 40
0
 40
0
 40
1
 40
1
 40
1
 40
1
 10
186.992476
 20
117.451713
 30
0.0
 10
190.705290
 20
115.308119
 30
0.0
 10
195.279664
 20
115.308119
 30
0.0
 10
198.992477
 20
117.451713
 30
0.0
  0
SPLINE
  5
216
100
AcDbEntity
  8
0
 62
7
100
AcDbSpline
 70
8
 71
3
 72
8
 73
4
 74
0
 40
0
 40
0
 40
0
 40
0
 40
1
 40
1
 40
1
 40
1
 10
198.992477
 20
117.451713
 30
0.0
 10
202.705291
 20
119.595306
 30
0.0
 10
204.992478
 20
123.556831
 30
0.0
 10
204.992478
 20
127.844018
 30
0.0
  0
LWPOLYLINE
  5
217
100
AcDbEntity
  8
0
 62
7
100
AcDbPolyline
 90
1
 70
1
 10
175.007524
 20
127.844018
 30
0.0
  0
LWPOLYLINE
  5
218
100
AcDbEntity
  8
0
 62
7
100
AcDbPolyline
 90
1
 70
1
 10
204.992478
 20
127.844018
 30
0.0
  0
SPLINE
  5
219
100
AcDbEntity
  8
0
 62
7
100
AcDbSpline
 70
8
 71
3
 72
8
 73
4
 74
0
 40
0
 40
0
 40
0
 40
0
 40
1
 40
1
 40
1
 40
1
 10
51.334233
 20
150.850701
 30
0.0
 10
51.334921
 20
152.101589
 30
0.0
 10
50.667976
 20
153.257751
 30
0.0
 10
49.584789
 20
153.883394
 30
0.0
  0
SPLINE
  5
21a
100
AcDbEntity
  8
0
 62
7
100
AcDbSpline
 70
8
 71
3
 72
8
 73
4
 74
0
 40
0
 40
0
 40
0
 40
0
 40
1
 40
1
 40
1
 40
1
 10
49.584789
 20
153.883394
 30
0.0
 10
48.501603
 20
154.509036
 30
0.0
 10
47.166864
 20
154.509036
 30
0.0
 10
46.083678
 20
153.883394
 30
0.0
  0
SPLINE
  5
21b
100
AcDbEntity
  8
0
 62
7
100
AcDbSpline
 70
8
 71
3
 72
8
 73
4
 74
0
 40
0
 40
0
 40
0
 40
0
 40
1
 40
1
 40
1
 40
1
 10
46.083678
 20
153.883394
 30
0.0
 10
45.000492
 20
153.257751
 30
0.0
 10
44.333546
 20
152.101589
 30
0.0
 10
44.334234
 20
150.850701
 30
0.0
  0
SPLINE
  5
21c
100
AcDbEntity
  8
0
 62
7
100
AcDbSpline
 70
8
 71
3
 72
8
 73
4
 74
0
 40
0
 40
0
 40
0
 40
0
 40
1
 40
1
 40
1
 40
1
 10
44.334234
 20
150.850701
 30
0.0
 10
44.333748
 20
149.599947
 30
0.0
 10
45.000738
 20
148.443995
 30
0.0
 10
46.083841
 20
147.818478
 30
0.0
  0
SPLINE
  5
21d
100
AcDbEntity
  8
0
 62
7
100
AcDbSpline
 70
8
 71
3
 72
8
 73
4
 74
0
 40
0
 40
0
 40
0
 40
0
 40
1
 40
1
 40
1
 40
1
 10
46.083841
 20
147.818478
 30
0.0
 10
47.166944
 20
147.192961
 30
0.0
 10
48.501523
 20
147.192961
 30
0.0
 10
49.584627
 20
147.818478
 30
0.0
  0
SPLINE
  5
21e
100
AcDbEntity
  8
0
 62
7
100
AcDbSpline
 70
8
 71
3
 72
8
 73
4
 74
0
 40
0
 40
0
 40
0
 40
0
 40
1
 40
1
 40
1
 40
1
 10
49.584627
 20
147.818478
 30
0.0
 10
50.667730
 20
148.443995
 30
0.0
 10
51.334720
 20
149.599947
 30
0.0
 10
51.334233
 20
150.850701
 30
0.0
  0
LWPOLYLINE
  5
21f
100
AcDbEntity
  8
0
 62
7
100
AcDbPolyline
 90
4
 70
1
 10
39.134235
 20
149.350701
 30
0.0
 10
40.934233
 20
149.350701
 30
0.0
 10
40.934233
 20
152.350700
 30
0.0
 10
39.134235
 20
152.350700
 30
0.0
  0
LWPOLYLINE
  5
220
100
AcDbEntity
  8
0
 62
7
100
AcDbPolyline
 90
1
 70
1
 10
51.334233
 20
150.850701
 30
0.0
  0
SPLINE
  5
221
100
AcDbEntity
  8
0
 62
7
100
AcDbSpline
 70
8
 71
3
 72
8
 73
4
 74
0
 40
0
 40
0
 40
0
 40
0
 40
1
 40
1
 40
1
 40
1
 10
81.220072
 20
153.465374
 30
0.0
 10
81.220558
 20
154.716128
 30
0.0
 10
80.553568
 20
155.872080
 30
0.0
 10
79.470465
 20
156.497597
 30
0.0
  0
SPLINE
  5
222
100
AcDbEntity
  8
0
 62
7
100
AcDbSpline
 70
8
 71
3
 72
8
 73
4
 74
0
 40
0
 40
0
 40
0
 40
0
 40
1
 40
1
 40
1
 40
1
 10
79.470465
 20
156.497597
 30
0.0
 10
78.387362
 20
157.123114
 30
0.0
 10
77.052783
 20
157.123114
 30
0.0
 10
75.969679
 20
156.497597
 30
0.0
  0
SPLINE
  5
223
100
AcDbEntity
  8
0
 62
7
100
AcDbSpline
 70
8
 71
3
 72
8
 73
4
 74
0
 40
0
 40
0
 40
0
 40
0
 40
1
 40
1
 40
1
 40
1
 10
75.969679
 20
156.497597
 30
0.0
 10
74.886576
 20
155.872080
 30
0.0
 10
74.219586
 20
154.716128
 30
0.0
 10
74.220073
 20
153.465374
 30
0.0
  0
SPLINE
  5
224
100
AcDbEntity
  8
0
 62
7
100
AcDbSpline
 70
8
 71
3
 72
8
 73
4
 74
0
 40
0
 40
0
 40
0
 40
0
 40
1
 40
1
 40
1
 40
1
 10
74.220073
 20
153.465374
 30
0.0
 10
74.219586
 20
152.214620
 30
0.0
 10
74.886576
 20
151.058668
 30
0.0
 10
75.969679
 20
150.433151
 30
0.0
  0
SPLINE
  5
225
100
AcDbEntity
  8
0
 62
7
100
AcDbSpline
 70
8
 71
3
 72
8
 73
4
 74
0
 40
0
 40
0
 40
0
 40
0
 40
1
 40
1
 40
1
 40
1
 10
75.969679
 20
150.433151
 30
0.0
 10
77.052783
 20
149.807634
 30
0.0
 10
78.387362
 20
149.807634
 30
0.0
 10
79.470465
 20
150.433151
 30
0.0
  0
SPLINE
  5
226
100
AcDbEntity
  8
0
 62
7
100
AcDbSpline
 70
8
 71
3
 72
8
 73
4
 74
0
 40
0
 40
0
 40
0
 40
0
 40
1
 40
1
 40
1
 40
1
 10
79.470465
 20
150.433151
 30
0.0
 10
80.553568
 20
151.058668
 30
0.0
 10
81.220558
 20
152.214620
 30
0.0
 10
81.220072
 20
153.465374
 30
0.0
  0
LWPOLYLINE
  5
227
100
AcDbEntity
  8
0
 62
7
100
AcDbPolyline
 90
4
 70
1
 10
69.020071
 20
151.965374
 30
0.0
 10
70.820071
 20
151.965374
 30
0.0
 10
70.820071
 20
154.965374
 30
0.0
 10
69.020071
 20
154.965374
 30
0.0
  0
LWPOLYLINE
  5
228
100
AcDbEntity
  8
0
 62
7
100
AcDbPolyline
 90
1
 70
1
 10
81.220072
 20
153.465374
 30
0.0
  0
SPLINE
  5
229
100
AcDbEntity
  8
0
 62
7
100
AcDbSpline
 70
8
 71
3
 72
8
 73
4
 74
0
 40
0
 40
0
 40
0
 40
0
 40
1
 40
1
 40
1
 40
1
 10
111.105913
 20
156.080045
 30
0.0
 10
111.106601
 20
157.330933
 30
0.0
 10
110.439655
 20
158.487095
 30
0.0
 10
109.356469
 20
159.112738
 30
0.0
  0
SPLINE
  5
22a
100
AcDbEntity
  8
0
 62
7
100
AcDbSpline
 70
8
 71
3
 72
8
 73
4
 74
0
 40
0
 40
0
 40
0
 40
0
 40
1
 40
1
 40
1
 40
1
 10
109.356469
 20
159.112738
 30
0.0
 10
108.273283
 20
159.738380
 30
0.0
 10
106.938544
 20
159.738380
 30
0.0
 10
105.855358
 20
159.112738
 30
0.0
  0
SPLINE
  5
22b
100
AcDbEntity
  8
0
 62
7
100
AcDbSpline
 70
8
 71
3
 72
8
 73
4
 74
0
 40
0
 40
0
 40
0
 40
0
 40
1
 40
1
 40
1
 40
1
 10
105.855358
 20
159.112738
 30
0.0
 10
104.772172
 20
158.487095
 30
0.0
 10
104.105226
 20
157.330933
 30
0.0
 10
104.105914
 20
156.080045
 30
0.0
  0
SPLINE
  5
22c
100
AcDbEntity
  8
0
 62
7
100
AcDbSpline
 70
8
 71
3
 72
8
 73
4
 74
0
 40
0
 40
0
 40
0
 40
0
 40
1
 40
1
 40
1
 40
1
 10
104.105914
 20
156.080045
 30
0.0
 10
104.105427
 20
154.829291
 30
0.0
 10
104.772417
 20
153.673339
 30
0.0
 10
105.855521
 20
153.047822
 30
0.0
  0
SPLINE
  5
22d
100
AcDbEntity
  8
0
 62
7
100
AcDbSpline
 70
8
 71
3
 72
8
 73
4
 74
0
 40
0
 40
0
 40
0
 40
0
 40
1
 40
1
 40
1
 40
1
 10
105.855521
 20
153.047822
 30
0.0
 10
106.938624
 20
152.422305
 30
0.0
 10
108.273203
 20
152.422305
 30
0.0
 10
109.356306
 20
153.047822
 30
0.0
  0
SPLINE
  5
22e
100
AcDbEntity
  8
0
 62
7
100
AcDbSpline
 70
8
 71
3
 72
8
 73
4
 74
0
 40
0
 40
0
 40
0
 40
0
 40
1
 40
1
 40
1
 40
1
 10
109.356306
 20
153.047822
 30
0.0
 10
110.439410
 20
153.673339
 30
0.0
 10
111.106399
 20
154.829291
 30
0.0
 10
111.105913
 20
156.080045
 30
0.0
  0
LWPOLYLINE
  5
22f
100
AcDbEntity
  8
0
 62
7
100
AcDbPolyline
 90
4
 70
1
 10
98.905915
 20
154.580045
 30
0.0
 10
100.705912
 20
154.580045
 30
0.0
 10
100.705912
 20
157.580047
 30
0.0
 10
98.905915
 20
157.580047
 30
0.0
  0
LWPOLYLINE
  5
230
100
AcDbEntity
  8
0
 62
7
100
AcDbPolyline
 90
1
 70
1
 10
111.105913
 20
156.080045
 30
0.0
  0
SPLINE
  5
231
100
AcDbEntity
  8
0
 62
7
100
AcDbSpline
 70
8
 71
3
 72
8
 73
4
 74
0
 40
0
 40
0
 40
0
 40
0
 40
1
 40
1
 40
1
 40
1
 10
140.991754
 20
158.694715
 30
0.0
 10
140.992240
 20
159.945469
 30
0.0
 10
140.325251
 20
161.101421
 30
0.0
 10
139.242147
 20
161.726938
 30
0.0
  0
SPLINE
  5
232
100
AcDbEntity
  8
0
 62
7
100
AcDbSpline
 70
8
 71
3
 72
8
 73
4
 74
0
 40
0
 40
0
 40
0
 40
0
 40
1
 40
1
 40
1
 40
1
 10
139.242147
 20
161.726938
 30
0.0
 10
138.159044
 20
162.352456
 30
0.0
 10
136.824465
 20
162.352456
 30
0.0
 10
135.741362
 20
161.726938
 30
0.0
  0
SPLINE
  5
233
100
AcDbEntity
  8
0
 62
7
100
AcDbSpline
 70
8
 71
3
 72
8
 73
4
 74
0
 40
0
 40
0
 40
0
 40
0
 40
1
 40
1
 40
1
 40
1
 10
135.741362
 20
161.726938
 30
0.0
 10
134.658258
 20
161.101421
 30
0.0
 10
133.991268
 20
159.945469
 30
0.0
 10
133.991755
 20
158.694715
 30
0.0
  0
SPLINE
  5
234
100
AcDbEntity
  8
0
 62
7
100
AcDbSpline
 70
8
 71
3
 72
8
 73
4
 74
0
 40
0
 40
0
 40
0
 40
0
 40
1
 40
1
 40
1
 40
1
 10
133.991755
 20
158.694715
 30
0.0
 10
133.991067
 20
157.443828
 30
0.0
 10
134.658013
 20
156.287665
 30
0.0
 10
135.741199
 20
155.662023
 30
0.0
  0
SPLINE
  5
235
100
AcDbEntity
  8
0
 62
7
100
AcDbSpline
 70
8
 71
3
 72
8
 73
4
 74
0
 40
0
 40
0
 40
0
 40
0
 40
1
 40
1
 40
1
 40
1
 10
135.741199
 20
155.662023
 30
0.0
 10
136.824385
 20
155.036380
 30
0.0
 10
138.159124
 20
155.036380
 30
0.0
 10
139.242310
 20
155.662023
 30
0.0
  0
SPLINE
  5
236
100
AcDbEntity
  8
0
 62
7
100
AcDbSpline
 70
8
 71
3
 72
8
 73
4
 74
0
 40
0
 40
0
 40
0
 40
0
 40
1
 40
1
 40
1
 40
1
 10
139.242310
 20
155.662023
 30
0.0
 10
140.325496
 20
156.287665
 30
0.0
 10
140.992442
 20
157.443828
 30
0.0
 10
140.991754
 20
158.694715
 30
0.0
  0
LWPOLYLINE
  5
237
100
AcDbEntity
  8
0
 62
7
100
AcDbPolyline
 90
4
 70
1
 10
128.791753
 20
157.194718
 30
0.0
 10
130.591753
 20
157.194718
 30
0.0
 10
130.591753
 20
160.194718
 30
0.0
 10
128.791753
 20
160.194718
 30
0.0
  0
LWPOLYLINE
  5
238
100
AcDbEntity
  8
0
 62
7
100
AcDbPolyline
 90
1
 70
1
 10
140.991754
 20
158.694715
 30
0.0
  0
SPLINE
  5
239
100
AcDbEntity
  8
0
 62
7
100
AcDbSpline
 70
8
 71
3
 72
8
 73
4
 74
0
 40
0
 40
0
 40
0
 40
0
 40
1
 40
1
 40
1
 40
1
 10
311.665779
 20
150.850701
 30
0.0
 10
311.665779
 20
152.101131
 30
0.0
 10
310.998682
 20
153.256575
 30
0.0
 10
309.915778
 20
153.881790
 30
0.0
  0
SPLINE
  5
23a
100
AcDbEntity
  8
0
 62
7
100
AcDbSpline
 70
8
 71
3
 72
8
 73
4
 74
0
 40
0
 40
0
 40
0
 40
0
 40
1
 40
1
 40
1
 40
1
 10
309.915778
 20
153.881790
 30
0.0
 10
308.832874
 20
154.507005
 30
0.0
 10
307.498681
 20
154.507005
 30
0.0
 10
306.415777
 20
153.881790
 30
0.0
  0
SPLINE
  5
23b
100
AcDbEntity
  8
0
 62
7
100
AcDbSpline
 70
8
 71
3
 72
8
 73
4
 74
0
 40
0
 40
0
 40
0
 40
0
 40
1
 40
1
 40
1
 40
1
 10
306.415777
 20
153.881790
 30
0.0
 10
305.332873
 20
153.256575
 30
0.0
 10
304.665777
 20
152.101131
 30
0.0
 10
304.665777
 20
150.850701
 30
0.0
  0
SPLINE
  5
23c
100
AcDbEntity
  8
0
 62
7
100
AcDbSpline
 70
8
 71
3
 72
8
 73
4
 74
0
 40
0
 40
0
 40
0
 40
0
 40
1
 40
1
 40
1
 40
1
 10
304.665777
 20
150.850701
 30
0.0
 10
304.665777
 20
149.600271
 30
0.0
 10
305.332873
 20
148.444826
 30
0.0
 10
306.415777
 20
147.819611
 30
0.0
  0
SPLINE
  5
23d
100
AcDbEntity
  8
0
 62
7
100
AcDbSpline
 70
8
 71
3
 72
8
 73
4
 74
0
 40
0
 40
0
 40
0
 40
0
 40
1
 40
1
 40
1
 40
1
 10
306.415777
 20
147.819611
 30
0.0
 10
307.498681
 20
147.194396
 30
0.0
 10
308.832874
 20
147.194396
 30
0.0
 10
309.915778
 20
147.819611
 30
0.0
  0
SPLINE
  5
23e
100
AcDbEntity
  8
0
 62
7
100
AcDbSpline
 70
8
 71
3
 72
8
 73
4
 74
0
 40
0
 40
0
 40
0
 40
0
 40
1
 40
1
 40
1
 40
1
 10
309.915778
 20
147.819611
 30
0.0
 10
310.998682
 20
148.444826
 30
0.0
 10
311.665779
 20
149.600271
 30
0.0
 10
311.665779
 20
150.850701
 30
0.0
  0
LWPOLYLINE
  5
23f
100
AcDbEntity
  8
0
 62
7
100
AcDbPolyline
 90
4
 70
1
 10
299.465762
 20
152.350700
 30
0.0
 10
299.465762
 20
149.350701
 30
0.0
 10
301.265775
 20
149.350701
 30
0.0
 10
301.265775
 20
152.350700
 30
0.0
  0
LWPOLYLINE
  5
240
100
AcDbEntity
  8
0
 62
7
100
AcDbPolyline
 90
1
 70
1
 10
311.665779
 20
150.850701
 30
0.0
  0
SPLINE
  5
241
100
AcDbEntity
  8
0
 62
7
100
AcDbSpline
 70
8
 71
3
 72
8
 73
4
 74
0
 40
0
 40
0
 40
0
 40
0
 40
1
 40
1
 40
1
 40
1
 10
281.779927
 20
153.465374
 30
0.0
 10
281.779927
 20
154.715804
 30
0.0
 10
281.112831
 20
155.871249
 30
0.0
 10
280.029927
 20
156.496464
 30
0.0
  0
SPLINE
  5
242
100
AcDbEntity
  8
0
 62
7
100
AcDbSpline
 70
8
 71
3
 72
8
 73
4
 74
0
 40
0
 40
0
 40
0
 40
0
 40
1
 40
1
 40
1
 40
1
 10
280.029927
 20
156.496464
 30
0.0
 10
278.947023
 20
157.121679
 30
0.0
 10
277.612830
 20
157.121679
 30
0.0
 10
276.529926
 20
156.496464
 30
0.0
  0
SPLINE
  5
243
100
AcDbEntity
  8
0
 62
7
100
AcDbSpline
 70
8
 71
3
 72
8
 73
4
 74
0
 40
0
 40
0
 40
0
 40
0
 40
1
 40
1
 40
1
 40
1
 10
276.529926
 20
156.496464
 30
0.0
 10
275.447022
 20
155.871249
 30
0.0
 10
274.779925
 20
154.715804
 30
0.0
 10
274.779925
 20
153.465374
 30
0.0
  0
SPLINE
  5
244
100
AcDbEntity
  8
0
 62
7
100
AcDbSpline
 70
8
 71
3
 72
8
 73
4
 74
0
 40
0
 40
0
 40
0
 40
0
 40
1
 40
1
 40
1
 40
1
 10
274.779925
 20
153.465374
 30
0.0
 10
274.779925
 20
152.214944
 30
0.0
 10
275.447022
 20
151.059499
 30
0.0
 10
276.529926
 20
150.434284
 30
0.0
  0
SPLINE
  5
245
100
AcDbEntity
  8
0
 62
7
100
AcDbSpline
 70
8
 71
3
 72
8
 73
4
 74
0
 40
0
 40
0
 40
0
 40
0
 40
1
 40
1
 40
1
 40
1
 10
276.529926
 20
150.434284
 30
0.0
 10
277.612830
 20
149.809069
 30
0.0
 10
278.947023
 20
149.809069
 30
0.0
 10
280.029927
 20
150.434284
 30
0.0
  0
SPLINE
  5
246
100
AcDbEntity
  8
0
 62
7
100
AcDbSpline
 70
8
 71
3
 72
8
 73
4
 74
0
 40
0
 40
0
 40
0
 40
0
 40
1
 40
1
 40
1
 40
1
 10
280.029927
 20
150.434284
 30
0.0
 10
281.112831
 20
151.059499
 30
0.0
 10
281.779927
 20
152.214944
 30
0.0
 10
281.779927
 20
153.465374
 30
0.0
  0
LWPOLYLINE
  5
247
100
AcDbEntity
  8
0
 62
7
100
AcDbPolyline
 90
4
 70
1
 10
269.579937
 20
154.965374
 30
0.0
 10
269.579937
 20
151.965374
 30
0.0
 10
271.379924
 20
151.965374
 30
0.0
 10
271.379924
 20
154.965374
 30
0.0
  0
LWPOLYLINE
  5
248
100
AcDbEntity
  8
0
 62
7
100
AcDbPolyline
 90
1
 70
1
 10
281.779927
 20
153.465374
 30
0.0
  0
SPLINE
  5
249
100
AcDbEntity
  8
0
 62
7
100
AcDbSpline
 70
8
 71
3
 72
8
 73
4
 74
0
 40
0
 40
0
 40
0
 40
0
 40
1
 40
1
 40
1
 40
1
 10
251.894086
 20
156.080045
 30
0.0
 10
251.894774
 20
157.330933
 30
0.0
 10
251.227828
 20
158.487095
 30
0.0
 10
250.144642
 20
159.112738
 30
0.0
  0
SPLINE
  5
24a
100
AcDbEntity
  8
0
 62
7
100
AcDbSpline
 70
8
 71
3
 72
8
 73
4
 74
0
 40
0
 40
0
 40
0
 40
0
 40
1
 40
1
 40
1
 40
1
 10
250.144642
 20
159.112738
 30
0.0
 10
249.061456
 20
159.738380
 30
0.0
 10
247.726717
 20
159.738380
 30
0.0
 10
246.643531
 20
159.112738
 30
0.0
  0
SPLINE
  5
24b
100
AcDbEntity
  8
0
 62
7
100
AcDbSpline
 70
8
 71
3
 72
8
 73
4
 74
0
 40
0
 40
0
 40
0
 40
0
 40
1
 40
1
 40
1
 40
1
 10
246.643531
 20
159.112738
 30
0.0
 10
245.560345
 20
158.487095
 30
0.0
 10
244.893399
 20
157.330933
 30
0.0
 10
244.894087
 20
156.080045
 30
0.0
  0
SPLINE
  5
24c
100
AcDbEntity
  8
0
 62
7
100
AcDbSpline
 70
8
 71
3
 72
8
 73
4
 74
0
 40
0
 40
0
 40
0
 40
0
 40
1
 40
1
 40
1
 40
1
 10
244.894087
 20
156.080045
 30
0.0
 10
244.893399
 20
154.829157
 30
0.0
 10
245.560345
 20
153.672995
 30
0.0
 10
246.643531
 20
153.047352
 30
0.0
  0
SPLINE
  5
24d
100
AcDbEntity
  8
0
 62
7
100
AcDbSpline
 70
8
 71
3
 72
8
 73
4
 74
0
 40
0
 40
0
 40
0
 40
0
 40
1
 40
1
 40
1
 40
1
 10
246.643531
 20
153.047352
 30
0.0
 10
247.726717
 20
152.421709
 30
0.0
 10
249.061456
 20
152.421709
 30
0.0
 10
250.144642
 20
153.047352
 30
0.0
  0
SPLINE
  5
24e
100
AcDbEntity
  8
0
 62
7
100
AcDbSpline
 70
8
 71
3
 72
8
 73
4
 74
0
 40
0
 40
0
 40
0
 40
0
 40
1
 40
1
 40
1
 40
1
 10
250.144642
 20
153.047352
 30
0.0
 10
251.227828
 20
153.672995
 30
0.0
 10
251.894774
 20
154.829157
 30
0.0
 10
251.894086
 20
156.080045
 30
0.0
  0
LWPOLYLINE
  5
24f
100
AcDbEntity
  8
0
 62
7
100
AcDbPolyline
 90
4
 70
1
 10
239.694088
 20
157.580047
 30
0.0
 10
239.694088
 20
154.580045
 30
0.0
 10
241.494088
 20
154.580045
 30
0.0
 10
241.494088
 20
157.580047
 30
0.0
  0
LWPOLYLINE
  5
250
100
AcDbEntity
  8
0
 62
7
100
AcDbPolyline
 90
1
 70
1
 10
251.894086
 20
156.080045
 30
0.0
  0
SPLINE
  5
251
100
AcDbEntity
  8
0
 62
7
100
AcDbSpline
 70
8
 71
3
 72
8
 73
4
 74
0
 40
0
 40
0
 40
0
 40
0
 40
1
 40
1
 40
1
 40
1
 10
222.008245
 20
158.694718
 30
0.0
 10
222.008731
 20
159.945472
 30
0.0
 10
221.341741
 20
161.101424
 30
0.0
 10
220.258638
 20
161.726941
 30
0.0
  0
SPLINE
  5
252
100
AcDbEntity
  8
0
 62
7
100
AcDbSpline
 70
8
 71
3
 72
8
 73
4
 74
0
 40
0
 40
0
 40
0
 40
0
 40
1
 40
1
 40
1
 40
1
 10
220.258638
 20
161.726941
 30
0.0
 10
219.175535
 20
162.352458
 30
0.0
 10
217.840956
 20
162.352458
 30
0.0
 10
216.757853
 20
161.726941
 30
0.0
  0
SPLINE
  5
253
100
AcDbEntity
  8
0
 62
7
100
AcDbSpline
 70
8
 71
3
 72
8
 73
4
 74
0
 40
0
 40
0
 40
0
 40
0
 40
1
 40
1
 40
1
 40
1
 10
216.757853
 20
161.726941
 30
0.0
 10
215.674749
 20
161.101424
 30
0.0
 10
215.007759
 20
159.945472
 30
0.0
 10
215.008246
 20
158.694718
 30
0.0
  0
SPLINE
  5
254
100
AcDbEntity
  8
0
 62
7
100
AcDbSpline
 70
8
 71
3
 72
8
 73
4
 74
0
 40
0
 40
0
 40
0
 40
0
 40
1
 40
1
 40
1
 40
1
 10
215.008246
 20
158.694718
 30
0.0
 10
215.007759
 20
157.443965
 30
0.0
 10
215.674749
 20
156.288012
 30
0.0
 10
216.757853
 20
155.662495
 30
0.0
  0
SPLINE
  5
255
100
AcDbEntity
  8
0
 62
7
100
AcDbSpline
 70
8
 71
3
 72
8
 73
4
 74
0
 40
0
 40
0
 40
0
 40
0
 40
1
 40
1
 40
1
 40
1
 10
216.757853
 20
155.662495
 30
0.0
 10
217.840956
 20
155.036978
 30
0.0
 10
219.175535
 20
155.036978
 30
0.0
 10
220.258638
 20
155.662495
 30
0.0
  0
SPLINE
  5
256
100
AcDbEntity
  8
0
 62
7
100
AcDbSpline
 70
8
 71
3
 72
8
 73
4
 74
0
 40
0
 40
0
 40
0
 40
0
 40
1
 40
1
 40
1
 40
1
 10
220.258638
 20
155.662495
 30
0.0
 10
221.341741
 20
156.288012
 30
0.0
 10
222.008731
 20
157.443965
 30
0.0
 10
222.008245
 20
158.694718
 30
0.0
  0
LWPOLYLINE
  5
257
100
AcDbEntity
  8
0
 62
7
100
AcDbPolyline
 90
4
 70
1
 10
209.808247
 20
160.194718
 30
0.0
 10
209.808247
 20
157.194718
 30
0.0
 10
211.608247
 20
157.194718
 30
0.0
 10
211.608247
 20
160.194718
 30
0.0
  0
SPLINE
  5
258
100
AcDbEntity
  8
0
 62
7
100
AcDbSpline
 70
8
 71
3
 72
8
 73
4
 74
0
 40
0
 40
0
 40
0
 40
0
 40
1
 40
1
 40
1
 40
1
 10
351.600003
 20
101.493855
 30
0.0
 10
351.600003
 20
102.065480
 30
0.0
 10
351.295044
 20
102.593684
 30
0.0
 10
350.800002
 20
102.879497
 30
0.0
  0
SPLINE
  5
259
100
AcDbEntity
  8
0
 62
7
100
AcDbSpline
 70
8
 71
3
 72
8
 73
4
 74
0
 40
0
 40
0
 40
0
 40
0
 40
1
 40
1
 40
1
 40
1
 10
350.800002
 20
102.879497
 30
0.0
 10
350.304960
 20
103.165310
 30
0.0
 10
349.695043
 20
103.165310
 30
0.0
 10
349.200000
 20
102.879497
 30
0.0
  0
SPLINE
  5
25a
100
AcDbEntity
  8
0
 62
7
100
AcDbSpline
 70
8
 71
3
 72
8
 73
4
 74
0
 40
0
 40
0
 40
0
 40
0
 40
1
 40
1
 40
1
 40
1
 10
349.200000
 20
102.879497
 30
0.0
 10
348.704958
 20
102.593684
 30
0.0
 10
348.399999
 20
102.065480
 30
0.0
 10
348.400000
 20
101.493855
 30
0.0
  0
SPLINE
  5
25b
100
AcDbEntity
  8
0
 62
7
100
AcDbSpline
 70
8
 71
3
 72
8
 73
4
 74
0
 40
0
 40
0
 40
0
 40
0
 40
1
 40
1
 40
1
 40
1
 10
348.400000
 20
101.493855
 30
0.0
 10
348.399999
 20
100.922229
 30
0.0
 10
348.704958
 20
100.394025
 30
0.0
 10
349.200000
 20
100.108212
 30
0.0
  0
SPLINE
  5
25c
100
AcDbEntity
  8
0
 62
7
100
AcDbSpline
 70
8
 71
3
 72
8
 73
4
 74
0
 40
0
 40
0
 40
0
 40
0
 40
1
 40
1
 40
1
 40
1
 10
349.200000
 20
100.108212
 30
0.0
 10
349.695043
 20
99.822400
 30
0.0
 10
350.304960
 20
99.822400
 30
0.0
 10
350.800002
 20
100.108212
 30
0.0
  0
SPLINE
  5
25d
100
AcDbEntity
  8
0
 62
7
100
AcDbSpline
 70
8
 71
3
 72
8
 73
4
 74
0
 40
0
 40
0
 40
0
 40
0
 40
1
 40
1
 40
1
 40
1
 10
350.800002
 20
100.108212
 30
0.0
 10
351.295044
 20
100.394025
 30
0.0
 10
351.600003
 20
100.922229
 30
0.0
 10
351.600003
 20
101.493855
 30
0.0
  0
LWPOLYLINE
  5
25e
100
AcDbEntity
  8
0
 62
7
100
AcDbPolyline
 90
1
 70
1
 10
222.008245
 20
158.694718
 30
0.0
  0
SPLINE
  5
25f
100
AcDbEntity
  8
0
 62
7
100
AcDbSpline
 70
8
 71
3
 72
8
 73
4
 74
0
 40
0
 40
0
 40
0
 40
0
 40
1
 40
1
 40
1
 40
1
 10
351.600003
 20
71.379260
 30
0.0
 10
351.600003
 20
71.950886
 30
0.0
 10
351.295044
 20
72.479089
 30
0.0
 10
350.800002
 20
72.764902
 30
0.0
  0
SPLINE
  5
260
100
AcDbEntity
  8
0
 62
7
100
AcDbSpline
 70
8
 71
3
 72
8
 73
4
 74
0
 40
0
 40
0
 40
0
 40
0
 40
1
 40
1
 40
1
 40
1
 10
350.800002
 20
72.764902
 30
0.0
 10
350.304960
 20
73.050715
 30
0.0
 10
349.695043
 20
73.050715
 30
0.0
 10
349.200000
 20
72.764902
 30
0.0
  0
SPLINE
  5
261
100
AcDbEntity
  8
0
 62
7
100
AcDbSpline
 70
8
 71
3
 72
8
 73
4
 74
0
 40
0
 40
0
 40
0
 40
0
 40
1
 40
1
 40
1
 40
1
 10
349.200000
 20
72.764902
 30
0.0
 10
348.704958
 20
72.479089
 30
0.0
 10
348.399999
 20
71.950886
 30
0.0
 10
348.400000
 20
71.379260
 30
0.0
  0
SPLINE
  5
262
100
AcDbEntity
  8
0
 62
7
100
AcDbSpline
 70
8
 71
3
 72
8
 73
4
 74
0
 40
0
 40
0
 40
0
 40
0
 40
1
 40
1
 40
1
 40
1
 10
348.400000
 20
71.379260
 30
0.0
 10
348.399999
 20
70.807635
 30
0.0
 10
348.704958
 20
70.279431
 30
0.0
 10
349.200000
 20
69.993618
 30
0.0
  0
SPLINE
  5
263
100
AcDbEntity
  8
0
 62
7
100
AcDbSpline
 70
8
 71
3
 72
8
 73
4
 74
0
 40
0
 40
0
 40
0
 40
0
 40
1
 40
1
 40
1
 40
1
 10
349.200000
 20
69.993618
 30
0.0
 10
349.695043
 20
69.707805
 30
0.0
 10
350.304960
 20
69.707805
 30
0.0
 10
350.800002
 20
69.993618
 30
0.0
  0
SPLINE
  5
264
100
AcDbEntity
  8
0
 62
7
100
AcDbSpline
 70
8
 71
3
 72
8
 73
4
 74
0
 40
0
 40
0
 40
0
 40
0
 40
1
 40
1
 40
1
 40
1
 10
350.800002
 20
69.993618
 30
0.0
 10
351.295044
 20
70.279431
 30
0.0
 10
351.600003
 20
70.807635
 30
0.0
 10
351.600003
 20
71.379260
 30
0.0
  0
LWPOLYLINE
  5
265
100
AcDbEntity
  8
0
 62
7
100
AcDbPolyline
 90
1
 70
1
 10
351.600003
 20
101.493855
 30
0.0
  0
SPLINE
  5
266
100
AcDbEntity
  8
0
 62
7
100
AcDbSpline
 70
8
 71
3
 72
8
 73
4
 74
0
 40
0
 40
0
 40
0
 40
0
 40
1
 40
1
 40
1
 40
1
 10
351.600003
 20
41.264666
 30
0.0
 10
351.600003
 20
41.836291
 30
0.0
 10
351.295044
 20
42.364495
 30
0.0
 10
350.800002
 20
42.650308
 30
0.0
  0
SPLINE
  5
267
100
AcDbEntity
  8
0
 62
7
100
AcDbSpline
 70
8
 71
3
 72
8
 73
4
 74
0
 40
0
 40
0
 40
0
 40
0
 40
1
 40
1
 40
1
 40
1
 10
350.800002
 20
42.650308
 30
0.0
 10
350.304960
 20
42.936121
 30
0.0
 10
349.695043
 20
42.936121
 30
0.0
 10
349.200000
 20
42.650308
 30
0.0
  0
SPLINE
  5
268
100
AcDbEntity
  8
0
 62
7
100
AcDbSpline
 70
8
 71
3
 72
8
 73
4
 74
0
 40
0
 40
0
 40
0
 40
0
 40
1
 40
1
 40
1
 40
1
 10
349.200000
 20
42.650308
 30
0.0
 10
348.704958
 20
42.364495
 30
0.0
 10
348.399999
 20
41.836291
 30
0.0
 10
348.400000
 20
41.264666
 30
0.0
  0
SPLINE
  5
269
100
AcDbEntity
  8
0
 62
7
100
AcDbSpline
 70
8
 71
3
 72
8
 73
4
 74
0
 40
0
 40
0
 40
0
 40
0
 40
1
 40
1
 40
1
 40
1
 10
348.400000
 20
41.264666
 30
0.0
 10
348.399999
 20
40.693040
 30
0.0
 10
348.704958
 20
40.164836
 30
0.0
 10
349.200000
 20
39.879023
 30
0.0
  0
SPLINE
  5
26a
100
AcDbEntity
  8
0
 62
7
100
AcDbSpline
 70
8
 71
3
 72
8
 73
4
 74
0
 40
0
 40
0
 40
0
 40
0
 40
1
 40
1
 40
1
 40
1
 10
349.200000
 20
39.879023
 30
0.0
 10
349.695043
 20
39.593211
 30
0.0
 10
350.304960
 20
39.593211
 30
0.0
 10
350.800002
 20
39.879023
 30
0.0
  0
SPLINE
  5
26b
100
AcDbEntity
  8
0
 62
7
100
AcDbSpline
 70
8
 71
3
 72
8
 73
4
 74
0
 40
0
 40
0
 40
0
 40
0
 40
1
 40
1
 40
1
 40
1
 10
350.800002
 20
39.879023
 30
0.0
 10
351.295044
 20
40.164836
 30
0.0
 10
351.600003
 20
40.693040
 30
0.0
 10
351.600003
 20
41.264666
 30
0.0
  0
LWPOLYLINE
  5
26c
100
AcDbEntity
  8
0
 62
7
100
AcDbPolyline
 90
1
 70
1
 10
351.600003
 20
71.379260
 30
0.0
  0
SPLINE
  5
26d
100
AcDbEntity
  8
0
 62
7
100
AcDbSpline
 70
8
 71
3
 72
8
 73
4
 74
0
 40
0
 40
0
 40
0
 40
0
 40
1
 40
1
 40
1
 40
1
 10
7.600000
 20
101.493855
 30
0.0
 10
7.600000
 20
102.065480
 30
0.0
 10
7.295042
 20
102.593683
 30
0.0
 10
6.800000
 20
102.879495
 30
0.0
  0
SPLINE
  5
26e
100
AcDbEntity
  8
0
 62
7
100
AcDbSpline
 70
8
 71
3
 72
8
 73
4
 74
0
 40
0
 40
0
 40
0
 40
0
 40
1
 40
1
 40
1
 40
1
 10
6.800000
 20
102.879495
 30
0.0
 10
6.304958
 20
103.165308
 30
0.0
 10
5.695042
 20
103.165308
 30
0.0
 10
5.200000
 20
102.879495
 30
0.0
  0
SPLINE
  5
26f
100
AcDbEntity
  8
0
 62
7
100
AcDbSpline
 70
8
 71
3
 72
8
 73
4
 74
0
 40
0
 40
0
 40
0
 40
0
 40
1
 40
1
 40
1
 40
1
 10
5.200000
 20
102.879495
 30
0.0
 10
4.704958
 20
102.593683
 30
0.0
 10
4.400000
 20
102.065480
 30
0.0
 10
4.400000
 20
101.493855
 30
0.0
  0
SPLINE
  5
270
100
AcDbEntity
  8
0
 62
7
100
AcDbSpline
 70
8
 71
3
 72
8
 73
4
 74
0
 40
0
 40
0
 40
0
 40
0
 40
1
 40
1
 40
1
 40
1
 10
4.400000
 20
101.493855
 30
0.0
 10
4.400000
 20
100.922230
 30
0.0
 10
4.704958
 20
100.394026
 30
0.0
 10
5.200000
 20
100.108214
 30
0.0
  0
SPLINE
  5
271
100
AcDbEntity
  8
0
 62
7
100
AcDbSpline
 70
8
 71
3
 72
8
 73
4
 74
0
 40
0
 40
0
 40
0
 40
0
 40
1
 40
1
 40
1
 40
1
 10
5.200000
 20
100.108214
 30
0.0
 10
5.695042
 20
99.822402
 30
0.0
 10
6.304958
 20
99.822402
 30
0.0
 10
6.800000
 20
100.108214
 30
0.0
  0
SPLINE
  5
272
100
AcDbEntity
  8
0
 62
7
100
AcDbSpline
 70
8
 71
3
 72
8
 73
4
 74
0
 40
0
 40
0
 40
0
 40
0
 40
1
 40
1
 40
1
 40
1
 10
6.800000
 20
100.108214
 30
0.0
 10
7.295042
 20
100.394026
 30
0.0
 10
7.600000
 20
100.922230
 30
0.0
 10
7.600000
 20
101.493855
 30
0.0
  0
LWPOLYLINE
  5
273
100
AcDbEntity
  8
0
 62
7
100
AcDbPolyline
 90
1
 70
1
 10
351.600003
 20
41.264666
 30
0.0
  0
SPLINE
  5
274
100
AcDbEntity
  8
0
 62
7
100
AcDbSpline
 70
8
 71
3
 72
8
 73
4
 74
0
 40
0
 40
0
 40
0
 40
0
 40
1
 40
1
 40
1
 40
1
 10
7.600000
 20
71.379260
 30
0.0
 10
7.600000
 20
71.950885
 30
0.0
 10
7.295042
 20
72.479088
 30
0.0
 10
6.800000
 20
72.764901
 30
0.0
  0
SPLINE
  5
275
100
AcDbEntity
  8
0
 62
7
100
AcDbSpline
 70
8
 71
3
 72
8
 73
4
 74
0
 40
0
 40
0
 40
0
 40
0
 40
1
 40
1
 40
1
 40
1
 10
6.800000
 20
72.764901
 30
0.0
 10
6.304958
 20
73.050713
 30
0.0
 10
5.695042
 20
73.050713
 30
0.0
 10
5.200000
 20
72.764901
 30
0.0
  0
SPLINE
  5
276
100
AcDbEntity
  8
0
 62
7
100
AcDbSpline
 70
8
 71
3
 72
8
 73
4
 74
0
 40
0
 40
0
 40
0
 40
0
 40
1
 40
1
 40
1
 40
1
 10
5.200000
 20
72.764901
 30
0.0
 10
4.704958
 20
72.479088
 30
0.0
 10
4.400000
 20
71.950885
 30
0.0
 10
4.400000
 20
71.379260
 30
0.0
  0
SPLINE
  5
277
100
AcDbEntity
  8
0
 62
7
100
AcDbSpline
 70
8
 71
3
 72
8
 73
4
 74
0
 40
0
 40
0
 40
0
 40
0
 40
1
 40
1
 40
1
 40
1
 10
4.400000
 20
71.379260
 30
0.0
 10
4.400000
 20
70.807635
 30
0.0
 10
4.704958
 20
70.279432
 30
0.0
 10
5.200000
 20
69.993619
 30
0.0
  0
SPLINE
  5
278
100
AcDbEntity
  8
0
 62
7
100
AcDbSpline
 70
8
 71
3
 72
8
 73
4
 74
0
 40
0
 40
0
 40
0
 40
0
 40
1
 40
1
 40
1
 40
1
 10
5.200000
 20
69.993619
 30
0.0
 10
5.695042
 20
69.707807
 30
0.0
 10
6.304958
 20
69.707807
 30
0.0
 10
6.800000
 20
69.993619
 30
0.0
  0
SPLINE
  5
279
100
AcDbEntity
  8
0
 62
7
100
AcDbSpline
 70
8
 71
3
 72
8
 73
4
 74
0
 40
0
 40
0
 40
0
 40
0
 40
1
 40
1
 40
1
 40
1
 10
6.800000
 20
69.993619
 30
0.0
 10
7.295042
 20
70.279432
 30
0.0
 10
7.600000
 20
70.807635
 30
0.0
 10
7.600000
 20
71.379260
 30
0.0
  0
LWPOLYLINE
  5
27a
100
AcDbEntity
  8
0
 62
7
100
AcDbPolyline
 90
1
 70
1
 10
7.600000
 20
101.493855
 30
0.0
  0
SPLINE
  5
27b
100
AcDbEntity
  8
0
 62
7
100
AcDbSpline
 70
8
 71
3
 72
8
 73
4
 74
0
 40
0
 40
0
 40
0
 40
0
 40
1
 40
1
 40
1
 40
1
 10
7.600000
 20
41.264666
 30
0.0
 10
7.600000
 20
41.836290
 30
0.0
 10
7.295042
 20
42.364494
 30
0.0
 10
6.800000
 20
42.650306
 30
0.0
  0
SPLINE
  5
27c
100
AcDbEntity
  8
0
 62
7
100
AcDbSpline
 70
8
 71
3
 72
8
 73
4
 74
0
 40
0
 40
0
 40
0
 40
0
 40
1
 40
1
 40
1
 40
1
 10
6.800000
 20
42.650306
 30
0.0
 10
6.304958
 20
42.936119
 30
0.0
 10
5.695042
 20
42.936119
 30
0.0
 10
5.200000
 20
42.650306
 30
0.0
  0
SPLINE
  5
27d
100
AcDbEntity
  8
0
 62
7
100
AcDbSpline
 70
8
 71
3
 72
8
 73
4
 74
0
 40
0
 40
0
 40
0
 40
0
 40
1
 40
1
 40
1
 40
1
 10
5.200000
 20
42.650306
 30
0.0
 10
4.704958
 20
42.364494
 30
0.0
 10
4.400000
 20
41.836290
 30
0.0
 10
4.400000
 20
41.264666
 30
0.0
  0
SPLINE
  5
27e
100
AcDbEntity
  8
0
 62
7
100
AcDbSpline
 70
8
 71
3
 72
8
 73
4
 74
0
 40
0
 40
0
 40
0
 40
0
 40
1
 40
1
 40
1
 40
1
 10
4.400000
 20
41.264666
 30
0.0
 10
4.400000
 20
40.693041
 30
0.0
 10
4.704958
 20
40.164837
 30
0.0
 10
5.200000
 20
39.879025
 30
0.0
  0
SPLINE
  5
27f
100
AcDbEntity
  8
0
 62
7
100
AcDbSpline
 70
8
 71
3
 72
8
 73
4
 74
0
 40
0
 40
0
 40
0
 40
0
 40
1
 40
1
 40
1
 40
1
 10
5.200000
 20
39.879025
 30
0.0
 10
5.695042
 20
39.593212
 30
0.0
 10
6.304958
 20
39.593212
 30
0.0
 10
6.800000
 20
39.879025
 30
0.0
  0
SPLINE
  5
280
100
AcDbEntity
  8
0
 62
7
100
AcDbSpline
 70
8
 71
3
 72
8
 73
4
 74
0
 40
0
 40
0
 40
0
 40
0
 40
1
 40
1
 40
1
 40
1
 10
6.800000
 20
39.879025
 30
0.0
 10
7.295042
 20
40.164837
 30
0.0
 10
7.600000
 20
40.693041
 30
0.0
 10
7.600000
 20
41.264666
 30
0.0
  0
LWPOLYLINE
  5
281
100
AcDbEntity
  8
0
 62
7
100
AcDbPolyline
 90
1
 70
1
 10
7.600000
 20
71.379260
 30
0.0
  0
SPLINE
  5
282
100
AcDbEntity
  8
0
 62
7
100
AcDbSpline
 70
8
 71
3
 72
8
 73
4
 74
0
 40
0
 40
0
 40
0
 40
0
 40
1
 40
1
 40
1
 40
1
 10
62.107000
 20
6.000007
 30
0.0
 10
62.107000
 20
6.571632
 30
0.0
 10
61.802042
 20
7.099835
 30
0.0
 10
61.307000
 20
7.385648
 30
0.0
  0
SPLINE
  5
283
100
AcDbEntity
  8
0
 62
7
100
AcDbSpline
 70
8
 71
3
 72
8
 73
4
 74
0
 40
0
 40
0
 40
0
 40
0
 40
1
 40
1
 40
1
 40
1
 10
61.307000
 20
7.385648
 30
0.0
 10
60.811959
 20
7.671460
 30
0.0
 10
60.202042
 20
7.671460
 30
0.0
 10
59.707000
 20
7.385648
 30
0.0
  0
SPLINE
  5
284
100
AcDbEntity
  8
0
 62
7
100
AcDbSpline
 70
8
 71
3
 72
8
 73
4
 74
0
 40
0
 40
0
 40
0
 40
0
 40
1
 40
1
 40
1
 40
1
 10
59.707000
 20
7.385648
 30
0.0
 10
59.211958
 20
7.099835
 30
0.0
 10
58.907000
 20
6.571632
 30
0.0
 10
58.907000
 20
6.000007
 30
0.0
  0
SPLINE
  5
285
100
AcDbEntity
  8
0
 62
7
100
AcDbSpline
 70
8
 71
3
 72
8
 73
4
 74
0
 40
0
 40
0
 40
0
 40
0
 40
1
 40
1
 40
1
 40
1
 10
58.907000
 20
6.000007
 30
0.0
 10
58.907000
 20
5.428382
 30
0.0
 10
59.211958
 20
4.900178
 30
0.0
 10
59.707000
 20
4.614366
 30
0.0
  0
SPLINE
  5
286
100
AcDbEntity
  8
0
 62
7
100
AcDbSpline
 70
8
 71
3
 72
8
 73
4
 74
0
 40
0
 40
0
 40
0
 40
0
 40
1
 40
1
 40
1
 40
1
 10
59.707000
 20
4.614366
 30
0.0
 10
60.202042
 20
4.328553
 30
0.0
 10
60.811959
 20
4.328553
 30
0.0
 10
61.307000
 20
4.614366
 30
0.0
  0
SPLINE
  5
287
100
AcDbEntity
  8
0
 62
7
100
AcDbSpline
 70
8
 71
3
 72
8
 73
4
 74
0
 40
0
 40
0
 40
0
 40
0
 40
1
 40
1
 40
1
 40
1
 10
61.307000
 20
4.614366
 30
0.0
 10
61.802042
 20
4.900178
 30
0.0
 10
62.107000
 20
5.428382
 30
0.0
 10
62.107000
 20
6.000007
 30
0.0
  0
LWPOLYLINE
  5
288
100
AcDbEntity
  8
0
 62
7
100
AcDbPolyline
 90
1
 70
1
 10
7.600000
 20
41.264666
 30
0.0
  0
SPLINE
  5
289
100
AcDbEntity
  8
0
 62
7
100
AcDbSpline
 70
8
 71
3
 72
8
 73
4
 74
0
 40
0
 40
0
 40
0
 40
0
 40
1
 40
1
 40
1
 40
1
 10
47.408999
 20
174.000001
 30
0.0
 10
47.408999
 20
174.571626
 30
0.0
 10
47.104041
 20
175.099830
 30
0.0
 10
46.608999
 20
175.385642
 30
0.0
  0
SPLINE
  5
28a
100
AcDbEntity
  8
0
 62
7
100
AcDbSpline
 70
8
 71
3
 72
8
 73
4
 74
0
 40
0
 40
0
 40
0
 40
0
 40
1
 40
1
 40
1
 40
1
 10
46.608999
 20
175.385642
 30
0.0
 10
46.113958
 20
175.671455
 30
0.0
 10
45.504041
 20
175.671455
 30
0.0
 10
45.008999
 20
175.385642
 30
0.0
  0
SPLINE
  5
28b
100
AcDbEntity
  8
0
 62
7
100
AcDbSpline
 70
8
 71
3
 72
8
 73
4
 74
0
 40
0
 40
0
 40
0
 40
0
 40
1
 40
1
 40
1
 40
1
 10
45.008999
 20
175.385642
 30
0.0
 10
44.513957
 20
175.099830
 30
0.0
 10
44.208999
 20
174.571626
 30
0.0
 10
44.208999
 20
174.000001
 30
0.0
  0
SPLINE
  5
28c
100
AcDbEntity
  8
0
 62
7
100
AcDbSpline
 70
8
 71
3
 72
8
 73
4
 74
0
 40
0
 40
0
 40
0
 40
0
 40
1
 40
1
 40
1
 40
1
 10
44.208999
 20
174.000001
 30
0.0
 10
44.208999
 20
173.428376
 30
0.0
 10
44.513957
 20
172.900173
 30
0.0
 10
45.008999
 20
172.614361
 30
0.0
  0
SPLINE
  5
28d
100
AcDbEntity
  8
0
 62
7
100
AcDbSpline
 70
8
 71
3
 72
8
 73
4
 74
0
 40
0
 40
0
 40
0
 40
0
 40
1
 40
1
 40
1
 40
1
 10
45.008999
 20
172.614361
 30
0.0
 10
45.504041
 20
172.328548
 30
0.0
 10
46.113958
 20
172.328548
 30
0.0
 10
46.608999
 20
172.614361
 30
0.0
  0
SPLINE
  5
28e
100
AcDbEntity
  8
0
 62
7
100
AcDbSpline
 70
8
 71
3
 72
8
 73
4
 74
0
 40
0
 40
0
 40
0
 40
0
 40
1
 40
1
 40
1
 40
1
 10
46.608999
 20
172.614361
 30
0.0
 10
47.104041
 20
172.900173
 30
0.0
 10
47.408999
 20
173.428376
 30
0.0
 10
47.408999
 20
174.000001
 30
0.0
  0
LWPOLYLINE
  5
28f
100
AcDbEntity
  8
0
 62
7
100
AcDbPolyline
 90
1
 70
1
 10
62.107000
 20
6.000007
 30
0.0
  0
SPLINE
  5
290
100
AcDbEntity
  8
0
 62
7
100
AcDbSpline
 70
8
 71
3
 72
8
 73
4
 74
0
 40
0
 40
0
 40
0
 40
0
 40
1
 40
1
 40
1
 40
1
 10
92.222000
 20
6.000007
 30
0.0
 10
92.222000
 20
6.571632
 30
0.0
 10
91.917042
 20
7.099835
 30
0.0
 10
91.422000
 20
7.385648
 30
0.0
  0
SPLINE
  5
291
100
AcDbEntity
  8
0
 62
7
100
AcDbSpline
 70
8
 71
3
 72
8
 73
4
 74
0
 40
0
 40
0
 40
0
 40
0
 40
1
 40
1
 40
1
 40
1
 10
91.422000
 20
7.385648
 30
0.0
 10
90.926958
 20
7.671460
 30
0.0
 10
90.317041
 20
7.671460
 30
0.0
 10
89.821999
 20
7.385648
 30
0.0
  0
SPLINE
  5
292
100
AcDbEntity
  8
0
 62
7
100
AcDbSpline
 70
8
 71
3
 72
8
 73
4
 74
0
 40
0
 40
0
 40
0
 40
0
 40
1
 40
1
 40
1
 40
1
 10
89.821999
 20
7.385648
 30
0.0
 10
89.326958
 20
7.099835
 30
0.0
 10
89.021999
 20
6.571632
 30
0.0
 10
89.021999
 20
6.000007
 30
0.0
  0
SPLINE
  5
293
100
AcDbEntity
  8
0
 62
7
100
AcDbSpline
 70
8
 71
3
 72
8
 73
4
 74
0
 40
0
 40
0
 40
0
 40
0
 40
1
 40
1
 40
1
 40
1
 10
89.021999
 20
6.000007
 30
0.0
 10
89.021999
 20
5.428382
 30
0.0
 10
89.326958
 20
4.900178
 30
0.0
 10
89.821999
 20
4.614366
 30
0.0
  0
SPLINE
  5
294
100
AcDbEntity
  8
0
 62
7
100
AcDbSpline
 70
8
 71
3
 72
8
 73
4
 74
0
 40
0
 40
0
 40
0
 40
0
 40
1
 40
1
 40
1
 40
1
 10
89.821999
 20
4.614366
 30
0.0
 10
90.317041
 20
4.328553
 30
0.0
 10
90.926958
 20
4.328553
 30
0.0
 10
91.422000
 20
4.614366
 30
0.0
  0
SPLINE
  5
295
100
AcDbEntity
  8
0
 62
7
100
AcDbSpline
 70
8
 71
3
 72
8
 73
4
 74
0
 40
0
 40
0
 40
0
 40
0
 40
1
 40
1
 40
1
 40
1
 10
91.422000
 20
4.614366
 30
0.0
 10
91.917042
 20
4.900178
 30
0.0
 10
92.222000
 20
5.428382
 30
0.0
 10
92.222000
 20
6.000007
 30
0.0
  0
LWPOLYLINE
  5
296
100
AcDbEntity
  8
0
 62
7
100
AcDbPolyline
 90
1
 70
1
 10
47.408999
 20
174.000001
 30
0.0
  0
SPLINE
  5
297
100
AcDbEntity
  8
0
 62
7
100
AcDbSpline
 70
8
 71
3
 72
8
 73
4
 74
0
 40
0
 40
0
 40
0
 40
0
 40
1
 40
1
 40
1
 40
1
 10
122.336999
 20
6.000007
 30
0.0
 10
122.336999
 20
6.571632
 30
0.0
 10
122.032041
 20
7.099835
 30
0.0
 10
121.536999
 20
7.385648
 30
0.0
  0
SPLINE
  5
298
100
AcDbEntity
  8
0
 62
7
100
AcDbSpline
 70
8
 71
3
 72
8
 73
4
 74
0
 40
0
 40
0
 40
0
 40
0
 40
1
 40
1
 40
1
 40
1
 10
121.536999
 20
7.385648
 30
0.0
 10
121.041957
 20
7.671460
 30
0.0
 10
120.432041
 20
7.671460
 30
0.0
 10
119.936999
 20
7.385648
 30
0.0
  0
SPLINE
  5
299
100
AcDbEntity
  8
0
 62
7
100
AcDbSpline
 70
8
 71
3
 72
8
 73
4
 74
0
 40
0
 40
0
 40
0
 40
0
 40
1
 40
1
 40
1
 40
1
 10
119.936999
 20
7.385648
 30
0.0
 10
119.441957
 20
7.099835
 30
0.0
 10
119.136999
 20
6.571632
 30
0.0
 10
119.136999
 20
6.000007
 30
0.0
  0
SPLINE
  5
29a
100
AcDbEntity
  8
0
 62
7
100
AcDbSpline
 70
8
 71
3
 72
8
 73
4
 74
0
 40
0
 40
0
 40
0
 40
0
 40
1
 40
1
 40
1
 40
1
 10
119.136999
 20
6.000007
 30
0.0
 10
119.136999
 20
5.428382
 30
0.0
 10
119.441957
 20
4.900178
 30
0.0
 10
119.936999
 20
4.614366
 30
0.0
  0
SPLINE
  5
29b
100
AcDbEntity
  8
0
 62
7
100
AcDbSpline
 70
8
 71
3
 72
8
 73
4
 74
0
 40
0
 40
0
 40
0
 40
0
 40
1
 40
1
 40
1
 40
1
 10
119.936999
 20
4.614366
 30
0.0
 10
120.432041
 20
4.328553
 30
0.0
 10
121.041957
 20
4.328553
 30
0.0
 10
121.536999
 20
4.614366
 30
0.0
  0
SPLINE
  5
29c
100
AcDbEntity
  8
0
 62
7
100
AcDbSpline
 70
8
 71
3
 72
8
 73
4
 74
0
 40
0
 40
0
 40
0
 40
0
 40
1
 40
1
 40
1
 40
1
 10
121.536999
 20
4.614366
 30
0.0
 10
122.032041
 20
4.900178
 30
0.0
 10
122.336999
 20
5.428382
 30
0.0
 10
122.336999
 20
6.000007
 30
0.0
  0
LWPOLYLINE
  5
29d
100
AcDbEntity
  8
0
 62
7
100
AcDbPolyline
 90
1
 70
1
 10
92.222000
 20
6.000007
 30
0.0
  0
SPLINE
  5
29e
100
AcDbEntity
  8
0
 62
7
100
AcDbSpline
 70
8
 71
3
 72
8
 73
4
 74
0
 40
0
 40
0
 40
0
 40
0
 40
1
 40
1
 40
1
 40
1
 10
179.601000
 20
6.000007
 30
0.0
 10
179.601000
 20
6.571632
 30
0.0
 10
179.296042
 20
7.099835
 30
0.0
 10
178.801000
 20
7.385648
 30
0.0
  0
SPLINE
  5
29f
100
AcDbEntity
  8
0
 62
7
100
AcDbSpline
 70
8
 71
3
 72
8
 73
4
 74
0
 40
0
 40
0
 40
0
 40
0
 40
1
 40
1
 40
1
 40
1
 10
178.801000
 20
7.385648
 30
0.0
 10
178.305958
 20
7.671460
 30
0.0
 10
177.696042
 20
7.671460
 30
0.0
 10
177.201000
 20
7.385648
 30
0.0
  0
SPLINE
  5
2a0
100
AcDbEntity
  8
0
 62
7
100
AcDbSpline
 70
8
 71
3
 72
8
 73
4
 74
0
 40
0
 40
0
 40
0
 40
0
 40
1
 40
1
 40
1
 40
1
 10
177.201000
 20
7.385648
 30
0.0
 10
176.705958
 20
7.099835
 30
0.0
 10
176.401000
 20
6.571632
 30
0.0
 10
176.401000
 20
6.000007
 30
0.0
  0
SPLINE
  5
2a1
100
AcDbEntity
  8
0
 62
7
100
AcDbSpline
 70
8
 71
3
 72
8
 73
4
 74
0
 40
0
 40
0
 40
0
 40
0
 40
1
 40
1
 40
1
 40
1
 10
176.401000
 20
6.000007
 30
0.0
 10
176.401000
 20
5.428382
 30
0.0
 10
176.705958
 20
4.900178
 30
0.0
 10
177.201000
 20
4.614366
 30
0.0
  0
SPLINE
  5
2a2
100
AcDbEntity
  8
0
 62
7
100
AcDbSpline
 70
8
 71
3
 72
8
 73
4
 74
0
 40
0
 40
0
 40
0
 40
0
 40
1
 40
1
 40
1
 40
1
 10
177.201000
 20
4.614366
 30
0.0
 10
177.696042
 20
4.328553
 30
0.0
 10
178.305958
 20
4.328553
 30
0.0
 10
178.801000
 20
4.614366
 30
0.0
  0
SPLINE
  5
2a3
100
AcDbEntity
  8
0
 62
7
100
AcDbSpline
 70
8
 71
3
 72
8
 73
4
 74
0
 40
0
 40
0
 40
0
 40
0
 40
1
 40
1
 40
1
 40
1
 10
178.801000
 20
4.614366
 30
0.0
 10
179.296042
 20
4.900178
 30
0.0
 10
179.601000
 20
5.428382
 30
0.0
 10
179.601000
 20
6.000007
 30
0.0
  0
LWPOLYLINE
  5
2a4
100
AcDbEntity
  8
0
 62
7
100
AcDbPolyline
 90
1
 70
1
 10
122.336999
 20
6.000007
 30
0.0
  0
SPLINE
  5
2a5
100
AcDbEntity
  8
0
 62
7
100
AcDbSpline
 70
8
 71
3
 72
8
 73
4
 74
0
 40
0
 40
0
 40
0
 40
0
 40
1
 40
1
 40
1
 40
1
 10
236.864999
 20
6.000007
 30
0.0
 10
236.865657
 20
6.572070
 30
0.0
 10
236.560842
 20
7.100959
 30
0.0
 10
236.065531
 20
7.387181
 30
0.0
  0
SPLINE
  5
2a6
100
AcDbEntity
  8
0
 62
7
100
AcDbSpline
 70
8
 71
3
 72
8
 73
4
 74
0
 40
0
 40
0
 40
0
 40
0
 40
1
 40
1
 40
1
 40
1
 10
236.065531
 20
7.387181
 30
0.0
 10
235.570219
 20
7.673402
 30
0.0
 10
234.959780
 20
7.673402
 30
0.0
 10
234.464469
 20
7.387181
 30
0.0
  0
SPLINE
  5
2a7
100
AcDbEntity
  8
0
 62
7
100
AcDbSpline
 70
8
 71
3
 72
8
 73
4
 74
0
 40
0
 40
0
 40
0
 40
0
 40
1
 40
1
 40
1
 40
1
 10
234.464469
 20
7.387181
 30
0.0
 10
233.969157
 20
7.100959
 30
0.0
 10
233.664343
 20
6.572070
 30
0.0
 10
233.665001
 20
6.000007
 30
0.0
  0
SPLINE
  5
2a8
100
AcDbEntity
  8
0
 62
7
100
AcDbSpline
 70
8
 71
3
 72
8
 73
4
 74
0
 40
0
 40
0
 40
0
 40
0
 40
1
 40
1
 40
1
 40
1
 10
233.665001
 20
6.000007
 30
0.0
 10
233.664343
 20
5.427944
 30
0.0
 10
233.969157
 20
4.899054
 30
0.0
 10
234.464469
 20
4.612833
 30
0.0
  0
SPLINE
  5
2a9
100
AcDbEntity
  8
0
 62
7
100
AcDbSpline
 70
8
 71
3
 72
8
 73
4
 74
0
 40
0
 40
0
 40
0
 40
0
 40
1
 40
1
 40
1
 40
1
 10
234.464469
 20
4.612833
 30
0.0
 10
234.959780
 20
4.326611
 30
0.0
 10
235.570219
 20
4.326611
 30
0.0
 10
236.065531
 20
4.612833
 30
0.0
  0
SPLINE
  5
2aa
100
AcDbEntity
  8
0
 62
7
100
AcDbSpline
 70
8
 71
3
 72
8
 73
4
 74
0
 40
0
 40
0
 40
0
 40
0
 40
1
 40
1
 40
1
 40
1
 10
236.065531
 20
4.612833
 30
0.0
 10
236.560842
 20
4.899054
 30
0.0
 10
236.865657
 20
5.427944
 30
0.0
 10
236.864999
 20
6.000007
 30
0.0
  0
LWPOLYLINE
  5
2ab
100
AcDbEntity
  8
0
 62
7
100
AcDbPolyline
 90
1
 70
1
 10
179.601000
 20
6.000007
 30
0.0
  0
SPLINE
  5
2ac
100
AcDbEntity
  8
0
 62
7
100
AcDbSpline
 70
8
 71
3
 72
8
 73
4
 74
0
 40
0
 40
0
 40
0
 40
0
 40
1
 40
1
 40
1
 40
1
 10
266.980009
 20
6.000007
 30
0.0
 10
266.980009
 20
6.571633
 30
0.0
 10
266.675049
 20
7.099838
 30
0.0
 10
266.180006
 20
7.385651
 30
0.0
  0
SPLINE
  5
2ad
100
AcDbEntity
  8
0
 62
7
100
AcDbSpline
 70
8
 71
3
 72
8
 73
4
 74
0
 40
0
 40
0
 40
0
 40
0
 40
1
 40
1
 40
1
 40
1
 10
266.180006
 20
7.385651
 30
0.0
 10
265.684963
 20
7.671464
 30
0.0
 10
265.075045
 20
7.671464
 30
0.0
 10
264.580002
 20
7.385651
 30
0.0
  0
SPLINE
  5
2ae
100
AcDbEntity
  8
0
 62
7
100
AcDbSpline
 70
8
 71
3
 72
8
 73
4
 74
0
 40
0
 40
0
 40
0
 40
0
 40
1
 40
1
 40
1
 40
1
 10
264.580002
 20
7.385651
 30
0.0
 10
264.084959
 20
7.099838
 30
0.0
 10
263.780000
 20
6.571633
 30
0.0
 10
263.780000
 20
6.000007
 30
0.0
  0
SPLINE
  5
2af
100
AcDbEntity
  8
0
 62
7
100
AcDbSpline
 70
8
 71
3
 72
8
 73
4
 74
0
 40
0
 40
0
 40
0
 40
0
 40
1
 40
1
 40
1
 40
1
 10
263.780000
 20
6.000007
 30
0.0
 10
263.780000
 20
5.428380
 30
0.0
 10
264.084959
 20
4.900176
 30
0.0
 10
264.580002
 20
4.614362
 30
0.0
  0
SPLINE
  5
2b0
100
AcDbEntity
  8
0
 62
7
100
AcDbSpline
 70
8
 71
3
 72
8
 73
4
 74
0
 40
0
 40
0
 40
0
 40
0
 40
1
 40
1
 40
1
 40
1
 10
264.580002
 20
4.614362
 30
0.0
 10
265.075045
 20
4.328549
 30
0.0
 10
265.684963
 20
4.328549
 30
0.0
 10
266.180006
 20
4.614362
 30
0.0
  0
SPLINE
  5
2b1
100
AcDbEntity
  8
0
 62
7
100
AcDbSpline
 70
8
 71
3
 72
8
 73
4
 74
0
 40
0
 40
0
 40
0
 40
0
 40
1
 40
1
 40
1
 40
1
 10
266.180006
 20
4.614362
 30
0.0
 10
266.675049
 20
4.900176
 30
0.0
 10
266.980009
 20
5.428380
 30
0.0
 10
266.980009
 20
6.000007
 30
0.0
  0
LWPOLYLINE
  5
2b2
100
AcDbEntity
  8
0
 62
7
100
AcDbPolyline
 90
1
 70
1
 10
236.864999
 20
6.000007
 30
0.0
  0
SPLINE
  5
2b3
100
AcDbEntity
  8
0
 62
7
100
AcDbSpline
 70
8
 71
3
 72
8
 73
4
 74
0
 40
0
 40
0
 40
0
 40
0
 40
1
 40
1
 40
1
 40
1
 10
297.094989
 20
6.000007
 30
0.0
 10
297.097176
 20
6.573081
 30
0.0
 10
296.792698
 20
7.103562
 30
0.0
 10
296.296762
 20
7.390732
 30
0.0
  0
SPLINE
  5
2b4
100
AcDbEntity
  8
0
 62
7
100
AcDbSpline
 70
8
 71
3
 72
8
 73
4
 74
0
 40
0
 40
0
 40
0
 40
0
 40
1
 40
1
 40
1
 40
1
 10
296.296762
 20
7.390732
 30
0.0
 10
295.800826
 20
7.677903
 30
0.0
 10
295.189176
 20
7.677903
 30
0.0
 10
294.693240
 20
7.390732
 30
0.0
  0
SPLINE
  5
2b5
100
AcDbEntity
  8
0
 62
7
100
AcDbSpline
 70
8
 71
3
 72
8
 73
4
 74
0
 40
0
 40
0
 40
0
 40
0
 40
1
 40
1
 40
1
 40
1
 10
294.693240
 20
7.390732
 30
0.0
 10
294.197304
 20
7.103562
 30
0.0
 10
293.892827
 20
6.573081
 30
0.0
 10
293.895013
 20
6.000007
 30
0.0
  0
SPLINE
  5
2b6
100
AcDbEntity
  8
0
 62
7
100
AcDbSpline
 70
8
 71
3
 72
8
 73
4
 74
0
 40
0
 40
0
 40
0
 40
0
 40
1
 40
1
 40
1
 40
1
 10
293.895013
 20
6.000007
 30
0.0
 10
293.892827
 20
5.426932
 30
0.0
 10
294.197304
 20
4.896451
 30
0.0
 10
294.693240
 20
4.609281
 30
0.0
  0
SPLINE
  5
2b7
100
AcDbEntity
  8
0
 62
7
100
AcDbSpline
 70
8
 71
3
 72
8
 73
4
 74
0
 40
0
 40
0
 40
0
 40
0
 40
1
 40
1
 40
1
 40
1
 10
294.693240
 20
4.609281
 30
0.0
 10
295.189176
 20
4.322111
 30
0.0
 10
295.800826
 20
4.322111
 30
0.0
 10
296.296762
 20
4.609281
 30
0.0
  0
SPLINE
  5
2b8
100
AcDbEntity
  8
0
 62
7
100
AcDbSpline
 70
8
 71
3
 72
8
 73
4
 74
0
 40
0
 40
0
 40
0
 40
0
 40
1
 40
1
 40
1
 40
1
 10
296.296762
 20
4.609281
 30
0.0
 10
296.792698
 20
4.896451
 30
0.0
 10
297.097176
 20
5.426932
 30
0.0
 10
297.094989
 20
6.000007
 30
0.0
  0
LWPOLYLINE
  5
2b9
100
AcDbEntity
  8
0
 62
7
100
AcDbPolyline
 90
1
 70
1
 10
266.980009
 20
6.000007
 30
0.0
  0
SPLINE
  5
2ba
100
AcDbEntity
  8
0
 62
7
100
AcDbSpline
 70
8
 71
3
 72
8
 73
4
 74
0
 40
0
 40
0
 40
0
 40
0
 40
1
 40
1
 40
1
 40
1
 10
77.523999
 20
174.000001
 30
0.0
 10
77.524657
 20
174.572064
 30
0.0
 10
77.219843
 20
175.100954
 30
0.0
 10
76.724531
 20
175.387176
 30
0.0
  0
SPLINE
  5
2bb
100
AcDbEntity
  8
0
 62
7
100
AcDbSpline
 70
8
 71
3
 72
8
 73
4
 74
0
 40
0
 40
0
 40
0
 40
0
 40
1
 40
1
 40
1
 40
1
 10
76.724531
 20
175.387176
 30
0.0
 10
76.229219
 20
175.673397
 30
0.0
 10
75.618780
 20
175.673397
 30
0.0
 10
75.123469
 20
175.387176
 30
0.0
  0
SPLINE
  5
2bc
100
AcDbEntity
  8
0
 62
7
100
AcDbSpline
 70
8
 71
3
 72
8
 73
4
 74
0
 40
0
 40
0
 40
0
 40
0
 40
1
 40
1
 40
1
 40
1
 10
75.123469
 20
175.387176
 30
0.0
 10
74.628157
 20
175.100954
 30
0.0
 10
74.323343
 20
174.572064
 30
0.0
 10
74.324001
 20
174.000001
 30
0.0
  0
SPLINE
  5
2bd
100
AcDbEntity
  8
0
 62
7
100
AcDbSpline
 70
8
 71
3
 72
8
 73
4
 74
0
 40
0
 40
0
 40
0
 40
0
 40
1
 40
1
 40
1
 40
1
 10
74.324001
 20
174.000001
 30
0.0
 10
74.323343
 20
173.427939
 30
0.0
 10
74.628157
 20
172.899049
 30
0.0
 10
75.123469
 20
172.612827
 30
0.0
  0
SPLINE
  5
2be
100
AcDbEntity
  8
0
 62
7
100
AcDbSpline
 70
8
 71
3
 72
8
 73
4
 74
0
 40
0
 40
0
 40
0
 40
0
 40
1
 40
1
 40
1
 40
1
 10
75.123469
 20
172.612827
 30
0.0
 10
75.618780
 20
172.326606
 30
0.0
 10
76.229219
 20
172.326606
 30
0.0
 10
76.724531
 20
172.612827
 30
0.0
  0
SPLINE
  5
2bf
100
AcDbEntity
  8
0
 62
7
100
AcDbSpline
 70
8
 71
3
 72
8
 73
4
 74
0
 40
0
 40
0
 40
0
 40
0
 40
1
 40
1
 40
1
 40
1
 10
76.724531
 20
172.612827
 30
0.0
 10
77.219843
 20
172.899049
 30
0.0
 10
77.524657
 20
173.427939
 30
0.0
 10
77.523999
 20
174.000001
 30
0.0
  0
LWPOLYLINE
  5
2c0
100
AcDbEntity
  8
0
 62
7
100
AcDbPolyline
 90
1
 70
1
 10
297.094989
 20
6.000007
 30
0.0
  0
SPLINE
  5
2c1
100
AcDbEntity
  8
0
 62
7
100
AcDbSpline
 70
8
 71
3
 72
8
 73
4
 74
0
 40
0
 40
0
 40
0
 40
0
 40
1
 40
1
 40
1
 40
1
 10
107.639001
 20
174.000001
 30
0.0
 10
107.639001
 20
174.571626
 30
0.0
 10
107.334042
 20
175.099830
 30
0.0
 10
106.839001
 20
175.385642
 30
0.0
  0
SPLINE
  5
2c2
100
AcDbEntity
  8
0
 62
7
100
AcDbSpline
 70
8
 71
3
 72
8
 73
4
 74
0
 40
0
 40
0
 40
0
 40
0
 40
1
 40
1
 40
1
 40
1
 10
106.839001
 20
175.385642
 30
0.0
 10
106.343959
 20
175.671455
 30
0.0
 10
105.734042
 20
175.671455
 30
0.0
 10
105.239000
 20
175.385642
 30
0.0
  0
SPLINE
  5
2c3
100
AcDbEntity
  8
0
 62
7
100
AcDbSpline
 70
8
 71
3
 72
8
 73
4
 74
0
 40
0
 40
0
 40
0
 40
0
 40
1
 40
1
 40
1
 40
1
 10
105.239000
 20
175.385642
 30
0.0
 10
104.743959
 20
175.099830
 30
0.0
 10
104.439000
 20
174.571626
 30
0.0
 10
104.439000
 20
174.000001
 30
0.0
  0
SPLINE
  5
2c4
100
AcDbEntity
  8
0
 62
7
100
AcDbSpline
 70
8
 71
3
 72
8
 73
4
 74
0
 40
0
 40
0
 40
0
 40
0
 40
1
 40
1
 40
1
 40
1
 10
104.439000
 20
174.000001
 30
0.0
 10
104.439000
 20
173.428376
 30
0.0
 10
104.743959
 20
172.900173
 30
0.0
 10
105.239000
 20
172.614361
 30
0.0
  0
SPLINE
  5
2c5
100
AcDbEntity
  8
0
 62
7
100
AcDbSpline
 70
8
 71
3
 72
8
 73
4
 74
0
 40
0
 40
0
 40
0
 40
0
 40
1
 40
1
 40
1
 40
1
 10
105.239000
 20
172.614361
 30
0.0
 10
105.734042
 20
172.328548
 30
0.0
 10
106.343959
 20
172.328548
 30
0.0
 10
106.839001
 20
172.614361
 30
0.0
  0
SPLINE
  5
2c6
100
AcDbEntity
  8
0
 62
7
100
AcDbSpline
 70
8
 71
3
 72
8
 73
4
 74
0
 40
0
 40
0
 40
0
 40
0
 40
1
 40
1
 40
1
 40
1
 10
106.839001
 20
172.614361
 30
0.0
 10
107.334042
 20
172.900173
 30
0.0
 10
107.639001
 20
173.428376
 30
0.0
 10
107.639001
 20
174.000001
 30
0.0
  0
LWPOLYLINE
  5
2c7
100
AcDbEntity
  8
0
 62
7
100
AcDbPolyline
 90
1
 70
1
 10
77.523999
 20
174.000001
 30
0.0
  0
SPLINE
  5
2c8
100
AcDbEntity
  8
0
 62
7
100
AcDbSpline
 70
8
 71
3
 72
8
 73
4
 74
0
 40
0
 40
0
 40
0
 40
0
 40
1
 40
1
 40
1
 40
1
 10
179.601000
 20
174.000001
 30
0.0
 10
179.601000
 20
174.571626
 30
0.0
 10
179.296042
 20
175.099830
 30
0.0
 10
178.801000
 20
175.385642
 30
0.0
  0
SPLINE
  5
2c9
100
AcDbEntity
  8
0
 62
7
100
AcDbSpline
 70
8
 71
3
 72
8
 73
4
 74
0
 40
0
 40
0
 40
0
 40
0
 40
1
 40
1
 40
1
 40
1
 10
178.801000
 20
175.385642
 30
0.0
 10
178.305958
 20
175.671455
 30
0.0
 10
177.696042
 20
175.671455
 30
0.0
 10
177.201000
 20
175.385642
 30
0.0
  0
SPLINE
  5
2ca
100
AcDbEntity
  8
0
 62
7
100
AcDbSpline
 70
8
 71
3
 72
8
 73
4
 74
0
 40
0
 40
0
 40
0
 40
0
 40
1
 40
1
 40
1
 40
1
 10
177.201000
 20
175.385642
 30
0.0
 10
176.705958
 20
175.099830
 30
0.0
 10
176.401000
 20
174.571626
 30
0.0
 10
176.401000
 20
174.000001
 30
0.0
  0
SPLINE
  5
2cb
100
AcDbEntity
  8
0
 62
7
100
AcDbSpline
 70
8
 71
3
 72
8
 73
4
 74
0
 40
0
 40
0
 40
0
 40
0
 40
1
 40
1
 40
1
 40
1
 10
176.401000
 20
174.000001
 30
0.0
 10
176.401000
 20
173.428376
 30
0.0
 10
176.705958
 20
172.900173
 30
0.0
 10
177.201000
 20
172.614361
 30
0.0
  0
SPLINE
  5
2cc
100
AcDbEntity
  8
0
 62
7
100
AcDbSpline
 70
8
 71
3
 72
8
 73
4
 74
0
 40
0
 40
0
 40
0
 40
0
 40
1
 40
1
 40
1
 40
1
 10
177.201000
 20
172.614361
 30
0.0
 10
177.696042
 20
172.328548
 30
0.0
 10
178.305958
 20
172.328548
 30
0.0
 10
178.801000
 20
172.614361
 30
0.0
  0
SPLINE
  5
2cd
100
AcDbEntity
  8
0
 62
7
100
AcDbSpline
 70
8
 71
3
 72
8
 73
4
 74
0
 40
0
 40
0
 40
0
 40
0
 40
1
 40
1
 40
1
 40
1
 10
178.801000
 20
172.614361
 30
0.0
 10
179.296042
 20
172.900173
 30
0.0
 10
179.601000
 20
173.428376
 30
0.0
 10
179.601000
 20
174.000001
 30
0.0
  0
LWPOLYLINE
  5
2ce
100
AcDbEntity
  8
0
 62
7
100
AcDbPolyline
 90
1
 70
1
 10
107.639001
 20
174.000001
 30
0.0
  0
SPLINE
  5
2cf
100
AcDbEntity
  8
0
 62
7
100
AcDbSpline
 70
8
 71
3
 72
8
 73
4
 74
0
 40
0
 40
0
 40
0
 40
0
 40
1
 40
1
 40
1
 40
1
 10
251.563000
 20
174.000001
 30
0.0
 10
251.563000
 20
174.571627
 30
0.0
 10
251.258041
 20
175.099830
 30
0.0
 10
250.763000
 20
175.385642
 30
0.0
  0
SPLINE
  5
2d0
100
AcDbEntity
  8
0
 62
7
100
AcDbSpline
 70
8
 71
3
 72
8
 73
4
 74
0
 40
0
 40
0
 40
0
 40
0
 40
1
 40
1
 40
1
 40
1
 10
250.763000
 20
175.385642
 30
0.0
 10
250.267958
 20
175.671455
 30
0.0
 10
249.658041
 20
175.671455
 30
0.0
 10
249.162999
 20
175.385642
 30
0.0
  0
SPLINE
  5
2d1
100
AcDbEntity
  8
0
 62
7
100
AcDbSpline
 70
8
 71
3
 72
8
 73
4
 74
0
 40
0
 40
0
 40
0
 40
0
 40
1
 40
1
 40
1
 40
1
 10
249.162999
 20
175.385642
 30
0.0
 10
248.667957
 20
175.099830
 30
0.0
 10
248.362999
 20
174.571627
 30
0.0
 10
248.362999
 20
174.000001
 30
0.0
  0
SPLINE
  5
2d2
100
AcDbEntity
  8
0
 62
7
100
AcDbSpline
 70
8
 71
3
 72
8
 73
4
 74
0
 40
0
 40
0
 40
0
 40
0
 40
1
 40
1
 40
1
 40
1
 10
248.362999
 20
174.000001
 30
0.0
 10
248.362999
 20
173.428376
 30
0.0
 10
248.667957
 20
172.900173
 30
0.0
 10
249.162999
 20
172.614360
 30
0.0
  0
SPLINE
  5
2d3
100
AcDbEntity
  8
0
 62
7
100
AcDbSpline
 70
8
 71
3
 72
8
 73
4
 74
0
 40
0
 40
0
 40
0
 40
0
 40
1
 40
1
 40
1
 40
1
 10
249.162999
 20
172.614360
 30
0.0
 10
249.658041
 20
172.328548
 30
0.0
 10
250.267958
 20
172.328548
 30
0.0
 10
250.763000
 20
172.614360
 30
0.0
  0
SPLINE
  5
2d4
100
AcDbEntity
  8
0
 62
7
100
AcDbSpline
 70
8
 71
3
 72
8
 73
4
 74
0
 40
0
 40
0
 40
0
 40
0
 40
1
 40
1
 40
1
 40
1
 10
250.763000
 20
172.614360
 30
0.0
 10
251.258041
 20
172.900173
 30
0.0
 10
251.563000
 20
173.428376
 30
0.0
 10
251.563000
 20
174.000001
 30
0.0
  0
LWPOLYLINE
  5
2d5
100
AcDbEntity
  8
0
 62
7
100
AcDbPolyline
 90
1
 70
1
 10
179.601000
 20
174.000001
 30
0.0
  0
SPLINE
  5
2d6
100
AcDbEntity
  8
0
 62
7
100
AcDbSpline
 70
8
 71
3
 72
8
 73
4
 74
0
 40
0
 40
0
 40
0
 40
0
 40
1
 40
1
 40
1
 40
1
 10
281.678010
 20
174.000001
 30
0.0
 10
281.678010
 20
174.571627
 30
0.0
 10
281.373051
 20
175.099831
 30
0.0
 10
280.878009
 20
175.385644
 30
0.0
  0
SPLINE
  5
2d7
100
AcDbEntity
  8
0
 62
7
100
AcDbSpline
 70
8
 71
3
 72
8
 73
4
 74
0
 40
0
 40
0
 40
0
 40
0
 40
1
 40
1
 40
1
 40
1
 10
280.878009
 20
175.385644
 30
0.0
 10
280.382967
 20
175.671456
 30
0.0
 10
279.773049
 20
175.671456
 30
0.0
 10
279.278007
 20
175.385644
 30
0.0
  0
SPLINE
  5
2d8
100
AcDbEntity
  8
0
 62
7
100
AcDbSpline
 70
8
 71
3
 72
8
 73
4
 74
0
 40
0
 40
0
 40
0
 40
0
 40
1
 40
1
 40
1
 40
1
 10
279.278007
 20
175.385644
 30
0.0
 10
278.782965
 20
175.099831
 30
0.0
 10
278.478006
 20
174.571627
 30
0.0
 10
278.478006
 20
174.000001
 30
0.0
  0
SPLINE
  5
2d9
100
AcDbEntity
  8
0
 62
7
100
AcDbSpline
 70
8
 71
3
 72
8
 73
4
 74
0
 40
0
 40
0
 40
0
 40
0
 40
1
 40
1
 40
1
 40
1
 10
278.478006
 20
174.000001
 30
0.0
 10
278.478006
 20
173.428376
 30
0.0
 10
278.782965
 20
172.900172
 30
0.0
 10
279.278007
 20
172.614359
 30
0.0
  0
SPLINE
  5
2da
100
AcDbEntity
  8
0
 62
7
100
AcDbSpline
 70
8
 71
3
 72
8
 73
4
 74
0
 40
0
 40
0
 40
0
 40
0
 40
1
 40
1
 40
1
 40
1
 10
279.278007
 20
172.614359
 30
0.0
 10
279.773049
 20
172.328547
 30
0.0
 10
280.382967
 20
172.328547
 30
0.0
 10
280.878009
 20
172.614359
 30
0.0
  0
SPLINE
  5
2db
100
AcDbEntity
  8
0
 62
7
100
AcDbSpline
 70
8
 71
3
 72
8
 73
4
 74
0
 40
0
 40
0
 40
0
 40
0
 40
1
 40
1
 40
1
 40
1
 10
280.878009
 20
172.614359
 30
0.0
 10
281.373051
 20
172.900172
 30
0.0
 10
281.678010
 20
173.428376
 30
0.0
 10
281.678010
 20
174.000001
 30
0.0
  0
LWPOLYLINE
  5
2dc
100
AcDbEntity
  8
0
 62
7
100
AcDbPolyline
 90
1
 70
1
 10
251.563000
 20
174.000001
 30
0.0
  0
SPLINE
  5
2dd
100
AcDbEntity
  8
0
 62
7
100
AcDbSpline
 70
8
 71
3
 72
8
 73
4
 74
0
 40
0
 40
0
 40
0
 40
0
 40
1
 40
1
 40
1
 40
1
 10
311.792990
 20
174.000001
 30
0.0
 10
311.792991
 20
174.571627
 30
0.0
 10
311.488032
 20
175.099831
 30
0.0
 10
310.992990
 20
175.385644
 30
0.0
  0
SPLINE
  5
2de
100
AcDbEntity
  8
0
 62
7
100
AcDbSpline
 70
8
 71
3
 72
8
 73
4
 74
0
 40
0
 40
0
 40
0
 40
0
 40
1
 40
1
 40
1
 40
1
 10
310.992990
 20
175.385644
 30
0.0
 10
310.497947
 20
175.671456
 30
0.0
 10
309.888030
 20
175.671456
 30
0.0
 10
309.392988
 20
175.385644
 30
0.0
  0
SPLINE
  5
2df
100
AcDbEntity
  8
0
 62
7
100
AcDbSpline
 70
8
 71
3
 72
8
 73
4
 74
0
 40
0
 40
0
 40
0
 40
0
 40
1
 40
1
 40
1
 40
1
 10
309.392988
 20
175.385644
 30
0.0
 10
308.897946
 20
175.099831
 30
0.0
 10
308.592987
 20
174.571627
 30
0.0
 10
308.592987
 20
174.000001
 30
0.0
  0
SPLINE
  5
2e0
100
AcDbEntity
  8
0
 62
7
100
AcDbSpline
 70
8
 71
3
 72
8
 73
4
 74
0
 40
0
 40
0
 40
0
 40
0
 40
1
 40
1
 40
1
 40
1
 10
308.592987
 20
174.000001
 30
0.0
 10
308.592987
 20
173.428376
 30
0.0
 10
308.897946
 20
172.900172
 30
0.0
 10
309.392988
 20
172.614359
 30
0.0
  0
SPLINE
  5
2e1
100
AcDbEntity
  8
0
 62
7
100
AcDbSpline
 70
8
 71
3
 72
8
 73
4
 74
0
 40
0
 40
0
 40
0
 40
0
 40
1
 40
1
 40
1
 40
1
 10
309.392988
 20
172.614359
 30
0.0
 10
309.888030
 20
172.328547
 30
0.0
 10
310.497947
 20
172.328547
 30
0.0
 10
310.992990
 20
172.614359
 30
0.0
  0
SPLINE
  5
2e2
100
AcDbEntity
  8
0
 62
7
100
AcDbSpline
 70
8
 71
3
 72
8
 73
4
 74
0
 40
0
 40
0
 40
0
 40
0
 40
1
 40
1
 40
1
 40
1
 10
310.992990
 20
172.614359
 30
0.0
 10
311.488032
 20
172.900172
 30
0.0
 10
311.792990
 20
173.428376
 30
0.0
 10
311.792990
 20
174.000001
 30
0.0
  0
LWPOLYLINE
  5
2e3
100
AcDbEntity
  8
0
 62
7
100
AcDbPolyline
 90
1
 70
1
 10
281.678010
 20
174.000001
 30
0.0
  0
LWPOLYLINE
  5
2e4
100
AcDbEntity
  8
0
 62
7
100
AcDbPolyline
 90
1
 70
1
 10
311.792990
 20
174.000001
 30
0.0
  0
ENDSEC
  0
SECTION
  2
OBJECTS
  0
DICTIONARY
  5
C
330
0
100
AcDbDictionary
  3
ACAD_GROUP
350
D
  3
ACAD_MLINESTYLE
350
17
  0
DICTIONARY
  5
D
330
C
100
AcDbDictionary
  0
DICTIONARY
  5
1A
330
C
100
AcDbDictionary
  0
DICTIONARY
  5
17
330
C
100
AcDbDictionary
  3
STANDARD
350
18
  0
DICTIONARY
  5
19
330
C
100
AcDbDictionary
  0
ENDSEC
  0
EOF
